<svg width="35" height="18" viewBox="0 0 35 18" fill="none" xmlns="http://www.w3.org/2000/svg">
<path d="M32.6654 8.52C32.4863 8.81967 32.3766 9.15567 32.3445 9.5033C32.283 9.93105 32.181 10.352 32.0398 10.7604C31.8275 11.3398 31.4592 11.8492 30.9755 12.2324C30.4035 10.726 29.5725 9.3311 28.5202 8.11078C29.1054 7.89127 29.7388 7.83281 30.3543 7.9415C30.7902 8.02249 31.2171 8.14574 31.6291 8.3095C31.9536 8.45322 32.3045 8.52791 32.6595 8.52883L32.6654 8.52Z" fill="#E0156D"/>
<path d="M26.2636 2.2875C26.2608 2.63764 26.3357 2.98404 26.483 3.30171C26.6508 3.69993 26.7776 4.11424 26.8613 4.5382C26.972 5.13984 26.9119 5.76049 26.6876 6.32964C25.4199 5.29896 23.9864 4.49111 22.4482 3.94057C22.8464 3.46247 23.3683 3.10297 23.957 2.90133C24.3773 2.75997 24.8108 2.66134 25.2509 2.60692C25.6042 2.5716 25.9464 2.46387 26.2563 2.29044L26.2636 2.2875Z" fill="#E0156D"/>
<path d="M31.6483 14.6539C32.2598 14.7447 32.8356 14.9989 33.3146 15.3899C33.6577 15.6787 33.9699 16.0023 34.2464 16.3555C34.4453 16.6381 34.7022 16.875 35 17.0503H31.8514C31.8539 16.2471 31.786 15.4452 31.6483 14.6539Z" fill="#E0156D"/>
<path d="M8.74668 2.2875C9.05753 2.46226 9.4015 2.57006 9.75648 2.60398C10.1966 2.65839 10.6301 2.75702 11.0504 2.89838C11.639 3.10003 12.161 3.45952 12.5592 3.93762C11.0198 4.48892 9.58528 5.29777 8.31686 6.32964C8.09006 5.7611 8.02981 5.13973 8.14316 4.5382C8.22589 4.11369 8.35217 3.69885 8.52 3.30024C8.67028 2.98471 8.74918 2.63993 8.7511 2.29044L8.74668 2.2875Z" fill="#E0156D"/>
<path d="M2.34198 8.52C2.69713 8.51944 3.04819 8.44421 3.37239 8.2992C3.78389 8.13592 4.21034 8.01316 4.64568 7.93267C5.26205 7.82049 5.89728 7.87695 6.48422 8.09606C5.43437 9.31711 4.60548 10.7119 4.03479 12.2177C3.55112 11.8348 3.18321 11.3253 2.972 10.7457C2.82881 10.337 2.72529 9.91558 2.66288 9.48711C2.63002 9.13917 2.52042 8.80284 2.34198 8.50233V8.52Z" fill="#E0156D"/>
<path d="M0 17.0474C0.306353 16.8737 0.572286 16.6368 0.780166 16.3526C1.05184 16.009 1.35762 15.6939 1.69281 15.412C2.17222 15.0217 2.74775 14.7674 3.35913 14.6759C3.22187 15.4629 3.15341 16.2603 3.15452 17.0591L0 17.0474Z" fill="#E0156D"/>
<path d="M17.5022 0C17.6826 0.302511 17.9255 0.562986 18.2147 0.763974C18.5733 1.02269 18.9034 1.31876 19.1994 1.64718C19.602 2.11769 19.8637 2.69216 19.9546 3.30466C18.3318 3.03529 16.6756 3.03529 15.0528 3.30466C15.1514 2.6971 15.4187 2.12944 15.8241 1.66632C16.1143 1.339 16.4379 1.04298 16.7898 0.78311C17.0812 0.576811 17.3243 0.309601 17.5022 0V0Z" fill="#E0156D"/>
<path d="M14.5862 17.0753H15.6681C15.8153 16.1921 15.5327 15.5003 14.6097 15.6622C13.8281 15.802 12.9905 16.5542 12.4856 17.0753H13.9105C14.0695 16.9767 14.383 16.8589 14.5096 16.9472C14.5319 16.9607 14.5505 16.9794 14.5638 17.0017C14.5772 17.0241 14.5848 17.0493 14.5862 17.0753Z" fill="#00AB9C"/>
<path d="M19.4761 17.0753H20.826C20.9222 15.5033 20.6002 13.9339 19.8927 12.5268C19.581 11.9061 19.1236 11.37 18.5597 10.9645C17.9957 10.559 17.342 10.296 16.6543 10.1981C14.5449 9.90367 12.4223 10.7633 10.619 12.0086C8.66569 13.3614 7.04795 15.2 5.64954 17.0709H7.4395C9.04399 14.8673 12.7402 11.4817 15.4561 11.4581C16.3221 11.4108 17.1757 11.6809 17.8569 12.2177C18.328 12.6298 18.902 13.4218 18.8711 14.0518C18.8711 14.4375 18.4943 14.5552 18.1705 14.4183C17.9129 14.2936 17.6968 14.0974 17.5478 13.8531C17.2617 13.4655 16.8753 13.1632 16.4302 12.9788C15.9852 12.7944 15.4982 12.7348 15.0218 12.8065C13.8148 12.9684 12.3177 13.8796 11.3536 14.7098C10.5271 15.4281 9.75326 16.2049 9.03811 17.0341H10.9355C11.6156 16.2035 12.4271 15.49 13.3378 14.9218C13.6733 14.716 14.0295 14.5462 14.4006 14.4154C15.3884 14.0857 16.3687 14.1696 16.8059 15.3692C16.978 15.8973 17.0283 16.4574 16.9531 17.0076V17.0385H18.2529V17.0017C18.2529 16.5866 18.2529 16.3069 18.2809 15.9006C18.3147 15.5341 18.4281 15.1646 18.7666 15.1367C19.4835 14.9895 19.4452 16.5439 19.4599 17.0503L19.4761 17.0753Z" fill="#00AB9C"/>
<path d="M22.2465 17.0753H23.6081C23.6963 15.5093 23.514 13.9397 23.0693 12.4355C22.975 12.1451 22.866 11.8596 22.7426 11.5803C22.4525 10.9399 22.0712 10.345 21.6106 9.81388C21.0871 9.1996 20.4719 8.66981 19.7868 8.24325C19.5792 8.11813 19.3687 8.00331 19.1494 7.8988C18.9297 7.79473 18.7046 7.70235 18.4752 7.62206C15.8256 6.705 13.1392 7.3571 10.8885 8.54795C10.4488 8.78348 10.0278 9.0347 9.62547 9.30162C9.22214 9.56806 8.84089 9.84774 8.49349 10.1304C7.96195 10.5473 7.45842 10.9987 6.98615 11.4817C6.88017 11.5877 6.77713 11.701 6.67998 11.8085C6.41207 12.1029 5.99844 12.5165 6.12208 12.9463C6.21629 13.2849 6.6682 13.1848 6.82276 13.0685C7.07826 12.9216 7.31842 12.7495 7.53963 12.5548C7.84581 12.3001 8.13579 12.0293 8.4405 11.7717C9.5752 10.7974 10.8481 9.99671 12.2177 9.39583C12.4929 9.27807 12.7682 9.1765 13.0391 9.07641C13.3099 8.97631 13.5852 8.90418 13.8531 8.83352C16.2083 8.24472 18.7549 8.62891 20.3726 10.4866C21.9462 12.2795 22.2318 14.6804 22.2583 17.065L22.2465 17.0753ZM5.34781 15.0395C5.51171 14.8852 5.66285 14.7178 5.79971 14.539C5.8941 14.4445 5.95843 14.3243 5.98463 14.1933C6.01082 14.0623 5.9977 13.9266 5.94692 13.803C5.91605 13.7345 5.86969 13.674 5.81149 13.6264C5.75359 13.5812 5.68691 13.5487 5.61571 13.5307C5.50822 13.5125 5.39776 13.5249 5.297 13.5665C5.19624 13.6082 5.10926 13.6774 5.04604 13.7662C4.78795 14.0639 4.60788 14.421 4.52201 14.8055C4.51317 14.8699 4.51317 14.9353 4.52201 14.9998C4.52765 15.0602 4.54569 15.1188 4.575 15.172C4.5958 15.2135 4.62808 15.2482 4.668 15.272C4.70791 15.2957 4.7538 15.3075 4.80022 15.306H4.94742C5.09945 15.2499 5.23542 15.1574 5.34339 15.0366L5.34781 15.0395Z" fill="#00AB9C"/>
<path d="M25.641 17.0753C25.7476 17.0774 25.853 17.0513 25.9463 16.9996C26.0396 16.9479 26.1176 16.8725 26.1724 16.7809C26.2028 16.7303 26.2275 16.6765 26.246 16.6205C26.2652 16.5516 26.278 16.4812 26.2842 16.41C26.3932 12.7299 25.2317 9.67845 23.2666 7.59556C22.8863 7.19466 22.4727 6.8268 22.0301 6.49597C21.5891 6.16981 21.1201 5.88313 20.6288 5.63926C18.6253 4.68964 16.3739 4.39406 14.1931 4.79432C13.8384 4.86056 13.488 4.94152 13.1406 5.04015C11.2274 5.61501 9.4856 6.65303 8.06957 8.06219C7.78989 8.34187 7.52198 8.62744 7.27027 8.9292C7.14515 9.0764 7.02444 9.2236 6.89343 9.38405C7.88533 8.54735 8.9641 7.81945 10.1112 7.21284C10.3674 7.08035 10.6191 6.95523 10.8649 6.84483C11.1107 6.73443 11.3786 6.62109 11.6421 6.52246C12.5948 6.153 13.5905 5.90569 14.6053 5.78646C15.5948 5.67914 16.5943 5.70389 17.5773 5.86006C18.2717 5.96638 18.9521 6.15005 19.6057 6.40765C19.7294 6.45475 19.8471 6.51069 19.9826 6.56662C20.1005 6.61662 20.215 6.67415 20.3255 6.73885C22.5262 7.91646 24.0585 10.3276 24.7327 13.0479C25.0062 14.1209 25.1408 15.2246 25.1331 16.3319V16.3614C25.1271 16.4854 25.1506 16.6091 25.2018 16.7222C25.253 16.8353 25.3304 16.9347 25.4275 17.012C25.4614 17.0328 25.4981 17.0486 25.5364 17.0591C25.5779 17.0651 25.6201 17.0651 25.6616 17.0591L25.641 17.0753Z" fill="#00AB9C"/>
<path d="M21.6547 4.7899C27.1012 6.54307 30.7812 11.4861 30.8003 17.0679H28.1802C28.3539 12.0631 26.1193 7.55434 21.6518 4.7899H21.6547Z" fill="#00AB9C"/>
</svg>
