<svg width="14" height="24" viewBox="0 0 14 24" fill="none" xmlns="http://www.w3.org/2000/svg">
<path d="M6.99963 12.8051C10.1281 12.8051 12.6643 10.2407 12.6643 7.07735C12.6643 3.91401 10.1281 1.34961 6.99963 1.34961C3.87112 1.34961 1.33496 3.91401 1.33496 7.07735C1.33496 10.2407 3.87112 12.8051 6.99963 12.8051Z" fill="#7FCEC9"/>
<path d="M6.99952 24.0007C7.86489 24.0007 8.56642 23.2914 8.56642 22.4164C8.56642 21.5414 7.86489 20.832 6.99952 20.832C6.13414 20.832 5.43262 21.5414 5.43262 22.4164C5.43262 23.2914 6.13414 24.0007 6.99952 24.0007Z" fill="#102147"/>
<path d="M14.0002 7.07763C14.0005 5.97152 13.7445 4.88074 13.2526 3.89276C12.7607 2.90478 12.0467 2.04711 11.1678 1.38853C10.2889 0.729947 9.26963 0.288793 8.19168 0.100447C7.11373 -0.0878996 6.00713 -0.0181958 4.96064 0.303968C3.91414 0.626131 2.95688 1.19179 2.16562 1.95557C1.37436 2.71935 0.771137 3.65999 0.404325 4.70206C0.0375123 5.74413 -0.0826776 6.85862 0.053395 7.95613C0.189468 9.05365 0.578016 10.1036 1.18787 11.0219L1.19517 11.033L6.9972 19.8483L12.8114 11.0182C13.5879 9.8542 14.002 8.48173 14.0002 7.07763ZM6.99963 11.0219C6.22811 11.0219 5.47393 10.7906 4.83244 10.3572C4.19095 9.92377 3.69097 9.30776 3.39572 8.58704C3.10048 7.86632 3.02323 7.07326 3.17374 6.30814C3.32426 5.54302 3.69577 4.84022 4.24132 4.2886C4.78686 3.73699 5.48192 3.36133 6.23861 3.20914C6.9953 3.05695 7.77963 3.13506 8.49241 3.43359C9.2052 3.73212 9.81443 4.23767 10.2431 4.88631C10.6717 5.53494 10.9005 6.29753 10.9005 7.07763C10.9005 8.12372 10.4895 9.12696 9.75794 9.86666C9.02639 10.6064 8.03419 11.0219 6.99963 11.0219Z" fill="#00AB9C"/>
</svg>
