<svg width="15" height="17" viewBox="0 0 15 17" fill="none" xmlns="http://www.w3.org/2000/svg">
<path d="M10.085 8.99406C10.9254 8.41275 11.5644 7.5636 11.9073 6.57248C12.2502 5.58136 12.2787 4.50102 11.9886 3.49162C11.6985 2.48222 11.1052 1.59749 10.2967 0.968561C9.4882 0.339636 8.50751 0 7.5 0C6.49249 0 5.5118 0.339636 4.70329 0.968561C3.89478 1.59749 3.3015 2.48222 3.01139 3.49162C2.72128 4.50102 2.74979 5.58136 3.09268 6.57248C3.43557 7.5636 4.0746 8.41275 4.91503 8.99406C3.47602 9.54776 2.2336 10.5492 1.3549 11.8637C0.476194 13.1783 0.00336122 14.7428 0 16.3468L0 17.0005H15V16.3468C14.9966 14.7428 14.5238 13.1783 13.6451 11.8637C12.7664 10.5492 11.524 9.54776 10.085 8.99406ZM4.06238 4.90406C4.06238 4.19263 4.26406 3.49718 4.64193 2.90568C5.01979 2.31419 5.55685 1.85324 6.18517 1.58112C6.81349 1.30901 7.50484 1.23798 8.17175 1.377C8.83867 1.51602 9.45119 1.85886 9.93183 2.36214C10.4125 2.86541 10.7396 3.50652 10.8719 4.20436C11.0042 4.9022 10.9357 5.62542 10.6751 6.28252C10.4144 6.93962 9.97337 7.50108 9.40766 7.89588C8.84195 8.29068 8.17703 8.50107 7.497 8.50045C6.58605 8.49879 5.71291 8.11926 5.06905 7.44507C4.42519 6.77088 4.06317 5.85709 4.06238 4.90406ZM1.28149 15.6932C1.43564 14.0798 2.15733 12.5839 3.30645 11.4959C4.45557 10.4079 5.95014 9.80539 7.5 9.80539C9.04986 9.80539 10.5444 10.4079 11.6936 11.4959C12.8427 12.5839 13.5644 14.0798 13.7185 15.6932H1.28149Z" fill="#2F3044"/>
<path d="M0.480469 17.0007H14.208V14.4406L11.9419 10.5368L7.49966 9.0957L3.59023 10.4908L1.05824 13.3949L0.480469 17.0007Z" fill="#2F3044"/>
<path d="M7.49963 9.80721C10.0883 9.80721 12.1868 7.61179 12.1868 4.9036C12.1868 2.19542 10.0883 0 7.49963 0C4.911 0 2.8125 2.19542 2.8125 4.9036C2.8125 7.61179 4.911 9.80721 7.49963 9.80721Z" fill="#27BCA9"/>
</svg>
