<svg width="22" height="16" viewBox="0 0 22 16" fill="none" xmlns="http://www.w3.org/2000/svg">
<path d="M21.1064 5.23242H0V15.9995H21.1064V5.23242Z" fill="#7FCEC9"/>
<path d="M21.1064 1.50781H0V4.33813H21.1064V1.50781Z" fill="#00AB9C"/>
<path d="M21.1064 4.33594H0V5.23161H21.1064V4.33594Z" fill="#7FCEC9"/>
<path d="M5.32923 0H4.10889V3.22105H5.32923V0Z" fill="#102147"/>
<path d="M16.4132 0H15.1929V3.22105H16.4132V0Z" fill="#102147"/>
<path d="M4.10922 5.89062H1.4043V7.79616H4.10922V5.89062Z" fill="#00AB9C"/>
<path d="M9.30746 5.89062H6.60254V7.79616H9.30746V5.89062Z" fill="#00AB9C"/>
<path d="M14.5052 5.89062H11.8003V7.79616H14.5052V5.89062Z" fill="#00AB9C"/>
<path d="M19.7025 5.89062H16.9976V7.79616H19.7025V5.89062Z" fill="#00AB9C"/>
<path d="M4.10922 9.16406H1.4043V11.0696H4.10922V9.16406Z" fill="#00AB9C"/>
<path d="M9.30746 9.16406H6.60254V11.0696H9.30746V9.16406Z" fill="#102147"/>
<path d="M14.5052 9.16406H11.8003V11.0696H14.5052V9.16406Z" fill="#00AB9C"/>
<path d="M19.7025 9.16406H16.9976V11.0696H19.7025V9.16406Z" fill="#00AB9C"/>
<path d="M4.10922 12.4199H1.4043V14.3255H4.10922V12.4199Z" fill="#00AB9C"/>
<path d="M9.30746 12.4199H6.60254V14.3255H9.30746V12.4199Z" fill="#00AB9C"/>
<path d="M14.5052 12.4199H11.8003V14.3255H14.5052V12.4199Z" fill="#00AB9C"/>
<path d="M19.7025 12.4199H16.9976V14.3255H19.7025V12.4199Z" fill="#00AB9C"/>
</svg>
