<svg width="18" height="24" viewBox="0 0 18 24" fill="none" xmlns="http://www.w3.org/2000/svg">
<path d="M17.6906 24H0V0H14.0156L17.6906 3.67504V24Z" fill="#102147"/>
<path d="M13.7986 0.00878906L13.7924 3.02431C13.7919 3.14214 13.8146 3.25892 13.8593 3.36796C13.904 3.477 13.9697 3.57616 14.0527 3.65978C14.1358 3.74339 14.2345 3.80982 14.3432 3.85525C14.4519 3.90069 14.5685 3.92424 14.6864 3.92457L17.7044 3.9346L13.7986 0.00878906Z" fill="#102147"/>
<path d="M17.7044 3.70137V3.93083L13.7961 0H14.0256L17.7044 3.70137Z" fill="#102147"/>
<path d="M15.791 7.93164H2.13403V8.72282H15.791V7.93164Z" fill="#00AB9C"/>
<path d="M15.791 9.57715H2.13403V10.3683H15.791V9.57715Z" fill="#00AB9C"/>
<path d="M15.791 11.8037H2.13403V12.5949H15.791V11.8037Z" fill="#00AB9C"/>
<path d="M15.791 13.3926H2.13403V14.1838H15.791V13.3926Z" fill="#00AB9C"/>
<path d="M10.5988 19.6562H2.13403V20.4474H10.5988V19.6562Z" fill="#00AB9C"/>
<path d="M10.5988 21.2441H2.13403V22.0353H10.5988V21.2441Z" fill="#00AB9C"/>
<path d="M15.791 15.7158H2.13403V18.1721H15.791V15.7158Z" fill="#00AB9C"/>
<path d="M4.51391 1.96958H5.47562L5.85177 1.45801H2.50775L2.13159 1.96958H3.45566C3.58756 2.00876 3.7097 2.07537 3.81406 2.16505C3.91843 2.25472 4.00267 2.36543 4.06127 2.48993H2.50775L2.13159 3.00025H4.1503C4.12547 3.24101 4.01225 3.46402 3.83253 3.62614C3.6528 3.78826 3.41935 3.87798 3.17731 3.87794H2.31842V4.52744L4.1666 6.69786H4.97533L3.21994 4.53246H3.17731C3.59319 4.5332 3.99363 4.37496 4.29665 4.09012C4.59968 3.80528 4.78236 3.41538 4.80731 3.00025H5.47436L5.85052 2.48993H4.75089C4.70305 2.30392 4.62283 2.12778 4.51391 1.96958Z" fill="#102147"/>
</svg>
