<svg width="18" height="24" viewBox="0 0 18 24" fill="none" xmlns="http://www.w3.org/2000/svg">
<path d="M17.6906 24H0V0H14.0156L17.6906 3.67504V24Z" fill="#7FCEC9"/>
<path d="M13.7988 0.00878906L13.7925 3.02431C13.792 3.14214 13.8147 3.25892 13.8594 3.36796C13.9041 3.477 13.9698 3.57616 14.0528 3.65978C14.1359 3.74339 14.2346 3.80982 14.3433 3.85525C14.452 3.90069 14.5686 3.92424 14.6865 3.92457L17.7045 3.9346L13.7988 0.00878906Z" fill="#102147"/>
<path d="M17.7042 3.70137V3.93083L13.7959 0H14.0254L17.7042 3.70137Z" fill="#102147"/>
<path d="M15.7908 7.93164H2.13379V8.72282H15.7908V7.93164Z" fill="#00AB9C"/>
<path d="M15.7908 9.57715H2.13379V10.3683H15.7908V9.57715Z" fill="#00AB9C"/>
<path d="M15.7908 11.8037H2.13379V12.5949H15.7908V11.8037Z" fill="#00AB9C"/>
<path d="M15.7908 13.3926H2.13379V14.1838H15.7908V13.3926Z" fill="#00AB9C"/>
<path d="M10.5986 19.6562H2.13379V20.4474H10.5986V19.6562Z" fill="#00AB9C"/>
<path d="M10.5986 21.2441H2.13379V22.0353H10.5986V21.2441Z" fill="#00AB9C"/>
<path d="M15.7908 15.7158H2.13379V18.1721H15.7908V15.7158Z" fill="#00AB9C"/>
<path d="M4.51367 1.96958H5.47537L5.85153 1.45801H2.5075L2.13135 1.96958H3.45542C3.58732 2.00876 3.70945 2.07537 3.81382 2.16505C3.91819 2.25472 4.00243 2.36543 4.06103 2.48993H2.5075L2.13135 3.00025H4.15005C4.12523 3.24101 4.012 3.46402 3.83228 3.62614C3.65256 3.78826 3.4191 3.87798 3.17706 3.87794H2.31817V4.52744L4.16635 6.69786H4.97509L3.21969 4.53246H3.17706C3.59294 4.5332 3.99338 4.37496 4.29641 4.09012C4.59943 3.80528 4.78212 3.41538 4.80707 3.00025H5.47412L5.85028 2.48993H4.75065C4.70281 2.30392 4.62259 2.12778 4.51367 1.96958Z" fill="#102147"/>
</svg>
