<svg width="20" height="22" viewBox="0 0 20 22" fill="none" xmlns="http://www.w3.org/2000/svg">
<path d="M16.8891 15L16.2316 14.6392L16.8891 15ZM3.11115 15L2.45364 15.3608L3.11115 15ZM1.02535 7.20867L0.276307 7.24648L1.02535 7.20867ZM15.2551 17.2795L15.8222 17.7703L15.2551 17.2795ZM4.74517 17.2795L5.31225 16.7886L4.74517 17.2795ZM18.983 6.6369L19.7325 6.66561L18.983 6.6369ZM9.25 15C9.25 15.4142 9.58579 15.75 10 15.75C10.4142 15.75 10.75 15.4142 10.75 15H9.25ZM18.2336 6.60819C18.1545 8.67293 17.7519 11.8686 16.2316 14.6392L17.5466 15.3608C19.23 12.2931 19.6497 8.82667 19.7325 6.66561L18.2336 6.60819ZM16.2316 14.6392C15.8427 15.348 15.3041 16.0768 14.688 16.7886L15.8222 17.7703C16.481 17.0092 17.0904 16.1923 17.5466 15.3608L16.2316 14.6392ZM5.31225 16.7886C4.69617 16.0768 4.15761 15.348 3.76867 14.6392L2.45364 15.3608C2.90993 16.1923 3.51932 17.0092 4.17808 17.7703L5.31225 16.7886ZM3.76867 14.6392C2.29018 11.9448 1.86985 9.06159 1.7744 7.17085L0.276307 7.24648C0.37783 9.25749 0.824483 12.3918 2.45364 15.3608L3.76867 14.6392ZM3.17077 5.83333H3.47964V4.33333H3.17077V5.83333ZM16.229 5.25H16.8183V3.75H16.229V5.25ZM13.729 2.75C13.729 4.13071 14.8483 5.25 16.229 5.25V3.75C15.6767 3.75 15.229 3.30228 15.229 2.75H13.729ZM3.47964 5.83333C5.02143 5.83333 6.2713 4.58346 6.2713 3.04167H4.7713C4.7713 3.75503 4.193 4.33333 3.47964 4.33333V5.83333ZM7.56297 0.25C6.02118 0.25 4.7713 1.49987 4.7713 3.04167H6.2713C6.2713 2.3283 6.8496 1.75 7.56297 1.75V0.25ZM1.7744 7.17085C1.73808 6.45149 2.33063 5.83333 3.17077 5.83333V4.33333C1.59472 4.33333 0.190799 5.55273 0.276307 7.24648L1.7744 7.17085ZM14.688 16.7886C13.6779 17.9557 12.9958 18.7373 12.2988 19.2479C11.6513 19.7223 10.9889 19.9607 10.0001 19.9607V21.4607C11.2964 21.4607 12.2716 21.1273 13.1853 20.4579C14.0496 19.8248 14.8524 18.8908 15.8222 17.7703L14.688 16.7886ZM4.17808 17.7703C5.14788 18.8908 5.95073 19.8248 6.81498 20.4579C7.72866 21.1273 8.70385 21.4607 10.0001 21.4607V19.9607C9.01134 19.9607 8.34899 19.7223 7.70144 19.2479C7.00446 18.7373 6.32237 17.9557 5.31225 16.7886L4.17808 17.7703ZM12.729 1.75C13.2813 1.75 13.729 2.19772 13.729 2.75H15.229C15.229 1.36929 14.1097 0.25 12.729 0.25V1.75ZM19.7325 6.66561C19.7971 4.97999 18.4032 3.75 16.8183 3.75V5.25C17.656 5.25 18.2618 5.8731 18.2336 6.60819L19.7325 6.66561ZM7.56297 1.75H12.729V0.25H7.56297V1.75ZM9.25 11V15H10.75V11H9.25ZM7.25 9C7.25 10.5188 8.48122 11.75 10 11.75V10.25C9.30964 10.25 8.75 9.69036 8.75 9H7.25ZM10 11.75C11.5188 11.75 12.75 10.5188 12.75 9H11.25C11.25 9.69036 10.6904 10.25 10 10.25V11.75ZM12.75 9C12.75 7.48122 11.5188 6.25 10 6.25V7.75C10.6904 7.75 11.25 8.30964 11.25 9H12.75ZM10 6.25C8.48122 6.25 7.25 7.48122 7.25 9H8.75C8.75 8.30964 9.30964 7.75 10 7.75V6.25Z" fill="#262626"/>
</svg>
