<svg width="18" height="24" viewBox="0 0 18 24" fill="none" xmlns="http://www.w3.org/2000/svg">
<path d="M17.9871 24H0V0H14.2499L17.9871 3.67565V24Z" fill="#102147"/>
<path d="M14.0296 0.0078125L14.019 3.0248C14.0187 3.1426 14.042 3.2593 14.0876 3.36825C14.1331 3.4772 14.2001 3.57626 14.2845 3.65977C14.369 3.74328 14.4694 3.80961 14.5799 3.85497C14.6905 3.90033 14.809 3.92383 14.9288 3.92414L17.9963 3.9345L14.0296 0.0078125Z" fill="#00AB9C"/>
<path d="M18.0001 3.70099V3.93014L14.0264 0H14.2605L18.0001 3.70099Z" fill="#00AB9C"/>
<path d="M16.0083 8.43652H1.97852V9.34162H16.0083V8.43652Z" fill="#7FCEC9"/>
<path d="M16.0083 11.2041H1.97852V12.1092H16.0083V11.2041Z" fill="#7FCEC9"/>
<path d="M16.0083 13.9727H1.97852V14.8778H16.0083V13.9727Z" fill="#7FCEC9"/>
<path d="M16.0083 16.7422H1.97852V17.6473H16.0083V16.7422Z" fill="#7FCEC9"/>
</svg>
