<svg width="9" height="12" viewBox="0 0 9 12" fill="none" xmlns="http://www.w3.org/2000/svg">
<g filter="url(#filter0_i_279_3523)">
<path d="M8.4 0.074009L7.5 1.10149L6.225 0.074009C6.16024 0.0260139 6.08123 3.92413e-05 6 3.92413e-05C5.91877 3.92413e-05 5.83976 0.0260139 5.775 0.074009L4.5 1.10149L3.225 0.074009C3.16024 0.0260139 3.08123 3.92413e-05 3 3.92413e-05C2.91877 3.92413e-05 2.83976 0.0260139 2.775 0.074009L1.5 1.10149L0.6 0.074009C0.351563 -0.107176 0 0.0648351 0 0.367574V11.3763C0 11.679 0.351563 11.851 0.6 11.6698L1.5 10.6423L2.775 11.6698C2.83976 11.7178 2.91877 11.7438 3 11.7438C3.08123 11.7438 3.16024 11.7178 3.225 11.6698L4.5 10.6423L5.775 11.6698C5.83976 11.7178 5.91877 11.7438 6 11.7438C6.08123 11.7438 6.16024 11.7178 6.225 11.6698L7.5 10.6423L8.4 11.6698C8.64609 11.851 9 11.679 9 11.3763V0.367574C9 0.0648351 8.64844 -0.107176 8.4 0.074009ZM7.5 8.25713C7.5 8.35805 7.41563 8.44061 7.3125 8.44061H1.6875C1.58437 8.44061 1.5 8.35805 1.5 8.25713V7.89018C1.5 7.78926 1.58437 7.7067 1.6875 7.7067H7.3125C7.41563 7.7067 7.5 7.78926 7.5 7.89018V8.25713ZM7.5 6.0554C7.5 6.15631 7.41563 6.23887 7.3125 6.23887H1.6875C1.58437 6.23887 1.5 6.15631 1.5 6.0554V5.68844C1.5 5.58753 1.58437 5.50496 1.6875 5.50496H7.3125C7.41563 5.50496 7.5 5.58753 7.5 5.68844V6.0554ZM7.5 3.85366C7.5 3.95457 7.41563 4.03714 7.3125 4.03714H1.6875C1.58437 4.03714 1.5 3.95457 1.5 3.85366V3.4867C1.5 3.38579 1.58437 3.30322 1.6875 3.30322H7.3125C7.41563 3.30322 7.5 3.38579 7.5 3.4867V3.85366Z" fill="#27BCA9"/>
</g>
<defs>
<filter id="filter0_i_279_3523" x="0" y="-1" width="9" height="12.7441" filterUnits="userSpaceOnUse" color-interpolation-filters="sRGB">
<feFlood flood-opacity="0" result="BackgroundImageFix"/>
<feBlend mode="normal" in="SourceGraphic" in2="BackgroundImageFix" result="shape"/>
<feColorMatrix in="SourceAlpha" type="matrix" values="0 0 0 0 0 0 0 0 0 0 0 0 0 0 0 0 0 0 127 0" result="hardAlpha"/>
<feOffset dy="-1"/>
<feGaussianBlur stdDeviation="1.5"/>
<feComposite in2="hardAlpha" operator="arithmetic" k2="-1" k3="1"/>
<feColorMatrix type="matrix" values="0 0 0 0 0 0 0 0 0 0 0 0 0 0 0 0 0 0 0.25 0"/>
<feBlend mode="normal" in2="shape" result="effect1_innerShadow_279_3523"/>
</filter>
</defs>
</svg>
