<svg width="19" height="15" viewBox="0 0 19 15" fill="none" xmlns="http://www.w3.org/2000/svg">
<path d="M18.9877 4.70703H0V14.3933H18.9877V4.70703Z" fill="#7FCEC9"/>
<path d="M18.9877 1.35547H0V3.90167H18.9877V1.35547Z" fill="#00AB9C"/>
<path d="M18.9877 3.90137H0V4.70713H18.9877V3.90137Z" fill="#7FCEC9"/>
<path d="M4.79462 0H3.69678V2.89771H4.79462V0Z" fill="#102147"/>
<path d="M14.7658 0H13.668V2.89771H14.7658V0Z" fill="#102147"/>
<path d="M3.69658 5.29883H1.26318V7.01308H3.69658V5.29883Z" fill="#00AB9C"/>
<path d="M8.37284 5.29883H5.93945V7.01308H8.37284V5.29883Z" fill="#00AB9C"/>
<path d="M13.0491 5.29883H10.6157V7.01308H13.0491V5.29883Z" fill="#00AB9C"/>
<path d="M17.7244 5.29883H15.291V7.01308H17.7244V5.29883Z" fill="#00AB9C"/>
<path d="M3.69658 8.24316H1.26318V9.95742H3.69658V8.24316Z" fill="#00AB9C"/>
<path d="M8.37284 8.24316H5.93945V9.95742H8.37284V8.24316Z" fill="#102147"/>
<path d="M13.0491 8.24316H10.6157V9.95742H13.0491V8.24316Z" fill="#00AB9C"/>
<path d="M17.7244 8.24316H15.291V9.95742H17.7244V8.24316Z" fill="#00AB9C"/>
<path d="M3.69658 11.1748H1.26318V12.8891H3.69658V11.1748Z" fill="#00AB9C"/>
<path d="M8.37284 11.1748H5.93945V12.8891H8.37284V11.1748Z" fill="#00AB9C"/>
<path d="M13.0491 11.1748H10.6157V12.8891H13.0491V11.1748Z" fill="#00AB9C"/>
<path d="M17.7244 11.1748H15.291V12.8891H17.7244V11.1748Z" fill="#00AB9C"/>
</svg>
