<svg width="28" height="31" viewBox="0 0 28 31" fill="none" xmlns="http://www.w3.org/2000/svg">
<g filter="url(#filter0_d_5:11211)">
<path d="M7.06107 21.0451L7.50191 20.4383L7.06107 21.0451ZM5.95491 19.9389L6.56168 19.4981L5.95491 19.9389ZM22.0451 19.9389L21.4383 19.4981L22.0451 19.9389ZM20.9389 21.0451L21.3798 21.6518L20.9389 21.0451ZM20.9389 4.95492L21.3798 4.34815L20.9389 4.95492ZM22.0451 6.06107L21.4383 6.50191L22.0451 6.06107ZM7.06107 4.95492L7.50191 5.56168H7.50191L7.06107 4.95492ZM5.95491 6.06107L6.56168 6.50191L5.95491 6.06107ZM21.2178 16.0616L21.1005 15.3208H21.1005L21.2178 16.0616ZM17.0616 20.2178L16.3208 20.1005V20.1005L17.0616 20.2178ZM16.25 5C16.25 5.41421 16.5858 5.75 17 5.75C17.4142 5.75 17.75 5.41421 17.75 5H16.25ZM17.75 2C17.75 1.58579 17.4142 1.25 17 1.25C16.5858 1.25 16.25 1.58579 16.25 2H17.75ZM10.25 5C10.25 5.41421 10.5858 5.75 11 5.75C11.4142 5.75 11.75 5.41421 11.75 5H10.25ZM11.75 2C11.75 1.58579 11.4142 1.25 11 1.25C10.5858 1.25 10.25 1.58579 10.25 2H11.75ZM22.9711 16L23.7206 16.0257L22.9711 16ZM17 21.9711L17.0257 22.7206L17 21.9711ZM14 21.25C12.1084 21.25 10.75 21.249 9.69804 21.135C8.66013 21.0225 8.00992 20.8074 7.50191 20.4383L6.62023 21.6518C7.42656 22.2377 8.37094 22.5 9.53648 22.6263C10.688 22.751 12.1418 22.75 14 22.75V21.25ZM4.25 13C4.25 14.8582 4.24897 16.312 4.37373 17.4635C4.50001 18.6291 4.76232 19.5734 5.34815 20.3798L6.56168 19.4981C6.19259 18.9901 5.97745 18.3399 5.865 17.302C5.75103 16.25 5.75 14.8916 5.75 13H4.25ZM7.50191 20.4383C7.14111 20.1762 6.82382 19.8589 6.56168 19.4981L5.34815 20.3798C5.70281 20.8679 6.13209 21.2972 6.62023 21.6518L7.50191 20.4383ZM21.4383 19.4981C21.1762 19.8589 20.8589 20.1762 20.4981 20.4383L21.3798 21.6518C21.8679 21.2972 22.2972 20.8679 22.6518 20.3798L21.4383 19.4981ZM23.75 13C23.75 11.1418 23.751 9.68798 23.6263 8.53648C23.5 7.37094 23.2377 6.42656 22.6518 5.62023L21.4383 6.50191C21.8074 7.00992 22.0225 7.66013 22.135 8.69804C22.249 9.74999 22.25 11.1084 22.25 13H23.75ZM20.4981 5.56168C20.8589 5.82382 21.1762 6.14111 21.4383 6.50191L22.6518 5.62023C22.2972 5.13209 21.8679 4.70281 21.3798 4.34815L20.4981 5.56168ZM5.75 13C5.75 11.1084 5.75103 9.74999 5.865 8.69804C5.97745 7.66013 6.19259 7.00992 6.56168 6.50191L5.34815 5.62023C4.76232 6.42656 4.50001 7.37094 4.37373 8.53648C4.24897 9.68798 4.25 11.1418 4.25 13H5.75ZM6.62023 4.34815C6.13209 4.70281 5.70281 5.13209 5.34815 5.62023L6.56168 6.50191C6.82382 6.14111 7.14111 5.82382 7.50191 5.56168L6.62023 4.34815ZM21.1005 15.3208C18.6401 15.7105 16.7105 17.6401 16.3208 20.1005L17.8023 20.3352C18.0904 18.5166 19.5166 17.0904 21.3352 16.8023L21.1005 15.3208ZM11.75 5V4.02893H10.25V5H11.75ZM11.75 4.02893V2H10.25V4.02893H11.75ZM14 3.25C12.8352 3.25 11.8342 3.24991 10.9743 3.27937L11.0257 4.77849C11.8544 4.75009 12.8269 4.75 14 4.75V3.25ZM10.9743 3.27937C9.10087 3.34356 7.7239 3.5463 6.62023 4.34815L7.50191 5.56168C8.20746 5.04907 9.17075 4.84204 11.0257 4.77849L10.9743 3.27937ZM17.75 5V4.02893H16.25V5H17.75ZM17.75 4.02893V2H16.25V4.02893H17.75ZM14 4.75C15.1731 4.75 16.1456 4.75009 16.9743 4.77849L17.0257 3.27937C16.1658 3.24991 15.1648 3.25 14 3.25V4.75ZM16.9743 4.77849C18.8292 4.84204 19.7925 5.04907 20.4981 5.56168L21.3798 4.34815C20.2761 3.5463 18.8991 3.34356 17.0257 3.27937L16.9743 4.77849ZM22.9711 15.25C22.0888 15.25 21.5579 15.2484 21.1005 15.3208L21.3352 16.8023C21.647 16.7529 22.0338 16.75 22.9711 16.75L22.9711 15.25ZM22.25 13C22.25 14.1731 22.2499 15.1456 22.2215 15.9743L23.7206 16.0257C23.7501 15.1658 23.75 14.1648 23.75 13H22.25ZM22.2215 15.9743C22.158 17.8292 21.9509 18.7925 21.4383 19.4981L22.6518 20.3798C23.4537 19.2761 23.6564 17.8991 23.7206 16.0257L22.2215 15.9743ZM17.75 21.9711C17.75 21.0338 17.7529 20.647 17.8023 20.3352L16.3208 20.1005C16.2484 20.5579 16.25 21.0888 16.25 21.9711L17.75 21.9711ZM14 22.75C15.1648 22.75 16.1658 22.7501 17.0257 22.7206L16.9743 21.2215C16.1456 21.2499 15.1731 21.25 14 21.25V22.75ZM17.0257 22.7206C18.8991 22.6564 20.2761 22.4537 21.3798 21.6518L20.4981 20.4383C19.7925 20.9509 18.8292 21.158 16.9743 21.2215L17.0257 22.7206Z" fill="#262626"/>
<path d="M10 9C10 9.55228 9.55228 10 9 10C8.44772 10 8 9.55228 8 9C8 8.44772 8.44772 8 9 8C9.55228 8 10 8.44772 10 9Z" fill="#262626"/>
<path d="M10 13C10 13.5523 9.55228 14 9 14C8.44772 14 8 13.5523 8 13C8 12.4477 8.44772 12 9 12C9.55228 12 10 12.4477 10 13Z" fill="#262626"/>
<path d="M15 9C15 9.55228 14.5523 10 14 10C13.4477 10 13 9.55228 13 9C13 8.44772 13.4477 8 14 8C14.5523 8 15 8.44772 15 9Z" fill="#262626"/>
<path d="M15 13C15 13.5523 14.5523 14 14 14C13.4477 14 13 13.5523 13 13C13 12.4477 13.4477 12 14 12C14.5523 12 15 12.4477 15 13Z" fill="#262626"/>
<path d="M15 17C15 17.5523 14.5523 18 14 18C13.4477 18 13 17.5523 13 17C13 16.4477 13.4477 16 14 16C14.5523 16 15 16.4477 15 17Z" fill="#262626"/>
<path d="M20 9C20 9.55228 19.5523 10 19 10C18.4477 10 18 9.55228 18 9C18 8.44772 18.4477 8 19 8C19.5523 8 20 8.44772 20 9Z" fill="#262626"/>
<path d="M20 13C20 13.5523 19.5523 14 19 14C18.4477 14 18 13.5523 18 13C18 12.4477 18.4477 12 19 12C19.5523 12 20 12.4477 20 13Z" fill="#262626"/>
<path d="M10 17C10 17.5523 9.55228 18 9 18C8.44772 18 8 17.5523 8 17C8 16.4477 8.44772 16 9 16C9.55228 16 10 16.4477 10 17Z" fill="#262626"/>
</g>
<defs>
<filter id="filter0_d_5:11211" x="-2" y="0" width="32" height="32" filterUnits="userSpaceOnUse" color-interpolation-filters="sRGB">
<feFlood flood-opacity="0" result="BackgroundImageFix"/>
<feColorMatrix in="SourceAlpha" type="matrix" values="0 0 0 0 0 0 0 0 0 0 0 0 0 0 0 0 0 0 127 0" result="hardAlpha"/>
<feOffset dy="4"/>
<feGaussianBlur stdDeviation="2"/>
<feComposite in2="hardAlpha" operator="out"/>
<feColorMatrix type="matrix" values="0 0 0 0 0 0 0 0 0 0 0 0 0 0 0 0 0 0 0.25 0"/>
<feBlend mode="normal" in2="BackgroundImageFix" result="effect1_dropShadow_5:11211"/>
<feBlend mode="normal" in="SourceGraphic" in2="effect1_dropShadow_5:11211" result="shape"/>
</filter>
</defs>
</svg>
