<svg width="32" height="36" viewBox="0 0 32 36" fill="none" xmlns="http://www.w3.org/2000/svg">
<path d="M7.66175 24.1917C14.5853 32.7036 23.2266 37.2212 27.3654 34.6051L27.4122 34.5751C27.5354 34.4944 27.6543 34.4074 27.7685 34.3145C27.8529 34.247 27.9336 34.1738 28.0105 34.0988V34.0876C28.11 34.0237 28.2058 33.9542 28.2974 33.8794C28.3724 33.8175 28.4436 33.7519 28.5149 33.6919C30.8459 30.0144 23.3841 23.691 21.7489 24.9718L21.2557 25.3712L20.9688 25.6056L20.6312 25.8907C20.0555 26.3576 19.3185 26.4064 18.9941 26.0013L18.1408 24.9549C17.4789 23.5316 15.9974 21.3075 14.0865 18.954C12.1756 16.6005 10.289 14.7046 9.02884 13.767L8.19808 12.7525C7.86616 12.3361 8.06682 11.6273 8.64065 11.1622L8.74754 11.0741L9.00446 10.8772L9.45827 10.5021L9.88021 10.1608L9.93647 10.1139C11.0485 7.59918 6.10902 0.44122 3.49487 1.11257L3.06168 1.45762L2.89853 1.59077L2.3772 2.01458L2.30594 2.07272L2.02278 2.30338L1.83525 2.44777L1.44519 2.76657L1.46394 2.79095C-1.92282 6.30523 0.740082 15.6873 7.66175 24.1917Z" fill="#00AB9C"/>
<path d="M11.0526 9.20009C12.5697 7.96428 12.4684 5.28449 10.897 3.01165C10.7788 2.841 10.655 2.67598 10.5219 2.51095C8.59411 0.144343 5.7118 -0.699535 4.0803 0.630041L3.48584 1.11199C6.09998 0.440638 11.0395 7.59859 9.92744 10.1133L11.0526 9.20009Z" fill="#102147"/>
<path d="M28.6386 33.5676L28.8037 33.4344L29.9851 32.4743C31.6185 31.1466 31.3841 28.1611 29.4638 25.7964C29.3344 25.6351 29.1975 25.4832 29.0587 25.337C27.159 23.3323 24.558 22.6909 23.0315 23.9268L21.852 24.8869L21.7563 24.9657C23.3916 23.6848 30.8533 30.0083 28.5224 33.6857L28.6386 33.5676Z" fill="#102147"/>
</svg>
