<svg width="48" height="48" viewBox="0 0 48 48" fill="none" xmlns="http://www.w3.org/2000/svg">
<rect width="48" height="48" rx="10" fill="#27BCA9"/>
<path d="M19.0556 27.6686C23.2535 32.8296 28.493 35.5687 31.0024 33.9825L31.0308 33.9643C31.1055 33.9154 31.1776 33.8626 31.2468 33.8063C31.298 33.7653 31.3469 33.721 31.3935 33.6755V33.6687C31.4539 33.63 31.5119 33.5878 31.5675 33.5425C31.613 33.505 31.6562 33.4652 31.6994 33.4288C33.1127 31.1991 28.5885 27.365 27.597 28.1416L27.2979 28.3838L27.124 28.5259L26.9193 28.6988C26.5702 28.9819 26.1234 29.0114 25.9267 28.7658L25.4093 28.1314C25.008 27.2684 24.1097 25.9199 22.9511 24.4929C21.7925 23.0659 20.6486 21.9164 19.8845 21.3479L19.3808 20.7328C19.1796 20.4803 19.3012 20.0505 19.6492 19.7686L19.714 19.7151L19.8698 19.5957L20.1449 19.3683L20.4007 19.1614L20.4349 19.133C21.1091 17.6082 18.1142 13.2682 16.5292 13.6752L16.2665 13.8845L16.1676 13.9652L15.8515 14.2222L15.8083 14.2574L15.6366 14.3973L15.5229 14.4848L15.2864 14.6781L15.2978 14.6929C13.2443 16.8237 14.8589 22.5122 19.0556 27.6686Z" fill="white"/>
<path d="M21.1113 18.5782C22.0312 17.8289 21.9698 16.2041 21.017 14.826C20.9453 14.7226 20.8703 14.6225 20.7896 14.5224C19.6207 13.0875 17.8731 12.5759 16.8839 13.382L16.5234 13.6742C18.1085 13.2672 21.1034 17.6072 20.4291 19.1319L21.1113 18.5782Z" fill="white"/>
<path d="M31.7744 33.3524L31.8745 33.2716L32.5908 32.6895C33.5812 31.8845 33.4391 30.0743 32.2747 28.6405C32.1963 28.5427 32.1133 28.4506 32.0291 28.362C30.8773 27.1465 29.3003 26.7576 28.3747 27.5069L27.6596 28.0891L27.6016 28.1368C28.593 27.3602 33.1173 31.1943 31.704 33.424L31.7744 33.3524Z" fill="white"/>
</svg>
