<svg width="16" height="16" viewBox="0 0 16 16" fill="none" xmlns="http://www.w3.org/2000/svg">
<path d="M14.6469 12.2195C14.6469 12.4595 14.5936 12.7061 14.4803 12.9461C14.3669 13.1861 14.2203 13.4128 14.0269 13.6261C13.7003 13.9861 13.3403 14.2461 12.9336 14.4128C12.5336 14.5795 12.1003 14.6661 11.6336 14.6661C10.9536 14.6661 10.2269 14.5061 9.46025 14.1795C8.69359 13.8528 7.92692 13.4128 7.16692 12.8595C6.40025 12.2995 5.67359 11.6795 4.98025 10.9928C4.29359 10.2995 3.67359 9.57281 3.12025 8.81281C2.57359 8.05281 2.13359 7.29281 1.81359 6.53948C1.49359 5.77948 1.33359 5.05281 1.33359 4.35948C1.33359 3.90614 1.41359 3.47281 1.57359 3.07281C1.73359 2.66614 1.98692 2.29281 2.34025 1.95948C2.76692 1.53948 3.23359 1.33281 3.72692 1.33281C3.91359 1.33281 4.10025 1.37281 4.26692 1.45281C4.44025 1.53281 4.59359 1.65281 4.71359 1.82614L6.26025 4.00614C6.38025 4.17281 6.46692 4.32614 6.52692 4.47281C6.58692 4.61281 6.62025 4.75281 6.62025 4.87948C6.62025 5.03948 6.57359 5.19948 6.48025 5.35281C6.39359 5.50614 6.26692 5.66614 6.10692 5.82614L5.60025 6.35281C5.52692 6.42614 5.49359 6.51281 5.49359 6.61948C5.49359 6.67281 5.50025 6.71948 5.51359 6.77281C5.53359 6.82614 5.55359 6.86614 5.56692 6.90614C5.68692 7.12614 5.89359 7.41281 6.18692 7.75948C6.48692 8.10614 6.80692 8.45948 7.15359 8.81281C7.51359 9.16614 7.86025 9.49281 8.21359 9.79281C8.56025 10.0861 8.84692 10.2861 9.07359 10.4061C9.10692 10.4195 9.14692 10.4395 9.19359 10.4595C9.24692 10.4795 9.30025 10.4861 9.36025 10.4861C9.47359 10.4861 9.56025 10.4461 9.63359 10.3728L10.1403 9.87281C10.3069 9.70614 10.4669 9.57948 10.6203 9.49948C10.7736 9.40614 10.9269 9.35948 11.0936 9.35948C11.2203 9.35948 11.3536 9.38614 11.5003 9.44614C11.6469 9.50614 11.8003 9.59281 11.9669 9.70614L14.1736 11.2728C14.3469 11.3928 14.4669 11.5328 14.5403 11.6995C14.6069 11.8661 14.6469 12.0328 14.6469 12.2195Z" stroke="#102147" stroke-width="1.2" stroke-miterlimit="10"/>
<path d="M12.3329 5.99953C12.3329 5.59953 12.0196 4.9862 11.5529 4.4862C11.1263 4.0262 10.5596 3.6662 9.9996 3.6662" stroke="#102147" stroke-linecap="round" stroke-linejoin="round"/>
<path d="M14.6663 5.99928C14.6663 3.41928 12.5796 1.33261 9.9996 1.33261" stroke="#102147" stroke-linecap="round" stroke-linejoin="round"/>
</svg>
