<svg width="151" height="193" viewBox="0 0 151 193" fill="none" xmlns="http://www.w3.org/2000/svg">
<path d="M73.1626 109.39L80.1501 134.967L105.675 100.5L99.6599 190.877H63.2185L52.5991 191.389C52.5991 191.389 54.1746 177.148 54.8192 169.096C55.2126 162.669 56.2965 156.303 58.052 150.108C63.4947 132.409 73.1626 109.39 73.1626 109.39Z" fill="#FAFAFA"/>
<path d="M81.3885 149.392C81.4806 149.505 77.3577 152.819 72.181 156.799C67.0043 160.779 62.7586 163.899 62.6666 163.787C62.5745 163.674 66.6872 160.349 71.8741 156.38C77.061 152.41 81.2965 149.269 81.3885 149.392Z" fill="#263238"/>
<path d="M144.829 96.9303L124.981 87.3852L117.196 78.1367L106.188 89.5745L76.9897 190.622H127.058L133.473 173.281L144.829 106.332V96.9303Z" fill="#E1056D"/>
<path d="M55.516 192.053L54.1758 170.569L114.649 160.338C114.649 160.338 124.982 110.433 131.345 102.259C137.228 94.709 144.88 97.3281 144.88 97.3281C144.88 97.3281 151.786 102.055 150.139 120.153C149.269 129.636 145.801 162.497 144.553 174.375C144.246 177.219 143.302 179.957 141.791 182.385C140.088 185.119 137.717 187.375 134.902 188.939C132.086 190.504 128.919 191.325 125.698 191.327L55.516 192.053Z" fill="#E1056D"/>
<path d="M124.531 172.849C124.439 172.849 124.357 171.898 123.918 170.435C123.353 168.525 122.399 166.752 121.116 165.229C119.832 163.706 118.247 162.465 116.459 161.586C115.089 160.9 114.147 160.665 114.178 160.562C115.025 160.629 115.852 160.858 116.613 161.238C118.511 162.048 120.193 163.292 121.524 164.87C122.855 166.447 123.797 168.315 124.276 170.322C124.521 171.141 124.608 171.999 124.531 172.849Z" fill="#263238"/>
<g opacity="0.2">
<path opacity="0.2" d="M123.426 88.8379C122.855 95.1539 121.645 101.396 119.815 107.468L115.272 106.138C116.135 107.527 116.7 109.079 116.933 110.697C117.165 112.315 117.06 113.964 116.623 115.54C115.736 118.682 114.413 121.685 112.694 124.461C105.192 137.972 97.6688 151.49 90.1255 165.015L112.878 113.35L112.285 103.795L116.664 102.864L123.426 88.8379Z" fill="#2F3044"/>
</g>
<g opacity="0.2">
<path opacity="0.2" d="M114.454 159.795C117.231 159.636 119.978 160.439 122.232 162.07C124.485 163.701 126.107 166.059 126.823 168.747C127.034 169.378 127.034 170.06 126.823 170.691C126.709 171.001 126.483 171.256 126.188 171.406C125.894 171.556 125.555 171.589 125.237 171.499C124.808 171.229 124.495 170.81 124.357 170.323C123.35 168.069 121.9 166.041 120.093 164.359C118.286 162.677 116.16 161.376 113.84 160.532" fill="#2F3044"/>
</g>
<path d="M90.2896 164.522C90.3735 164.24 90.4761 163.963 90.5965 163.694L91.6195 161.351L95.2923 152.808L107.63 124.684C109.39 120.694 111.088 116.848 112.684 113.247V113.359C112.49 109.962 112.296 106.771 112.122 103.814V103.609H112.306L116.695 102.699L116.551 102.811L122.004 91.7725L123.529 88.7545L123.948 87.9769C123.992 87.8843 124.044 87.7954 124.102 87.7109C124.085 87.8118 124.05 87.9088 123.999 87.9974L123.641 88.8056C123.293 89.5525 122.823 90.5857 122.219 91.8748L116.93 102.995V103.088H116.828L112.449 104.039L112.633 103.804C112.817 106.76 113.022 109.942 113.247 113.349V113.41V113.472C111.651 117.083 109.963 120.93 108.203 124.92L95.7322 152.982C94.126 156.522 92.8267 159.407 91.8957 161.463L90.8727 163.755C90.698 164.025 90.503 164.282 90.2896 164.522Z" fill="#263238"/>
<path d="M55.4645 191.378C55.4389 191.26 55.4219 191.141 55.4133 191.02C55.4133 190.754 55.4133 190.406 55.3315 189.997C55.2598 189.036 55.1575 187.685 55.0348 185.905C54.7995 182.375 54.4619 177.311 54.0117 171.081V170.907H54.1754L97.9317 162.866L114.065 159.94L113.861 160.134C117.411 146.66 120.48 134.967 122.69 126.598C123.795 122.506 124.736 119.161 125.298 116.848C125.616 115.733 125.851 114.864 126.025 114.24L126.219 113.564L126.301 113.35C126.315 113.427 126.315 113.507 126.301 113.585L126.148 114.26C125.994 114.894 125.779 115.774 125.503 116.889L123.038 126.68C120.879 135.059 117.861 146.773 114.393 160.257V160.421H114.229L98.0544 163.408L54.2879 171.285L54.4516 171.081C54.7892 177.322 55.0655 182.386 55.2598 185.925C55.3417 187.654 55.4031 188.995 55.444 189.967C55.444 190.406 55.444 190.754 55.444 190.99C55.4639 191.118 55.4708 191.248 55.4645 191.378Z" fill="#263238"/>
<path d="M141.78 95.2616C141.78 95.3537 140.757 95.5071 139.222 96.08C137.211 96.8338 135.369 97.9774 133.801 99.4452C132.233 100.913 130.971 102.676 130.086 104.633C129.411 106.137 129.196 107.16 129.063 107.129C128.93 107.098 129.063 106.873 129.135 106.403C129.261 105.749 129.45 105.108 129.697 104.49C130.516 102.429 131.78 100.575 133.398 99.0594C135.016 97.5438 136.949 96.4042 139.058 95.722C139.692 95.5181 140.343 95.3709 141.002 95.282C141.514 95.2309 141.77 95.2207 141.78 95.2616Z" fill="#263238"/>
<path d="M27.4426 72.5185C29.233 69.2141 28.4657 55.8734 31.1973 56.344C34.7268 56.9476 31.4633 70.9737 31.1973 72.2525C30.9313 73.5314 32.8239 73.8383 32.9569 72.6822C33.1615 71.0146 35.2076 54.6968 38.6758 55.6176C40.5992 56.1189 39.6989 59.628 39.6989 59.628C39.6989 59.628 36.7115 75.4445 38.3689 75.823C40.0263 76.2015 41.2846 67.0861 42.0212 63.7714C42.7578 60.4567 44.8039 59.2188 45.5917 60.8966C46.7375 63.3519 44.5686 71.3216 43.873 74.5135C43.1773 77.7054 41.5608 86.9641 46.0521 83.3425C50.5433 79.7209 55.2596 78.5955 56.8044 79.1786C58.3493 79.7618 57.9605 82.0432 56.2418 82.4934C54.4217 83.1743 52.7012 84.0965 51.1265 85.2352C49.8764 86.1663 48.7368 87.2372 47.7299 88.4271C46.3892 89.9013 45.3035 91.5886 44.5175 93.4196C43.8796 94.8659 42.9427 96.1607 41.7683 97.2187C40.5939 98.2767 39.2087 99.074 37.7039 99.558L35.0849 112.019L18.1226 108.387L21.8976 95.1998C23.2788 86.5345 22.5217 74.892 22.5319 69.6233C22.5319 61.1728 23.6471 61.1114 24.5781 61.3365C26.839 61.7764 25.6932 75.7412 27.4426 72.5185Z" fill="#FFD1BD"/>
<path d="M26.9614 83.8547C27.7357 84.1482 28.4908 84.4898 29.2224 84.8777C30.9455 85.9406 32.2856 87.5244 33.0486 89.3997C33.2694 89.9774 33.4406 90.5729 33.5602 91.1798L33.6113 91.4662L33.8568 91.3332C35.2156 90.5346 36.6994 89.9708 38.2458 89.6657C39.4018 89.4406 40.118 89.4201 40.118 89.3587C39.4849 89.2505 38.838 89.2505 38.2048 89.3587C36.6023 89.5893 35.0577 90.1203 33.6522 90.924L33.9489 91.0775C33.8422 90.4333 33.6673 89.8023 33.4272 89.1951C32.9823 88.1246 32.352 87.141 31.5652 86.2896C30.9198 85.6082 30.1747 85.0287 29.3554 84.5708C28.8127 84.2728 28.2355 84.0426 27.6366 83.8854C27.4148 83.8378 27.1866 83.8274 26.9614 83.8547Z" fill="#CC8F75"/>
<path d="M24.7114 95.7225C27.1588 97.3897 30.0472 98.2908 33.0084 98.3108C33.0084 98.1881 31.0749 97.963 28.7832 97.2366C26.4916 96.5102 24.7626 95.6099 24.7114 95.7225Z" fill="#CC8F75"/>
<path d="M86.115 83.4451L73.1631 109.39L80.1506 134.956L98.76 115.293L117.103 81.2148L86.115 83.4451Z" fill="#FFD1BD"/>
<path d="M73.9206 85.8798C73.9206 85.8798 55.5056 92.4274 55.5056 93.6448C52.2522 96.1922 41.418 122.393 37.9703 127.344L28.108 141.923L36.3744 109.656L18.1946 104.315C18.1946 104.315 2.66454 141.78 0.782114 150.107C-0.356007 155.052 -0.250553 160.202 1.08903 165.095L1.19134 165.013C2.35695 168.751 4.75992 171.98 8.00492 174.17C15.7086 179.111 22.9109 180.042 30.2769 174.6C34.451 171.53 39.2185 167.796 43.5767 164.318L44.7225 191.408H54.7587C54.7587 189.884 54.4518 171.326 54.4518 171.326C55.7695 166.934 56.7948 162.461 57.521 157.934C58.4315 151.55 73.3886 109.625 73.3886 109.625L84.9799 87.2609L85.2561 78.9844L73.9206 85.8798Z" fill="#E1056D"/>
<path d="M44.5075 191.174C44.4585 190.897 44.4311 190.616 44.4257 190.335C44.3848 189.735 44.3336 188.926 44.2722 187.91C44.1597 185.741 44.0062 182.693 43.8119 178.928C43.464 171.265 42.9934 160.717 42.4614 148.891V148.829C42.6763 147.714 42.9116 146.517 43.1469 145.31C45.5715 132.89 47.7813 121.636 49.3875 113.442L51.3416 103.804C51.5667 102.7 51.761 101.83 51.894 101.185L52.0475 100.51C52.0642 100.433 52.0882 100.358 52.1191 100.285C52.1348 100.363 52.1348 100.443 52.1191 100.52L52.0066 101.206L51.5462 103.845L49.7661 113.524C48.2008 121.708 46.0524 132.962 43.6277 145.423C43.4026 146.62 43.1673 147.816 42.9525 148.932V148.87C43.4231 160.697 43.8426 171.255 44.1392 178.907C44.262 182.682 44.3643 185.731 44.4359 187.9C44.4359 188.923 44.4359 189.731 44.4973 190.335C44.5231 190.614 44.5265 190.894 44.5075 191.174Z" fill="#263238"/>
<path d="M54.8091 167.133C54.8125 166.847 54.8433 166.563 54.9012 166.283C54.9932 165.69 55.1058 164.882 55.2592 163.869C55.6173 161.721 56.1084 158.754 56.712 154.989C57.9908 147.459 59.7811 137.147 61.684 125.74C62.9833 118.282 64.2008 111.284 65.2443 105.278V105.217C67.8019 99.4265 69.9401 94.5875 71.4543 91.1398C72.2011 89.4824 72.8047 88.1626 73.2344 87.201L73.7152 86.1779C73.7653 86.0543 73.8306 85.9375 73.9096 85.8301C73.883 85.9572 73.8418 86.0807 73.7868 86.1984C73.6743 86.4848 73.5413 86.8327 73.3674 87.2214C72.9581 88.1831 72.4057 89.5233 71.71 91.2011C70.2266 94.6693 68.1498 99.5391 65.674 105.36C64.6509 111.325 63.4642 118.333 62.1853 125.821C60.1392 137.218 58.3796 147.521 57.07 155.05C56.3948 158.744 55.8526 161.751 55.4536 163.89L54.9932 166.294C54.9512 166.577 54.8896 166.858 54.8091 167.133Z" fill="#263238"/>
<path d="M19.504 164.124C19.4324 164.073 20.2202 162.948 21.3251 161.055C22.7648 158.531 24.0032 155.897 25.0285 153.178C26.0489 150.507 26.8964 147.773 27.5657 144.993C28.0773 142.834 28.3126 141.484 28.3944 141.494C28.446 141.816 28.446 142.144 28.3944 142.466C28.333 143.09 28.2 143.98 27.9852 145.075C27.4248 147.931 26.6205 150.735 25.581 153.454C24.5454 156.177 23.2504 158.795 21.7138 161.27C21.1102 162.221 20.5987 162.958 20.2099 163.449C19.8212 163.94 19.504 164.155 19.504 164.124Z" fill="#263238"/>
<g opacity="0.2">
<path opacity="0.2" d="M20.9058 162.63C20.7397 162.665 20.5839 162.739 20.45 162.843C20.3162 162.948 20.2078 163.082 20.133 163.234C20.0582 163.387 20.0189 163.554 20.0181 163.724C20.0173 163.894 20.0549 164.062 20.1283 164.215C20.3036 164.514 20.5667 164.75 20.8817 164.893C21.1967 165.036 21.5482 165.078 21.888 165.013C22.5675 164.873 23.1904 164.535 23.6783 164.041C25.1605 162.519 26.2186 160.636 26.7475 158.578C28.3128 153.647 28.3844 148.348 28.4458 143.232C27.0167 149.985 24.483 156.456 20.9467 162.384" fill="#2F3044"/>
</g>
<g opacity="0.2">
<path opacity="0.2" d="M43.2698 165.035C40.2941 160.048 38.9927 154.24 39.5561 148.461C40.1085 140.584 43.9348 133.381 46.7891 126.025C45.1522 133.76 44.211 141.443 42.6969 148.881C42.6969 148.881 43.4846 159.94 43.5051 164.84" fill="#2F3044"/>
</g>
<g opacity="0.2">
<path opacity="0.2" d="M55.9756 160.103C56.7736 148.317 57.5818 136.511 59.6586 124.889C61.7641 112.993 65.7712 101.514 71.5261 90.8926C70.0427 95.5577 65.4696 105.359 65.4696 105.359C65.4696 105.359 58.8708 140.143 56.0063 157.698" fill="#2F3044"/>
</g>
<path d="M54.4924 173.637L56.1395 191.909H47.5151L39.8831 191.787C36.9751 192.102 34.0461 192.177 31.1257 192.012C30.9849 192.016 30.8449 191.988 30.7165 191.93C30.2634 191.865 29.8179 191.755 29.3865 191.602C28.609 191.316 27.811 190.815 27.9338 189.955C28.3123 187.336 29.8674 187.121 29.8674 187.121H30.6449L30.7063 186.896C29.5298 186.896 28.5272 186.896 28.0054 186.804C27.7599 186.804 27.6166 186.753 27.5962 186.712C27.5757 186.671 24.527 186.354 24.7725 184.738C25.1101 182.037 26.6652 181.822 26.6652 181.822L29.1819 181.658C27.9645 181.658 26.921 181.658 26.389 181.566C26.1434 181.566 26.0002 181.515 25.9797 181.474C25.9593 181.433 22.9106 181.116 23.1561 179.5C23.5346 176.881 25.0897 176.666 25.0897 176.666L27.1358 176.523C26.1127 176.523 25.325 176.522 24.8646 176.441C24.6191 176.441 24.4758 176.39 24.4554 176.349C24.4349 176.308 21.3862 175.991 21.6317 174.374C22.0512 171.745 23.596 171.591 23.596 171.591C23.596 171.591 28.4044 171.244 31.7089 171.111C31.7089 171.111 35.4635 167.734 36.9367 167.888C39.1465 168.123 51.9757 172.86 51.9757 172.86L54.4924 173.637Z" fill="#FFD1BD"/>
<path d="M38.3078 186.559C36.9051 186.874 35.4684 187.012 34.0314 186.968C32.6195 187.099 31.1968 187.054 29.7959 186.835C31.1983 186.517 32.6349 186.376 34.0723 186.416C35.4843 186.279 36.9082 186.327 38.3078 186.559Z" fill="#CC8F75"/>
<path d="M38.3281 181.373C36.322 181.725 34.2878 181.893 32.2511 181.875C30.2073 182.037 28.153 182.017 26.1128 181.813C28.1189 181.462 30.1533 181.298 32.1898 181.322C34.2332 181.153 36.2878 181.17 38.3281 181.373Z" fill="#CC8F75"/>
<g opacity="0.78">
<path opacity="0.78" d="M37.9183 176.114C35.891 176.461 33.8367 176.625 31.78 176.605C29.7363 176.774 27.6815 176.753 25.6416 176.544C27.6487 176.2 29.6824 176.036 31.7186 176.053C33.7826 175.881 35.8581 175.901 37.9183 176.114Z" fill="#CC8F75"/>
</g>
<path d="M30.3481 171.163C30.9848 171.287 31.6335 171.338 32.2817 171.316L36.9571 171.47L41.6325 171.644C42.2787 171.71 42.9301 171.71 43.5763 171.644C42.9504 171.462 42.3043 171.359 41.653 171.337C40.456 171.224 38.7986 171.102 36.9673 171.04C35.1361 170.979 33.4889 170.979 32.2817 171.04C31.6346 171.004 30.9855 171.046 30.3481 171.163Z" fill="#CC8F75"/>
<path d="M125.574 22.3385C127.743 17.0697 134.598 14.6655 139.958 16.6298C145.319 18.5941 148.88 24.0777 149.524 29.7454C149.967 32.5421 149.386 35.4048 147.887 37.8071C146.99 38.9807 145.863 39.9595 144.576 40.6841C143.288 41.4087 141.867 41.864 140.398 42.0222C137.775 42.3884 135.101 42.0503 132.651 41.0426C130.201 40.0349 128.063 38.3937 126.457 36.2874C124.85 34.1811 123.833 31.6854 123.509 29.0563C123.185 26.4271 123.566 23.759 124.613 21.3257" fill="#263238"/>
<path d="M147.386 23.0333C147.386 23.0333 147.284 23.3095 146.997 23.7392C146.589 24.3368 146.13 24.8981 145.626 25.417C143.949 27.1544 141.885 28.4692 139.601 29.2535C137.317 30.0378 134.88 30.2692 132.49 29.9287C131.772 29.8259 131.064 29.6651 130.372 29.4478C130.109 29.3884 129.86 29.2809 129.636 29.1307C129.636 29.0386 130.741 29.3865 132.531 29.5502C134.86 29.7763 137.21 29.5006 139.423 28.7418C141.636 27.9829 143.66 26.7585 145.36 25.151C146.639 23.9131 147.284 22.9821 147.386 23.0333Z" fill="#455A64"/>
<path d="M149.626 29.0501C149.626 29.0501 149.442 29.2752 149.043 29.6026C148.476 30.0679 147.882 30.4984 147.263 30.8916C145.224 32.2149 142.965 33.1641 140.593 33.6948C139.277 33.9589 137.933 34.062 136.593 34.0017C135.502 33.9473 134.42 33.7689 133.37 33.4698C132.664 33.282 131.979 33.025 131.324 32.7025C130.863 32.4774 130.608 32.3342 130.628 32.3035C130.649 32.2728 131.713 32.6922 133.482 33.1117C134.517 33.349 135.572 33.486 136.633 33.5209C137.935 33.5453 139.235 33.4287 140.511 33.1731C142.825 32.648 145.044 31.768 147.089 30.5643C148.654 29.6537 149.575 28.9785 149.626 29.0501Z" fill="#455A64"/>
<path d="M70.2473 38.0832C57.5819 10.2253 87.7109 -3.75994 104.141 0.874516C119.589 5.24298 126.178 12.9262 128.695 23.2591C131.211 33.592 131.119 44.7433 127.068 54.6363C125.022 59.4856 121.472 64.427 116.254 65.0306" fill="#263238"/>
<path d="M85.3788 106.924C85.1537 93.6245 85.0003 75.3322 85.0003 75.414C85.0003 75.4959 73.5625 73.5111 71.189 58.5847C70.0124 51.1675 70.3807 38.9931 71.0048 29.049C71.5777 20.087 77.5012 9.10956 86.4325 10.0508L114.29 17.1099C115.599 17.2481 116.808 17.8726 117.677 18.8598C118.547 19.8469 119.014 21.1247 118.986 22.44L117.165 80.0587" fill="#FFD1BD"/>
<path d="M77.8177 39.6177C77.809 40.1131 77.9929 40.5926 78.3307 40.9551C78.6684 41.3177 79.1337 41.5351 79.6285 41.5615C79.8702 41.5839 80.114 41.5577 80.3454 41.4846C80.5769 41.4114 80.7914 41.2927 80.9763 41.1354C81.1612 40.9781 81.3128 40.7855 81.4222 40.5687C81.5316 40.352 81.5965 40.1156 81.6132 39.8734C81.6245 39.3773 81.4414 38.8964 81.1032 38.5332C80.7649 38.1701 80.2981 37.9535 79.8024 37.9296C79.5607 37.9072 79.3169 37.9334 79.0855 38.0066C78.854 38.0797 78.6395 38.1985 78.4546 38.3557C78.2697 38.513 78.1181 38.7057 78.0087 38.9224C77.8993 39.1391 77.8344 39.3755 77.8177 39.6177Z" fill="#263238"/>
<path d="M98.4839 39.6177C98.4726 40.1138 98.6557 40.5948 98.994 40.9579C99.3322 41.321 99.799 41.5376 100.295 41.5615C100.536 41.5839 100.78 41.5577 101.012 41.4846C101.243 41.4114 101.458 41.2927 101.643 41.1354C101.827 40.9781 101.979 40.7855 102.088 40.5687C102.198 40.352 102.263 40.1156 102.279 39.8734C102.288 39.378 102.104 38.8986 101.766 38.536C101.429 38.1734 100.963 37.9561 100.469 37.9296C100.227 37.9072 99.9832 37.9334 99.7517 38.0066C99.5202 38.0797 99.3057 38.1985 99.1208 38.3557C98.9359 38.513 98.7843 38.7057 98.6749 38.9224C98.5655 39.1391 98.5006 39.3755 98.4839 39.6177Z" fill="#263238"/>
<path d="M86.135 50.2164C85.048 49.882 83.9249 49.6794 82.7896 49.6128C82.2576 49.5616 81.7665 49.4593 81.6745 49.1013C81.628 48.5562 81.7493 48.01 82.0223 47.536L83.5773 43.5358C85.736 37.8271 87.3013 33.1415 87.0762 33.0597C86.8511 32.9778 84.9073 37.5305 82.7487 43.2289C82.2269 44.6305 81.7256 45.9707 81.255 47.2597C80.9235 47.8876 80.8256 48.6126 80.9788 49.3059C81.0551 49.493 81.1731 49.6603 81.3238 49.7951C81.4745 49.9298 81.6539 50.0284 81.8484 50.0834C82.1392 50.159 82.438 50.2002 82.7384 50.2062C83.8653 50.3584 85.0073 50.3619 86.135 50.2164Z" fill="#263238"/>
<path d="M84.9795 75.4751C92.0089 75.5802 98.9295 73.7314 104.97 70.1348C104.97 70.1348 99.9059 80.5393 84.9795 79.1275V75.4751Z" fill="#CC8F75"/>
<path d="M116.132 41.2442C116.357 41.1418 124.122 37.7044 124.214 46.6357C124.306 55.567 115.314 53.7971 115.293 53.572C115.273 53.3469 116.132 41.2442 116.132 41.2442Z" fill="#FFD1BD"/>
<path d="M117.994 50.1546C117.994 50.1546 118.147 50.257 118.413 50.3797C118.787 50.5321 119.206 50.5321 119.579 50.3797C120.521 50.0216 121.298 48.5178 121.329 46.9115C121.342 46.1433 121.185 45.3816 120.868 44.6813C120.781 44.4034 120.628 44.1511 120.421 43.9461C120.214 43.741 119.96 43.5896 119.682 43.5048C119.504 43.4589 119.315 43.4767 119.149 43.5552C118.983 43.6336 118.849 43.7678 118.771 43.9344C118.648 44.1902 118.71 44.3641 118.659 44.3846C118.608 44.4051 118.464 44.2311 118.536 43.8628C118.586 43.6419 118.709 43.444 118.884 43.3002C119.129 43.1131 119.437 43.0287 119.743 43.0648C120.11 43.1346 120.453 43.2972 120.74 43.5372C121.027 43.7772 121.247 44.0865 121.38 44.4357C121.774 45.2037 121.968 46.0589 121.943 46.9218C121.943 48.7224 121.001 50.4104 119.712 50.7992C119.474 50.8733 119.222 50.8916 118.975 50.8525C118.729 50.8135 118.494 50.7182 118.29 50.5741C118.014 50.3695 117.963 50.1751 117.994 50.1546Z" fill="#CC8F75"/>
<path d="M86.7398 55.9863C86.9993 56.7649 87.3752 57.4996 87.8549 58.1655C88.0922 58.498 88.3972 58.7767 88.7498 58.983C89.1025 59.1893 89.4948 59.3186 89.901 59.3624C90.348 59.3651 90.7884 59.2538 91.1804 59.039C91.5724 58.8242 91.9032 58.513 92.1415 58.1348C92.5992 57.3861 92.8136 56.514 92.7554 55.6385C92.7554 54.8507 92.3564 53.9095 91.5788 53.8175C91.2485 53.8066 90.921 53.8805 90.6274 54.0323L86.5352 55.6897" fill="#CC8F75"/>
<path d="M88.3756 59.3532C89.1192 59.4099 89.8666 59.3195 90.5752 59.0872C91.2925 58.8048 91.882 58.27 92.2325 57.5833C92.4206 57.1598 92.5178 56.7015 92.5178 56.238C92.5178 55.7746 92.4206 55.3163 92.2325 54.8927C92.1374 54.6749 92.0172 54.4689 91.8745 54.2789C91.7108 54.1049 91.7415 54.1152 91.5676 54.1459C91.3936 54.1766 91.1276 54.3198 90.9026 54.4016L90.2274 54.6779C89.3475 55.0359 88.5495 55.3428 87.8845 55.5986C87.18 55.9436 86.4227 56.1683 85.644 56.2636C86.2615 55.7763 86.952 55.3896 87.6902 55.1178C88.3347 54.8006 89.1122 54.4425 89.9716 54.0947L90.6366 53.798C90.8829 53.6814 91.1357 53.5789 91.3936 53.4911C91.5894 53.4248 91.8015 53.4248 91.9972 53.4911C92.1772 53.5717 92.3352 53.6946 92.4576 53.8492C92.6386 54.0947 92.7929 54.3587 92.918 54.6369C93.1412 55.1598 93.2451 55.7259 93.2221 56.294C93.1991 56.862 93.0498 57.4178 92.785 57.921C92.351 58.7304 91.6161 59.3367 90.7389 59.609C90.1627 59.7923 89.5478 59.8171 88.9588 59.6806C88.5598 59.5374 88.3654 59.3942 88.3756 59.3532Z" fill="#263238"/>
<path d="M126.158 35.1256C125.237 35.0642 117.861 36.0156 118.444 49.7349C118.986 62.5538 127.969 59.7301 130.843 54.9115C133.555 50.3385 135.11 35.7599 126.158 35.1256Z" fill="#455A64"/>
<path d="M130.721 36.7522C130.71 36.6331 130.71 36.5133 130.721 36.3941C130.721 36.1179 130.721 35.7803 130.721 35.3711C130.721 34.4299 130.659 33.1101 130.608 31.463C130.547 28.0971 130.455 23.4217 130.342 18.0098L130.506 18.1735H126.618L126.792 17.9995C126.792 19.0226 126.853 20.0968 126.874 21.1915C127.007 26.3068 127.13 31.1254 127.222 35.146V35.2586H127.099C125.542 35.6208 124.158 36.5099 123.181 37.7753C122.446 38.7662 121.914 39.8927 121.615 41.09C121.419 41.8588 121.286 42.6423 121.216 43.4328C121.216 43.709 121.216 43.9136 121.216 44.0569C121.216 44.2001 121.216 44.2717 121.216 44.2717C121.203 44.2007 121.203 44.1279 121.216 44.0569C121.216 43.9136 121.216 43.709 121.216 43.4226C121.255 42.6233 121.365 41.829 121.544 41.0491C121.82 39.8197 122.346 38.6602 123.089 37.6423C124.097 36.3 125.546 35.3549 127.181 34.9721L127.068 35.1153C126.956 31.1049 126.812 26.317 126.669 21.171C126.669 20.0763 126.608 18.9919 126.587 17.9688V17.7949H130.731V17.9586C130.792 23.3604 130.843 28.046 130.884 31.4118C130.884 33.059 130.884 34.3787 130.884 35.3199V36.343C130.842 36.4839 130.787 36.6209 130.721 36.7522Z" fill="#455A64"/>
<path d="M126.158 17.9795C123.39 12.178 118.802 7.4396 113.094 4.48534C109.578 2.73001 105.884 1.35803 102.075 0.3931C102.075 0.3931 107.446 -0.875495 116.132 2.98144C120.071 4.7411 124.05 7.07367 126.68 10.4498C128.347 12.6289 130.434 16.8746 130.424 17.9693L126.158 17.9795Z" fill="#455A64"/>
<path d="M125.176 58.7395C125.083 58.7325 124.993 58.7082 124.91 58.6678C124.672 58.5682 124.442 58.4484 124.224 58.3098C123.428 57.7891 122.766 57.0881 122.291 56.2637C121.617 55.0216 121.213 53.6517 121.104 52.243C120.951 50.5414 120.951 48.8294 121.104 47.1277C121.249 45.4227 121.533 43.7324 121.953 42.0738C122.248 40.6988 122.744 39.375 123.426 38.1453C123.904 37.3199 124.57 36.6189 125.37 36.0991C125.585 35.9589 125.815 35.8423 126.056 35.7513C126.139 35.7109 126.229 35.6866 126.322 35.6797C126.322 35.6797 125.984 35.8332 125.442 36.2117C124.698 36.7555 124.08 37.4534 123.631 38.2578C122.998 39.4812 122.537 40.7859 122.26 42.1352C121.861 43.7831 121.587 45.4589 121.442 47.1482C121.304 48.8334 121.304 50.5271 121.442 52.2123C121.532 53.5853 121.901 54.9256 122.526 56.1511C122.967 56.9581 123.582 57.6569 124.327 58.1972C124.879 58.586 125.186 58.7088 125.176 58.7395Z" fill="#263238"/>
<path d="M95.5843 56.6692L88.5167 58.0558C87.5742 58.2407 86.96 59.1547 87.1449 60.0973L87.2493 60.6294C87.4342 61.5719 88.3482 62.1861 89.2908 62.0012L96.3584 60.6146C97.301 60.4297 97.9151 59.5157 97.7302 58.5731L97.6258 58.041C97.4409 57.0984 96.5269 56.4843 95.5843 56.6692Z" fill="#455A64"/>
<path d="M96.7441 57.7049L128.101 47.8631C128.288 47.8009 128.486 47.7765 128.683 47.7913C128.88 47.8061 129.072 47.8597 129.248 47.9491C129.424 48.0386 129.58 48.162 129.708 48.3123C129.836 48.4626 129.933 48.6368 129.994 48.8248C130.054 49.0154 130.076 49.2165 130.057 49.4158C130.038 49.615 129.979 49.8084 129.884 49.9843C129.788 50.1602 129.658 50.3149 129.501 50.4391C129.344 50.5634 129.164 50.6545 128.971 50.7072L96.8976 59.3725L96.7441 57.7049Z" fill="#455A64"/>
<path d="M119.917 53.3786C120.25 53.2386 120.592 53.119 120.94 53.0206L123.804 52.1407C125.012 51.7724 126.485 51.3837 128.05 50.8721C128.431 50.7339 128.78 50.5179 129.073 50.2378C129.359 49.9455 129.517 49.5519 129.513 49.1432C129.513 48.9446 129.451 48.751 129.335 48.5896C129.22 48.4282 129.057 48.3069 128.869 48.2429C128.44 48.1263 127.988 48.1263 127.559 48.2429L118.157 51.312L115.293 52.2021C114.958 52.3177 114.617 52.41 114.27 52.4783C114.6 52.3168 114.942 52.18 115.293 52.0691L118.126 51.046C120.52 50.2378 123.815 49.1022 127.518 47.9769C128.008 47.828 128.532 47.828 129.022 47.9769C129.275 48.0622 129.495 48.2245 129.65 48.441C129.806 48.6575 129.891 48.9173 129.892 49.1841C129.895 49.4308 129.849 49.6756 129.756 49.9041C129.662 50.1326 129.524 50.34 129.349 50.5141C129.023 50.8294 128.632 51.0702 128.204 51.22C126.587 51.7315 125.134 52.0793 123.917 52.4272L121.022 53.1945C120.66 53.2914 120.29 53.3531 119.917 53.3786Z" fill="#263238"/>
<path d="M103.466 35.2701C103.221 35.6487 101.072 34.4824 98.4122 34.953C95.7523 35.4236 94.1051 37.2242 93.7573 36.948C93.5834 36.8354 93.7573 36.1704 94.4734 35.3622C95.4415 34.316 96.7299 33.6214 98.136 33.3877C99.5326 33.1362 100.973 33.3595 102.228 34.022C103.2 34.5028 103.589 35.1065 103.466 35.2701Z" fill="#CC8F75"/>
<path d="M103.16 35.6074C102.665 35.5153 102.176 35.3923 101.697 35.2391C100.531 34.9809 99.3227 34.9809 98.1569 35.2391C96.9986 35.5114 95.9132 36.0315 94.9752 36.7635C94.2488 37.3364 93.8702 37.7865 93.8089 37.7252C93.7475 37.6638 94.0339 37.1522 94.7296 36.477C95.6561 35.6042 96.8001 34.9965 98.042 34.7176C99.2839 34.4386 100.578 34.4986 101.789 34.8913C102.709 35.1777 103.19 35.5256 103.16 35.6074Z" fill="#263238"/>
<path d="M104.541 29.6018C104.316 30.3179 102.034 30.2668 99.3231 30.3998C96.612 30.5328 94.3204 30.6862 94.0646 29.9905C93.9418 29.6427 94.4125 29.1209 95.3434 28.6503C97.8143 27.5349 100.624 27.432 103.17 28.3639C104.132 28.7629 104.633 29.2539 104.541 29.6018Z" fill="#263238"/>
<path d="M82.043 36.8448C81.8384 36.9574 81.4393 36.5788 80.7846 36.1287C79.9767 35.5609 79.0491 35.1864 78.0735 35.034C75.7614 34.6555 73.8994 35.7195 73.6334 35.3409C73.5106 35.1875 73.8278 34.6555 74.6565 34.144C75.7636 33.4948 77.0614 33.2489 78.3293 33.4483C79.6201 33.6286 80.7904 34.3036 81.5928 35.3307C82.1657 36.1287 82.2169 36.7528 82.043 36.8448Z" fill="#CC8F75"/>
<path d="M82.2994 37.949C82.2278 37.949 81.88 37.4886 81.1536 36.8441C80.2247 36.0034 79.0915 35.4212 77.8671 35.1555C76.6428 34.8898 75.3702 34.9499 74.1764 35.3299C73.2556 35.6164 72.7236 35.9335 72.6827 35.8619C72.6418 35.7903 73.1021 35.3709 74.0536 34.9719C75.3015 34.475 76.6692 34.361 77.9821 34.6445C79.2967 34.9278 80.4949 35.6018 81.4196 36.5781C81.8338 36.9451 82.1383 37.4195 82.2994 37.949Z" fill="#263238"/>
<path d="M83.2202 30.5013C83.0872 31.2277 80.908 31.4425 78.3299 31.4732C75.7518 31.5039 73.5625 31.3095 73.4192 30.5729C73.276 29.8363 75.4654 28.8235 78.3095 28.803C81.1536 28.7826 83.3634 29.7852 83.2202 30.5013Z" fill="#263238"/>
<path d="M107.313 9.33476C105.575 11.6856 104.196 14.2819 103.221 17.0384C102.742 18.4202 102.572 19.8901 102.722 21.3447C102.873 22.7993 103.34 24.2033 104.09 25.4582C105.666 27.7601 108.357 28.9775 110.812 30.3177C113.267 31.6579 115.774 33.4994 116.388 36.2208C116.572 37.0699 116.214 40.0572 116.848 40.6506C117.728 41.4588 119.273 40.9575 119.917 39.9652C120.562 38.9728 121.022 35.6888 121.042 34.4918L121.196 23.3404C121.196 20.1894 121.196 16.9259 119.835 14.1329C117.922 10.1634 113.973 8.89485 108.203 9.1813" fill="#263238"/>
<path d="M70.6566 31.7201C71.095 27.9248 72.5592 24.3207 74.8921 21.2951C77.2502 18.273 80.6495 16.2378 84.427 15.5864C88.1918 15.0135 91.9976 16.057 95.8034 16.2719C99.6092 16.4867 103.927 15.5557 105.911 12.3126C106.535 11.2896 106.822 9.87774 106.034 8.99791C105.714 8.68137 105.335 8.43105 104.919 8.26131C99.8712 5.81064 94.2149 4.89639 88.6522 5.63205C83.0694 6.40431 77.9818 9.24945 74.401 13.6017C72.6444 15.7884 71.4075 18.3455 70.7836 21.0801C70.1598 23.8147 70.1653 26.6553 70.7998 29.3875" fill="#263238"/>
<path d="M68.3959 26.1141C68.3169 25.9623 68.2584 25.8006 68.2219 25.6333C68.083 25.1575 67.9804 24.6719 67.915 24.1806C67.6942 22.3574 67.8687 20.508 68.4266 18.7583C69.2554 16.1427 70.8135 13.818 72.9178 12.0573C75.4945 9.90577 78.6054 8.49171 81.9207 7.96506C85.2118 7.45942 88.5703 7.60892 91.8035 8.40498C93.192 8.73618 94.5587 9.15302 95.8957 9.65311C97.1745 10.1237 98.3101 10.6762 99.4048 10.9319C101.129 11.4014 102.924 11.5608 104.704 11.4025C105.346 11.2685 105.943 10.9767 106.443 10.5534C106.349 10.7006 106.231 10.8319 106.096 10.9422C105.708 11.2672 105.249 11.4952 104.755 11.6072C102.934 11.8582 101.082 11.7505 99.3025 11.29C98.1771 11.0138 97.0108 10.5125 95.7525 10.0726C94.4135 9.5951 93.0469 9.1988 91.6602 8.88582C88.4866 8.13044 85.1969 7.99496 81.9719 8.48682C78.7562 8.98852 75.731 10.3335 73.2042 12.3847C71.1523 14.0751 69.6114 16.3033 68.7539 18.8197C68.1722 20.515 67.9492 22.3127 68.0992 24.0987C68.2424 25.4185 68.447 26.1039 68.3959 26.1141Z" fill="#455A64"/>
<path d="M84.9077 2.64327C85.2099 2.53294 85.5275 2.4708 85.8489 2.45912C86.7163 2.3704 87.5904 2.3704 88.4577 2.45912C91.3531 2.73458 94.1085 3.83532 96.3967 5.6306C97.7164 6.65366 98.8213 7.83017 99.9978 8.61793C101.043 9.30658 102.215 9.77962 103.446 10.0093C104.269 10.2067 105.12 10.2654 105.962 10.1832C106.556 10.1116 106.852 9.94791 106.883 9.98883C106.635 10.2052 106.329 10.344 106.003 10.3878C105.135 10.5537 104.243 10.5537 103.374 10.3878C102.075 10.2011 100.83 9.74079 99.7216 9.03739C98.4837 8.22917 97.3481 7.08334 96.0693 6.06028C93.848 4.32885 91.2076 3.21692 88.4168 2.83765C86.2684 2.54096 84.9179 2.7865 84.9077 2.64327Z" fill="#455A64"/>
<path d="M130.086 30.0415C130.086 30.0415 129.882 29.6937 129.452 29.1208C128.818 28.33 128.004 27.7022 127.078 27.2895C125.707 26.6838 124.219 26.3869 122.72 26.4199C120.865 26.5231 119.021 26.7763 117.206 27.177C115.35 27.5867 113.445 27.7313 111.548 27.6067C110.002 27.4732 108.484 27.1076 107.047 26.5222C106.08 26.1303 105.157 25.6365 104.295 25.049C103.954 24.8417 103.649 24.5789 103.395 24.2715C104.604 24.9809 105.862 25.6031 107.159 26.1335C108.579 26.6484 110.063 26.9652 111.569 27.0747C113.419 27.1708 115.274 27.016 117.083 26.6143C118.926 26.2037 120.803 25.9606 122.689 25.8879C124.259 25.8728 125.811 26.223 127.222 26.911C128.178 27.3774 128.999 28.082 129.605 28.9571C129.757 29.1976 129.887 29.4509 129.994 29.7142C130.076 29.9392 130.107 30.0415 130.086 30.0415Z" fill="#455A64"/>
<path d="M128.469 22.88C128.469 22.88 128.275 22.5321 127.835 21.9797C127.191 21.2328 126.372 20.6565 125.451 20.3019C124.073 19.7935 122.589 19.6353 121.134 19.8415C119.487 20.0052 117.697 20.5065 115.763 20.8645C113.932 21.2847 112.026 21.2567 110.208 20.7827C108.733 20.328 107.401 19.4998 106.341 18.3785C105.624 17.6415 105.046 16.7822 104.632 15.8413C104.543 15.5874 104.471 15.3276 104.417 15.0638C104.399 14.9692 104.399 14.872 104.417 14.7773C104.985 16.0149 105.76 17.1463 106.709 18.1227C107.757 19.1481 109.038 19.903 110.443 20.3223C112.195 20.7436 114.022 20.7436 115.773 20.3223C117.666 19.9643 119.477 19.4732 121.195 19.2993C122.723 19.1101 124.273 19.318 125.697 19.9029C126.658 20.3047 127.489 20.963 128.101 21.8058C128.315 22.1261 128.441 22.4961 128.469 22.88Z" fill="#455A64"/>
<path d="M90.0952 125.196L90.2896 125.032L90.8523 124.582C91.5687 123.993 92.2518 123.365 92.8984 122.7C93.9493 121.625 94.9301 120.483 95.8346 119.283C96.8576 117.891 98.0546 116.213 99.313 114.351C101.83 110.627 104.776 106.085 107.907 100.857C109.472 98.2382 111.088 95.4453 112.715 92.4989C113.124 91.7623 113.523 91.0154 113.943 90.2686C114.336 89.4814 114.806 88.7344 115.344 88.0383C115.905 87.3202 116.657 86.7742 117.513 86.4628C117.951 86.2887 118.429 86.2357 118.894 86.3094C119.14 86.3688 119.366 86.4923 119.549 86.6674C119.715 86.8643 119.838 87.0945 119.907 87.3426V87.3938C119.808 87.7075 119.644 87.9968 119.426 88.2429C119.191 88.495 118.87 88.6485 118.526 88.6726C117.884 88.6714 117.261 88.4553 116.756 88.0588C116.229 87.6815 115.839 87.1436 115.643 86.5258C115.448 85.9079 115.458 85.2433 115.672 84.6315C115.895 83.9867 116.361 83.4544 116.971 83.1481C117.565 82.8389 118.247 82.7414 118.905 82.8719C119.25 82.9248 119.576 83.0655 119.852 83.2804C120.128 83.4953 120.344 83.7773 120.48 84.0996C120.551 84.2828 120.567 84.4826 120.527 84.6749C120.487 84.8672 120.393 85.0439 120.255 85.184C119.999 85.4318 119.681 85.6052 119.334 85.6853C118.753 85.8179 118.145 85.7555 117.603 85.5077C117.061 85.2599 116.616 84.8405 116.337 84.3144C116.058 83.7714 115.992 83.1437 116.153 82.5547C116.309 81.9815 116.629 81.4662 117.073 81.0713C117.508 80.6787 118.073 80.4602 118.659 80.4575C118.956 80.4602 119.247 80.533 119.511 80.6699C119.774 80.8068 120.001 81.0039 120.173 81.2452C120.351 81.5129 120.418 81.8398 120.357 82.1557C120.33 82.3109 120.271 82.4588 120.185 82.5907C120.099 82.7226 119.987 82.8356 119.856 82.923C119.616 83.0877 119.341 83.1922 119.052 83.2278C118.764 83.2634 118.471 83.2291 118.199 83.1276C117.935 83.0134 117.699 82.845 117.505 82.6335C117.312 82.422 117.164 82.1721 117.073 81.9C116.896 81.3764 116.813 80.8258 116.828 80.2733C116.797 79.1939 117.078 78.1285 117.636 77.2041C117.932 76.7397 118.386 76.3981 118.915 76.2425C119.178 76.1846 119.45 76.1792 119.715 76.2266C119.98 76.274 120.233 76.3733 120.46 76.5187C120.704 76.6546 120.906 76.8556 121.044 77.0994C121.181 77.3432 121.248 77.6202 121.237 77.8998C121.203 78.1765 121.087 78.4369 120.905 78.6481C120.723 78.8593 120.483 79.0119 120.214 79.0866C119.963 79.1712 119.695 79.194 119.433 79.1531C119.172 79.1121 118.923 79.0086 118.71 78.8513C118.305 78.5184 118.036 78.049 117.953 77.5315C117.872 77.0337 117.918 76.5236 118.086 76.0481C118.203 75.5808 118.371 75.1278 118.587 74.6976C118.809 74.2725 119.146 73.9181 119.559 73.6746C119.959 73.4253 120.41 73.2712 120.879 73.2244C121.122 73.1896 121.369 73.2214 121.595 73.3165C121.809 73.4348 121.994 73.599 122.137 73.7974C122.281 73.9924 122.382 74.2155 122.434 74.4521C122.503 74.7024 122.473 74.9694 122.352 75.1989C122.217 75.401 122.022 75.5564 121.795 75.6443C121.568 75.7321 121.32 75.7481 121.084 75.69C120.642 75.6135 120.235 75.4027 119.917 75.0864C119.302 74.4727 118.938 73.6522 118.894 72.7845C118.836 71.9527 119.056 71.1251 119.518 70.4315C119.748 70.1008 120.044 69.822 120.388 69.613C120.73 69.4227 121.112 69.3174 121.503 69.3061C121.895 69.2811 122.284 69.3972 122.598 69.6335C122.75 69.7557 122.871 69.9121 122.951 70.0899C123.031 70.2677 123.067 70.4618 123.058 70.6566C123.004 71.0241 122.831 71.3637 122.565 71.6227C122.298 71.8816 121.954 72.0455 121.585 72.0888C121.243 72.1082 120.904 72.0288 120.606 71.8601C120.308 71.6913 120.066 71.4404 119.907 71.1374C119.584 70.5917 119.437 69.959 119.488 69.3266C119.706 68.2541 120.082 67.2199 120.603 66.2574L121.718 63.7202C122.383 62.2061 122.915 61.0296 123.273 60.2213L123.682 59.3108C123.728 59.2059 123.779 59.1035 123.836 59.0039C123.802 59.1124 123.761 59.2183 123.713 59.3211L123.334 60.2418L121.841 63.7714L120.787 66.2165C120.301 67.1853 119.956 68.2189 119.764 69.2857C119.717 69.8762 119.857 70.4665 120.163 70.9737C120.306 71.2394 120.521 71.4593 120.783 71.6077C121.046 71.7562 121.345 71.8272 121.646 71.8126C121.959 71.771 122.25 71.6302 122.476 71.4111C122.703 71.192 122.853 70.906 122.905 70.5952C122.912 70.4355 122.881 70.2764 122.815 70.1308C122.749 69.9851 122.65 69.8568 122.526 69.7563C122.253 69.5681 121.926 69.4746 121.595 69.4903C121.237 69.505 120.886 69.6031 120.572 69.7767C120.262 69.9705 119.994 70.2244 119.784 70.5236C119.359 71.1669 119.161 71.9339 119.222 72.7027C119.256 73.5002 119.588 74.2557 120.153 74.8204C120.43 75.0978 120.788 75.2804 121.176 75.3422C121.361 75.3978 121.56 75.3942 121.743 75.3319C121.926 75.2695 122.086 75.1515 122.199 74.9943C122.255 74.8212 122.266 74.6367 122.232 74.4579C122.198 74.2791 122.12 74.1118 122.004 73.9713C121.889 73.8103 121.738 73.6774 121.565 73.5825C121.383 73.5097 121.186 73.485 120.992 73.5109C120.562 73.5459 120.148 73.6902 119.79 73.9302C119.432 74.1701 119.141 74.4977 118.945 74.8818C118.74 75.2895 118.578 75.7183 118.465 76.1606C118.316 76.5911 118.278 77.0517 118.352 77.5008C118.42 77.94 118.65 78.3377 118.997 78.616C119.168 78.745 119.369 78.8302 119.581 78.8641C119.793 78.8979 120.011 78.8795 120.214 78.8103C120.423 78.7551 120.61 78.639 120.752 78.4768C120.894 78.3146 120.985 78.1137 121.012 77.8998C121.014 77.68 120.956 77.4637 120.844 77.2744C120.733 77.0851 120.571 76.9299 120.378 76.8256C119.992 76.5815 119.526 76.4971 119.078 76.5903C118.631 76.7369 118.248 77.0332 117.994 77.4292C117.481 78.3023 117.222 79.3017 117.247 80.3142C117.236 80.8221 117.316 81.3279 117.483 81.8079C117.558 82.0321 117.679 82.2385 117.837 82.4144C117.996 82.5903 118.188 82.7321 118.403 82.831C118.626 82.9102 118.865 82.9358 119.099 82.9056C119.334 82.8754 119.558 82.7902 119.754 82.657C119.847 82.5934 119.927 82.5119 119.989 82.4172C120.051 82.3225 120.094 82.2165 120.115 82.1053C120.136 81.9941 120.135 81.8798 120.111 81.7691C120.088 81.6584 120.043 81.5533 119.979 81.4601C119.836 81.2649 119.65 81.1059 119.435 80.9957C119.22 80.8855 118.982 80.8273 118.741 80.8258C118.237 80.8296 117.753 81.019 117.38 81.3578C116.962 81.6767 116.667 82.1309 116.546 82.6429C116.426 83.1549 116.487 83.6929 116.718 84.1651C116.95 84.6373 117.339 85.0143 117.818 85.2319C118.297 85.4494 118.836 85.494 119.344 85.3579C119.629 85.2989 119.892 85.1606 120.102 84.9589C120.19 84.8652 120.251 84.7482 120.276 84.6215C120.302 84.4948 120.291 84.3635 120.245 84.2428C120.13 83.9741 119.948 83.7392 119.717 83.5602C119.487 83.3812 119.214 83.264 118.925 83.2197C118.346 83.0946 117.741 83.1805 117.22 83.4618C116.698 83.7432 116.294 84.2016 116.081 84.7543C115.887 85.3069 115.882 85.9084 116.067 86.464C116.252 87.0197 116.617 87.4979 117.104 87.8235C117.546 88.1758 118.094 88.3702 118.659 88.3759C118.922 88.336 119.167 88.2166 119.361 88.0338C119.555 87.851 119.688 87.6135 119.743 87.3529V87.445C119.703 87.2574 119.61 87.085 119.477 86.9475C119.343 86.8101 119.173 86.713 118.986 86.6674C118.578 86.6091 118.162 86.6585 117.779 86.8107C116.972 87.0945 116.263 87.6019 115.733 88.2736C115.215 88.9559 114.756 89.6815 114.362 90.4425C113.953 91.1996 113.544 91.9464 113.135 92.683C111.498 95.6294 109.871 98.4122 108.295 101.031C105.155 106.259 102.157 110.781 99.6404 114.505C98.3615 116.357 97.2055 118.024 96.1108 119.416C95.1882 120.607 94.1904 121.738 93.1235 122.802C92.2007 123.704 91.1857 124.506 90.0952 125.196Z" fill="#263238"/>
</svg>
