<svg width="18" height="18" viewBox="0 0 18 18" fill="none" xmlns="http://www.w3.org/2000/svg">
<path d="M9.10986 7.28129C7.65149 7.28129 6.46924 8.46354 6.46924 9.92191C6.46924 11.3803 7.65149 12.5625 9.10986 12.5625C10.5682 12.5625 11.7505 11.3803 11.7505 9.92191C11.7505 8.46354 10.5682 7.28129 9.10986 7.28129Z" fill="white"/>
<path fill-rule="evenodd" clip-rule="evenodd" d="M12.0756 1.18031C10.3842 -0.323123 7.83548 -0.323123 6.14412 1.18031L5.96882 1.33613C5.48769 1.7638 4.86635 2.00003 4.22262 2.00003C2.09791 2.00003 0.375488 3.72245 0.375488 5.84717V9.95867C0.375482 11.4509 0.375476 12.6205 0.476017 13.5485C0.578618 14.4955 0.791752 15.2628 1.26774 15.918C1.5559 16.3146 1.90469 16.6634 2.3013 16.9515C2.95644 17.4275 3.72375 17.6407 4.67075 17.7433C5.59872 17.8438 6.76837 17.8438 8.26052 17.8438H9.95915C11.4513 17.8438 12.621 17.8438 13.549 17.7433C14.496 17.6407 15.2633 17.4275 15.9184 16.9515C16.315 16.6634 16.6638 16.3146 16.952 15.918C17.428 15.2628 17.6411 14.4955 17.7437 13.5485C17.8442 12.6206 17.8442 11.4509 17.8442 9.95875V5.84717C17.8442 3.72245 16.1218 2.00003 13.9971 2.00003C13.3534 2.00003 12.732 1.7638 12.2509 1.33613L12.0756 1.18031ZM5.25049 9.92191C5.25049 7.79044 6.97839 6.06254 9.10986 6.06254C11.2413 6.06254 12.9692 7.79044 12.9692 9.92191C12.9692 12.0534 11.2413 13.7813 9.10986 13.7813C6.97839 13.7813 5.25049 12.0534 5.25049 9.92191ZM13.9849 6.67195C13.5361 6.67195 13.1724 6.30818 13.1724 5.85945C13.1724 5.41072 13.5361 5.04695 13.9849 5.04695C14.4336 5.04695 14.7974 5.41072 14.7974 5.85945C14.7974 6.30818 14.4336 6.67195 13.9849 6.67195Z" fill="white"/>
</svg>
