<svg id="_4047317_auto_automobile_car_sedan_transport_icon" data-name="4047317_auto_automobile_car_sedan_transport_icon" xmlns="http://www.w3.org/2000/svg" width="68.087" height="25.066" viewBox="0 0 68.087 25.066">
  <ellipse id="Ellipse_14" data-name="Ellipse 14" cx="1.53" cy="1.53" rx="1.53" ry="1.53" transform="matrix(-0.16, -0.987, 0.987, -0.16, 55.345, 20.638)" fill="#231f20"/>
  <path id="Path_467" data-name="Path 467" d="M222.177,391.792v.447a.957.957,0,0,1-.956.956h-4.56a6.187,6.187,0,0,1-11.919,0h-33.6a6.187,6.187,0,0,1-11.919,0h-4.177a.957.957,0,0,1-.956-.956v-.447a.957.957,0,0,1,.956-.956h.009v-5.624a2.827,2.827,0,0,1,.11-.781l.6-2.075a2.376,2.376,0,0,1,1.651-1.686l3.337-.841a7.61,7.61,0,0,0,2.727-1.32l5.129-3.877a7.508,7.508,0,0,1,3.774-1.5q4.718-.473,9.453-.473a94.61,94.61,0,0,1,11.152.66l2.518.3a7.827,7.827,0,0,1,3.182,1.12l6.355,3.922a7.819,7.819,0,0,0,3.1,1.11l8.081,1.045a5.066,5.066,0,0,1,4.172,4.447l0,.032.619.815a2.741,2.741,0,0,1,.543,1.654V390.1a2.836,2.836,0,0,1-.1.767A.957.957,0,0,1,222.177,391.792Zm-63.5-8.08h-1.328a.366.366,0,0,0-.3.161l-.163.239a3.123,3.123,0,0,0-.541,1.758v.344a.367.367,0,0,0,.367.367h1.149a.366.366,0,0,0,.342-.235l.819-2.135A.367.367,0,0,0,158.673,383.711Zm29.676,1.984h2.391a.813.813,0,1,0,0-1.626h-2.391a.813.813,0,0,0,0,1.626Zm-17.914,0h2.391a.813.813,0,0,0,0-1.626h-2.391a.813.813,0,1,0,0,1.626Zm-1.557,4.987a3.762,3.762,0,0,0-.479-1.154.924.924,0,0,1-.937-.137c-.024-.02-.048-.041-.07-.063a.856.856,0,0,1-.063-.071.922.922,0,0,1-.138-.936,3.76,3.76,0,0,0-1.154-.479.924.924,0,0,1-1.708,0,3.761,3.761,0,0,0-1.154.479.924.924,0,0,1-1.208,1.207,3.761,3.761,0,0,0-.479,1.154.925.925,0,0,1,0,1.709,3.776,3.776,0,0,0,.284.8,3.887,3.887,0,0,0,.2.35.925.925,0,0,1,1.207,1.208,3.762,3.762,0,0,0,1.154.479.924.924,0,0,1,1.708,0,3.762,3.762,0,0,0,1.154-.479.924.924,0,0,1,1.206-1.208,3.9,3.9,0,0,0,.2-.35,3.778,3.778,0,0,0,.285-.8.925.925,0,0,1,0-1.709Zm15.648-9.859-1.068-4.9a.957.957,0,0,0-.969-.753l-9.077.333a.957.957,0,0,0-.742.4l-3.235,4.51a1.106,1.106,0,0,0,.9,1.751h13.111A1.107,1.107,0,0,0,184.526,380.823Zm19.263-.135-6.355-3.921a5.385,5.385,0,0,0-2.208-.78l-2.517-.3c-2.2-.261-4.418-.441-6.638-.543a.475.475,0,0,0-.478.6l1.275,4.612a2.465,2.465,0,0,0,2.376,1.807h12.409a2.484,2.484,0,0,0,2.071-1.113l.19-.288C203.873,380.739,203.831,380.714,203.79,380.689Zm10.607,9.994c-.024-.1-.052-.206-.084-.306a3.8,3.8,0,0,0-.241-.578c-.048-.092-.1-.182-.154-.27a.924.924,0,0,1-.937-.137c-.024-.02-.048-.041-.07-.063a.842.842,0,0,1-.063-.071.922.922,0,0,1-.138-.935l-.022-.014-.062-.037c-.061-.036-.122-.071-.185-.1s-.14-.07-.211-.1h0l-.006,0q-.1-.046-.211-.085h0q-.109-.04-.221-.073h0q-.113-.034-.228-.06h0a.924.924,0,0,1-1.708,0h0q-.116.027-.228.06h0q-.112.033-.221.073h0q-.107.04-.211.085l-.007,0h0q-.107.047-.211.1c-.063.033-.125.068-.186.1l-.061.037-.005,0-.017.011a.924.924,0,0,1-1.208,1.206c-.055.088-.106.178-.154.27a3.791,3.791,0,0,0-.241.578c-.032.1-.06.2-.084.306a.925.925,0,0,1,0,1.709c.016.073.035.144.056.215s.041.132.064.2c.012.034.025.069.037.1.026.065.053.129.081.192.014.033.03.064.045.1a3.887,3.887,0,0,0,.2.35.924.924,0,0,1,1.207,1.208,3.762,3.762,0,0,0,1.154.479.924.924,0,0,1,1.708,0,3.762,3.762,0,0,0,1.154-.479.924.924,0,0,1,1.206-1.208,3.9,3.9,0,0,0,.2-.35c.015-.032.031-.063.045-.1.029-.063.055-.127.081-.192a3.743,3.743,0,0,0,.159-.516.925.925,0,0,1,0-1.709Zm4.03-5.986a4.322,4.322,0,0,0-1.3-1.944.575.575,0,0,0-.327-.1H215.47a.589.589,0,0,0-.53.848l.527,1.081a.584.584,0,0,0,.354.3l1.88.59A.59.59,0,0,0,218.426,384.7Z" transform="translate(-154.09 -372.655)" fill="#231f20"/>
  <path id="Path_468" data-name="Path 468" d="M719.181,552.023a1.53,1.53,0,1,1,1.53-1.53A1.53,1.53,0,0,1,719.181,552.023Z" transform="translate(-708.088 -531.611)" fill="#231f20"/>
</svg>
