<svg width="12" height="16" viewBox="0 0 12 16" fill="none" xmlns="http://www.w3.org/2000/svg">
<path d="M11.3187 15.3556H0V0H8.96737L11.3187 2.35135V15.3556Z" fill="#7FCEC9"/>
<path d="M8.82872 0.00683594L8.82471 1.93621C8.8244 2.0116 8.83895 2.08632 8.86753 2.15608C8.89611 2.22585 8.93817 2.28929 8.9913 2.34279C9.04442 2.39629 9.10757 2.43879 9.17713 2.46786C9.2467 2.49693 9.32131 2.512 9.3967 2.51221L11.3277 2.51863L8.82872 0.00683594Z" fill="#102147"/>
<path d="M11.3277 2.36819V2.515L8.82715 0H8.97396L11.3277 2.36819Z" fill="#102147"/>
<path d="M10.0737 5.39746H1.24512V5.97667H10.0737V5.39746Z" fill="#102147"/>
<path d="M10.0737 7.16895H1.24512V7.74816H10.0737V7.16895Z" fill="#00AB9C"/>
<path d="M10.0737 8.94043H1.24512V9.51964H10.0737V8.94043Z" fill="#00AB9C"/>
<path d="M10.0737 10.7109H1.24512V11.2902H10.0737V10.7109Z" fill="#00AB9C"/>
</svg>
