<?xml version="1.0" encoding="utf-8"?>
<!-- Generator: Adobe Illustrator 26.3.1, SVG Export Plug-In . SVG Version: 6.00 Build 0)  -->
<svg version="1.1" id="Layer_1" xmlns="http://www.w3.org/2000/svg" xmlns:xlink="http://www.w3.org/1999/xlink" x="0px" y="0px"
	 width="17px" height="16.8px" viewBox="0 0 17 16.8" style="enable-background:new 0 0 17 16.8;" xml:space="preserve">
<style type="text/css">
	.st0{fill:#102147;}
	.st1{fill:#44D2F6;}
	.st2{fill:#7FCEC9;}
</style>
<g id="Layer_1-2">
	<g>
		<g>
			<path class="st0" d="M12.6,13.3L12.6,13.3c-0.1-0.1-0.3-0.2-0.5-0.3c-0.2-0.1-0.4-0.2-0.6-0.3c-0.2-0.1-0.4-0.2-0.5-0.3
				c0,0-0.1-0.1-0.2-0.2c-0.1-0.1-0.2-0.1-0.3-0.2c-0.1,0-0.2-0.1-0.3-0.1c-0.1,0-0.3,0.1-0.5,0.3s-0.4,0.4-0.5,0.6
				C9,13,8.8,13.2,8.6,13.4c-0.2,0.2-0.3,0.3-0.4,0.3c-0.1,0-0.1,0-0.2,0c-0.1,0-0.1,0-0.2-0.1c0,0-0.1-0.1-0.2-0.1
				c-0.1-0.1-0.2-0.1-0.2-0.1l0,0c-0.8-0.4-1.6-1-2.2-1.7C4.5,11,3.9,10.2,3.5,9.4c0,0,0-0.1-0.1-0.2C3.3,9.1,3.2,9,3.2,9
				c0-0.1-0.1-0.1-0.1-0.2c0-0.1,0-0.1,0-0.2c0-0.1,0.1-0.3,0.3-0.4C3.6,8,3.7,7.8,4,7.6c0.2-0.2,0.4-0.3,0.6-0.5s0.3-0.4,0.3-0.5
				c0-0.1,0-0.2-0.1-0.3C4.7,6.3,4.6,6.1,4.6,6C4.5,5.9,4.4,5.8,4.4,5.8C4.3,5.6,4.2,5.5,4.1,5.3C4,5.1,3.9,4.9,3.8,4.7
				C3.6,4.5,3.5,4.3,3.5,4.2C3.3,3.7,3.1,3.5,3,3.4c-0.1,0-0.1,0-0.2,0c-0.2,0-0.4,0-0.7,0.1c-0.2,0-0.4,0.1-0.6,0.2
				c-0.3,0.2-0.6,0.6-1,1.2C0.1,5.6-0.1,6.4,0,7.2c0,0.2,0.1,0.4,0.1,0.5c0.1,0.2,0.1,0.4,0.1,0.4c0,0.1,0.1,0.3,0.2,0.5
				c0.1,0.3,0.1,0.4,0.2,0.5l0,0c0.2,0.6,0.5,1.1,0.8,1.7c0.6,0.9,1.3,1.8,2,2.5c0.8,0.8,1.6,1.5,2.5,2c0.5,0.3,1.1,0.6,1.7,0.8
				c0.1,0,0.2,0.1,0.5,0.2c0.3,0.1,0.4,0.2,0.5,0.2c0.1,0,0.3,0.1,0.4,0.1l0,0c0.2,0,0.4,0.1,0.5,0.1c0.8,0.1,1.6,0,2.3-0.4
				c0.6-0.4,1-0.7,1.2-1c0.1-0.2,0.1-0.4,0.2-0.6c0.1-0.2,0.1-0.4,0.1-0.7c0-0.1,0-0.1,0-0.2C13.3,13.7,13,13.5,12.6,13.3L12.6,13.3
				z"/>
			<path class="st1" d="M17,4.8L17,4.8c0-1.5-0.8-2.9-2-3.8c-1.2-0.9-2.8-1.2-4.3-0.7c-1.5,0.4-2.6,1.5-3.2,3
				c-0.5,1.4-0.4,3,0.5,4.3C7.7,8,7.2,8.4,6.6,8.7c0.1,0.3,0.6,0.4,0.9,0.4c0.7,0.1,1.3-0.1,2-0.3c1,0.6,2.2,0.9,3.3,0.8
				c1.2-0.2,2.2-0.8,3-1.7C16.6,7.1,17,6,17,4.8L17,4.8z"/>
		</g>
		<g>
			<g>
				<path class="st2" d="M9.7,3c0-0.4,0.3-0.7,0.7-0.7h3.5c0.4,0,0.7,0.3,0.7,0.7v0.2l-2.4,1.3L9.7,3.2V3L9.7,3z"/>
				<path class="st2" d="M13.9,6.2h-3.5c-0.4,0-0.7-0.3-0.7-0.7v-2l2.4,1.2c0,0,0,0,0.1,0s0,0,0.1,0l2.4-1.2v2
					C14.6,5.9,14.3,6.2,13.9,6.2L13.9,6.2z"/>
			</g>
			<g>
				<circle class="st2" cx="10.9" cy="7.4" r="0.5"/>
				<circle class="st2" cx="12.1" cy="7.4" r="0.5"/>
				<circle class="st2" cx="13.4" cy="7.4" r="0.5"/>
			</g>
		</g>
	</g>
</g>
</svg>
