<svg width="17" height="10" viewBox="0 0 17 10" fill="none" xmlns="http://www.w3.org/2000/svg">
<path d="M16.2318 0H0V9.70624H16.2318V0Z" fill="#7FCEC9"/>
<path d="M4.97756 3.60645H1.27051V7.57063H4.97756V3.60645Z" fill="#00AB9C"/>
<path d="M4.8544 3.73828H1.39453V7.43823H4.8544V3.73828Z" fill="#7FCEC9"/>
<path d="M4.35181 7.12262C4.35181 6.51745 4.10108 6.02734 3.54491 6.02734H2.70534C2.14917 6.02734 1.89844 6.51745 1.89844 7.12262V7.43871H4.35181V7.12262Z" fill="#102147"/>
<path d="M3.82822 5.07537C3.82822 5.53564 3.51285 5.90855 3.12432 5.90855C2.73578 5.90855 2.42041 5.53564 2.42041 5.07537C2.42041 4.61509 2.73578 4.24219 3.12503 4.24219C3.51427 4.24219 3.82822 4.61723 3.82822 5.07537Z" fill="#102147"/>
<path d="M15.1583 3.59766H5.31494V4.41734H15.1583V3.59766Z" fill="#102147"/>
<path d="M15.1583 5.17383H5.31494V5.99351H15.1583V5.17383Z" fill="#102147"/>
<path d="M15.1583 6.75098H5.31494V7.57066H15.1583V6.75098Z" fill="#102147"/>
<path d="M14.6969 1.79033C15.006 1.79033 15.2566 1.53974 15.2566 1.23061C15.2566 0.921492 15.006 0.670898 14.6969 0.670898C14.3878 0.670898 14.1372 0.921492 14.1372 1.23061C14.1372 1.53974 14.3878 1.79033 14.6969 1.79033Z" fill="#102147"/>
<path d="M13.0236 1.79033C13.3327 1.79033 13.5833 1.53974 13.5833 1.23061C13.5833 0.921492 13.3327 0.670898 13.0236 0.670898C12.7145 0.670898 12.4639 0.921492 12.4639 1.23061C12.4639 1.53974 12.7145 1.79033 13.0236 1.79033Z" fill="#102147"/>
</svg>
