<svg width="12" height="15" viewBox="0 0 12 15" fill="none" xmlns="http://www.w3.org/2000/svg">
<path fill-rule="evenodd" clip-rule="evenodd" d="M5.9011 0.5C4.13188 0.5 2.69765 1.93424 2.69765 3.70346V3.87206H0.505809C0.226458 3.87206 0 4.09852 0 4.37787C0 4.65722 0.226458 4.88368 0.505809 4.88368H11.2964C11.5758 4.88368 11.8022 4.65722 11.8022 4.37787C11.8022 4.09852 11.5758 3.87206 11.2964 3.87206H9.10456V3.70346C9.10456 1.93424 7.67032 0.5 5.9011 0.5ZM5.9011 1.51162C7.11162 1.51162 8.09294 2.49294 8.09294 3.70346V3.87206H3.70927V3.70346C3.70927 2.49294 4.69059 1.51162 5.9011 1.51162Z" fill="#2F3044"/>
<path d="M1.68376 5.67885C1.65734 5.40075 1.41048 5.19673 1.13238 5.22315C0.85428 5.24957 0.650257 5.49644 0.67668 5.77454C0.740391 6.44509 0.855374 7.27131 1.00317 8.33333L1.19305 9.69773C1.37458 11.0025 1.47753 11.7425 1.70026 12.3487C2.11476 13.4769 2.85415 14.3813 3.80507 14.7826C4.32145 15.0005 4.91209 15.0002 5.7914 14.9999H6.01081C6.89011 15.0002 7.48076 15.0005 7.99714 14.7826C8.94806 14.3813 9.68745 13.4769 10.102 12.3487C10.3247 11.7425 10.4276 11.0025 10.6092 9.6977L10.799 8.33334C10.9468 7.27131 11.0618 6.44509 11.1255 5.77454C11.152 5.49644 10.9479 5.24957 10.6698 5.22315C10.3917 5.19673 10.1449 5.40075 10.1184 5.67885C10.0571 6.32491 9.9452 7.12949 9.7954 8.20591L9.61848 9.47719C9.42254 10.8851 9.33281 11.5088 9.1524 11.9999C8.80447 12.9468 8.22594 13.588 7.60384 13.8505C7.30022 13.9787 6.93239 13.9882 5.9011 13.9882C4.86982 13.9882 4.50199 13.9787 4.19837 13.8505C3.57627 13.588 2.99774 12.9468 2.64981 11.9999C2.4694 11.5088 2.37967 10.8851 2.18373 9.47719L2.00681 8.20591C1.85701 7.12949 1.74515 6.32491 1.68376 5.67885Z" fill="#2F3044"/>
<path d="M5.05809 6.4011C5.05809 6.12175 4.83163 5.8953 4.55228 5.8953C4.27293 5.8953 4.04647 6.12175 4.04647 6.4011V11.7964C4.04647 12.0757 4.27293 12.3022 4.55228 12.3022C4.83163 12.3022 5.05809 12.0757 5.05809 11.7964V6.4011Z" fill="#2F3044"/>
<path d="M7.75574 6.4011C7.75574 6.12175 7.52928 5.8953 7.24993 5.8953C6.97058 5.8953 6.74412 6.12175 6.74412 6.4011V11.7964C6.74412 12.0757 6.97058 12.3022 7.24993 12.3022C7.52928 12.3022 7.75574 12.0757 7.75574 11.7964V6.4011Z" fill="#2F3044"/>
</svg>
