<svg width="30" height="34" viewBox="0 0 30 34" fill="none" xmlns="http://www.w3.org/2000/svg">
<path d="M21.7429 31.8687H1.74822C1.28456 31.8687 0.839897 31.6845 0.512042 31.3567C0.184187 31.0288 0 30.5842 0 30.1205L0 1.74773C0 1.28407 0.184187 0.839408 0.512042 0.511553C0.839897 0.183699 1.28456 -0.000488281 1.74822 -0.000488281L17.8868 -0.000488281C18.3503 -8.0242e-05 18.7947 0.184374 19.1222 0.512323L22.9766 4.3684C23.1388 4.53066 23.2674 4.72328 23.3551 4.93525C23.4428 5.14723 23.4879 5.3744 23.4877 5.6038V30.1205C23.4877 30.5836 23.304 31.0277 22.9769 31.3555C22.6497 31.6833 22.2059 31.8678 21.7429 31.8687Z" fill="#7FCEC9"/>
<path d="M18.6108 -0.000488281V4.87954H23.4909L18.6108 -0.000488281Z" fill="#E0136E"/>
<path d="M2.77881 7.61841H20.0745" stroke="#00AB9C" stroke-width="0.499491" stroke-miterlimit="10"/>
<path d="M2.77881 10.4355H20.0745" stroke="#00AB9C" stroke-width="0.499491" stroke-miterlimit="10"/>
<path d="M2.77881 13.2544H20.0745" stroke="#00AB9C" stroke-width="0.499491" stroke-miterlimit="10"/>
<path d="M2.77881 16.0715H20.0745" stroke="#00AB9C" stroke-width="0.499491" stroke-miterlimit="10"/>
<path d="M2.77881 18.8887H20.0745" stroke="#00AB9C" stroke-width="0.499491" stroke-miterlimit="10"/>
<path d="M2.77881 21.7073H20.0745" stroke="#00AB9C" stroke-width="0.499491" stroke-miterlimit="10"/>
<path d="M2.77881 24.5244H20.0745" stroke="#00AB9C" stroke-width="0.499491" stroke-miterlimit="10"/>
<path d="M2.77881 27.4797H20.0745" stroke="#00AB9C" stroke-width="0.499491" stroke-miterlimit="10"/>
<path d="M26.6294 22.678H17.4637C16.0329 22.678 14.873 23.8379 14.873 25.2687V30.4317C14.873 31.8625 16.0329 33.0224 17.4637 33.0224H26.6294C28.0602 33.0224 29.2201 31.8625 29.2201 30.4317V25.2687C29.2201 23.8379 28.0602 22.678 26.6294 22.678Z" fill="#E0136E"/>
<path d="M25.3075 25.1305L25.141 24.9723C25.0645 24.8994 24.9629 24.8586 24.8571 24.8586C24.7514 24.8586 24.6497 24.8994 24.5733 24.9723L21.0585 28.3655L19.4934 26.8454C19.4167 26.7723 19.3147 26.7316 19.2087 26.7316C19.1027 26.7316 19.0008 26.7723 18.924 26.8454L18.7275 27.0369L21.0252 29.2763L25.3075 25.1305Z" fill="#A9DCDD"/>
<path d="M25.3074 25.1306L21.0285 29.2747L18.7308 27.0353L18.5194 27.2385C18.4824 27.2742 18.4529 27.317 18.4328 27.3643C18.4127 27.4117 18.4023 27.4626 18.4023 27.514C18.4023 27.5655 18.4127 27.6164 18.4328 27.6637C18.4529 27.711 18.4824 27.7539 18.5194 27.7896L20.7737 29.979C20.8399 30.0411 20.9247 30.0796 21.015 30.0886C21.1053 30.0976 21.196 30.0767 21.2732 30.029C21.2992 30.0136 21.3233 29.9952 21.3448 29.974L25.5439 25.9181C25.5808 25.8826 25.6102 25.8399 25.6303 25.7927C25.6504 25.7455 25.6608 25.6947 25.6608 25.6434C25.6608 25.5921 25.6504 25.5414 25.6303 25.4941C25.6102 25.4469 25.5808 25.4043 25.5439 25.3687L25.3074 25.1306Z" fill="#A9DCDD"/>
</svg>
