<svg width="26" height="26" viewBox="0 0 26 26" fill="none" xmlns="http://www.w3.org/2000/svg">
<g clip-path="url(#clip0_5:12315)">
<g filter="url(#filter0_d_5:12315)">
<path d="M5.48283 22.7972L5.96041 22.1399L5.48283 22.7972ZM4.28449 21.5989L4.94182 21.1213L4.28449 21.5989ZM21.7155 21.5989L21.0582 21.1213L21.7155 21.5989ZM20.5172 22.7972L20.0396 22.1399L20.5172 22.7972ZM20.5172 3.19953L20.0396 3.85686L20.5172 3.19953ZM21.7155 4.39787L21.0582 4.87544L21.7155 4.39787ZM5.48283 3.19953L5.96041 3.85686L5.48283 3.19953ZM4.28449 4.39787L4.94182 4.87544L4.28449 4.39787ZM8.66667 16.5192C8.21794 16.5192 7.85417 16.883 7.85417 17.3317C7.85417 17.7804 8.21794 18.1442 8.66667 18.1442V16.5192ZM17.3333 18.1442C17.7821 18.1442 18.1458 17.7804 18.1458 17.3317C18.1458 16.883 17.7821 16.5192 17.3333 16.5192V18.1442ZM8.66667 12.1859C8.21794 12.1859 7.85417 12.5496 7.85417 12.9984C7.85417 13.4471 8.21794 13.8109 8.66667 13.8109V12.1859ZM17.3333 13.8109C17.7821 13.8109 18.1458 13.4471 18.1458 12.9984C18.1458 12.5496 17.7821 12.1859 17.3333 12.1859V13.8109ZM8.66667 7.85254C8.21794 7.85254 7.85417 8.21631 7.85417 8.66504C7.85417 9.11377 8.21794 9.47754 8.66667 9.47754V7.85254ZM17.3333 9.47754C17.7821 9.47754 18.1458 9.11377 18.1458 8.66504C18.1458 8.21631 17.7821 7.85254 17.3333 7.85254V9.47754ZM21.9375 11.915V14.0817H23.5625V11.915H21.9375ZM4.0625 14.0817V11.915H2.4375V14.0817H4.0625ZM13 23.0192C10.9508 23.0192 9.47916 23.0181 8.33955 22.8946C7.21514 22.7728 6.51074 22.5397 5.96041 22.1399L5.00525 23.4545C5.87877 24.0892 6.90185 24.3734 8.16452 24.5102C9.41197 24.6453 10.987 24.6442 13 24.6442V23.0192ZM2.4375 14.0817C2.4375 16.0947 2.43638 17.6697 2.57154 18.9172C2.70834 20.1799 2.99252 21.2029 3.62716 22.0765L4.94182 21.1213C4.54197 20.571 4.30891 19.8666 4.18708 18.7422C4.06362 17.6025 4.0625 16.1309 4.0625 14.0817H2.4375ZM5.96041 22.1399C5.56954 21.8559 5.2258 21.5122 4.94182 21.1213L3.62716 22.0765C4.01138 22.6053 4.47643 23.0703 5.00525 23.4545L5.96041 22.1399ZM21.9375 14.0817C21.9375 16.1309 21.9364 17.6025 21.8129 18.7422C21.6911 19.8666 21.458 20.571 21.0582 21.1213L22.3728 22.0765C23.0075 21.2029 23.2917 20.1799 23.4285 18.9172C23.5636 17.6697 23.5625 16.0947 23.5625 14.0817H21.9375ZM13 24.6442C15.013 24.6442 16.588 24.6453 17.8355 24.5102C19.0982 24.3734 20.1212 24.0892 20.9947 23.4545L20.0396 22.1399C19.4893 22.5397 18.7849 22.7728 17.6605 22.8946C16.5208 23.0181 15.0492 23.0192 13 23.0192V24.6442ZM21.0582 21.1213C20.7742 21.5122 20.4305 21.8559 20.0396 22.1399L20.9947 23.4545C21.5236 23.0703 21.9886 22.6053 22.3728 22.0765L21.0582 21.1213ZM13 2.97754C15.0492 2.97754 16.5208 2.97865 17.6605 3.10212C18.7849 3.22394 19.4893 3.45701 20.0396 3.85686L20.9947 2.5422C20.1212 1.90756 19.0982 1.62338 17.8355 1.48658C16.588 1.35142 15.013 1.35254 13 1.35254V2.97754ZM23.5625 11.915C23.5625 9.90203 23.5636 8.32701 23.4285 7.07955C23.2917 5.81689 23.0075 4.79381 22.3728 3.92029L21.0582 4.87544C21.458 5.42578 21.6911 6.13018 21.8129 7.25459C21.9364 8.3942 21.9375 9.86584 21.9375 11.915H23.5625ZM20.0396 3.85686C20.4305 4.14084 20.7742 4.48458 21.0582 4.87544L22.3728 3.92029C21.9886 3.39147 21.5236 2.92642 20.9947 2.5422L20.0396 3.85686ZM13 1.35254C10.987 1.35254 9.41197 1.35142 8.16452 1.48658C6.90185 1.62338 5.87877 1.90756 5.00525 2.5422L5.96041 3.85686C6.51074 3.45701 7.21514 3.22394 8.33955 3.10212C9.47916 2.97865 10.9508 2.97754 13 2.97754V1.35254ZM4.0625 11.915C4.0625 9.86584 4.06362 8.3942 4.18708 7.25459C4.30891 6.13018 4.54197 5.42578 4.94182 4.87544L3.62716 3.92029C2.99252 4.79381 2.70834 5.81689 2.57154 7.07955C2.43638 8.32701 2.4375 9.90203 2.4375 11.915H4.0625ZM5.00525 2.5422C4.47643 2.92642 4.01138 3.39147 3.62716 3.92029L4.94182 4.87544C5.2258 4.48458 5.56954 4.14084 5.96041 3.85686L5.00525 2.5422ZM8.66667 18.1442H17.3333V16.5192H8.66667V18.1442ZM8.66667 13.8109H17.3333V12.1859H8.66667V13.8109ZM8.66667 9.47754H17.3333V7.85254H8.66667V9.47754Z" fill="#262626"/>
</g>
</g>
<defs>
<filter id="filter0_d_5:12315" x="1.6975" y="1.35254" width="22.605" height="24.772" filterUnits="userSpaceOnUse" color-interpolation-filters="sRGB">
<feFlood flood-opacity="0" result="BackgroundImageFix"/>
<feColorMatrix in="SourceAlpha" type="matrix" values="0 0 0 0 0 0 0 0 0 0 0 0 0 0 0 0 0 0 127 0" result="hardAlpha"/>
<feOffset dy="0.74"/>
<feGaussianBlur stdDeviation="0.37"/>
<feComposite in2="hardAlpha" operator="out"/>
<feColorMatrix type="matrix" values="0 0 0 0 0 0 0 0 0 0 0 0 0 0 0 0 0 0 0.15 0"/>
<feBlend mode="normal" in2="BackgroundImageFix" result="effect1_dropShadow_5:12315"/>
<feBlend mode="normal" in="SourceGraphic" in2="effect1_dropShadow_5:12315" result="shape"/>
</filter>
<clipPath id="clip0_5:12315">
<rect width="26" height="26" fill="white"/>
</clipPath>
</defs>
</svg>
