<svg width="18" height="17" viewBox="0 0 18 17" fill="none" xmlns="http://www.w3.org/2000/svg">
<path d="M17.2562 11.2769H15.6661C15.5962 11.2769 15.5293 11.3053 15.4799 11.3558C15.4305 11.4063 15.4028 11.4749 15.4028 11.5463V13.8623H2.9038V11.5409C2.9038 11.4695 2.87606 11.4009 2.82669 11.3504C2.77731 11.2999 2.71035 11.2715 2.64052 11.2715H1.05429C0.984466 11.2715 0.917501 11.2999 0.868127 11.3504C0.818753 11.4009 0.791016 11.4695 0.791016 11.5409V15.7633C0.791016 15.8348 0.818753 15.9034 0.868127 15.9539C0.917501 16.0044 0.984466 16.0328 1.05429 16.0328H17.2562C17.3261 16.0328 17.393 16.0044 17.4424 15.9539C17.4918 15.9034 17.5195 15.8348 17.5195 15.7633V11.5409C17.5181 11.4704 17.4898 11.4033 17.4406 11.3539C17.3913 11.3045 17.3252 11.2769 17.2562 11.2769Z" fill="#00AB9C"/>
<path d="M6.34863 2.72992H11.9564V0.417969H6.34863V2.72992Z" fill="#7FCEC9"/>
<path d="M5.7351 9.96676L8.63112 13.4441C8.86281 13.7136 9.44069 13.7136 9.67106 13.4441L12.5671 9.96676L15.4631 6.49075C15.6948 6.21321 15.4052 5.86696 14.9366 5.86696H11.9102V2.73047H6.30772V5.86696H3.35641C2.89436 5.86696 2.60476 6.21321 2.83644 6.49075L5.7351 9.96676Z" fill="#102147"/>
</svg>
