<svg width="18" height="16" viewBox="0 0 18 16" fill="none" xmlns="http://www.w3.org/2000/svg">
<path d="M16.8341 11.0474H15.2083C15.1369 11.0474 15.0684 11.0757 15.018 11.1262C14.9675 11.1767 14.9391 11.2452 14.9391 11.3165V13.6301H2.16012V11.3112C2.16012 11.2398 2.13176 11.1713 2.08128 11.1208C2.0308 11.0704 1.96233 11.042 1.89094 11.042H0.269174C0.197784 11.042 0.129319 11.0704 0.0788391 11.1208C0.0283593 11.1713 0 11.2398 0 11.3112L0 15.5291C0 15.6005 0.0283593 15.669 0.0788391 15.7194C0.129319 15.7699 0.197784 15.7983 0.269174 15.7983H16.8341C16.9055 15.7983 16.974 15.7699 17.0244 15.7194C17.0749 15.669 17.1033 15.6005 17.1033 15.5291V11.3112C17.1019 11.2407 17.0729 11.1736 17.0226 11.1243C16.9722 11.075 16.9046 11.0474 16.8341 11.0474Z" fill="#00AB9C"/>
<path d="M5.68213 2.51068H11.4155V0.201172H5.68213V2.51068Z" fill="#7FCEC9"/>
<path d="M5.0548 9.7394L8.01571 13.2131C8.25258 13.4823 8.84342 13.4823 9.07894 13.2131L12.0399 9.7394L15.0008 6.26706C15.2376 5.98981 14.9415 5.64392 14.4624 5.64392H11.3683V2.51074H5.64025V5.64392H2.62282C2.15042 5.64392 1.85433 5.98981 2.0912 6.26706L5.0548 9.7394Z" fill="#102147"/>
</svg>
