<svg width="14" height="14" viewBox="0 0 14 14" fill="none" xmlns="http://www.w3.org/2000/svg">
<path d="M3.31154 7.98136C3.11715 8.17749 3.11856 8.49407 3.31469 8.68846C3.51083 8.88285 3.8274 8.88144 4.02179 8.6853L5.18667 7.50999C5.65942 7.033 5.98478 6.7058 6.26047 6.4844C6.52827 6.26933 6.70028 6.19555 6.85433 6.17591C6.95106 6.16358 7.04894 6.16358 7.14567 6.17591C7.29972 6.19555 7.47173 6.26933 7.73953 6.48439C8.01521 6.7058 8.34058 7.033 8.81333 7.50999L9.97821 8.6853C10.1726 8.88144 10.4892 8.88285 10.6853 8.68846C10.8814 8.49407 10.8828 8.17749 10.6885 7.98136L9.5026 6.78487C9.05598 6.33423 8.69094 5.96591 8.36569 5.7047C8.02748 5.43308 7.68418 5.23646 7.27211 5.18394C7.09142 5.16091 6.90858 5.16091 6.72789 5.18394C6.31582 5.23646 5.97252 5.43308 5.63431 5.7047C5.30906 5.9659 4.94404 6.33421 4.49742 6.78485L3.31154 7.98136Z" fill="#102147"/>
<path fill-rule="evenodd" clip-rule="evenodd" d="M4.02432 13.4175C4.78574 13.5 5.74548 13.5 6.96983 13.5L7.03017 13.5C8.25452 13.5 9.21426 13.5 9.97568 13.4175C10.7527 13.3333 11.3823 13.1585 11.9198 12.7679C12.2453 12.5315 12.5315 12.2453 12.7679 11.9198C13.1585 11.3823 13.3333 10.7527 13.4175 9.97568C13.5 9.21426 13.5 8.25452 13.5 7.03017L13.5 6.96983C13.5 5.74548 13.5 4.78574 13.4175 4.02432C13.3333 3.24729 13.1585 2.6177 12.7679 2.08016C12.5315 1.75473 12.2453 1.46854 11.9198 1.2321C11.3823 0.841548 10.7527 0.66667 9.97568 0.582485C9.21427 0.49999 8.25456 0.499994 7.03023 0.499999L6.96982 0.499999C5.74549 0.499994 4.78573 0.49999 4.02432 0.582484C3.24729 0.666669 2.61771 0.841548 2.08016 1.2321C1.75473 1.46854 1.46854 1.75473 1.2321 2.08016C0.841549 2.6177 0.666671 3.24729 0.582486 4.02432C0.499991 4.78573 0.499995 5.74544 0.5 6.96977L0.5 7.03018C0.499995 8.25451 0.499991 9.21427 0.582485 9.97568C0.66667 10.7527 0.841549 11.3823 1.2321 11.9198C1.46854 12.2453 1.75473 12.5315 2.08016 12.7679C2.6177 13.1584 3.24729 13.3333 4.02432 13.4175ZM11.3321 11.9589C10.9934 12.2049 10.5599 12.3484 9.86797 12.4233C9.16667 12.4993 8.26105 12.5 7 12.5C5.73895 12.5 4.83333 12.4993 4.13203 12.4233C3.44009 12.3484 3.00661 12.2049 2.66794 11.9589C2.42741 11.7841 2.21588 11.5726 2.04112 11.3321C1.79506 10.9934 1.65163 10.5599 1.57667 9.86797C1.50069 9.16667 1.5 8.26105 1.5 7C1.5 5.73895 1.50069 4.83333 1.57667 4.13203C1.65163 3.44009 1.79506 3.00661 2.04112 2.66794C2.21588 2.4274 2.42741 2.21587 2.66794 2.04112C3.00661 1.79506 3.44009 1.65163 4.13203 1.57667C4.83333 1.50069 5.73895 1.5 7 1.5C8.26105 1.5 9.16667 1.50069 9.86797 1.57667C10.5599 1.65163 10.9934 1.79506 11.3321 2.04112C11.5726 2.21588 11.7841 2.42741 11.9589 2.66794C12.2049 3.00661 12.3484 3.44009 12.4233 4.13203C12.4993 4.83333 12.5 5.73895 12.5 7C12.5 8.26105 12.4993 9.16667 12.4233 9.86797C12.3484 10.5599 12.2049 10.9934 11.9589 11.3321C11.7841 11.5726 11.5726 11.7841 11.3321 11.9589Z" fill="#102147"/>
</svg>
