<svg width="26" height="24" viewBox="0 0 26 24" fill="none" xmlns="http://www.w3.org/2000/svg">
<g clip-path="url(#clip0_0_1187)">
<path d="M3.22514 20.2164L3.69536 19.5692L3.69536 19.5692L3.22514 20.2164ZM2.11898 19.1102L1.47176 19.5805L2.11898 19.1102ZM17.103 20.2164L16.6328 19.5692L16.6328 19.5692L17.103 20.2164ZM18.2091 19.1102L17.5619 18.64H17.5619L18.2091 19.1102ZM2.11898 5.23238L1.47176 4.76216H1.47176L2.11898 5.23238ZM3.22514 4.12623L3.69536 4.77344L3.22514 4.12623ZM8.17365 3.97846C8.61545 3.97316 8.9693 3.61072 8.964 3.16893C8.95871 2.72713 8.59627 2.37328 8.15447 2.37857L8.17365 3.97846ZM19.9568 14.1809C19.9621 13.7391 19.6082 13.3767 19.1664 13.3714C18.7246 13.3661 18.3622 13.7199 18.3569 14.1617L19.9568 14.1809ZM10.9616 16.1758L10.8733 15.3807L10.9616 16.1758ZM6.84184 15.8783L6.27615 16.444H6.27615L6.84184 15.8783ZM6.54436 11.7585L7.33947 11.8468L6.54436 11.7585ZM7.69147 9.3718L7.12578 8.80612L7.69147 9.3718ZM6.80699 10.4157L6.08595 10.0692L6.80699 10.4157ZM13.3483 15.0287L13.914 15.5943L13.3483 15.0287ZM12.3044 15.9131L12.651 16.6342L12.3044 15.9131ZM10.1641 20.3713C8.27138 20.3713 6.91612 20.3702 5.86749 20.2566C4.83384 20.1446 4.19342 19.931 3.69536 19.5692L2.75491 20.8636C3.57118 21.4567 4.52536 21.7206 5.69515 21.8473C6.84997 21.9724 8.30702 21.9713 10.1641 21.9713V20.3713ZM0.364062 12.1713C0.364062 14.0284 0.362964 15.4854 0.488081 16.6402C0.61482 17.81 0.878711 18.7642 1.47176 19.5805L2.76619 18.64C2.40433 18.1419 2.19076 17.5015 2.07877 16.4679C1.96516 15.4193 1.96406 14.064 1.96406 12.1713H0.364062ZM3.69536 19.5692C3.33881 19.3101 3.02525 18.9966 2.76619 18.64L1.47176 19.5805C1.82951 20.0729 2.26252 20.5059 2.75491 20.8636L3.69536 19.5692ZM10.1641 21.9713C12.0211 21.9713 13.4782 21.9724 14.633 21.8473C15.8028 21.7206 16.7569 21.4567 17.5732 20.8636L16.6328 19.5692C16.1347 19.931 15.4943 20.1446 14.4606 20.2566C13.412 20.3702 12.0567 20.3713 10.1641 20.3713V21.9713ZM17.5619 18.64C17.3029 18.9966 16.9893 19.3101 16.6328 19.5692L17.5732 20.8636C18.0656 20.5059 18.4986 20.0729 18.8564 19.5805L17.5619 18.64ZM1.96406 12.1713C1.96406 10.2786 1.96516 8.92337 2.07877 7.87474C2.19076 6.84108 2.40433 6.20067 2.76619 5.70261L1.47176 4.76216C0.878711 5.57842 0.61482 6.53261 0.488081 7.7024C0.362964 8.85722 0.364062 10.3143 0.364062 12.1713H1.96406ZM2.75491 3.47901C2.26252 3.83675 1.82951 4.26977 1.47176 4.76216L2.76619 5.70261C3.02525 5.34606 3.33881 5.03249 3.69536 4.77344L2.75491 3.47901ZM8.15447 2.37857C5.73043 2.40763 4.04842 2.53922 2.75491 3.47901L3.69536 4.77344C4.51491 4.17801 5.67037 4.00847 8.17365 3.97846L8.15447 2.37857ZM18.3569 14.1617C18.3269 16.665 18.1574 17.8205 17.5619 18.64L18.8564 19.5805C19.7962 18.2869 19.9277 16.6049 19.9568 14.1809L18.3569 14.1617ZM18.1544 9.09117L12.7826 14.463L13.914 15.5943L19.2858 10.2225L18.1544 9.09117ZM8.25715 9.93749L13.629 4.56568L12.4976 3.43431L7.12578 8.80612L8.25715 9.93749ZM10.8733 15.3807C9.70174 15.5108 8.90967 15.5969 8.32242 15.5779C7.75663 15.5596 7.54093 15.446 7.40752 15.3126L6.27615 16.444C6.82245 16.9903 7.51995 17.1528 8.27078 17.1771C9.00015 17.2006 9.92812 17.0955 11.05 16.9709L10.8733 15.3807ZM5.74925 11.6702C5.6246 12.792 5.51951 13.72 5.54307 14.4493C5.56731 15.2002 5.72985 15.8977 6.27615 16.444L7.40752 15.3126C7.27411 15.1792 7.1605 14.9635 7.14223 14.3977C7.12327 13.8105 7.2093 13.0184 7.33947 11.8468L5.74925 11.6702ZM7.12578 8.80612C6.67307 9.25883 6.30615 9.61102 6.08595 10.0692L7.52804 10.7623C7.60293 10.6064 7.7273 10.4673 8.25715 9.93749L7.12578 8.80612ZM7.33947 11.8468C7.42222 11.1021 7.45314 10.9181 7.52804 10.7623L6.08595 10.0692C5.86576 10.5273 5.81995 11.0338 5.74925 11.6702L7.33947 11.8468ZM12.7826 14.463C12.2528 14.9928 12.1137 15.1172 11.9579 15.1921L12.651 16.6342C13.1091 16.414 13.4613 16.0471 13.914 15.5943L12.7826 14.463ZM11.05 16.9709C11.6863 16.9002 12.1928 16.8544 12.651 16.6342L11.9579 15.1921C11.802 15.267 11.618 15.2979 10.8733 15.3807L11.05 16.9709ZM18.1544 4.56569C18.8371 5.24834 19.291 5.70463 19.5841 6.08882C19.8631 6.45454 19.9201 6.65946 19.9201 6.82843H21.5201C21.5201 6.16897 21.2438 5.62634 20.8561 5.11829C20.4826 4.6287 19.9365 4.08499 19.2858 3.43431L18.1544 4.56569ZM19.2858 10.2225C19.9365 9.57186 20.4826 9.02815 20.8561 8.53856C21.2438 8.03052 21.5201 7.48789 21.5201 6.82843H19.9201C19.9201 6.99739 19.8631 7.20231 19.5841 7.56804C19.291 7.95222 18.8371 8.40851 18.1544 9.09117L19.2858 10.2225ZM19.2858 3.43431C18.6351 2.78364 18.0914 2.23752 17.6018 1.86398C17.0938 1.47635 16.5512 1.2 15.8917 1.2V2.8C16.0607 2.8 16.2656 2.85698 16.6313 3.13602C17.0155 3.42914 17.4718 3.88303 18.1544 4.56569L19.2858 3.43431ZM13.629 4.56568C14.3116 3.88303 14.7679 3.42914 15.1521 3.13602C15.5178 2.85698 15.7227 2.8 15.8917 2.8V1.2C15.2322 1.2 14.6896 1.47635 14.1816 1.86398C13.692 2.23752 13.1483 2.78364 12.4976 3.43431L13.629 4.56568ZM19.2858 9.09117L13.629 3.43431L12.4976 4.56568L18.1544 10.2225L19.2858 9.09117Z" fill="white"/>
</g>
<defs>
<clipPath id="clip0_0_1187">
<rect width="24.9123" height="24" fill="white" transform="translate(0.164062)"/>
</clipPath>
</defs>
</svg>
