<svg width="36" height="21" viewBox="0 0 36 21" fill="none" xmlns="http://www.w3.org/2000/svg">
<path d="M34.9462 12.5751V6.14691L33.9655 6.47893V12.5751H34.9462Z" fill="#E0156D"/>
<path d="M29.0514 8.10364L18.0457 11.8357C17.8421 11.9034 17.6221 11.9034 17.4185 11.8357L6.42051 8.10364V17.3263H6.43281L6.40668 17.4523C6.40668 18.5498 11.4791 21 17.726 21C23.9728 21 29.0314 18.5498 29.0314 17.4523L29.0053 17.3263H29.0514V8.10364Z" fill="#7FCEC9"/>
<path d="M6.42051 8.14976L17.7321 11.9848L29.0437 8.14976L33.9655 6.47892L34.9462 6.1469L35.4642 5.97167L17.7321 0L0 5.97167L6.42051 8.14976Z" fill="#00AB9C"/>
<path d="M33.2969 14.0814V17.8305C33.2912 17.9863 33.317 18.1417 33.3728 18.2874C33.4285 18.433 33.513 18.566 33.6213 18.6782C33.7295 18.7905 33.8593 18.8798 34.0028 18.9408C34.1463 19.0018 34.3007 19.0332 34.4567 19.0332C34.6126 19.0332 34.767 19.0018 34.9105 18.9408C35.054 18.8798 35.1838 18.7905 35.2921 18.6782C35.4003 18.566 35.4848 18.433 35.5406 18.2874C35.5963 18.1417 35.6221 17.9863 35.6164 17.8305V14.0814C35.6161 13.7769 35.4957 13.4847 35.2813 13.2683H33.6305C33.4166 13.4849 33.2967 13.7771 33.2969 14.0814Z" fill="#E0156D"/>
<path d="M33.4829 12.5751V13.2683H33.6305H35.2813H35.4289V12.5751H34.9462H33.9656H33.4829Z" fill="#00AB9C"/>
</svg>
