<svg width="22" height="19" viewBox="0 0 22 19" fill="none" xmlns="http://www.w3.org/2000/svg">
<path d="M4.00006 8.07805V10.6264C4.00006 12.4877 4.00006 13.4184 4.24477 14.1715C4.73936 15.6937 5.93278 16.8871 7.45497 17.3817C8.20813 17.6264 9.13877 17.6264 11.0001 17.6264C12.8613 17.6264 13.792 17.6264 14.5451 17.3817C16.0673 16.8871 17.2607 15.6937 17.7553 14.1715C18.0001 13.4184 18.0001 12.4877 18.0001 10.6264V8.08133M18.0001 8.08133C17.0428 8.46931 15.8602 8.89073 14.4529 9.39334L12.3455 10.146C11.6796 10.3838 11.3466 10.5028 11.0002 10.5028C10.6537 10.5028 10.3208 10.3838 9.6548 10.146L7.5474 9.39334C3.14674 7.82165 0.946411 7.03581 0.946411 5.62638C0.946411 4.21695 3.14674 3.4311 7.5474 1.85942L9.6548 1.10677C10.3208 0.868922 10.6537 0.75 11.0002 0.75C11.3466 0.75 11.6796 0.868922 12.3455 1.10677L14.4529 1.85942C18.8536 3.4311 21.0539 4.21695 21.0539 5.62638C21.0539 6.58509 20.0362 7.25609 18.0001 8.08133Z" stroke="#262626" stroke-width="1.5"/>
<path fill-rule="evenodd" clip-rule="evenodd" d="M7.23248 1.17545L9.40242 0.40046C9.4355 0.388645 9.46817 0.376945 9.50046 0.365382C10.0703 0.161346 10.5208 -3.37174e-07 11 0C11.4793 0 11.9298 0.161348 12.4996 0.365386C12.5319 0.376948 12.5646 0.388646 12.5977 0.40046L14.7676 1.17544C16.9151 1.94242 18.603 2.54521 19.7481 3.13759C20.855 3.71014 21.8038 4.44609 21.8038 5.62638C21.8038 6.80667 20.855 7.54261 19.7481 8.11516C18.603 8.70755 16.9151 9.31033 14.7676 10.0773L12.5977 10.8523C12.5646 10.8641 12.5319 10.8758 12.4996 10.8874C11.9298 11.0914 11.4793 11.2528 11 11.2528C10.5208 11.2528 10.0703 11.0914 9.50046 10.8874C9.46817 10.8758 9.4355 10.8641 9.40242 10.8523L7.23247 10.0773C5.08493 9.31033 3.39712 8.70755 2.25195 8.11516C1.14511 7.54261 0.196289 6.80667 0.196289 5.62638C0.196289 4.44609 1.14511 3.71014 2.25195 3.13759C3.39712 2.54521 5.08494 1.94242 7.23248 1.17545ZM2.94113 4.46989C1.84763 5.03555 1.69629 5.39724 1.69629 5.62638C1.69629 5.85552 1.84763 6.21721 2.94113 6.78286C3.98519 7.32294 5.57621 7.89298 7.79954 8.68703L9.90693 9.43968C10.622 9.69506 10.8135 9.75276 11 9.75276C11.1865 9.75276 11.3781 9.69506 12.0931 9.43968L14.2005 8.68703C16.4239 7.89298 18.0149 7.32294 19.059 6.78286C20.1524 6.21721 20.3038 5.85552 20.3038 5.62638C20.3038 5.39723 20.1524 5.03555 19.059 4.46989C18.0149 3.92981 16.4239 3.35978 14.2005 2.56572L12.0931 1.81307C11.3781 1.55769 11.1865 1.5 11 1.5C10.8135 1.5 10.622 1.55769 9.90693 1.81307L7.79954 2.56572C5.57621 3.35978 3.98519 3.92981 2.94113 4.46989ZM0.999933 13.3764C0.58572 13.3764 0.196289 13.0523 0.196289 12.6381V5.62638C0.196289 5.21216 0.58572 4.87638 0.999933 4.87638C1.41415 4.87638 1.69629 5.21216 1.69629 5.62638L1.74993 6.85294V12.6264C1.74993 13.0406 1.41415 13.3764 0.999933 13.3764Z" fill="#262626"/>
</svg>
