<svg width="19" height="20" viewBox="0 0 19 20" fill="none" xmlns="http://www.w3.org/2000/svg">
<path d="M17.506 9.14992C17.497 8.25632 17.3542 7.36911 17.0823 6.51784C16.8041 5.67506 16.39 4.88346 15.8563 4.17438C15.3319 3.45884 14.6926 2.83517 13.9643 2.32874C13.238 1.82268 12.4389 1.43025 11.5944 1.16496C10.747 0.917703 9.86732 0.799425 8.98478 0.8141L8.29101 0.851171L7.65153 0.951794C7.43553 0.987517 7.22196 1.0366 7.01204 1.09876L6.69164 1.18084L6.3805 1.29471C5.96496 1.44202 5.56054 1.619 5.17037 1.8243L4.60636 2.16986C4.41703 2.2824 4.2502 2.43466 4.07014 2.55779C3.3742 3.10284 2.76526 3.75063 2.26422 4.4789C1.77778 5.21587 1.40634 6.02259 1.16266 6.87134C0.920669 7.71938 0.820022 8.60149 0.864768 9.48224L0.881979 9.82913L0.891247 10.0026L0.916403 10.1614L1.0157 10.797C1.11098 11.2268 1.23663 11.6493 1.39171 12.0614C1.70312 12.8869 2.14426 13.6574 2.69849 14.3439C3.25904 15.0246 3.91975 15.6161 4.65799 16.0982C5.39672 16.5811 6.20994 16.9389 7.065 17.1574C7.49067 17.2712 7.92445 17.3522 8.36251 17.3997L9.0245 17.4368H9.10791H9.14896C9.1569 17.4368 9.11718 17.4368 9.13836 17.4368H9.17146L9.3449 17.4301L9.69179 17.4182C9.80565 17.4182 9.92746 17.4182 10.0347 17.4023L10.3551 17.3586C10.5716 17.3361 10.7865 17.3003 10.9986 17.2514C11.2131 17.1998 11.4342 17.168 11.6447 17.0991L12.2789 16.8966L12.5278 16.8158L12.6906 16.9998L12.8905 17.2262C12.9594 17.3004 13.0229 17.3825 13.0958 17.45C13.2467 17.5824 13.3817 17.7373 13.5446 17.8578L13.7842 18.0458C13.8635 18.1097 13.9472 18.1681 14.0345 18.2206L14.2913 18.3847C14.376 18.4402 14.4645 18.4898 14.5561 18.533L14.8315 18.6694C14.9226 18.7162 15.0163 18.7578 15.1122 18.7938L15.3982 18.9104C15.4934 18.9513 15.5911 18.9862 15.6908 19.015C15.8894 19.0732 16.088 19.1474 16.2866 19.1924L16.8956 19.334L16.6374 19.7657L16.2879 19.3168C16.178 19.1606 16.0721 19.0004 15.9635 18.8428C15.855 18.6853 15.7662 18.5132 15.6683 18.3477C15.5703 18.1822 15.4922 18.0061 15.4035 17.8353C15.3148 17.6645 15.2486 17.4831 15.1718 17.3057C15.095 17.1283 15.0394 16.9429 14.9745 16.7615L14.8116 16.2055L14.6792 15.6401L14.6395 15.4667L14.7918 15.3131L15.3995 14.6921L15.6722 14.3532C15.7609 14.2393 15.8563 14.1294 15.937 14.0129L16.1727 13.6475C16.2495 13.5257 16.3356 13.4079 16.4044 13.2808L16.603 12.8942C16.6652 12.7618 16.7354 12.64 16.795 12.5049L16.9512 12.1077C17.0002 11.9753 17.0624 11.8429 17.1008 11.6999L17.2147 11.2815C17.2491 11.1412 17.2968 11.0035 17.3219 10.8618L17.3895 10.4329C17.4106 10.2899 17.4398 10.1482 17.4543 10.0039L17.506 9.13668V9.14992ZM18.258 9.13006L18.2064 10.0741C18.1891 10.2303 18.1574 10.3852 18.1335 10.5414L18.0567 11.0075C18.0289 11.1624 17.9773 11.312 17.9389 11.4656L17.8131 11.9171C17.7694 12.068 17.7019 12.2123 17.6476 12.3593L17.4795 12.8028C17.4199 12.9484 17.3391 13.0848 17.269 13.2265L17.0518 13.6449C16.975 13.7773 16.8824 13.9097 16.799 14.0421L16.5342 14.4393C16.4415 14.5717 16.3382 14.6855 16.2402 14.8086L15.9423 15.1754C15.7239 15.4018 15.5001 15.6242 15.2803 15.8467L15.3929 15.5196L15.4882 16.0492L15.6206 16.5682C15.6749 16.739 15.7265 16.9098 15.7835 17.0793C15.8404 17.2488 15.9159 17.4143 15.9781 17.5798C16.0403 17.7452 16.125 17.9068 16.2045 18.067C16.2839 18.2272 16.3726 18.3847 16.4693 18.541L16.7553 18.9991L17.0677 19.4426L17.4649 20L16.8122 19.8676L16.1648 19.7418C15.9476 19.7008 15.7371 19.6293 15.524 19.575C15.4161 19.5481 15.3099 19.5145 15.2062 19.4744L14.8937 19.3592C14.7881 19.3238 14.6847 19.2822 14.5839 19.2347L14.2794 19.0917C14.1771 19.0467 14.0776 18.9954 13.9815 18.9382L13.6902 18.7674C13.5918 18.713 13.4976 18.6515 13.4082 18.5833L13.1342 18.3847C12.9488 18.2523 12.7899 18.0935 12.6165 17.9478C12.5291 17.875 12.4589 17.7863 12.3782 17.7069L12.1451 17.4593L12.5569 17.5625L11.879 17.8181C11.6539 17.9041 11.4156 17.9505 11.1826 18.0206C10.9454 18.0857 10.7038 18.1335 10.4597 18.1636L10.0916 18.2219C9.96983 18.2391 9.85861 18.2391 9.7421 18.2484L9.39522 18.2709L9.22177 18.2815H9.15822H9.11188H9.02185L8.29366 18.2484C7.80955 18.2005 7.32977 18.116 6.85846 17.9955C5.91239 17.7589 5.01279 17.3651 4.19724 16.8304C3.3825 16.297 2.65387 15.6425 2.0365 14.8894C1.42186 14.1309 0.932425 13.2789 0.58673 12.3659C0.415723 11.9105 0.278106 11.4432 0.17497 10.9678L0.0637553 10.2303L0.0359516 10.0463L0.0280076 9.8715L0.0107958 9.52461C-0.0373614 8.55107 0.075822 7.57626 0.345765 6.63964C0.6149 5.70455 1.02617 4.81637 1.56516 4.00623C2.11795 3.20611 2.78993 2.49529 3.55776 1.89845C3.75503 1.7581 3.93907 1.5979 4.14826 1.47477L4.76921 1.09743C5.19952 0.870928 5.64605 0.676651 6.10511 0.516203L6.4467 0.398368L6.8002 0.308337C7.03456 0.240336 7.27289 0.186834 7.51383 0.148134L8.24864 0.0355952L8.94374 0.00117155C9.91827 -0.0140913 10.8894 0.119858 11.8234 0.398368C12.7478 0.693338 13.6219 1.12728 14.4158 1.68528C15.2086 2.24182 15.9042 2.92535 16.4746 3.70834C17.0531 4.48559 17.5003 5.35236 17.7986 6.27422C18.0885 7.19123 18.2419 8.14589 18.254 9.10756L18.258 9.13006Z" fill="#00AB9C"/>
<path d="M9.13067 17.9899C14.0035 17.9899 17.9537 14.0396 17.9537 9.1668C17.9537 4.29397 14.0035 0.34375 9.13067 0.34375C4.25783 0.34375 0.307617 4.29397 0.307617 9.1668C0.307617 14.0396 4.25783 17.9899 9.13067 17.9899Z" fill="#00AB9C"/>
<path d="M15.0115 14.4378L15.2472 16.3933L16.0707 18.4204L16.7724 19.5391L14.7772 19.0877L12.4086 17.3612L11.8936 16.1444L14.993 14.3398" fill="#00AB9C"/>
<path d="M6.45068 5.00558C6.61794 4.8576 6.79486 4.72093 6.98028 4.59646C7.17855 4.46471 7.38864 4.35169 7.60785 4.25885C7.84519 4.1597 8.09178 4.08431 8.34399 4.03377C8.62498 3.97642 8.91118 3.94846 9.19796 3.95036C9.58208 3.9467 9.96429 4.00481 10.33 4.12248C10.6526 4.22712 10.9514 4.3945 11.2091 4.615C11.4566 4.82554 11.6539 5.08884 11.7864 5.38556C11.9236 5.70486 11.9917 6.04959 11.9863 6.39709C11.994 6.71846 11.9405 7.03836 11.8287 7.33977C11.7323 7.58941 11.5983 7.82291 11.4315 8.03221C11.2794 8.22262 11.1047 8.39379 10.9112 8.54195L10.3816 8.94709C10.2285 9.06144 10.0834 9.18619 9.94733 9.32045C9.83184 9.43042 9.75517 9.57492 9.72888 9.73221L9.56338 10.7795H8.34399L8.22218 9.6104C8.19011 9.40773 8.22448 9.20011 8.32015 9.01858C8.41717 8.84348 8.54294 8.68594 8.69219 8.55254C8.85629 8.40468 9.03012 8.268 9.21252 8.14343C9.40193 8.01326 9.58159 7.86945 9.75006 7.71313C9.91598 7.55888 10.0575 7.38031 10.1698 7.18354C10.2869 6.97192 10.3454 6.73288 10.3392 6.49109C10.3417 6.33124 10.3082 6.17287 10.2413 6.02769C10.1794 5.89294 10.0891 5.77323 9.97646 5.67684C9.85544 5.57502 9.71551 5.49808 9.5647 5.45044C9.39656 5.39671 9.22088 5.37033 9.04437 5.37232C8.81041 5.36693 8.57698 5.39684 8.35193 5.46103C8.18536 5.51177 8.02434 5.57919 7.87132 5.66227C7.73892 5.73642 7.62903 5.80394 7.53768 5.86352C7.46497 5.92015 7.37679 5.95339 7.2848 5.95885C7.20853 5.96277 7.13275 5.94463 7.06653 5.90659C7.00031 5.86855 6.94646 5.81222 6.91143 5.74436L6.45068 5.00558ZM7.80645 13.4619C7.80616 13.3171 7.83404 13.1737 7.88853 13.0395C7.94074 12.9111 8.01766 12.7941 8.11494 12.6953C8.32096 12.4913 8.59955 12.3775 8.88947 12.3789C9.03642 12.3778 9.182 12.4071 9.31712 12.4649C9.44726 12.5194 9.56621 12.5975 9.66797 12.6953C9.8208 12.8483 9.92459 13.0433 9.96609 13.2556C10.0076 13.4678 9.98493 13.6876 9.90099 13.8869C9.84619 14.0152 9.76706 14.1316 9.66797 14.2298C9.46171 14.4308 9.18409 14.5418 8.89609 14.5383C8.74869 14.5391 8.60255 14.5112 8.46579 14.4562C8.33733 14.404 8.22038 14.3271 8.12156 14.2298C8.02471 14.1321 7.94782 14.0166 7.89515 13.8895C7.83764 13.7542 7.80749 13.6089 7.80645 13.4619Z" fill="#7FCEC9"/>
<path d="M8.88823 14.6046C9.50903 14.6046 10.0123 14.1013 10.0123 13.4805C10.0123 12.8597 9.50903 12.3564 8.88823 12.3564C8.26742 12.3564 7.76416 12.8597 7.76416 13.4805C7.76416 14.1013 8.26742 14.6046 8.88823 14.6046Z" fill="#102147"/>
</svg>
