<svg width="12" height="12" viewBox="0 0 12 12" fill="none" xmlns="http://www.w3.org/2000/svg">
<path fill-rule="evenodd" clip-rule="evenodd" d="M2.00033 0.833984C0.987803 0.833984 0.166992 1.6548 0.166992 2.66732C0.166992 3.67984 0.987803 4.50065 2.00033 4.50065C3.01285 4.50065 3.83366 3.67984 3.83366 2.66732C3.83366 1.6548 3.01285 0.833984 2.00033 0.833984ZM1.16699 2.66732C1.16699 2.20708 1.54009 1.83398 2.00033 1.83398C2.46056 1.83398 2.83366 2.20708 2.83366 2.66732C2.83366 3.12756 2.46056 3.50065 2.00033 3.50065C1.54009 3.50065 1.16699 3.12756 1.16699 2.66732Z" fill="#2F3044"/>
<path d="M6.00033 2.16732C5.72418 2.16732 5.50033 2.39118 5.50033 2.66732C5.50033 2.94346 5.72418 3.16732 6.00033 3.16732L11.3337 3.16732C11.6098 3.16732 11.8337 2.94346 11.8337 2.66732C11.8337 2.39118 11.6098 2.16732 11.3337 2.16732L6.00033 2.16732Z" fill="#2F3044"/>
<path fill-rule="evenodd" clip-rule="evenodd" d="M10.0003 7.50065C8.9878 7.50065 8.16699 8.32146 8.16699 9.33398C8.16699 10.3465 8.9878 11.1673 10.0003 11.1673C11.0128 11.1673 11.8337 10.3465 11.8337 9.33398C11.8337 8.32146 11.0128 7.50065 10.0003 7.50065ZM9.16699 9.33398C9.16699 8.87375 9.54009 8.50065 10.0003 8.50065C10.4606 8.50065 10.8337 8.87375 10.8337 9.33398C10.8337 9.79422 10.4606 10.1673 10.0003 10.1673C9.54009 10.1673 9.16699 9.79422 9.16699 9.33398Z" fill="#2F3044"/>
<path d="M0.666992 8.83398C0.39085 8.83398 0.166992 9.05784 0.166992 9.33398C0.166992 9.61013 0.39085 9.83398 0.666992 9.83398L6.00033 9.83398C6.27647 9.83398 6.50033 9.61013 6.50033 9.33398C6.50033 9.05784 6.27647 8.83398 6.00033 8.83398L0.666992 8.83398Z" fill="#2F3044"/>
</svg>
