<svg width="24" height="24" viewBox="0 0 24 24" fill="none" xmlns="http://www.w3.org/2000/svg">
<path d="M2.76696 15.8197L3.55158 15.5647L2.76696 15.8197ZM1.65645 9.65157L2.44989 9.87757L1.65645 9.65157ZM6.29367 4.96556L5.80874 4.29812L6.29367 4.96556ZM1.76974 9.30291L2.54449 9.58644L1.76974 9.30291ZM5.79064 21.678L5.33051 22.3627V22.3627L5.79064 21.678ZM5.49405 21.4625L4.98499 22.1117L5.49405 21.4625ZM21.2331 15.8197L20.4484 15.5647L21.2331 15.8197ZM18.506 21.4625L19.015 22.1117L18.506 21.4625ZM18.2094 21.678L18.6695 22.3627L18.2094 21.678ZM17.7063 4.96556L18.1913 4.29812L17.7063 4.96556ZM22.2303 9.30291L21.4555 9.58644L22.2303 9.30291ZM22.3436 9.65157L21.5501 9.87757L22.3436 9.65157ZM12.1833 2.00336L12.1531 2.82781L12.1833 2.00336ZM11.8167 2.00336L11.8469 2.82781L11.8167 2.00336ZM11.175 19.8197C11.175 20.2753 11.5444 20.6447 12 20.6447C12.4556 20.6447 12.825 20.2753 12.825 19.8197H11.175ZM12.825 17.8197C12.825 17.364 12.4556 16.9947 12 16.9947C11.5444 16.9947 11.175 17.364 11.175 17.8197H12.825ZM16 22.4063L16.0992 23.2254L16 22.4063ZM3.55158 15.5647C3.03672 13.9802 2.67189 12.8537 2.48066 11.9405C2.2934 11.0462 2.29122 10.4346 2.44989 9.87757L0.863011 9.42557C0.604241 10.334 0.647993 11.239 0.865687 12.2786C1.07941 13.2993 1.47856 14.5241 1.98233 16.0746L3.55158 15.5647ZM5.80874 4.29812C4.48984 5.25636 3.44699 6.01265 2.67415 6.71276C1.88696 7.42587 1.31963 8.13231 0.994989 9.01938L2.54449 9.58644C2.74355 9.0425 3.10477 8.54903 3.78192 7.93561C4.47341 7.30919 5.43068 6.61231 6.77859 5.633L5.80874 4.29812ZM2.44989 9.87757C2.47785 9.77941 2.50941 9.6823 2.54449 9.58644L0.994989 9.01938C0.946046 9.15312 0.902024 9.2886 0.863011 9.42557L2.44989 9.87757ZM1.98233 16.0746C2.48611 17.6251 2.88313 18.8506 3.31015 19.8019C3.74511 20.771 4.24165 21.5288 4.98499 22.1117L6.00312 20.8133C5.54731 20.4559 5.18962 19.9598 4.81547 19.1263C4.43339 18.275 4.06643 17.1493 3.55158 15.5647L1.98233 16.0746ZM6.25077 20.9932C6.16604 20.9363 6.08344 20.8763 6.00312 20.8133L4.98499 22.1117C5.09705 22.1996 5.21231 22.2833 5.33051 22.3627L6.25077 20.9932ZM20.4484 15.5647C19.9336 17.1493 19.5666 18.275 19.1845 19.1263C18.8104 19.9598 18.4527 20.4559 17.9969 20.8133L19.015 22.1117C19.7584 21.5288 20.2549 20.771 20.6899 19.8019C21.1169 18.8506 21.5139 17.6251 22.0177 16.0746L20.4484 15.5647ZM17.9969 20.8133C17.9166 20.8763 17.834 20.9363 17.7492 20.9932L18.6695 22.3627C18.7877 22.2833 18.903 22.1996 19.015 22.1117L17.9969 20.8133ZM17.2214 5.633C18.5693 6.61231 19.5266 7.30919 20.2181 7.93561C20.8952 8.54903 21.2565 9.0425 21.4555 9.58644L23.005 9.01938C22.6804 8.13231 22.113 7.42587 21.3259 6.71276C20.553 6.01265 19.5102 5.25636 18.1913 4.29812L17.2214 5.633ZM22.0177 16.0746C22.5215 14.5241 22.9206 13.2993 23.1343 12.2786C23.352 11.239 23.3958 10.334 23.137 9.42557L21.5501 9.87757C21.7088 10.4346 21.7066 11.0462 21.5194 11.9405C21.3281 12.8537 20.9633 13.9802 20.4484 15.5647L22.0177 16.0746ZM21.4555 9.58644C21.4906 9.68229 21.5222 9.7794 21.5501 9.87757L23.137 9.42557C23.098 9.28861 23.054 9.15312 23.005 9.01938L21.4555 9.58644ZM18.1913 4.29812C16.8724 3.33988 15.8308 2.58178 14.9262 2.06311C14.0047 1.53481 13.1575 1.21355 12.2136 1.17892L12.1531 2.82781C12.7319 2.84904 13.3128 3.04009 14.1055 3.49454C14.9149 3.95861 15.8735 4.65368 17.2214 5.633L18.1913 4.29812ZM6.77859 5.633C8.1265 4.65368 9.08508 3.95861 9.89452 3.49454C10.6872 3.04009 11.2681 2.84904 11.8469 2.82781L11.7865 1.17892C10.8425 1.21355 9.99531 1.53481 9.07385 2.06311C8.16918 2.58178 7.12765 3.33988 5.80874 4.29812L6.77859 5.633ZM12.2136 1.17892C12.0712 1.17369 11.9288 1.17369 11.7865 1.17892L11.8469 2.82781C11.949 2.82406 12.0511 2.82406 12.1531 2.82781L12.2136 1.17892ZM15.175 17.8197V21.8197H16.825V17.8197H15.175ZM8.82501 21.8197V17.8197H7.17501V21.8197H8.82501ZM12 14.6447C13.7535 14.6447 15.175 16.0662 15.175 17.8197H16.825C16.825 15.1549 14.6648 12.9947 12 12.9947V14.6447ZM12 12.9947C9.33523 12.9947 7.17501 15.1549 7.17501 17.8197H8.82501C8.82501 16.0662 10.2465 14.6447 12 14.6447V12.9947ZM12.825 19.8197V17.8197H11.175V19.8197H12.825ZM12 23.3529C13.7032 23.3529 15.0349 23.3543 16.0992 23.2254L15.9008 21.5873C14.9587 21.7015 13.7443 21.7029 12 21.7029V23.3529ZM16.0992 23.2254C17.0917 23.1051 17.9217 22.8652 18.6695 22.3627L17.7492 20.9932C17.2902 21.3016 16.7388 21.4858 15.9008 21.5873L16.0992 23.2254ZM15.175 21.8197V22.4063H16.825V21.8197H15.175ZM12 21.7029C10.2558 21.7029 9.04136 21.7015 8.09922 21.5873L7.90079 23.2254C8.96509 23.3543 10.2968 23.3529 12 23.3529V21.7029ZM8.09922 21.5873C7.26118 21.4858 6.70977 21.3016 6.25077 20.9932L5.33051 22.3627C6.07834 22.8652 6.90829 23.1051 7.90079 23.2254L8.09922 21.5873ZM7.17501 21.8197V22.4063H8.82501V21.8197H7.17501Z" fill="#262626"/>
</svg>
