<svg width="12" height="12" viewBox="0 0 12 12" fill="none" xmlns="http://www.w3.org/2000/svg">
<path d="M6.5 8C6.5 8.27614 6.27614 8.5 6 8.5C5.72386 8.5 5.5 8.27614 5.5 8C5.5 7.72386 5.72386 7.5 6 7.5C6.27614 7.5 6.5 7.72386 6.5 8Z" fill="#0F86F4"/>
<path d="M6.375 3.5C6.375 3.29289 6.20711 3.125 6 3.125C5.79289 3.125 5.625 3.29289 5.625 3.5H6.375ZM5.625 6.5C5.625 6.70711 5.79289 6.875 6 6.875C6.20711 6.875 6.375 6.70711 6.375 6.5H5.625ZM5.625 3.5V6.5H6.375V3.5H5.625ZM10.625 6C10.625 8.55432 8.55432 10.625 6 10.625V11.375C8.96853 11.375 11.375 8.96853 11.375 6H10.625ZM6 10.625C3.44568 10.625 1.375 8.55432 1.375 6H0.625C0.625 8.96853 3.03147 11.375 6 11.375V10.625ZM1.375 6C1.375 3.44568 3.44568 1.375 6 1.375V0.625C3.03147 0.625 0.625 3.03147 0.625 6H1.375ZM6 1.375C8.55432 1.375 10.625 3.44568 10.625 6H11.375C11.375 3.03147 8.96853 0.625 6 0.625V1.375Z" fill="#0F86F4"/>
</svg>
