<svg width="13" height="18" viewBox="0 0 13 18" fill="none" xmlns="http://www.w3.org/2000/svg">
<path d="M11.0043 16.0827L9.38172 15.3709L8.6128 16.966L5.83936 9.45849L8.23191 8.5752L11.0043 16.0827Z" fill="#102147"/>
<path d="M1.99561 16.0827L3.61719 15.3709L4.38714 16.966L7.15956 9.45849L4.76803 8.5752L1.99561 16.0827Z" fill="#102147"/>
<path d="M11.034 16.0359L9.41138 15.3211C9.39845 15.314 9.38325 15.3121 9.36898 15.3159C9.3547 15.3197 9.34245 15.3289 9.3348 15.3416C9.07815 15.8739 8.8215 16.4056 8.56485 16.9366L8.66696 16.9509L7.73363 14.4266L6.23765 10.3726L5.89454 9.44544L5.85574 9.51386L8.24727 8.63056L8.17886 8.59176C8.48928 9.43455 8.80142 10.2773 9.11525 11.1201C9.61493 12.4708 10.1139 13.8211 10.6123 15.171C10.7253 15.4801 10.8393 15.7895 10.9543 16.0993C10.9788 16.1656 11.0881 16.137 11.0626 16.0686L10.1282 13.5403L8.62918 9.48935L8.28608 8.56215C8.28224 8.54782 8.27289 8.53559 8.26008 8.52813C8.24726 8.52067 8.23201 8.51858 8.21766 8.52232L5.82613 9.40562C5.81187 9.4099 5.79979 9.41949 5.79238 9.4324C5.78497 9.44532 5.7828 9.46058 5.7863 9.47506L6.72065 12.0034L8.21664 16.0604L8.55974 16.9795C8.57404 17.0203 8.63939 17.0397 8.66186 16.9928L9.43181 15.3967L9.35522 15.4171L10.9768 16.1319C11.0422 16.1626 11.0993 16.0604 11.034 16.0359Z" fill="#102147"/>
<path d="M2.02224 16.1317L3.64484 15.4169L3.56826 15.3965L4.33718 16.9926C4.36067 17.0395 4.425 17.0201 4.4393 16.9793L5.37365 14.4509C5.87265 13.1023 6.37063 11.7527 6.86759 10.4021C6.98196 10.0923 7.09599 9.78326 7.20968 9.47487C7.21349 9.46053 7.21157 9.44526 7.20433 9.4323C7.19708 9.41934 7.18509 9.40971 7.17087 9.40544L4.7824 8.52214C4.76793 8.51864 4.75267 8.52081 4.73975 8.52822C4.72684 8.53563 4.71725 8.54771 4.71297 8.56197L3.77861 11.0903C3.28029 12.4403 2.78163 13.7906 2.28263 15.1412C2.16826 15.451 2.05423 15.76 1.94054 16.0684C1.91502 16.1369 2.02326 16.1654 2.04879 16.0991C2.35922 15.2563 2.67203 14.4132 2.98722 13.5697C3.48691 12.2197 3.98591 10.8694 4.48423 9.51878C4.59451 9.20972 4.7082 8.90065 4.82529 8.59158L4.75585 8.63038L7.14841 9.51368L7.10858 9.44526C6.79543 10.288 6.48296 11.1315 6.17117 11.9757C5.67148 13.3256 5.17248 14.6759 4.67416 16.0266C4.56047 16.3356 4.44645 16.645 4.33208 16.9548L4.43419 16.9405L3.66527 15.3455C3.65742 15.3327 3.64499 15.3235 3.63055 15.3197C3.6161 15.3159 3.60074 15.3178 3.58766 15.325L1.96607 16.0398C1.8997 16.0603 1.95688 16.1624 2.02224 16.1317Z" fill="#E0156D"/>
<path d="M9.75 9.75C11.5449 7.95508 11.5449 5.04493 9.75 3.25C7.95507 1.45507 5.04493 1.45507 3.25 3.25C1.45507 5.04493 1.45507 7.95507 3.25 9.75C5.04493 11.5449 7.95507 11.5449 9.75 9.75Z" fill="#102147"/>
<path d="M11.9845 7.49118C11.9622 7.35 11.9138 7.21424 11.8416 7.09089C11.7578 6.95099 11.6445 6.84581 11.5996 6.68243C11.5575 6.52841 11.5701 6.36457 11.6353 6.21882C11.6986 6.07586 11.8181 5.96864 11.8855 5.8267C11.9514 5.68598 11.988 5.53336 11.9932 5.37807C11.9984 5.22278 11.972 5.06805 11.9157 4.92324C11.8594 4.77843 11.7743 4.64655 11.6655 4.53558C11.5568 4.42461 11.4266 4.33685 11.283 4.27762C11.0063 4.15917 10.8031 3.93553 10.8031 3.61898C10.8031 3.48112 10.8378 3.34939 10.8255 3.21052C10.8056 2.96618 10.7068 2.73495 10.5439 2.55168C10.3811 2.36842 10.1631 2.24305 9.92283 2.19447C9.61649 2.13627 9.32035 2.26698 9.03954 2.10563C8.75872 1.94429 8.72094 1.61242 8.51569 1.3796C8.31697 1.15754 8.03899 1.02241 7.74161 1.00332C7.44423 0.984216 7.15125 1.08267 6.92576 1.27748C6.63371 1.50622 6.28754 1.4378 6.01285 1.22949C5.89009 1.13725 5.7499 1.07087 5.60075 1.03436C5.4516 0.997855 5.2966 0.991975 5.14511 1.01708C4.99363 1.04218 4.84881 1.09775 4.71941 1.18042C4.59002 1.26309 4.47873 1.37114 4.39229 1.49805C4.31468 1.60833 4.28098 1.737 4.21256 1.85239C4.13277 1.99382 4.00541 2.10236 3.85312 2.15873C3.72918 2.20011 3.59695 2.21028 3.46815 2.18835C3.22487 2.15109 2.9761 2.19477 2.76006 2.31266C2.54403 2.43054 2.37269 2.61612 2.27238 2.84086C2.20484 2.98823 2.17001 3.14848 2.17026 3.31059C2.17026 3.46376 2.21519 3.60672 2.18252 3.76092C2.15125 3.90392 2.07546 4.03334 1.96603 4.13057C1.85064 4.23269 1.70564 4.26945 1.57391 4.34297C1.44157 4.4192 1.32578 4.5211 1.23336 4.64268C1.14093 4.76426 1.07372 4.90308 1.03567 5.051C0.997619 5.19891 0.9895 5.35293 1.01179 5.50402C1.03407 5.65511 1.08632 5.80023 1.16545 5.93086C1.25123 6.06361 1.35334 6.16266 1.40032 6.3189C1.44705 6.49047 1.42545 6.67348 1.34007 6.82947C1.2737 6.94997 1.17464 7.04596 1.11542 7.17156C1.04518 7.31853 1.00624 7.47848 1.00105 7.64128C0.994298 7.94399 1.10648 8.23728 1.31352 8.4582C1.51775 8.68082 1.8486 8.71656 2.03956 8.94836C2.26727 9.22407 2.14167 9.50488 2.17843 9.82042C2.19603 9.98147 2.24765 10.1369 2.32986 10.2765C2.41207 10.4161 2.523 10.5367 2.65531 10.6302C2.92183 10.8191 3.20775 10.8446 3.52227 10.815C3.67486 10.7962 3.82941 10.8279 3.96234 10.9051C4.09527 10.9824 4.19928 11.101 4.25851 11.2429C4.3831 11.5227 4.54954 11.7535 4.83546 11.8903C4.9741 11.957 5.12477 11.9951 5.27846 12.0023C5.43216 12.0095 5.58573 11.9857 5.72999 11.9322C6.03021 11.8178 6.22831 11.5411 6.58163 11.585C6.8941 11.6238 7.0922 11.9025 7.39855 11.974C7.69268 12.0425 8.00195 11.9934 8.2604 11.8372C8.39 11.7582 8.50249 11.654 8.59125 11.5308C8.68009 11.4073 8.71583 11.2633 8.79548 11.1357C8.98031 10.8416 9.27032 10.8017 9.58585 10.8293C9.74341 10.8438 9.90226 10.8253 10.0523 10.7749C10.2022 10.7245 10.3401 10.6434 10.4569 10.5367C10.5738 10.43 10.6671 10.3001 10.7309 10.1554C10.7948 10.0106 10.8277 9.85406 10.8276 9.69584C10.8276 9.55186 10.7847 9.41502 10.8102 9.27002C10.839 9.11037 10.9229 8.96586 11.0471 8.86156C11.1584 8.76761 11.2953 8.73596 11.4198 8.66652C11.6212 8.55203 11.7828 8.37887 11.8831 8.17014C11.9835 7.96142 12.0178 7.72705 11.9815 7.49832L11.9845 7.49118ZM6.49892 11.0969C5.59008 11.0969 4.70165 10.8274 3.94598 10.3224C3.1903 9.8175 2.60133 9.09984 2.25353 8.26018C1.90573 7.42052 1.81473 6.49658 1.99204 5.60521C2.16935 4.71383 2.60699 3.89505 3.24964 3.2524C3.89229 2.60976 4.71107 2.17211 5.60244 1.9948C6.49382 1.8175 7.41776 1.9085 8.25741 2.2563C9.09707 2.60409 9.81474 3.19307 10.3197 3.94874C10.8246 4.70441 11.0941 5.59284 11.0941 6.50168C11.0941 7.7204 10.61 8.8892 9.7482 9.75096C8.88643 10.6127 7.71763 11.0969 6.49892 11.0969Z" fill="#00AB9C"/>
<path d="M6.49969 10.6476C5.67861 10.6482 4.87579 10.4052 4.19285 9.94937C3.5099 9.49356 2.97752 8.84539 2.66307 8.08691C2.34862 7.32842 2.26624 6.49369 2.42635 5.68837C2.58646 4.88304 2.98187 4.14331 3.56254 3.56279C4.1432 2.98226 4.88303 2.58704 5.68839 2.42712C6.49376 2.26721 7.32846 2.3498 8.08687 2.66443C8.84528 2.97907 9.49332 3.51161 9.94896 4.19467C10.4046 4.87773 10.6474 5.68061 10.6466 6.50169C10.6442 7.60068 10.2064 8.65394 9.42924 9.43094C8.65205 10.2079 7.59868 10.6454 6.49969 10.6476ZM6.49969 2.461C5.70126 2.461 4.92075 2.69773 4.25683 3.14125C3.59291 3.58478 3.0754 4.21519 2.76971 4.95279C2.46402 5.69039 2.38388 6.50207 2.53943 7.2852C2.69497 8.06834 3.07922 8.78778 3.64358 9.35258C4.20795 9.91737 4.9271 10.3022 5.71012 10.4583C6.49314 10.6144 7.30487 10.5349 8.04271 10.2298C8.78054 9.92466 9.41134 9.40762 9.85537 8.74404C10.2994 8.08046 10.5367 7.30013 10.5373 6.50169C10.5362 5.43118 10.1105 4.40482 9.35353 3.64786C8.59656 2.89089 7.57021 2.46515 6.49969 2.46407V2.461Z" fill="#00AB9C"/>
<path d="M6.4993 11.1573C5.57954 11.1562 4.68072 10.8826 3.91641 10.371C3.15209 9.85935 2.55658 9.13264 2.20512 8.28268C1.85366 7.43272 1.76201 6.49766 1.94177 5.59564C2.12153 4.69362 2.56462 3.86512 3.21506 3.21482C3.8655 2.56453 4.69409 2.12162 5.59615 1.94206C6.49821 1.7625 7.43326 1.85435 8.28314 2.206C9.13302 2.55765 9.8596 3.15332 10.3711 3.91774C10.8825 4.68217 11.156 5.58105 11.1568 6.50081C11.1565 7.73587 10.6657 8.92025 9.79226 9.79347C8.91885 10.6667 7.73436 11.1573 6.4993 11.1573ZM6.4993 1.96691C5.60082 1.96671 4.72247 2.23304 3.97541 2.73221C3.22835 3.23139 2.64616 3.94095 2.30251 4.77112C1.95886 5.60129 1.86921 6.51474 2.04489 7.39588C2.22057 8.27702 2.6537 9.08624 3.28945 9.72113C3.9252 10.356 4.735 10.7881 5.61638 10.9626C6.49776 11.137 7.41109 11.0462 8.24079 10.7014C9.07049 10.3566 9.77927 9.77347 10.2774 9.02573C10.7756 8.278 11.0407 7.39929 11.0393 6.50081C11.038 5.29704 10.5593 4.14295 9.70816 3.29166C8.85706 2.44036 7.70307 1.96138 6.4993 1.95976V1.96691Z" fill="#00AB9C"/>
<path d="M7.66644 12.0548C7.57329 12.055 7.48043 12.0443 7.38971 12.0232C7.24488 11.9816 7.10862 11.9145 6.98738 11.8251C6.86778 11.7312 6.72792 11.6665 6.57892 11.6362C6.36958 11.6096 6.21743 11.7087 6.05507 11.8149C5.96108 11.8804 5.86045 11.9358 5.75485 11.9803C5.60345 12.0361 5.44238 12.061 5.28118 12.0535C5.11999 12.0459 4.96194 12.0061 4.81642 11.9364C4.5499 11.8108 4.36405 11.6014 4.2119 11.2604C4.15653 11.1298 4.06033 11.0207 3.9377 10.9495C3.81508 10.8782 3.67266 10.8486 3.53181 10.8652C3.25712 10.8917 2.93444 10.8897 2.62707 10.6712C2.48848 10.5729 2.37225 10.4463 2.28601 10.2999C2.19978 10.1535 2.14549 9.99047 2.12671 9.82158C2.11908 9.72336 2.11908 9.62469 2.12671 9.52647C2.13692 9.32224 2.14611 9.15171 2.00315 8.97913C1.90402 8.8744 1.78352 8.79221 1.64983 8.73814C1.51229 8.67897 1.38668 8.59523 1.27916 8.49102C1.11254 8.31519 1.00368 8.09261 0.967177 7.85314C0.930672 7.61367 0.96827 7.36877 1.07493 7.15127C1.11039 7.08149 1.15282 7.01546 1.20155 6.95419C1.23862 6.907 1.27272 6.85755 1.30366 6.80613C1.38155 6.66166 1.40128 6.49289 1.3588 6.33436C1.32815 6.24039 1.27999 6.15308 1.21687 6.07703C1.19032 6.04026 1.16274 6.00248 1.13722 5.96061C1.05372 5.82437 0.998159 5.67289 0.973762 5.51497C0.949365 5.35705 0.956621 5.19586 0.995108 5.04078C1.03359 4.88569 1.10254 4.73981 1.19794 4.61162C1.29334 4.48343 1.41328 4.3755 1.55078 4.2941C1.5998 4.26653 1.6529 4.24508 1.69783 4.22364C1.78278 4.19193 1.86208 4.14676 1.93269 4.08987C2.03155 3.99961 2.09974 3.88073 2.12773 3.74983C2.14255 3.66092 2.14255 3.57017 2.12773 3.48126C2.12045 3.42469 2.11636 3.36776 2.11548 3.31073C2.1141 3.14127 2.14891 2.97347 2.21759 2.81854C2.28718 2.66623 2.38765 2.53004 2.51263 2.41859C2.63761 2.30715 2.78437 2.22288 2.94363 2.17113C3.11638 2.11795 3.29876 2.10366 3.47769 2.12926C3.59782 2.14958 3.72108 2.14083 3.83713 2.10373C3.97635 2.05234 4.09309 1.95367 4.16697 1.82496C4.19275 1.77758 4.21593 1.72884 4.2364 1.67893C4.26622 1.60474 4.30316 1.53361 4.34669 1.46654C4.43757 1.33299 4.55465 1.21932 4.69083 1.13242C4.827 1.04553 4.97942 0.987223 5.13882 0.961054C5.29822 0.934885 5.46128 0.941397 5.61809 0.980194C5.77489 1.01899 5.92218 1.08926 6.05099 1.18674C6.46761 1.50228 6.78009 1.32562 6.89548 1.23576C7.13167 1.03293 7.43786 0.93059 7.74854 0.950628C8.05922 0.970665 8.34973 1.11149 8.55791 1.34298C8.63774 1.43958 8.70436 1.54637 8.75601 1.66055C8.83566 1.81781 8.9102 1.9669 9.06746 2.05676C9.22277 2.12961 9.39637 2.15415 9.56578 2.12722C9.68831 2.11572 9.8118 2.1195 9.9334 2.13845C10.0977 2.17232 10.2531 2.24037 10.3895 2.33818C10.5258 2.436 10.64 2.56138 10.7248 2.70621C10.8129 2.85888 10.8665 3.02895 10.882 3.20453C10.887 3.28704 10.8836 3.36983 10.8718 3.45165C10.8648 3.50687 10.8607 3.56244 10.8596 3.6181C10.8596 3.97958 11.1384 4.15318 11.3048 4.23079C11.4572 4.29644 11.595 4.39198 11.7099 4.51178C11.8247 4.63157 11.9144 4.77318 11.9737 4.92823C12.0291 5.07627 12.0541 5.23399 12.0471 5.39192C12.04 5.54985 12.0012 5.70473 11.9328 5.84727C11.8964 5.91925 11.8534 5.98763 11.8041 6.0515C11.757 6.11068 11.7163 6.17469 11.6826 6.24245C11.623 6.37675 11.6115 6.52748 11.6499 6.66929C11.6816 6.76387 11.7304 6.8518 11.7939 6.92866C11.8246 6.97053 11.8572 7.01546 11.8858 7.06346C11.9636 7.19148 12.0159 7.33328 12.04 7.48111C12.0777 7.72102 12.0416 7.96672 11.9363 8.1856C11.8311 8.40447 11.6618 8.58614 11.4508 8.70649C11.4018 8.73304 11.3487 8.75448 11.3038 8.77592C11.2259 8.80507 11.1526 8.84531 11.0863 8.8954C10.9716 8.99185 10.8946 9.12563 10.8688 9.27322C10.8565 9.35514 10.8565 9.43842 10.8688 9.52034C10.8764 9.57655 10.8808 9.63315 10.882 9.68985C10.8825 9.85565 10.8485 10.0197 10.782 10.1716C10.7155 10.3235 10.6181 10.4599 10.496 10.572C10.3739 10.6842 10.2297 10.7696 10.0727 10.8229C9.91571 10.8762 9.74932 10.8962 9.58416 10.8815C9.21144 10.8448 8.99088 10.9275 8.84689 11.1572C8.81331 11.2127 8.78428 11.2707 8.7601 11.3308C8.72756 11.4094 8.68755 11.4846 8.64062 11.5555C8.5472 11.6854 8.42925 11.7957 8.29343 11.8802C8.10462 11.9953 7.88757 12.0558 7.66644 12.0548ZM6.50744 11.5198C6.53464 11.5178 6.56194 11.5178 6.58913 11.5198C6.75634 11.5504 6.91385 11.6204 7.04865 11.724C7.15897 11.8063 7.28312 11.8682 7.41524 11.9068C7.69392 11.9718 7.98696 11.9256 8.23216 11.7781C8.35575 11.7018 8.46272 11.6015 8.54668 11.483C8.58951 11.4187 8.62577 11.3503 8.65492 11.2788C8.68186 11.2142 8.7136 11.1517 8.74988 11.0919C8.96535 10.7478 9.31356 10.7355 9.59335 10.7631C9.74275 10.7773 9.89347 10.7602 10.0359 10.7128C10.1783 10.6655 10.3093 10.589 10.4205 10.4882C10.5316 10.3874 10.6206 10.2645 10.6816 10.1274C10.7426 9.99029 10.7744 9.84197 10.7748 9.69189C10.7737 9.63963 10.7696 9.58747 10.7626 9.53566C10.7483 9.44294 10.7483 9.34858 10.7626 9.25586C10.7915 9.08202 10.8804 8.92378 11.0138 8.8086C11.0882 8.75104 11.1708 8.70492 11.2588 8.67177C11.3056 8.6528 11.3513 8.63132 11.3957 8.60743C11.5297 8.53096 11.6457 8.42647 11.7357 8.30109C11.9036 8.06878 11.9729 7.7796 11.9287 7.49642C11.9085 7.36236 11.8627 7.23341 11.7939 7.11656C11.7674 7.07163 11.7367 7.02976 11.7071 6.98891C11.6353 6.9017 11.5809 6.80152 11.5468 6.6938C11.5008 6.52701 11.5142 6.34942 11.5846 6.19139C11.6212 6.11585 11.666 6.04461 11.7184 5.979C11.7634 5.92312 11.8027 5.86292 11.8358 5.79927C11.8985 5.66951 11.934 5.52835 11.9404 5.38439C11.9467 5.24042 11.9236 5.09668 11.8726 4.96193C11.8182 4.82015 11.736 4.69071 11.6308 4.58126C11.5255 4.47182 11.3994 4.38459 11.2599 4.32473C10.9331 4.18484 10.7493 3.92546 10.7493 3.60993C10.7493 3.54866 10.7564 3.48943 10.7626 3.43225C10.773 3.35751 10.7765 3.28195 10.7728 3.20657C10.7583 3.04724 10.7095 2.89293 10.6298 2.75421C10.5531 2.62379 10.4498 2.51095 10.3267 2.42299C10.2035 2.33504 10.0633 2.27393 9.91502 2.24363C9.80212 2.2268 9.68759 2.22372 9.57395 2.23444C9.38299 2.2654 9.18714 2.23762 9.01232 2.15479C8.82647 2.04757 8.74069 1.87704 8.65696 1.71161C8.6089 1.60637 8.54784 1.50757 8.47519 1.41752C8.28583 1.20669 8.02128 1.07862 7.73845 1.06086C7.45562 1.0431 7.17712 1.13707 6.96287 1.32255C6.67899 1.54516 6.3124 1.52678 5.98053 1.2766C5.86391 1.18849 5.7306 1.12501 5.58869 1.09001C5.44678 1.05501 5.29923 1.04922 5.15502 1.073C5.01081 1.09678 4.87293 1.14963 4.74977 1.22834C4.62662 1.30705 4.52074 1.40998 4.43859 1.53087C4.39787 1.59144 4.36365 1.65613 4.33648 1.72387C4.31441 1.7774 4.28917 1.82957 4.26091 1.8801C4.17418 2.03186 4.03681 2.14826 3.87287 2.20891C3.74127 2.25226 3.60113 2.26312 3.46441 2.24057C3.30167 2.21679 3.13567 2.22934 2.97835 2.27733C2.83462 2.32495 2.70224 2.40166 2.58945 2.50268C2.47666 2.6037 2.38588 2.72686 2.32277 2.86449C2.25965 3.00444 2.22693 3.15619 2.22678 3.30971C2.22678 3.36281 2.23291 3.41183 2.23801 3.46901C2.25515 3.57041 2.25515 3.67396 2.23801 3.77535C2.20456 3.92866 2.12384 4.06759 2.00723 4.17258C1.92832 4.2384 1.83892 4.29053 1.74276 4.32678C1.69476 4.3472 1.64983 4.36762 1.6049 4.39213C1.47965 4.46511 1.37018 4.56229 1.28285 4.67801C1.19553 4.79372 1.13211 4.92565 1.09628 5.06612C1.06045 5.20659 1.05293 5.35278 1.07416 5.49618C1.09539 5.63958 1.14494 5.77733 1.21993 5.90139C1.24342 5.93917 1.26996 5.97593 1.29549 6.01065C1.36702 6.09768 1.42141 6.19747 1.45581 6.30474C1.50625 6.49109 1.48284 6.68971 1.39046 6.85923C1.35867 6.91577 1.32248 6.96971 1.28222 7.02057C1.238 7.07621 1.19935 7.13607 1.16683 7.19927C1.10046 7.33796 1.06327 7.4888 1.05757 7.64245C1.05134 7.92863 1.15767 8.20583 1.3537 8.41444C1.45216 8.50872 1.56707 8.58417 1.69272 8.63705C1.84082 8.69932 1.97384 8.79265 2.0828 8.91072C2.25333 9.11495 2.24312 9.32939 2.23291 9.53566C2.22577 9.62776 2.22577 9.72028 2.23291 9.81239C2.24995 9.96555 2.29927 10.1134 2.37759 10.2461C2.45592 10.3788 2.56148 10.4934 2.68732 10.5823C2.90789 10.7396 3.15603 10.7866 3.51649 10.757C3.68123 10.736 3.8483 10.7694 3.9924 10.8519C4.13649 10.9345 4.24975 11.0617 4.31503 11.2144C4.45595 11.53 4.62138 11.725 4.86543 11.8343C4.99707 11.8977 5.14012 11.934 5.28608 11.941C5.43203 11.948 5.57791 11.9256 5.71503 11.8751C5.81358 11.8335 5.90738 11.7815 5.99482 11.7199C6.14166 11.6031 6.32032 11.5334 6.50744 11.5198ZM6.49927 11.1572C5.57951 11.1562 4.68069 10.8826 3.91638 10.371C3.15206 9.85934 2.55655 9.13263 2.20509 8.28267C1.85362 7.43272 1.76198 6.49765 1.94174 5.59563C2.1215 4.69361 2.56459 3.86511 3.21503 3.21482C3.86546 2.56452 4.69406 2.12161 5.59612 1.94205C6.49818 1.76249 7.43323 1.85434 8.28311 2.20599C9.13299 2.55764 9.85956 3.15331 10.371 3.91774C10.8825 4.68216 11.1559 5.58105 11.1567 6.5008C11.1565 7.73586 10.6656 8.92024 9.79223 9.79347C8.91882 10.6667 7.73433 11.1572 6.49927 11.1572ZM6.49927 1.9669C5.60079 1.9667 4.72244 2.23304 3.97538 2.73221C3.22832 3.23138 2.64613 3.94095 2.30248 4.77111C1.95883 5.60128 1.86918 6.51473 2.04486 7.39587C2.22054 8.27701 2.65366 9.08623 3.28942 9.72113C3.92517 10.356 4.73497 10.788 5.61635 10.9625C6.49772 11.137 7.41106 11.0461 8.24076 10.7014C9.07046 10.3566 9.77924 9.77346 10.2774 9.02573C10.7756 8.27799 11.0407 7.39928 11.0393 6.5008C11.0379 5.29703 10.5592 4.14294 9.70813 3.29165C8.85703 2.44036 7.70304 1.96137 6.49927 1.95975V1.9669Z" fill="#00AB9C"/>
</svg>
