<svg width="30" height="30" viewBox="0 0 30 30" fill="none" xmlns="http://www.w3.org/2000/svg">
<path d="M26.1711 20.0892H3.82876C3.59783 20.0892 3.41016 19.9015 3.41016 19.6706C3.41016 19.4396 3.59783 19.252 3.82876 19.252H26.1711C26.402 19.252 26.5897 19.4396 26.5897 19.6706C26.5897 19.9015 26.402 20.0892 26.1711 20.0892Z" fill="white"/>
<path d="M24.7778 23.5175H5.22202C4.22295 23.5175 3.41016 22.7047 3.41016 21.7057V8.29428C3.41016 7.29521 4.22295 6.48242 5.22202 6.48242H24.7771C25.7762 6.48242 26.589 7.29521 26.589 8.29428V21.705C26.5897 22.704 25.7769 23.5175 24.7778 23.5175ZM5.22202 7.31893C4.68411 7.31893 4.24737 7.75637 4.24737 8.29358V21.7043C4.24737 22.2422 4.68481 22.6789 5.22202 22.6789H24.7771C25.315 22.6789 25.7518 22.2415 25.7518 21.7043V8.29428C25.7518 7.75637 25.3143 7.31963 24.7771 7.31963H5.22202V7.31893Z" fill="white"/>
<path d="M22.21 16.7389C22.1025 16.7389 21.9958 16.6977 21.9142 16.6161C21.7509 16.4528 21.7509 16.1877 21.9142 16.0245L23.0081 14.9298L21.9135 13.8352C21.7502 13.6719 21.7502 13.4068 21.9135 13.2435C22.0767 13.0803 22.3418 13.0803 22.5058 13.2435L23.8962 14.634C24.0595 14.7973 24.0595 15.0624 23.8962 15.2256L22.5058 16.6161C22.4242 16.6977 22.3174 16.7389 22.21 16.7389Z" fill="white"/>
<path d="M19.0879 16.7389C18.9805 16.7389 18.8737 16.6977 18.7921 16.6161C18.6288 16.4528 18.6288 16.1877 18.7921 16.0245L19.886 14.9298L18.7914 13.8352C18.6281 13.6719 18.6281 13.4068 18.7914 13.2435C18.9546 13.0803 19.2198 13.0803 19.3837 13.2435L20.7742 14.634C20.9374 14.7973 20.9374 15.0624 20.7742 15.2256L19.3837 16.6161C19.3021 16.6977 19.1946 16.7389 19.0879 16.7389Z" fill="white"/>
<path d="M9.76015 17.8446C9.31434 17.8446 8.86922 17.7581 8.45341 17.5857C8.3362 17.5369 8.21759 17.5062 8.0962 17.4923L7.56248 17.4309C7.20457 17.3897 6.93457 17.0869 6.93457 16.7262V16.1876C6.93457 15.0699 7.84434 14.1602 8.96201 14.1602H10.5708C11.6885 14.1602 12.5983 15.0699 12.5983 16.1876V16.7255C12.5983 17.0855 12.3283 17.389 11.9704 17.4302L11.4074 17.495C11.2922 17.5083 11.1799 17.5376 11.0739 17.5823C10.656 17.7574 10.2081 17.8446 9.76015 17.8446ZM7.77178 16.6118L8.19248 16.6599C8.39131 16.683 8.58666 16.7339 8.77155 16.8106C9.40364 17.073 10.1229 17.0723 10.7508 16.8099C10.9302 16.7353 11.1185 16.6857 11.3118 16.6634L11.7618 16.6111V16.1876C11.7618 15.5311 11.2281 14.9974 10.5715 14.9974H8.96271C8.3062 14.9974 7.77248 15.5311 7.77248 16.1876V16.6118H7.77178Z" fill="white"/>
<path d="M9.76661 13.6478C8.94684 13.6478 8.28196 13.0059 8.25335 12.1869L8.21777 11.162C8.20312 10.7476 8.35382 10.3555 8.64196 10.0576C8.9301 9.75966 9.31661 9.5957 9.73103 9.5957H9.80219C10.2166 9.5957 10.6031 9.75966 10.8913 10.0583C11.1794 10.3562 11.3294 10.7483 11.3154 11.1627L11.2799 12.1876C11.2506 13.0059 10.5864 13.6478 9.76661 13.6478ZM9.73033 10.4322C9.54545 10.4322 9.37242 10.5055 9.24335 10.6387C9.11428 10.772 9.04731 10.9471 9.05359 11.132L9.08917 12.1569C9.10173 12.5231 9.39893 12.8099 9.76521 12.8099C10.1315 12.8099 10.4287 12.5231 10.4413 12.1569L10.4768 11.132C10.4831 10.9471 10.4161 10.7713 10.2871 10.6387C10.1587 10.5055 9.98568 10.4322 9.8001 10.4322H9.73033Z" fill="white"/>
</svg>
