<svg width="25" height="24" viewBox="0 0 25 24" fill="none" xmlns="http://www.w3.org/2000/svg">
<g clip-path="url(#clip0_222_9798)">
<path d="M7.95279 8.35841V4.3479H1.28015V9.25196V24H24.0776V8.35841H7.95279Z" fill="#C11E6A"/>
<path d="M7.74513 15.7133L7.70805 0.208868C7.70705 0.162408 7.72438 0.117423 7.7563 0.0836518C7.78822 0.0498803 7.83216 0.0300398 7.8786 0.0284258L23.2137 0C23.2603 0.00097435 23.3047 0.0203637 23.3371 0.053937C23.3696 0.0875104 23.3874 0.132542 23.3867 0.179206L23.4238 15.6836C23.4243 15.7067 23.4202 15.7296 23.4119 15.7511C23.4035 15.7725 23.391 15.7922 23.375 15.8088C23.3591 15.8254 23.34 15.8388 23.3189 15.848C23.2978 15.8573 23.275 15.8623 23.252 15.8628L7.91815 15.8925C7.87149 15.8915 7.82712 15.8721 7.7947 15.8385C7.76228 15.805 7.74446 15.7599 7.74513 15.7133Z" fill="#7FCEC9"/>
<path d="M21.7369 3.64564L9.25424 3.66912L9.24683 1.59404L21.7294 1.57056L21.7369 3.64564Z" fill="#00AB9C"/>
<path d="M21.738 5.65948L9.26154 5.68296L9.25659 4.64604L21.7318 4.62256L21.738 5.65948Z" fill="#00AB9C"/>
<path d="M21.738 7.38092L9.26154 7.4044L9.25659 6.36748L21.7318 6.34399L21.738 7.38092Z" fill="#00AB9C"/>
<path d="M6.67227 8.35841V4.3479H-0.000366211V9.25196V24H22.7971V8.35841H6.67227Z" fill="#E0136E"/>
</g>
<defs>
<clipPath id="clip0_222_9798">
<rect width="24.0779" height="24" fill="white"/>
</clipPath>
</defs>
</svg>
