<svg width="26" height="20" viewBox="0 0 26 20" fill="none" xmlns="http://www.w3.org/2000/svg">
<path d="M14.0475 10.5107H3.38213V8.5335H17.0649C17.2959 8.5335 17.4835 8.34582 17.4835 8.11489C17.4835 7.88396 17.2959 7.69629 17.0649 7.69629H2.96353C2.7326 7.69629 2.54492 7.88396 2.54492 8.11489V10.9293C2.54492 11.1602 2.7326 11.3479 2.96353 11.3479H14.0475C14.2784 11.3479 14.4661 11.1602 14.4661 10.9293C14.4661 10.6984 14.2784 10.5107 14.0475 10.5107Z" fill="white"/>
<path d="M16.4089 12.8196C16.5903 12.8196 16.7661 12.8845 16.9036 13.0024C17.0794 13.1531 17.3431 13.1322 17.4938 12.9564C17.6445 12.7806 17.6236 12.5168 17.4478 12.3661C17.1589 12.1185 16.7898 11.9824 16.4089 11.9824C15.5278 11.9824 14.8105 12.6996 14.8105 13.5808C14.8105 14.462 15.5278 15.1792 16.4089 15.1792C16.7898 15.1792 17.1589 15.0431 17.4478 14.7954C17.6236 14.6447 17.6438 14.381 17.4938 14.2052C17.3431 14.0294 17.0794 14.0092 16.9036 14.1592C16.7661 14.2771 16.5903 14.342 16.4089 14.342C15.9896 14.342 15.6478 14.0008 15.6478 13.5808C15.6478 13.1608 15.9889 12.8196 16.4089 12.8196Z" fill="white"/>
<path d="M20.3658 12.0091C20.1524 11.9205 19.9075 12.0216 19.8189 12.2351L19.221 13.6744L18.5777 12.2253C18.4842 12.0139 18.2365 11.9191 18.0251 12.0125C17.8137 12.106 17.7189 12.3537 17.8124 12.5651L18.8505 14.9044C18.9175 15.0558 19.0675 15.1535 19.2328 15.1535C19.2342 15.1535 19.2363 15.1535 19.2377 15.1535C19.4051 15.1514 19.5551 15.0502 19.6193 14.8953L20.5912 12.556C20.6805 12.3425 20.5793 12.0977 20.3658 12.0091Z" fill="white"/>
<path d="M23.4781 12.0091C23.2647 11.9205 23.0198 12.0216 22.9312 12.2351L22.3333 13.6744L21.69 12.2253C21.5965 12.0139 21.3488 11.9191 21.1374 12.0125C20.9261 12.106 20.8312 12.3537 20.9247 12.5651L21.9628 14.9044C22.0298 15.0558 22.1798 15.1535 22.3451 15.1535C22.3465 15.1535 22.3486 15.1535 22.35 15.1535C22.5174 15.1514 22.6674 15.0502 22.7316 14.8953L23.7035 12.556C23.7928 12.3425 23.6916 12.0977 23.4781 12.0091Z" fill="white"/>
<path d="M23.661 9.06833V1.86553C23.661 0.973907 22.9354 0.249023 22.0438 0.249023H2.09865C1.20703 0.249023 0.481445 0.973907 0.481445 1.86553V14.3637C0.481445 15.2553 1.20703 15.9809 2.09865 15.9809H13.5398C14.4998 18.1974 16.708 19.7525 19.2733 19.7525C22.7163 19.7525 25.5182 16.9513 25.5182 13.5076C25.5182 11.7725 24.8073 10.2013 23.661 9.06833ZM1.31865 3.14926H22.8238V5.13623H1.31865V3.14926ZM2.09865 1.08623H22.0438C22.4742 1.08623 22.8238 1.43577 22.8238 1.86553V2.31274H1.31865V1.86553C1.31865 1.43577 1.66889 1.08623 2.09865 1.08623ZM2.09865 15.1437C1.66889 15.1437 1.31865 14.7934 1.31865 14.3637V5.97344H22.8238V8.37344C21.8149 7.67367 20.5912 7.26274 19.2733 7.26274C15.8303 7.26274 13.0284 10.0639 13.0284 13.5076C13.0284 14.0734 13.1045 14.6218 13.2461 15.1437H2.09865ZM19.2733 18.9146C16.2914 18.9146 13.8656 16.4888 13.8656 13.5069C13.8656 10.5251 16.2914 8.09926 19.2733 8.09926C22.2552 8.09926 24.681 10.5251 24.681 13.5069C24.681 16.4888 22.2552 18.9146 19.2733 18.9146Z" fill="white"/>
<path d="M7.35887 13.0908H2.96353C2.7326 13.0908 2.54492 13.2785 2.54492 13.5094C2.54492 13.7404 2.7326 13.928 2.96353 13.928H7.35887C7.5898 13.928 7.77747 13.7404 7.77747 13.5094C7.77747 13.2785 7.5905 13.0908 7.35887 13.0908Z" fill="white"/>
</svg>
