<svg width="24" height="20" viewBox="0 0 24 20" fill="none" xmlns="http://www.w3.org/2000/svg">
<path d="M19.7536 19.8607C19.6399 19.8607 19.5255 19.8488 19.4111 19.8244L1.75573 16.0723C1.54294 16.027 1.3441 15.9412 1.1634 15.8163C1.04828 15.7367 0.973633 15.6042 0.973633 15.4542C0.973633 15.2114 1.17038 15.0147 1.41317 15.0147C1.51014 15.0147 1.60014 15.0461 1.6727 15.0998C1.75433 15.1549 1.84363 15.1926 1.93852 15.2128L19.5946 18.9656C19.7906 19.0074 19.9915 18.9698 20.1597 18.8609C20.3278 18.7521 20.4429 18.584 20.4841 18.3886L22.365 9.53931L20.796 9.20582C20.5588 9.15559 20.4067 8.92187 20.4576 8.68466C20.5078 8.44745 20.7415 8.29536 20.9788 8.34629L22.5478 8.67978L22.829 7.35699L20.796 6.92512C20.5588 6.87489 20.4067 6.64117 20.4576 6.40396C20.5078 6.16675 20.7408 6.01466 20.9788 6.06559L23.0118 6.49745L23.0878 6.14164C23.1736 5.73768 22.9141 5.33861 22.5094 5.2521L20.796 4.88792C20.5588 4.83768 20.4067 4.60396 20.4576 4.36675C20.5078 4.12955 20.7415 3.97745 20.9788 4.02838L22.6922 4.39257C23.5706 4.57955 24.1336 5.44606 23.9474 6.32443L23.7799 7.10931V7.11001C23.7799 7.11071 23.7799 7.11071 23.7799 7.1114L23.3167 9.29164V9.29233V9.29303L21.3443 18.5714C21.2543 18.9963 21.0039 19.3612 20.639 19.5984C20.3704 19.7714 20.0655 19.8607 19.7536 19.8607ZM18.9304 17.176C18.8997 17.176 18.869 17.1726 18.839 17.1663L15.9506 16.5523C15.7141 16.5021 15.562 16.2698 15.6115 16.0326L15.7462 15.3872C15.7957 15.1493 16.0288 14.9972 16.266 15.0467C16.5039 15.0963 16.656 15.3293 16.6064 15.5665L16.5611 15.7835L18.5906 16.2147L18.765 15.3865C18.8153 15.1493 19.0476 14.9972 19.2855 15.0467C19.5227 15.097 19.6748 15.33 19.6253 15.5672L19.3601 16.8265C19.3364 16.9409 19.2674 17.0407 19.1697 17.1042C19.0978 17.1516 19.0148 17.176 18.9304 17.176ZM10.4083 13.3277H10.4069C10.1641 13.3277 9.96735 13.1309 9.96735 12.8881C9.96735 12.6454 10.1641 12.4486 10.4069 12.4486C10.6497 12.4486 10.8471 12.6454 10.8471 12.8881C10.8471 13.1309 10.6511 13.3277 10.4083 13.3277Z" fill="white"/>
<path d="M19.6976 15.9173H1.64665C0.748043 15.9173 0.0175781 15.1868 0.0175781 14.2882V1.76774C0.0175781 0.869137 0.748043 0.138672 1.64665 0.138672H19.6976C20.5962 0.138672 21.3266 0.869137 21.3266 1.76774V14.2882C21.3266 15.1861 20.5955 15.9173 19.6976 15.9173ZM1.64665 1.01774C1.23293 1.01774 0.896648 1.35402 0.896648 1.76774V14.2882C0.896648 14.7019 1.23293 15.0382 1.64665 15.0382H19.6976C20.1113 15.0382 20.4476 14.7019 20.4476 14.2882V1.76774C20.4476 1.35402 20.1113 1.01774 19.6976 1.01774H1.64665ZM2.55153 13.3282C2.30944 13.3282 2.11339 13.1329 2.112 12.8908C2.1113 12.648 2.30665 12.4505 2.54944 12.4491L4.46874 12.4408C4.46944 12.4408 4.47014 12.4408 4.47083 12.4408C4.71293 12.4408 4.90897 12.6361 4.91037 12.8782C4.91107 13.121 4.71572 13.3184 4.47293 13.3198L2.55362 13.3282C2.55293 13.3282 2.55223 13.3282 2.55153 13.3282ZM7.95293 13.3233L6.102 13.3205C5.85921 13.3205 5.66316 13.1231 5.66316 12.8803C5.66316 12.6375 5.8599 12.4415 6.10269 12.4415H6.10339L7.95363 12.4443C8.19642 12.4443 8.39316 12.6417 8.39246 12.8845C8.39246 13.1266 8.19572 13.3233 7.95293 13.3233ZM10.1213 13.3177C9.87921 13.3177 9.68316 13.1224 9.68176 12.8803C9.68107 12.6375 9.87642 12.4401 10.1192 12.4387L12.0385 12.4303C12.0392 12.4303 12.0399 12.4303 12.0406 12.4303C12.2827 12.4303 12.4787 12.6256 12.4801 12.8677C12.4808 13.1105 12.2855 13.308 12.0427 13.3094L10.1234 13.3177C10.1227 13.3177 10.122 13.3177 10.1213 13.3177ZM15.5227 13.3122L13.6718 13.3094C13.429 13.3094 13.2329 13.1119 13.2329 12.8691C13.2329 12.6263 13.4297 12.4303 13.6725 12.4303H13.6732L15.5234 12.4331C15.7662 12.4331 15.9629 12.6305 15.9622 12.8733C15.9622 13.1161 15.7655 13.3122 15.5227 13.3122ZM11.9646 11.2324L10.1136 11.2296C9.87084 11.2296 9.67479 11.0322 9.67479 10.7894C9.67479 10.5466 9.87153 10.3505 10.1143 10.3505H10.115L11.9653 10.3533C12.208 10.3533 12.4048 10.5508 12.4041 10.7936C12.4041 11.0363 12.2073 11.2324 11.9646 11.2324ZM2.55153 11.2247C2.30944 11.2247 2.11339 11.0294 2.112 10.7873C2.1113 10.5445 2.30665 10.347 2.54944 10.3456L4.46874 10.3373C4.46944 10.3373 4.47014 10.3373 4.47083 10.3373C4.71293 10.3373 4.90897 10.5326 4.91037 10.7747C4.91107 11.0175 4.71572 11.215 4.47293 11.2163L2.55362 11.2247C2.55293 11.2247 2.55223 11.2247 2.55153 11.2247ZM16.7367 2.90007C16.7011 2.90007 16.6641 2.89588 16.6278 2.88611C16.3927 2.82611 16.2504 2.58821 16.3104 2.35309L16.3111 2.3503C16.3711 2.11518 16.6111 1.97356 16.8462 2.03356C17.0813 2.09356 17.2229 2.33286 17.1629 2.56867C17.1127 2.76681 16.9334 2.90007 16.7367 2.90007ZM18.3762 2.891C18.3406 2.891 18.3036 2.88681 18.2673 2.87704C18.0322 2.81704 17.8899 2.57914 17.9499 2.34402L17.9506 2.34123C18.0106 2.10611 18.2499 1.96449 18.4857 2.02449C18.7208 2.08449 18.8625 2.32379 18.8025 2.5596C18.7522 2.75774 18.5729 2.891 18.3762 2.891ZM15.132 2.88751C15.0964 2.88751 15.0594 2.88332 15.0232 2.87356C14.788 2.81356 14.6457 2.57565 14.7057 2.34053L14.7064 2.33774C14.7664 2.10263 15.0057 1.961 15.2415 2.021C15.4766 2.081 15.6183 2.3203 15.5583 2.55611C15.508 2.75425 15.3287 2.88751 15.132 2.88751ZM13.5622 2.88262C13.5266 2.88262 13.4897 2.87844 13.4534 2.86867C13.2183 2.80867 13.076 2.57076 13.136 2.33565L13.1366 2.33286C13.1966 2.09774 13.4366 1.95611 13.6718 2.01611C13.9069 2.07611 14.0485 2.31542 13.9885 2.55123C13.9383 2.74937 13.759 2.88262 13.5622 2.88262Z" fill="white"/>
<path d="M5.81747 5.93614H2.86351C2.62142 5.93614 2.42468 5.74009 2.42398 5.498L2.41212 2.46939C2.41142 2.35288 2.45747 2.24055 2.53979 2.15753C2.62212 2.07451 2.73375 2.02776 2.85096 2.02776L5.81049 2.02148H5.81119C5.9277 2.02148 6.03864 2.06753 6.12166 2.14986C6.20398 2.23218 6.25073 2.34381 6.25073 2.46032L6.25631 5.49521C6.25631 5.61172 6.21026 5.72404 6.12794 5.80637C6.04561 5.89009 5.93398 5.93614 5.81747 5.93614ZM3.30165 5.05707H5.37654L5.37235 2.90265L3.29328 2.90753L3.30165 5.05707Z" fill="white"/>
</svg>
