<svg width="30" height="30" viewBox="0 0 30 30" fill="none" xmlns="http://www.w3.org/2000/svg">
<path d="M15.0375 24.6066C15.0228 24.6066 15.0089 24.6066 14.9942 24.6066C11.9698 24.5968 9.97238 23.6026 8.82959 22.7703C7.57238 21.8542 7.04145 20.9319 7.01912 20.8935C6.98145 20.8266 6.96191 20.7512 6.96191 20.6752L6.98982 14.6542C6.99122 14.4121 7.18726 14.2168 7.42936 14.2168C7.43005 14.2168 7.43075 14.2168 7.43145 14.2168C7.67424 14.2182 7.87029 14.4156 7.86889 14.6584L7.84168 20.551C7.99866 20.7854 8.48424 21.4405 9.38633 22.0887C10.4203 22.8317 12.2328 23.7191 14.997 23.7282C15.011 23.7282 15.0249 23.7282 15.0389 23.7282C17.2052 23.7282 19.0463 23.1819 20.5101 22.1054C21.3996 21.451 21.874 20.7868 22.0247 20.5531L22.0519 14.6549C22.0533 14.4128 22.2494 14.2175 22.4915 14.2175C22.4922 14.2175 22.4929 14.2175 22.4935 14.2175C22.7363 14.2189 22.9324 14.4163 22.931 14.6591L22.9031 20.6801C22.9031 20.7533 22.8842 20.8245 22.8494 20.8887C22.8277 20.9277 22.3094 21.8605 21.0738 22.7822C19.9554 23.6152 18.0012 24.6066 15.0375 24.6066Z" fill="white"/>
<path d="M14.966 17.1937C14.9165 17.1937 14.8662 17.1854 14.8188 17.1686L2.29624 12.7189C2.12043 12.6561 2.00252 12.4893 2.00392 12.3023L2.01438 10.3761C2.00741 10.3454 2.00392 10.314 2.00392 10.2819C2.00392 10.0956 2.12113 9.93025 2.29624 9.86746L14.8188 5.41769C14.9137 5.38421 15.0176 5.38421 15.1125 5.41769L27.7 9.86956C27.723 9.87793 27.7453 9.8877 27.7662 9.89956C27.8039 9.91979 27.8381 9.9456 27.8688 9.9756C27.9511 10.0579 27.9972 10.1703 27.9972 10.2868L27.9951 12.2884C27.9951 12.474 27.8779 12.64 27.7028 12.7021L15.1132 17.1693C15.0651 17.1854 15.0155 17.1937 14.966 17.1937ZM2.88438 11.9947L14.966 16.2875L27.116 11.9758L27.1174 10.9028L15.1125 15.1447C15.0176 15.1782 14.9137 15.1782 14.8188 15.1447L2.88996 10.907L2.88438 11.9947ZM3.75578 10.2812L14.966 14.2649L26.2341 10.2833L14.966 6.29816L3.75578 10.2812Z" fill="white"/>
<path d="M20.4055 21.7691C20.1627 21.7691 19.9659 21.5723 19.9659 21.3295V19.6663C19.9659 19.6363 19.9687 19.607 19.9743 19.5791C19.9687 19.5512 19.9659 19.5218 19.9659 19.4918V12.4739L14.8834 10.6258C14.6552 10.5428 14.5373 10.2909 14.6203 10.0628C14.7034 9.83463 14.9552 9.71742 15.1834 9.79975L20.5555 11.7532C20.7292 11.8167 20.845 11.9814 20.845 12.1663V19.4918C20.845 19.5218 20.8422 19.5512 20.8366 19.5791C20.8422 19.607 20.845 19.6363 20.845 19.6663V21.3295C20.845 21.5723 20.6482 21.7691 20.4055 21.7691Z" fill="white"/>
<path d="M20.4054 22.062C20.0008 22.062 19.6729 21.7341 19.6729 21.3294V19.6662C19.6729 19.2615 20.0008 18.9336 20.4054 18.9336C20.8101 18.9336 21.138 19.2615 21.138 19.6662V21.3294C21.138 21.7341 20.8101 22.062 20.4054 22.062Z" fill="white"/>
</svg>
