<svg width="21" height="21" viewBox="0 0 21 21" fill="none" xmlns="http://www.w3.org/2000/svg">
<mask id="path-1-outside-1_685:718" maskUnits="userSpaceOnUse" x="0" y="0" width="21" height="21" fill="black">
<rect fill="white" width="21" height="21"/>
<path d="M17 3C17 3.55228 17.4477 4 18 4C18.5523 4 19 3.55228 19 3C19 2.44772 18.5523 2 18 2C17.4477 2 17 2.44772 17 3Z"/>
</mask>
<path d="M13 2.75C13.4142 2.75 13.75 2.41421 13.75 2C13.75 1.58579 13.4142 1.25 13 1.25V2.75ZM19.75 8C19.75 7.58579 19.4142 7.25 19 7.25C18.5858 7.25 18.25 7.58579 18.25 8H19.75ZM3.06107 19.0451L2.62023 19.6518L2.62024 19.6518L3.06107 19.0451ZM1.95491 17.9389L2.56168 17.4981H2.56168L1.95491 17.9389ZM16.9389 19.0451L17.3798 19.6518H17.3798L16.9389 19.0451ZM18.0451 17.9389L18.6518 18.3798V18.3798L18.0451 17.9389ZM1.95491 4.06107L1.34815 3.62023L1.34815 3.62023L1.95491 4.06107ZM3.06107 2.95491L2.62023 2.34815L2.62023 2.34815L3.06107 2.95491ZM4.32665 13.5268C4.14423 13.8987 4.29782 14.3481 4.6697 14.5305C5.04158 14.7129 5.49093 14.5593 5.67335 14.1874L4.32665 13.5268ZM6.46033 10.8801L7.13368 11.2104L6.46033 10.8801ZM13.5397 11.1199L14.213 11.4502L13.5397 11.1199ZM15.6734 8.47316C15.8558 8.10127 15.7022 7.65192 15.3303 7.46951C14.9584 7.28709 14.5091 7.44068 14.3266 7.81256L15.6734 8.47316ZM10 11L9.30584 11.284L10 11ZM10 2.75H13V1.25H10V2.75ZM18.25 8V11H19.75V8H18.25ZM10 19.25C8.10843 19.25 6.74999 19.249 5.69804 19.135C4.66013 19.0225 4.00992 18.8074 3.50191 18.4383L2.62024 19.6518C3.42656 20.2377 4.37094 20.5 5.53648 20.6263C6.68798 20.751 8.14184 20.75 10 20.75V19.25ZM0.25 11C0.25 12.8582 0.248971 14.312 0.373728 15.4635C0.500006 16.6291 0.762324 17.5734 1.34815 18.3798L2.56168 17.4981C2.19259 16.9901 1.97745 16.3399 1.865 15.302C1.75103 14.25 1.75 12.8916 1.75 11H0.25ZM3.50191 18.4383C3.14111 18.1762 2.82382 17.8589 2.56168 17.4981L1.34815 18.3798C1.70281 18.8679 2.13209 19.2972 2.62023 19.6518L3.50191 18.4383ZM10 20.75C11.8582 20.75 13.312 20.751 14.4635 20.6263C15.6291 20.5 16.5734 20.2377 17.3798 19.6518L16.4981 18.4383C15.9901 18.8074 15.3399 19.0225 14.302 19.135C13.25 19.249 11.8916 19.25 10 19.25V20.75ZM18.25 11C18.25 12.8916 18.249 14.25 18.135 15.302C18.0225 16.3399 17.8074 16.9901 17.4383 17.4981L18.6518 18.3798C19.2377 17.5734 19.5 16.6291 19.6263 15.4635C19.751 14.312 19.75 12.8582 19.75 11H18.25ZM17.3798 19.6518C17.8679 19.2972 18.2972 18.8679 18.6518 18.3798L17.4383 17.4981C17.1762 17.8589 16.8589 18.1762 16.4981 18.4383L17.3798 19.6518ZM1.75 11C1.75 9.10843 1.75103 7.74999 1.865 6.69805C1.97745 5.66013 2.19259 5.00992 2.56168 4.50191L1.34815 3.62023C0.762324 4.42656 0.500006 5.37094 0.373728 6.53648C0.248971 7.68798 0.25 9.14184 0.25 11H1.75ZM10 1.25C8.14184 1.25 6.68798 1.24897 5.53648 1.37373C4.37094 1.50001 3.42656 1.76232 2.62023 2.34815L3.50191 3.56168C4.00992 3.19259 4.66013 2.97745 5.69805 2.865C6.74999 2.75103 8.10843 2.75 10 2.75V1.25ZM2.56168 4.50191C2.82382 4.14111 3.14111 3.82382 3.50191 3.56168L2.62023 2.34815C2.13209 2.70281 1.70281 3.13209 1.34815 3.62023L2.56168 4.50191ZM5.67335 14.1874L7.13368 11.2104L5.78698 10.5498L4.32665 13.5268L5.67335 14.1874ZM14.213 11.4502L15.6734 8.47316L14.3266 7.81256L12.8663 10.7896L14.213 11.4502ZM9.30584 11.284C10.185 13.433 13.1904 13.5348 14.213 11.4502L12.8663 10.7896C12.4137 11.7124 11.0833 11.6673 10.6942 10.716L9.30584 11.284ZM7.13368 11.2104C7.58632 10.2876 8.91668 10.3327 9.30584 11.284L10.6942 10.716C9.815 8.56698 6.80955 8.46517 5.78698 10.5498L7.13368 11.2104ZM15.5 3C15.5 4.38071 16.6193 5.5 18 5.5V2.5C18.2761 2.5 18.5 2.72386 18.5 3H15.5ZM18 5.5C19.3807 5.5 20.5 4.38071 20.5 3H17.5C17.5 2.72386 17.7239 2.5 18 2.5V5.5ZM20.5 3C20.5 1.61929 19.3807 0.5 18 0.5V3.5C17.7239 3.5 17.5 3.27614 17.5 3H20.5ZM18 0.5C16.6193 0.5 15.5 1.61929 15.5 3H18.5C18.5 3.27614 18.2761 3.5 18 3.5V0.5Z" fill="#262626" mask="url(#path-1-outside-1_685:718)"/>
</svg>
