<svg width="20" height="17" viewBox="0 0 20 17" fill="none" xmlns="http://www.w3.org/2000/svg">
<path d="M10.2111 12.4096C13.4994 12.4096 16.165 9.74398 16.165 6.45578C16.165 3.16757 13.4994 0.501953 10.2111 0.501953C6.92294 0.501953 4.25732 3.16757 4.25732 6.45578C4.25732 9.74398 6.92294 12.4096 10.2111 12.4096Z" fill="#C8E9EA"/>
<path d="M18.014 4.83257C18.3535 4.608 18.6116 4.28003 18.75 3.89727C18.8885 3.51452 18.8999 3.09734 18.7826 2.70758C18.6654 2.31781 18.4257 1.97619 18.099 1.73335C17.7724 1.49051 17.3762 1.35938 16.9692 1.35938C16.5621 1.35938 16.166 1.49051 15.8393 1.73335C15.5127 1.97619 15.2729 2.31781 15.1557 2.70758C15.0384 3.09734 15.0499 3.51452 15.1883 3.89727C15.3268 4.28003 15.5848 4.608 15.9243 4.83257C15.3425 5.04653 14.8403 5.43355 14.4851 5.94156C14.1299 6.44956 13.9388 7.05417 13.9375 7.67403V7.92681H20V7.67403C19.9989 7.05424 19.808 6.44965 19.4529 5.94163C19.0979 5.43362 18.5957 5.04657 18.014 4.83257V4.83257ZM15.5793 3.25333C15.5793 2.97845 15.6608 2.70973 15.8135 2.48117C15.9663 2.25261 16.1833 2.07447 16.4373 1.96927C16.6913 1.86408 16.9707 1.83655 17.2403 1.89018C17.5099 1.94381 17.7576 2.07618 17.9519 2.27056C18.1463 2.46493 18.2787 2.71258 18.3323 2.98219C18.3859 3.25179 18.3584 3.53125 18.2532 3.78521C18.148 4.03917 17.9699 4.25624 17.7413 4.40896C17.5128 4.56168 17.2441 4.64319 16.9692 4.64319C16.6007 4.64275 16.2474 4.49618 15.9869 4.23563C15.7263 3.97507 15.5797 3.62181 15.5793 3.25333V3.25333ZM14.4554 7.42126C14.5173 6.79755 14.8089 6.21912 15.2734 5.79838C15.738 5.37764 16.3424 5.14463 16.9692 5.14463C17.5959 5.14463 18.2003 5.37764 18.6649 5.79838C19.1295 6.21912 19.421 6.79755 19.4829 7.42126H14.4554Z" fill="#102147"/>
<path d="M14.1318 7.92694H19.6806V6.93807L18.765 5.42965L16.9692 4.87305L15.3891 5.41153L14.3657 6.53379L14.1318 7.92694Z" fill="#102147"/>
<path d="M16.9693 5.14855C18.0156 5.14855 18.8639 4.30031 18.8639 3.25396C18.8639 2.20761 18.0156 1.35938 16.9693 1.35938C15.9229 1.35938 15.0747 2.20761 15.0747 3.25396C15.0747 4.30031 15.9229 5.14855 16.9693 5.14855Z" fill="#00AB9C"/>
<path d="M4.24938 4.83229C4.58875 4.60766 4.84673 4.27967 4.98508 3.89693C5.12343 3.51418 5.13481 3.09705 5.01751 2.70734C4.90022 2.31763 4.6605 1.97607 4.33387 1.73328C4.00724 1.49049 3.61109 1.35938 3.20411 1.35938C2.79712 1.35938 2.40097 1.49049 2.07434 1.73328C1.74772 1.97607 1.50799 2.31763 1.3907 2.70734C1.2734 3.09705 1.28478 3.51418 1.42313 3.89693C1.56149 4.27967 1.81946 4.60766 2.15883 4.83229C1.57722 5.04639 1.07512 5.43347 0.720069 5.94146C0.36502 6.44945 0.174052 7.05399 0.172852 7.67376V7.92654H6.23536V7.67376C6.23416 7.05399 6.04319 6.44945 5.68814 5.94146C5.33309 5.43347 4.83099 5.04639 4.24938 4.83229V4.83229ZM1.81219 3.25306C1.81219 2.97824 1.89366 2.70959 2.04631 2.48107C2.19896 2.25254 2.41593 2.0744 2.66979 1.96916C2.92366 1.86392 3.20303 1.8363 3.47259 1.88979C3.74215 1.94329 3.9898 2.07549 4.18424 2.2697C4.37868 2.46391 4.51118 2.71141 4.565 2.98091C4.61881 3.2504 4.59152 3.5298 4.48658 3.7838C4.38164 4.03779 4.20375 4.25497 3.97541 4.40788C3.74706 4.5608 3.47851 4.64259 3.20369 4.64292C3.02107 4.64303 2.84021 4.60716 2.67144 4.53737C2.50267 4.46758 2.34931 4.36524 2.22009 4.23618C2.09088 4.10712 1.98835 3.95387 1.91836 3.78519C1.84838 3.6165 1.8123 3.43569 1.81219 3.25306V3.25306ZM0.690754 7.42098C0.753606 6.79809 1.04553 6.22072 1.50991 5.80084C1.97429 5.38095 2.57805 5.14847 3.20411 5.14847C3.83017 5.14847 4.43392 5.38095 4.8983 5.80084C5.36269 6.22072 5.65461 6.79809 5.71746 7.42098H0.690754Z" fill="#102147"/>
<path d="M0.367676 7.92694H5.91557V6.93807L4.99998 5.42965L3.20502 4.87305L1.62415 5.41153L0.600691 6.53379L0.367676 7.92694Z" fill="#102147"/>
<path d="M3.20367 5.14855C4.25002 5.14855 5.09825 4.30031 5.09825 3.25396C5.09825 2.20761 4.25002 1.35938 3.20367 1.35938C2.15732 1.35938 1.30908 2.20761 1.30908 3.25396C1.30908 4.30031 2.15732 5.14855 3.20367 5.14855Z" fill="#00AB9C"/>
<path d="M11.1338 6.06176C11.4967 5.82185 11.7726 5.47139 11.9207 5.06232C12.0688 4.65326 12.0811 4.20736 11.9559 3.79075C11.8306 3.37413 11.5744 3.00896 11.2253 2.74938C10.8762 2.48979 10.4527 2.34961 10.0177 2.34961C9.58266 2.34961 9.1592 2.48979 8.81009 2.74938C8.46099 3.00896 8.20481 3.37413 8.07956 3.79075C7.9543 4.20736 7.96662 4.65326 8.11469 5.06232C8.26277 5.47139 8.53871 5.82185 8.90162 6.06176C8.28029 6.29035 7.74387 6.70374 7.36453 7.24633C6.98519 7.78892 6.78112 8.43468 6.77979 9.09672V9.36679H13.2573V9.09672C13.2558 8.43448 13.0515 7.78858 12.6719 7.24597C12.2922 6.70336 11.7554 6.29008 11.1338 6.06176ZM8.53357 4.37549C8.53357 4.08236 8.62049 3.79582 8.78335 3.55209C8.9462 3.30837 9.17767 3.11841 9.44848 3.00623C9.7193 2.89406 10.0173 2.86471 10.3048 2.92189C10.5923 2.97908 10.8564 3.12023 11.0636 3.3275C11.2709 3.53478 11.4121 3.79886 11.4692 4.08635C11.5264 4.37385 11.4971 4.67184 11.3849 4.94265C11.2727 5.21347 11.0828 5.44494 10.839 5.60779C10.5953 5.77064 10.3088 5.85756 10.0156 5.85756C9.62258 5.85756 9.24561 5.70142 8.96766 5.42347C8.68972 5.14553 8.53357 4.76856 8.53357 4.37549V4.37549ZM7.33309 8.82748C7.40012 8.16205 7.71189 7.54524 8.20792 7.09666C8.70396 6.64808 9.34892 6.3997 10.0177 6.3997C10.6865 6.3997 11.3315 6.64808 11.8275 7.09666C12.3235 7.54524 12.6353 8.16205 12.7023 8.82748H7.33309Z" fill="#00AB9C"/>
<path d="M6.9873 9.36686H12.9131V8.31047L11.9358 6.69994L10.0173 6.10547L8.33023 6.68018L7.23679 7.87902L6.9873 9.36686Z" fill="#00AB9C"/>
<path d="M10.0175 6.45492C11.1657 6.45492 12.0965 5.52411 12.0965 4.3759C12.0965 3.22768 11.1657 2.29688 10.0175 2.29688C8.86929 2.29688 7.93848 3.22768 7.93848 4.3759C7.93848 5.52411 8.86929 6.45492 10.0175 6.45492Z" fill="#7FCEC9"/>
<path d="M6.47758 10.95C6.48499 10.9582 6.49075 10.9664 6.49734 10.9747C7.72307 11.9198 9.26259 12.3631 10.8033 12.2144C12.3439 12.0657 13.7703 11.3363 14.7927 10.1741C15.815 9.012 16.3568 7.50433 16.3079 5.95727C16.2591 4.4102 15.6232 2.93972 14.5296 1.84443C13.4359 0.749134 11.9664 0.11113 10.4194 0.0599726C8.87238 0.00881491 7.36391 0.548338 6.20026 1.56899C5.03661 2.58963 4.30503 4.01489 4.15406 5.55535C4.0031 7.0958 4.44407 8.63597 5.38743 9.86311L6.09389 10.5663L6.47758 10.95ZM4.99962 6.16286C4.99946 5.13196 5.30502 4.12417 5.87765 3.26694C6.45029 2.40971 7.26427 1.74156 8.21667 1.34697C9.16907 0.952389 10.2171 0.849105 11.2282 1.05018C12.2393 1.25126 13.168 1.74767 13.897 2.47663C14.626 3.20558 15.1224 4.13434 15.3234 5.14544C15.5245 6.15654 15.4212 7.20456 15.0266 8.15695C14.6321 9.10935 13.9639 9.92334 13.1067 10.496C12.2495 11.0686 11.2417 11.3742 10.2108 11.374C8.82868 11.374 7.50321 10.825 6.52593 9.84769C5.54865 8.87042 4.99962 7.54494 4.99962 6.16286V6.16286Z" fill="#7FCEC9"/>
<path d="M4.04787 6.16379C4.04787 4.94467 4.40939 3.75293 5.08672 2.73929C5.76404 1.72564 6.72674 0.935612 7.85307 0.469114C8.9794 0.00261608 10.2188 -0.119399 11.4145 0.118498C12.6101 0.356396 13.7084 0.943521 14.5704 1.80562C15.4324 2.66773 16.0194 3.76609 16.2571 4.9618C16.4948 6.15751 16.3727 7.39686 15.906 8.52313C15.4394 9.6494 14.6492 10.612 13.6355 11.2892C12.6217 11.9664 11.43 12.3277 10.2108 12.3276C8.84801 12.332 7.52298 11.8797 6.44719 11.0431L6.43154 11.0283C6.42791 11.0224 6.42378 11.0169 6.41919 11.0118L5.32246 9.91426C4.49264 8.84047 4.04417 7.52084 4.04787 6.16379V6.16379ZM16.2099 6.16379C16.2192 5.37011 16.0709 4.58248 15.7737 3.84653C15.4764 3.11058 15.036 2.44095 14.478 1.87642C13.9201 1.31189 13.2556 0.863693 12.5232 0.5578C11.7908 0.251907 11.005 0.0943972 10.2112 0.0943972C9.41752 0.0943972 8.63168 0.251907 7.89926 0.5578C7.16685 0.863693 6.50241 1.31189 5.94446 1.87642C5.38651 2.44095 4.94613 3.11058 4.64883 3.84653C4.35154 4.58248 4.20325 5.37011 4.21255 6.16379C4.20823 7.48247 4.64273 8.76512 5.44761 9.80969L6.53364 10.8957C6.54143 10.9031 6.54859 10.9111 6.55505 10.9196C7.60108 11.7298 8.88775 12.1674 10.2108 12.1629C11.8014 12.1612 13.3262 11.5285 14.4509 10.4039C15.5756 9.2792 16.2082 7.75431 16.2099 6.16379ZM4.91736 6.16379C4.9172 5.1166 5.22758 4.09289 5.80927 3.22212C6.39095 2.35135 7.2178 1.67264 8.18524 1.27183C9.15268 0.87101 10.2173 0.766096 11.2443 0.970352C12.2714 1.17461 13.2148 1.67886 13.9553 2.41933C14.6958 3.1598 15.2 4.10323 15.4043 5.1303C15.6085 6.15737 15.5036 7.22194 15.1028 8.18938C14.702 9.15682 14.0233 9.98367 13.1525 10.5654C12.2817 11.147 11.258 11.4574 10.2108 11.4573C8.80739 11.4557 7.46186 10.8975 6.46947 9.90515C5.47708 8.91277 4.91888 7.56724 4.91736 6.16379V6.16379ZM15.3405 6.16379C15.3406 5.14921 15.0399 4.15737 14.4764 3.3137C13.9128 2.47002 13.1117 1.81242 12.1744 1.42404C11.2371 1.03567 10.2057 0.933967 9.2106 1.1318C8.2155 1.32964 7.30141 1.81812 6.58393 2.53548C5.86646 3.25284 5.37783 4.16685 5.17983 5.16192C4.98184 6.15699 5.08338 7.18843 5.4716 8.12579C5.85983 9.06316 6.5173 9.86435 7.36088 10.428C8.20446 10.9917 9.19626 11.2926 10.2108 11.2926C11.5707 11.2911 12.8744 10.7502 13.8361 9.78876C14.7977 8.82728 15.3387 7.52364 15.3405 6.16379V6.16379Z" fill="#7FCEC9"/>
<path d="M5.52679 10.8047L5.76474 10.5683C5.80854 10.5249 5.86773 10.5005 5.92942 10.5005C5.99111 10.5005 6.05029 10.5249 6.09409 10.5683L5.39011 9.86518L5.37858 9.85366C5.357 9.83195 5.33134 9.81472 5.30308 9.80296C5.27482 9.79121 5.24451 9.78516 5.2139 9.78516C5.1833 9.78516 5.15299 9.79121 5.12473 9.80296C5.09647 9.81472 5.07081 9.83195 5.04923 9.85366L4.7627 10.1394C4.91914 10.2341 5.22955 10.5107 5.52679 10.8047Z" fill="#00AB9C"/>
<path d="M6.09413 10.5659C6.05033 10.5224 5.99115 10.498 5.92946 10.498C5.86777 10.498 5.80858 10.5224 5.76478 10.5659L5.5293 10.8022C5.77393 11.0352 6.00021 11.2868 6.20611 11.5547L6.47782 11.2789C6.51723 11.239 6.54092 11.1862 6.54454 11.1303C6.54817 11.0743 6.5315 11.0189 6.49759 10.9743C6.491 10.966 6.48524 10.9578 6.47782 10.9496L6.09413 10.5659Z" fill="#00AB9C"/>
<path d="M1.92528 15.9692L6.25376 11.6876C6.2694 11.672 6.24882 11.625 6.20353 11.5575C5.99763 11.2896 5.77135 11.038 5.52672 10.805C5.22948 10.511 4.91907 10.2344 4.76098 10.1397C4.70993 10.1092 4.6737 10.0977 4.66053 10.1109L0.330401 14.3924C0.225767 14.4953 0.142665 14.618 0.0859398 14.7534C0.0292143 14.8887 0 15.034 0 15.1808C0 15.3275 0.0292143 15.4728 0.0859398 15.6082C0.142665 15.7435 0.225767 15.8663 0.330401 15.9692C0.542879 16.1788 0.829357 16.2963 1.12784 16.2963C1.42632 16.2963 1.7128 16.1788 1.92528 15.9692V15.9692Z" fill="#102147"/>
</svg>
