<svg width="298" height="176" viewBox="0 0 298 176" fill="none" xmlns="http://www.w3.org/2000/svg">
<path d="M84 64.9902C84 62.2288 86.2386 59.9902 89 59.9902H220C222.761 59.9902 225 62.2288 225 64.9902V174.99H84V64.9902Z" fill="#27BCA9"/>
<rect x="205" y="74.9902" width="8" height="100" fill="#039D8A"/>
<g filter="url(#filter0_d_0_1056)">
<rect x="85.0001" y="2.51953" width="103" height="132.183" rx="8.58333" transform="rotate(-1.33895 85.0001 2.51953)" fill="#FFC8E2"/>
</g>
<g filter="url(#filter1_d_0_1056)">
<rect x="90.0001" y="10.5195" width="103" height="132.183" rx="8.58333" transform="rotate(-1.33895 90.0001 10.5195)" fill="#D9E8F5"/>
</g>
<path d="M116.708 33.567L114.957 31.7594C114.54 31.8905 114.08 31.962 113.576 31.9738C112.671 31.9949 111.831 31.8045 111.056 31.4025C110.29 30.9909 109.674 30.4125 109.209 29.6672C108.752 28.9123 108.513 28.059 108.491 27.1072C108.469 26.1555 108.668 25.2966 109.089 24.5306C109.519 23.7643 110.107 23.1624 110.853 22.7248C111.608 22.2778 112.438 22.0436 113.343 22.0225C114.258 22.0011 115.098 22.1962 115.864 22.6077C116.639 23.0097 117.254 23.5835 117.71 24.3291C118.167 25.0746 118.406 25.9232 118.428 26.875C118.449 27.7707 118.272 28.5871 117.897 29.3241C117.531 30.0515 117.013 30.6424 116.342 31.0969L118.738 33.5196L116.708 33.567ZM110.128 27.069C110.145 27.7874 110.3 28.4187 110.593 28.9626C110.895 29.4971 111.301 29.9077 111.812 30.1945C112.323 30.472 112.9 30.6032 113.544 30.5881C114.187 30.5731 114.758 30.415 115.255 30.114C115.752 29.8036 116.134 29.3746 116.401 28.8269C116.678 28.2696 116.807 27.6317 116.791 26.9133C116.774 26.1948 116.614 25.5683 116.313 25.0339C116.02 24.4993 115.618 24.0932 115.108 23.8157C114.597 23.5383 114.02 23.407 113.376 23.4221C112.732 23.4371 112.162 23.5952 111.665 23.8962C111.168 24.1972 110.781 24.6217 110.504 25.1697C110.237 25.7174 110.112 26.3505 110.128 27.069ZM126.957 23.8469L127.138 31.5587L125.542 31.596L125.521 30.6863C125.276 31.0094 124.951 31.2691 124.545 31.4653C124.148 31.652 123.72 31.7506 123.263 31.7613C122.657 31.7755 122.108 31.6623 121.617 31.4217C121.135 31.1809 120.748 30.8165 120.457 30.3285C120.175 29.8403 120.026 29.2463 120.009 28.5465L119.903 24.0117L121.485 23.9748L121.585 28.2716C121.601 28.9621 121.786 29.4899 122.14 29.855C122.494 30.2109 122.97 30.3818 123.567 30.3679C124.164 30.3539 124.631 30.1609 124.968 29.789C125.313 29.4074 125.478 28.8714 125.462 28.181L125.362 23.8841L126.957 23.8469ZM132.591 31.5573C131.863 31.5743 131.201 31.4264 130.606 31.1136C130.01 30.7914 129.537 30.3357 129.188 29.7463C128.837 29.1477 128.653 28.4518 128.635 27.6587C128.616 26.8749 128.773 26.1757 129.104 25.5612C129.435 24.9466 129.895 24.469 130.485 24.1285C131.074 23.788 131.737 23.6091 132.475 23.5919C133.212 23.5746 133.883 23.7223 134.488 24.0349C135.092 24.3476 135.574 24.8031 135.934 25.4015C136.293 26 136.482 26.6911 136.5 27.4748C136.519 28.2586 136.358 28.9579 136.017 29.5727C135.677 30.1875 135.203 30.67 134.595 31.0203C133.996 31.3611 133.328 31.5401 132.591 31.5573ZM132.558 30.1717C132.969 30.1621 133.349 30.0552 133.699 29.851C134.059 29.6465 134.346 29.3457 134.56 28.9486C134.775 28.5515 134.876 28.073 134.863 27.5131C134.85 26.9533 134.731 26.4846 134.508 26.107C134.284 25.7202 133.993 25.4329 133.634 25.2452C133.274 25.0576 132.89 24.9685 132.479 24.9781C132.068 24.9877 131.688 25.0946 131.338 25.2989C130.998 25.5029 130.729 25.8032 130.533 26.1999C130.337 26.5873 130.245 27.0609 130.258 27.6208C130.278 28.4512 130.503 29.0901 130.933 29.5375C131.373 29.9753 131.915 30.1867 132.558 30.1717ZM139.88 24.8472L139.979 29.116C139.986 29.4053 140.056 29.6137 140.19 29.7412C140.333 29.8593 140.568 29.9145 140.894 29.9068L141.874 29.8839L141.905 31.2136L140.645 31.243C139.927 31.2598 139.372 31.1047 138.982 30.7778C138.592 30.4508 138.388 29.9094 138.37 29.1536L138.27 24.8848L137.36 24.9061L137.33 23.6044L138.24 23.5831L138.195 21.6657L139.804 21.628L139.849 23.5455L141.725 23.5017L141.755 24.8033L139.88 24.8472ZM142.753 27.3007C142.735 26.5262 142.877 25.8367 143.181 25.2321C143.493 24.6273 143.921 24.1552 144.464 23.8158C145.016 23.4668 145.628 23.2844 146.3 23.2687C146.906 23.2545 147.436 23.3635 147.89 23.5957C148.352 23.8182 148.723 24.1037 149.002 24.4519L148.976 23.3322L150.585 23.2946L150.766 31.0065L149.156 31.0441L149.129 29.8964C148.867 30.2666 148.506 30.5785 148.045 30.832C147.584 31.0855 147.055 31.2192 146.458 31.2332C145.795 31.2487 145.185 31.0949 144.626 30.7719C144.068 30.4395 143.618 29.9739 143.277 29.375C142.946 28.7666 142.771 28.0752 142.753 27.3007ZM149.066 27.1812C149.053 26.6493 148.931 26.19 148.697 25.8034C148.474 25.4165 148.182 25.1246 147.823 24.9276C147.463 24.7306 147.078 24.6369 146.668 24.6465C146.257 24.6561 145.877 24.7677 145.527 24.9812C145.177 25.1855 144.895 25.4861 144.68 25.8833C144.475 26.2709 144.378 26.7306 144.39 27.2624C144.403 27.7943 144.521 28.2583 144.745 28.6545C144.978 29.0505 145.275 29.3517 145.634 29.558C146.003 29.7548 146.388 29.8485 146.789 29.8391C147.2 29.8295 147.58 29.7179 147.93 29.5043C148.279 29.2908 148.557 28.9855 148.763 28.5886C148.977 28.1822 149.078 27.713 149.066 27.1812ZM154.573 24.5037L154.673 28.7726C154.679 29.0618 154.75 29.2702 154.883 29.3978C155.026 29.5158 155.261 29.571 155.587 29.5634L156.567 29.5405L156.598 30.8701L155.339 30.8996C154.62 30.9164 154.066 30.7613 153.675 30.4343C153.285 30.1074 153.081 29.566 153.063 28.8102L152.963 24.5414L152.054 24.5626L152.023 23.261L152.933 23.2397L152.888 21.3222L154.498 21.2846L154.543 23.2021L156.418 23.1583L156.448 24.4599L154.573 24.5037ZM158.676 22.0832C158.387 22.0899 158.142 21.9976 157.942 21.8063C157.741 21.6149 157.638 21.3746 157.631 21.0853C157.624 20.7961 157.716 20.5512 157.908 20.3507C158.099 20.1502 158.339 20.0465 158.629 20.0397C158.909 20.0332 159.149 20.1256 159.349 20.317C159.55 20.5083 159.654 20.7487 159.66 21.0379C159.667 21.3272 159.575 21.5721 159.383 21.7726C159.192 21.9731 158.956 22.0766 158.676 22.0832ZM159.484 23.0866L159.664 30.7985L158.069 30.8358L157.889 23.1239L159.484 23.0866ZM165.107 30.7973C164.379 30.8143 163.718 30.6664 163.122 30.3536C162.527 30.0314 162.054 29.5756 161.704 28.9863C161.354 28.3877 161.17 27.6918 161.151 26.8987C161.133 26.1149 161.289 25.4157 161.62 24.8011C161.951 24.1866 162.412 23.709 163.001 23.3685C163.591 23.0279 164.254 22.8491 164.991 22.8318C165.728 22.8146 166.399 22.9623 167.004 23.2749C167.609 23.5875 168.091 24.0431 168.45 24.6415C168.81 25.2399 168.999 25.931 169.017 26.7148C169.035 27.4986 168.874 28.1979 168.534 28.8127C168.193 29.4275 167.719 29.91 167.111 30.2603C166.512 30.6011 165.844 30.7801 165.107 30.7973ZM165.075 29.4117C165.485 29.4021 165.866 29.2952 166.216 29.0909C166.575 28.8865 166.862 28.5857 167.077 28.1886C167.292 27.7914 167.392 27.3129 167.379 26.7531C167.366 26.1933 167.248 25.7246 167.024 25.347C166.801 24.9601 166.509 24.6729 166.15 24.4852C165.791 24.2975 165.406 24.2085 164.996 24.2181C164.585 24.2277 164.205 24.3346 163.855 24.5389C163.514 24.7429 163.246 25.0432 163.05 25.4399C162.853 25.8273 162.762 26.3009 162.775 26.8607C162.794 27.6912 163.019 28.3301 163.45 28.7775C163.889 29.2153 164.431 29.4267 165.075 29.4117ZM174.392 22.6121C174.999 22.5979 175.543 22.7112 176.025 22.952C176.516 23.1926 176.902 23.557 177.185 24.0452C177.467 24.5335 177.616 25.1275 177.632 25.8273L177.739 30.376L176.157 30.413L176.056 26.1022C176.04 25.4117 175.855 24.8885 175.501 24.5327C175.148 24.1675 174.672 23.9919 174.075 24.0059C173.478 24.0199 173.006 24.2176 172.66 24.5991C172.324 24.9711 172.163 25.5023 172.179 26.1928L172.28 30.5036L170.685 30.5409L170.504 22.829L172.1 22.7917L172.12 23.6735C172.374 23.3501 172.7 23.0951 173.097 22.9085C173.503 22.7216 173.935 22.6228 174.392 22.6121Z" fill="#2F3044"/>
<line x1="104.127" y1="58.7418" x2="127.295" y2="58.2003" stroke="white" stroke-width="0.858333"/>
<line x1="104.327" y1="67.3229" x2="127.496" y2="66.7814" stroke="white" stroke-width="0.858333"/>
<line x1="162.366" y1="126.066" x2="185.534" y2="125.525" stroke="white" stroke-width="0.858333"/>
<line x1="104.528" y1="75.904" x2="127.696" y2="75.3624" stroke="white" stroke-width="0.858333"/>
<line x1="104.829" y1="88.7751" x2="184.632" y2="86.9098" stroke="white" stroke-width="0.858333"/>
<line x1="105.029" y1="97.3561" x2="184.832" y2="95.4908" stroke="white" stroke-width="0.858333"/>
<line x1="105.23" y1="105.937" x2="185.033" y2="104.072" stroke="white" stroke-width="0.858333"/>
<line x1="105.43" y1="114.518" x2="185.233" y2="112.653" stroke="white" stroke-width="0.858333"/>
<g filter="url(#filter2_d_0_1056)">
<circle cx="144.53" cy="79.2612" r="24.4625" transform="rotate(-1.33895 144.53 79.2612)" fill="#01AC31"/>
</g>
<path d="M135.956 89.6151L136.471 88.8696L135.956 89.6151ZM134.588 88.3101L135.309 87.7604L134.588 88.3101ZM154.025 87.8558L153.28 87.3404L154.025 87.8558ZM152.72 89.2232L152.17 88.5027L152.72 89.2232ZM152.266 69.7865L151.75 70.5319L152.266 69.7865ZM153.633 71.0915L152.913 71.6412L153.633 71.0915ZM135.502 70.1783L136.051 70.8989L135.502 70.1783ZM134.197 71.5458L134.942 72.0612L134.197 71.5458ZM150.755 76.5242C151.08 76.1436 151.035 75.5716 150.655 75.2465C150.274 74.9215 149.702 74.9665 149.377 75.3471L150.755 76.5242ZM146.102 80.5766L145.413 79.9881L145.413 79.9881L146.102 80.5766ZM139.142 80.7393L139.803 80.1192L139.142 80.7393ZM138.726 78.971C138.383 78.606 137.81 78.5878 137.445 78.9303C137.08 79.2727 137.062 79.8462 137.404 80.2112L138.726 78.971ZM144.344 89.6667C142.059 89.7201 140.418 89.7572 139.144 89.6492C137.887 89.5427 137.095 89.3012 136.471 88.8696L135.44 90.3605C136.431 91.0454 137.579 91.3356 138.991 91.4552C140.385 91.5734 142.142 91.5311 144.386 91.4787L144.344 89.6667ZM132.333 79.9761C132.385 82.2207 132.425 83.977 132.608 85.3645C132.794 86.7688 133.137 87.9022 133.868 88.8597L135.309 87.7604C134.849 87.1572 134.57 86.3778 134.405 85.1272C134.238 83.8597 134.198 82.2187 134.145 79.9337L132.333 79.9761ZM136.471 88.8696C136.028 88.5632 135.636 88.1888 135.309 87.7604L133.868 88.8597C134.31 89.4394 134.841 89.9458 135.44 90.3605L136.471 88.8696ZM154.077 79.4678C154.13 81.7528 154.167 83.3938 154.059 84.6678C153.953 85.9248 153.711 86.7163 153.28 87.3404L154.771 88.3712C155.455 87.3806 155.746 86.2324 155.865 84.8209C155.983 83.4263 155.941 81.6701 155.889 79.4255L154.077 79.4678ZM144.386 91.4787C146.631 91.4262 148.387 91.3864 149.775 91.2032C151.179 91.0177 152.312 90.6742 153.27 89.9437L152.17 88.5027C151.567 88.9629 150.788 89.2411 149.537 89.4063C148.27 89.5737 146.629 89.6133 144.344 89.6667L144.386 91.4787ZM153.28 87.3404C152.973 87.7836 152.599 88.1759 152.17 88.5027L153.27 89.9437C153.849 89.5015 154.356 88.9708 154.771 88.3712L153.28 87.3404ZM143.878 69.7349C146.163 69.6815 147.804 69.6444 149.078 69.7523C150.335 69.8589 151.126 70.1004 151.75 70.5319L152.781 69.0411C151.791 68.3562 150.642 68.066 149.231 67.9463C147.836 67.8281 146.08 67.8704 143.836 67.9229L143.878 69.7349ZM155.889 79.4255C155.836 77.1809 155.796 75.4246 155.613 74.0371C155.428 72.6327 155.084 71.4993 154.354 70.5418L152.913 71.6412C153.373 72.2444 153.651 73.0238 153.816 74.2744C153.984 75.5419 154.023 77.1828 154.077 79.4678L155.889 79.4255ZM151.75 70.5319C152.194 70.8384 152.586 71.2127 152.913 71.6412L154.354 70.5418C153.912 69.9622 153.381 69.4557 152.781 69.0411L151.75 70.5319ZM143.836 67.9229C141.591 67.9754 139.835 68.0152 138.447 68.1984C137.043 68.3838 135.909 68.7274 134.952 69.4578L136.051 70.8989C136.654 70.4387 137.434 70.1604 138.684 69.9953C139.952 69.8279 141.593 69.7883 143.878 69.7349L143.836 67.9229ZM134.145 79.9337C134.092 77.6487 134.054 76.0077 134.162 74.7338C134.269 73.4768 134.51 72.6853 134.942 72.0612L133.451 71.0304C132.766 72.021 132.476 73.1692 132.356 74.5807C132.238 75.9752 132.281 77.7314 132.333 79.9761L134.145 79.9337ZM134.952 69.4578C134.372 69.9 133.866 70.4307 133.451 71.0304L134.942 72.0612C135.248 71.6179 135.623 71.2257 136.051 70.8989L134.952 69.4578ZM149.377 75.3471L145.413 79.9881L146.792 81.1652L150.755 76.5242L149.377 75.3471ZM139.803 80.1192L138.726 78.971L137.404 80.2112L138.482 81.3594L139.803 80.1192ZM145.413 79.9881C144.61 80.9285 144.069 81.5586 143.604 81.9688C143.16 82.3595 142.896 82.4486 142.664 82.454L142.707 84.266C143.536 84.2467 144.195 83.8636 144.802 83.3286C145.387 82.8131 146.024 82.0638 146.792 81.1652L145.413 79.9881ZM138.482 81.3594C139.29 82.2212 139.962 82.9399 140.57 83.4275C141.201 83.9335 141.878 84.2854 142.707 84.266L142.664 82.454C142.432 82.4595 142.165 82.3828 141.703 82.0132C141.219 81.6252 140.65 81.0211 139.803 80.1192L138.482 81.3594Z" fill="white"/>
<g filter="url(#filter3_d_0_1056)">
<rect x="102.392" y="3.1123" width="103" height="132.183" rx="8.58333" fill="#F1FDFB"/>
</g>
<path d="M127.575 25.8763L125.867 24.0283C125.447 24.1496 124.985 24.2103 124.481 24.2103C123.576 24.2103 122.74 24.0003 121.975 23.5803C121.219 23.151 120.617 22.5583 120.169 21.8023C119.73 21.037 119.511 20.1783 119.511 19.2263C119.511 18.2743 119.73 17.4203 120.169 16.6643C120.617 15.9083 121.219 15.3203 121.975 14.9003C122.74 14.471 123.576 14.2563 124.481 14.2563C125.396 14.2563 126.231 14.471 126.987 14.9003C127.752 15.3203 128.354 15.9083 128.793 16.6643C129.232 17.4203 129.451 18.2743 129.451 19.2263C129.451 20.1223 129.255 20.9343 128.863 21.6623C128.48 22.381 127.948 22.9596 127.267 23.3983L129.605 25.8763H127.575ZM121.149 19.2263C121.149 19.945 121.289 20.5796 121.569 21.1303C121.858 21.6716 122.255 22.0916 122.759 22.3903C123.263 22.6796 123.837 22.8243 124.481 22.8243C125.125 22.8243 125.699 22.6796 126.203 22.3903C126.707 22.0916 127.099 21.6716 127.379 21.1303C127.668 20.5796 127.813 19.945 127.813 19.2263C127.813 18.5076 127.668 17.8776 127.379 17.3363C127.099 16.795 126.707 16.3796 126.203 16.0903C125.699 15.801 125.125 15.6563 124.481 15.6563C123.837 15.6563 123.263 15.801 122.759 16.0903C122.255 16.3796 121.858 16.795 121.569 17.3363C121.289 17.8776 121.149 18.5076 121.149 19.2263ZM138.049 16.3983V24.1123H136.453V23.2023C136.201 23.5196 135.869 23.7716 135.459 23.9583C135.057 24.1356 134.628 24.2243 134.171 24.2243C133.564 24.2243 133.018 24.0983 132.533 23.8463C132.057 23.5943 131.679 23.221 131.399 22.7263C131.128 22.2316 130.993 21.6343 130.993 20.9343V16.3983H132.575V20.6963C132.575 21.387 132.747 21.919 133.093 22.2923C133.438 22.6563 133.909 22.8383 134.507 22.8383C135.104 22.8383 135.575 22.6563 135.921 22.2923C136.275 21.919 136.453 21.387 136.453 20.6963V16.3983H138.049ZM143.5 24.2383C142.772 24.2383 142.114 24.075 141.526 23.7483C140.938 23.4123 140.476 22.9456 140.14 22.3483C139.804 21.7416 139.636 21.0416 139.636 20.2483C139.636 19.4643 139.809 18.769 140.154 18.1623C140.5 17.5556 140.971 17.089 141.568 16.7623C142.166 16.4356 142.833 16.2723 143.57 16.2723C144.308 16.2723 144.975 16.4356 145.572 16.7623C146.17 17.089 146.641 17.5556 146.986 18.1623C147.332 18.769 147.504 19.4643 147.504 20.2483C147.504 21.0323 147.327 21.7276 146.972 22.3343C146.618 22.941 146.132 23.4123 145.516 23.7483C144.91 24.075 144.238 24.2383 143.5 24.2383ZM143.5 22.8523C143.911 22.8523 144.294 22.7543 144.648 22.5583C145.012 22.3623 145.306 22.0683 145.53 21.6763C145.754 21.2843 145.866 20.8083 145.866 20.2483C145.866 19.6883 145.759 19.217 145.544 18.8343C145.33 18.4423 145.045 18.1483 144.69 17.9523C144.336 17.7563 143.953 17.6583 143.542 17.6583C143.132 17.6583 142.749 17.7563 142.394 17.9523C142.049 18.1483 141.774 18.4423 141.568 18.8343C141.363 19.217 141.26 19.6883 141.26 20.2483C141.26 21.079 141.47 21.723 141.89 22.1803C142.32 22.6283 142.856 22.8523 143.5 22.8523ZM150.944 17.7003V21.9703C150.944 22.2596 151.009 22.4696 151.14 22.6003C151.28 22.7216 151.513 22.7823 151.84 22.7823H152.82V24.1123H151.56C150.841 24.1123 150.291 23.9443 149.908 23.6083C149.525 23.2723 149.334 22.7263 149.334 21.9703V17.7003H148.424V16.3983H149.334V14.4803H150.944V16.3983H152.82V17.7003H150.944ZM153.759 20.2203C153.759 19.4456 153.918 18.7596 154.235 18.1623C154.562 17.565 155 17.103 155.551 16.7763C156.111 16.4403 156.727 16.2723 157.399 16.2723C158.006 16.2723 158.533 16.3936 158.981 16.6363C159.438 16.8696 159.802 17.1636 160.073 17.5183V16.3983H161.683V24.1123H160.073V22.9643C159.802 23.3283 159.434 23.6316 158.967 23.8743C158.5 24.117 157.968 24.2383 157.371 24.2383C156.708 24.2383 156.102 24.0703 155.551 23.7343C155 23.389 154.562 22.913 154.235 22.3063C153.918 21.6903 153.759 20.995 153.759 20.2203ZM160.073 20.2483C160.073 19.7163 159.961 19.2543 159.737 18.8623C159.522 18.4703 159.238 18.1716 158.883 17.9663C158.528 17.761 158.146 17.6583 157.735 17.6583C157.324 17.6583 156.942 17.761 156.587 17.9663C156.232 18.1623 155.943 18.4563 155.719 18.8483C155.504 19.231 155.397 19.6883 155.397 20.2203C155.397 20.7523 155.504 21.219 155.719 21.6203C155.943 22.0216 156.232 22.3296 156.587 22.5443C156.951 22.7496 157.334 22.8523 157.735 22.8523C158.146 22.8523 158.528 22.7496 158.883 22.5443C159.238 22.339 159.522 22.0403 159.737 21.6483C159.961 21.247 160.073 20.7803 160.073 20.2483ZM165.641 17.7003V21.9703C165.641 22.2596 165.707 22.4696 165.837 22.6003C165.977 22.7216 166.211 22.7823 166.537 22.7823H167.517V24.1123H166.257C165.539 24.1123 164.988 23.9443 164.605 23.6083C164.223 23.2723 164.031 22.7263 164.031 21.9703V17.7003H163.121V16.3983H164.031V14.4803H165.641V16.3983H167.517V17.7003H165.641ZM169.8 15.3763C169.511 15.3763 169.268 15.2783 169.072 15.0823C168.876 14.8863 168.778 14.6436 168.778 14.3543C168.778 14.065 168.876 13.8223 169.072 13.6263C169.268 13.4303 169.511 13.3323 169.8 13.3323C170.08 13.3323 170.318 13.4303 170.514 13.6263C170.71 13.8223 170.808 14.065 170.808 14.3543C170.808 14.6436 170.71 14.8863 170.514 15.0823C170.318 15.2783 170.08 15.3763 169.8 15.3763ZM170.584 16.3983V24.1123H168.988V16.3983H170.584ZM176.026 24.2383C175.298 24.2383 174.64 24.075 174.052 23.7483C173.464 23.4123 173.002 22.9456 172.666 22.3483C172.33 21.7416 172.162 21.0416 172.162 20.2483C172.162 19.4643 172.334 18.769 172.68 18.1623C173.025 17.5556 173.496 17.089 174.094 16.7623C174.691 16.4356 175.358 16.2723 176.096 16.2723C176.833 16.2723 177.5 16.4356 178.098 16.7623C178.695 17.089 179.166 17.5556 179.512 18.1623C179.857 18.769 180.03 19.4643 180.03 20.2483C180.03 21.0323 179.852 21.7276 179.498 22.3343C179.143 22.941 178.658 23.4123 178.042 23.7483C177.435 24.075 176.763 24.2383 176.026 24.2383ZM176.026 22.8523C176.436 22.8523 176.819 22.7543 177.174 22.5583C177.538 22.3623 177.832 22.0683 178.056 21.6763C178.28 21.2843 178.392 20.8083 178.392 20.2483C178.392 19.6883 178.284 19.217 178.07 18.8343C177.855 18.4423 177.57 18.1483 177.216 17.9523C176.861 17.7563 176.478 17.6583 176.068 17.6583C175.657 17.6583 175.274 17.7563 174.92 17.9523C174.574 18.1483 174.299 18.4423 174.094 18.8343C173.888 19.217 173.786 19.6883 173.786 20.2483C173.786 21.079 173.996 21.723 174.416 22.1803C174.845 22.6283 175.382 22.8523 176.026 22.8523ZM185.5 16.2723C186.106 16.2723 186.648 16.3983 187.124 16.6503C187.609 16.9023 187.987 17.2756 188.258 17.7703C188.528 18.265 188.664 18.8623 188.664 19.5623V24.1123H187.082V19.8003C187.082 19.1096 186.909 18.5823 186.564 18.2183C186.218 17.845 185.747 17.6583 185.15 17.6583C184.552 17.6583 184.076 17.845 183.722 18.2183C183.376 18.5823 183.204 19.1096 183.204 19.8003V24.1123H181.608V16.3983H183.204V17.2803C183.465 16.963 183.796 16.7156 184.198 16.5383C184.608 16.361 185.042 16.2723 185.5 16.2723Z" fill="#2F3044"/>
<line x1="114.409" y1="50.7495" x2="137.584" y2="50.7495" stroke="#262626" stroke-width="0.858333"/>
<line x1="114.409" y1="59.3335" x2="137.584" y2="59.3335" stroke="#262626" stroke-width="0.858333"/>
<line x1="171.059" y1="119.417" x2="194.234" y2="119.417" stroke="#262626" stroke-width="0.858333"/>
<line x1="114.409" y1="67.9165" x2="137.584" y2="67.9165" stroke="#262626" stroke-width="0.858333"/>
<line x1="114.409" y1="80.7915" x2="194.234" y2="80.7915" stroke="#262626" stroke-width="0.858333"/>
<line x1="114.409" y1="89.3745" x2="194.234" y2="89.3745" stroke="#262626" stroke-width="0.858333"/>
<line x1="114.409" y1="97.9585" x2="194.234" y2="97.9585" stroke="#262626" stroke-width="0.858333"/>
<line x1="114.409" y1="106.542" x2="194.234" y2="106.542" stroke="#262626" stroke-width="0.858333"/>
<path d="M70 75.9902C70 73.2288 72.2386 70.9902 75 70.9902H206C208.761 70.9902 211 73.2288 211 75.9902V174.99H70V75.9902Z" fill="#4BCCBC"/>
<rect x="213" y="74.9902" width="8" height="100" fill="#BAE1FE"/>
<rect x="68" y="96.9902" width="145" height="19" fill="#199881"/>
<path d="M213 96.9902H227.5V114.99H213V96.9902Z" fill="#5DEBD9"/>
<g filter="url(#filter4_d_0_1056)">
<ellipse cx="138.5" cy="122.99" rx="33.5" ry="34" fill="#2F3044"/>
</g>
<path d="M126.265 136.997L127.004 135.98L126.265 136.997ZM124.412 135.143L125.428 134.405L124.412 135.143ZM151.373 135.143L150.356 134.405L151.373 135.143ZM149.519 136.997L148.781 135.98L149.519 136.997ZM149.519 110.036L148.781 111.052L149.519 110.036ZM151.373 111.889L150.356 112.628L151.373 111.889ZM126.265 110.036L127.004 111.052L126.265 110.036ZM124.412 111.889L125.428 112.628L124.412 111.889ZM147.207 119.328C147.67 118.811 147.626 118.016 147.109 117.553C146.592 117.09 145.797 117.134 145.334 117.651L147.207 119.328ZM140.625 124.795L139.689 123.957L140.625 124.795ZM130.97 124.795L131.907 123.957V123.957L130.97 124.795ZM130.45 122.33C129.987 121.813 129.193 121.769 128.676 122.232C128.159 122.695 128.115 123.49 128.578 124.007L130.45 122.33ZM137.892 137.34C134.723 137.34 132.446 137.339 130.684 137.148C128.945 136.959 127.855 136.599 127.004 135.98L125.526 138.014C126.878 138.995 128.46 139.435 130.413 139.646C132.342 139.855 134.779 139.854 137.892 139.854V137.34ZM121.555 123.516C121.555 126.63 121.553 129.066 121.762 130.995C121.974 132.949 122.413 134.531 123.395 135.882L125.428 134.405C124.81 133.553 124.449 132.464 124.261 130.725C124.07 128.962 124.068 126.686 124.068 123.516H121.555ZM127.004 135.98C126.399 135.541 125.868 135.009 125.428 134.405L123.395 135.882C123.989 136.7 124.708 137.419 125.526 138.014L127.004 135.98ZM151.716 123.516C151.716 126.686 151.714 128.962 151.524 130.725C151.335 132.464 150.975 133.553 150.356 134.405L152.39 135.882C153.371 134.531 153.811 132.949 154.022 130.995C154.231 129.066 154.23 126.63 154.23 123.516H151.716ZM137.892 139.854C141.006 139.854 143.442 139.855 145.371 139.646C147.324 139.435 148.907 138.995 150.258 138.014L148.781 135.98C147.929 136.599 146.84 136.959 145.101 137.148C143.338 137.339 141.062 137.34 137.892 137.34V139.854ZM150.356 134.405C149.917 135.009 149.385 135.541 148.781 135.98L150.258 138.014C151.076 137.419 151.795 136.7 152.39 135.882L150.356 134.405ZM137.892 109.692C141.062 109.692 143.338 109.694 145.101 109.885C146.84 110.073 147.929 110.434 148.781 111.052L150.258 109.019C148.907 108.037 147.324 107.598 145.371 107.386C143.442 107.177 141.006 107.179 137.892 107.179V109.692ZM154.23 123.516C154.23 120.403 154.231 117.967 154.022 116.037C153.811 114.084 153.371 112.502 152.39 111.15L150.356 112.628C150.975 113.479 151.335 114.569 151.524 116.308C151.714 118.07 151.716 120.347 151.716 123.516H154.23ZM148.781 111.052C149.385 111.492 149.917 112.023 150.356 112.628L152.39 111.15C151.795 110.333 151.076 109.613 150.258 109.019L148.781 111.052ZM137.892 107.179C134.779 107.179 132.342 107.177 130.413 107.386C128.46 107.598 126.878 108.037 125.526 109.019L127.004 111.052C127.855 110.434 128.945 110.073 130.684 109.885C132.446 109.694 134.723 109.692 137.892 109.692V107.179ZM124.068 123.516C124.068 120.347 124.07 118.07 124.261 116.308C124.449 114.569 124.81 113.479 125.428 112.628L123.395 111.15C122.413 112.502 121.974 114.084 121.762 116.037C121.553 117.967 121.555 120.403 121.555 123.516H124.068ZM125.526 109.019C124.708 109.613 123.989 110.333 123.395 111.15L125.428 112.628C125.868 112.023 126.399 111.492 127.004 111.052L125.526 109.019ZM145.334 117.651L139.689 123.957L141.561 125.633L147.207 119.328L145.334 117.651ZM131.907 123.957L130.45 122.33L128.578 124.007L130.034 125.633L131.907 123.957ZM139.689 123.957C138.545 125.235 137.774 126.09 137.116 126.644C136.488 127.171 136.12 127.286 135.798 127.286V129.8C136.947 129.8 137.874 129.29 138.733 128.568C139.561 127.872 140.468 126.854 141.561 125.633L139.689 123.957ZM130.034 125.633C131.127 126.854 132.035 127.872 132.863 128.568C133.722 129.29 134.648 129.8 135.798 129.8V127.286C135.476 127.286 135.107 127.171 134.48 126.644C133.821 126.09 133.051 125.235 131.907 123.957L130.034 125.633Z" fill="white"/>
<line y1="174.112" x2="298" y2="174.112" stroke="#262626" stroke-width="2"/>
<defs>
<filter id="filter0_d_0_1056" x="81.7649" y="0.310547" width="112.531" height="141.025" filterUnits="userSpaceOnUse" color-interpolation-filters="sRGB">
<feFlood flood-opacity="0" result="BackgroundImageFix"/>
<feColorMatrix in="SourceAlpha" type="matrix" values="0 0 0 0 0 0 0 0 0 0 0 0 0 0 0 0 0 0 127 0" result="hardAlpha"/>
<feOffset dy="3.43333"/>
<feGaussianBlur stdDeviation="1.71667"/>
<feComposite in2="hardAlpha" operator="out"/>
<feColorMatrix type="matrix" values="0 0 0 0 0 0 0 0 0 0 0 0 0 0 0 0 0 0 0.25 0"/>
<feBlend mode="normal" in2="BackgroundImageFix" result="effect1_dropShadow_0_1056"/>
<feBlend mode="normal" in="SourceGraphic" in2="effect1_dropShadow_0_1056" result="shape"/>
</filter>
<filter id="filter1_d_0_1056" x="86.7649" y="8.31055" width="112.531" height="141.025" filterUnits="userSpaceOnUse" color-interpolation-filters="sRGB">
<feFlood flood-opacity="0" result="BackgroundImageFix"/>
<feColorMatrix in="SourceAlpha" type="matrix" values="0 0 0 0 0 0 0 0 0 0 0 0 0 0 0 0 0 0 127 0" result="hardAlpha"/>
<feOffset dy="3.43333"/>
<feGaussianBlur stdDeviation="1.71667"/>
<feComposite in2="hardAlpha" operator="out"/>
<feColorMatrix type="matrix" values="0 0 0 0 0 0 0 0 0 0 0 0 0 0 0 0 0 0 0.25 0"/>
<feBlend mode="normal" in2="BackgroundImageFix" result="effect1_dropShadow_0_1056"/>
<feBlend mode="normal" in="SourceGraphic" in2="effect1_dropShadow_0_1056" result="shape"/>
</filter>
<filter id="filter2_d_0_1056" x="116.634" y="54.7988" width="55.792" height="55.7915" filterUnits="userSpaceOnUse" color-interpolation-filters="sRGB">
<feFlood flood-opacity="0" result="BackgroundImageFix"/>
<feColorMatrix in="SourceAlpha" type="matrix" values="0 0 0 0 0 0 0 0 0 0 0 0 0 0 0 0 0 0 127 0" result="hardAlpha"/>
<feOffset dy="3.43333"/>
<feGaussianBlur stdDeviation="1.71667"/>
<feComposite in2="hardAlpha" operator="out"/>
<feColorMatrix type="matrix" values="0 0 0 0 0 0 0 0 0 0 0 0 0 0 0 0 0 0 0.25 0"/>
<feBlend mode="normal" in2="BackgroundImageFix" result="effect1_dropShadow_0_1056"/>
<feBlend mode="normal" in="SourceGraphic" in2="effect1_dropShadow_0_1056" result="shape"/>
</filter>
<filter id="filter3_d_0_1056" x="98.9588" y="3.1123" width="109.867" height="139.05" filterUnits="userSpaceOnUse" color-interpolation-filters="sRGB">
<feFlood flood-opacity="0" result="BackgroundImageFix"/>
<feColorMatrix in="SourceAlpha" type="matrix" values="0 0 0 0 0 0 0 0 0 0 0 0 0 0 0 0 0 0 127 0" result="hardAlpha"/>
<feOffset dy="3.43333"/>
<feGaussianBlur stdDeviation="1.71667"/>
<feComposite in2="hardAlpha" operator="out"/>
<feColorMatrix type="matrix" values="0 0 0 0 0 0 0 0 0 0 0 0 0 0 0 0 0 0 0.25 0"/>
<feBlend mode="normal" in2="BackgroundImageFix" result="effect1_dropShadow_0_1056"/>
<feBlend mode="normal" in="SourceGraphic" in2="effect1_dropShadow_0_1056" result="shape"/>
</filter>
<filter id="filter4_d_0_1056" x="101.567" y="88.9902" width="73.8667" height="74.8667" filterUnits="userSpaceOnUse" color-interpolation-filters="sRGB">
<feFlood flood-opacity="0" result="BackgroundImageFix"/>
<feColorMatrix in="SourceAlpha" type="matrix" values="0 0 0 0 0 0 0 0 0 0 0 0 0 0 0 0 0 0 127 0" result="hardAlpha"/>
<feOffset dy="3.43333"/>
<feGaussianBlur stdDeviation="1.71667"/>
<feComposite in2="hardAlpha" operator="out"/>
<feColorMatrix type="matrix" values="0 0 0 0 0 0 0 0 0 0 0 0 0 0 0 0 0 0 0.25 0"/>
<feBlend mode="normal" in2="BackgroundImageFix" result="effect1_dropShadow_0_1056"/>
<feBlend mode="normal" in="SourceGraphic" in2="effect1_dropShadow_0_1056" result="shape"/>
</filter>
</defs>
</svg>
