<svg width="13" height="10" viewBox="0 0 13 10" fill="none" xmlns="http://www.w3.org/2000/svg">
<path d="M12.3335 5.53196C12.6269 5.53196 12.8648 5.29411 12.8648 5.0007C12.8648 4.7073 12.6269 4.46944 12.3335 4.46944V5.53196ZM1 4.46944C0.706595 4.46944 0.468743 4.7073 0.468743 5.0007C0.468743 5.29411 0.706595 5.53196 1 5.53196V4.46944ZM3.4594 8.91975C3.66779 9.12629 4.00416 9.12479 4.2107 8.9164C4.41724 8.708 4.41574 8.37163 4.20735 8.16509L3.4594 8.91975ZM2.58459 7.30473L2.95856 6.9274L2.95856 6.9274L2.58459 7.30473ZM2.58459 2.69668L2.21061 2.31935L2.21061 2.31935L2.58459 2.69668ZM4.20735 1.83631C4.41574 1.62977 4.41724 1.2934 4.2107 1.08501C4.00416 0.876616 3.66779 0.875115 3.4594 1.08166L4.20735 1.83631ZM1.01409 5.22265L0.487095 5.28982L0.487095 5.28982L1.01409 5.22265ZM1.01409 4.77875L0.487095 4.71158L0.487095 4.71158L1.01409 4.77875ZM12.3335 4.46944H1V5.53196H12.3335V4.46944ZM4.20735 8.16509L2.95856 6.9274L2.21061 7.68205L3.4594 8.91975L4.20735 8.16509ZM2.95856 3.07401L4.20735 1.83631L3.4594 1.08166L2.21061 2.31935L2.95856 3.07401ZM2.95856 6.9274C2.45175 6.42508 2.10409 6.07938 1.86885 5.78646C1.64034 5.50193 1.56195 5.31916 1.54108 5.15548L0.487095 5.28982C0.542902 5.72766 0.751816 6.09241 1.04042 6.45177C1.32228 6.80275 1.72154 7.19733 2.21061 7.68205L2.95856 6.9274ZM2.21061 2.31935C1.72154 2.80408 1.32228 3.19865 1.04042 3.54963C0.751816 3.90899 0.542902 4.27375 0.487095 4.71158L1.54108 4.84593C1.56195 4.68224 1.64034 4.49948 1.86885 4.21494C2.10409 3.92202 2.45175 3.57632 2.95856 3.07401L2.21061 2.31935ZM1.54108 5.15548C1.52798 5.0527 1.52798 4.9487 1.54108 4.84593L0.487095 4.71158C0.462625 4.90356 0.462625 5.09784 0.487095 5.28982L1.54108 5.15548Z" fill="#102147"/>
</svg>
