<svg width="19" height="19" viewBox="0 0 19 19" fill="none" xmlns="http://www.w3.org/2000/svg">
<path fill-rule="evenodd" clip-rule="evenodd" d="M16.696 8.79227H5.65833C5.49189 8.79227 5.33226 8.85839 5.21457 8.97608C5.09688 9.09377 5.03076 9.2534 5.03076 9.41984C5.03076 9.58628 5.09688 9.7459 5.21457 9.8636C5.33226 9.98129 5.49189 10.0474 5.65833 10.0474H16.7025L14.0019 12.748C13.8842 12.8658 13.8182 13.0256 13.8183 13.1921C13.8184 13.3586 13.8847 13.5183 14.0025 13.636C14.1204 13.7536 14.2801 13.8197 14.4466 13.8196C14.6132 13.8194 14.7728 13.7532 14.8905 13.6353L18.6585 9.86737C18.7169 9.80918 18.7632 9.74004 18.7948 9.6639C18.8264 9.58777 18.8427 9.50614 18.8427 9.4237C18.8427 9.34126 18.8264 9.25963 18.7948 9.18349C18.7632 9.10736 18.7169 9.03822 18.6585 8.98003L14.8905 5.21206C14.7728 5.09422 14.6132 5.02795 14.4466 5.02783C14.2801 5.02771 14.1204 5.09375 14.0025 5.21142C13.8847 5.32909 13.8184 5.48875 13.8183 5.65527C13.8182 5.8218 13.8842 5.98156 14.0019 6.0994L16.696 8.79227Z" fill="#102147"/>
<path fill-rule="evenodd" clip-rule="evenodd" d="M11.3039 4.39553V1.88398C11.3039 1.38432 11.1054 0.905122 10.7521 0.551806C10.3988 0.198491 9.91959 0 9.41992 0L1.88398 0C1.38432 0 0.905122 0.198491 0.551806 0.551806C0.198491 0.905122 0 1.38432 0 1.88398L0 16.9559C0 17.4555 0.198491 17.9347 0.551806 18.288C0.905122 18.6414 1.38432 18.8398 1.88398 18.8398H9.41992C9.91959 18.8398 10.3988 18.6414 10.7521 18.288C11.1054 17.9347 11.3039 17.4555 11.3039 16.9559V14.4443C11.3077 14.3594 11.2943 14.2746 11.2645 14.1951C11.2347 14.1155 11.189 14.0428 11.1303 13.9814C11.0716 13.92 11.001 13.8711 10.9229 13.8377C10.8448 13.8042 10.7607 13.787 10.6757 13.787C10.5907 13.787 10.5066 13.8042 10.4285 13.8377C10.3504 13.8711 10.2798 13.92 10.2211 13.9814C10.1624 14.0428 10.1167 14.1155 10.0869 14.1951C10.057 14.2746 10.0436 14.3594 10.0475 14.4443V16.9559C10.0475 17.1223 9.98137 17.2819 9.86368 17.3996C9.74599 17.5173 9.58636 17.5834 9.41992 17.5834H1.88398C1.80157 17.5834 1.71996 17.5672 1.64383 17.5357C1.56769 17.5041 1.4985 17.4579 1.44023 17.3996C1.32254 17.2819 1.25642 17.1223 1.25642 16.9559V1.88398C1.25625 1.80152 1.27237 1.71984 1.30384 1.64362C1.33532 1.56741 1.38154 1.49816 1.43985 1.43985C1.49816 1.38154 1.56741 1.33532 1.64362 1.30384C1.71984 1.27237 1.80152 1.25625 1.88398 1.25642H9.41992C9.50238 1.25625 9.58407 1.27237 9.66028 1.30384C9.7365 1.33532 9.80575 1.38154 9.86406 1.43985C9.92236 1.49816 9.96858 1.56741 10.0001 1.64362C10.0315 1.71984 10.0477 1.80152 10.0475 1.88398V4.39553C10.0436 4.48042 10.057 4.56521 10.0869 4.64478C10.1167 4.72434 10.1624 4.79703 10.2211 4.85846C10.2798 4.91989 10.3504 4.96879 10.4285 5.00219C10.5066 5.03559 10.5907 5.05282 10.6757 5.05282C10.7607 5.05282 10.8448 5.03559 10.9229 5.00219C11.001 4.96879 11.0716 4.91989 11.1303 4.85846C11.189 4.79703 11.2347 4.72434 11.2645 4.64478C11.2943 4.56521 11.3077 4.48042 11.3039 4.39553Z" fill="#00AB9C"/>
</svg>
