<svg width="20" height="20" viewBox="0 0 20 20" fill="none" xmlns="http://www.w3.org/2000/svg">
<path d="M8 19V18.185V19ZM7 19V19.815V19ZM1 13H1.815H1ZM1 7H0.185H1ZM7 1V0.185V1ZM8 1V1.815V1ZM1.06156 5.21783L0.256592 5.09033L0.256592 5.09033L1.06156 5.21783ZM5.21783 1.06156L5.34532 1.86652L5.21783 1.06156ZM5.21783 18.9384L5.09033 19.7434H5.09033L5.21783 18.9384ZM1.06156 14.7822L0.256592 14.9097L0.256592 14.9097L1.06156 14.7822ZM11.4895 18.652C11.8494 18.3817 11.922 17.8708 11.6516 17.5109C11.3813 17.151 10.8704 17.0784 10.5105 17.3487L11.4895 18.652ZM10.5105 2.65128C10.8704 2.92161 11.3813 2.849 11.6516 2.48911C11.922 2.12921 11.8494 1.61831 11.4895 1.34799L10.5105 2.65128ZM5 9.185C4.54989 9.185 4.185 9.54989 4.185 10C4.185 10.4501 4.54989 10.815 5 10.815L5 9.185ZM18 10V10.815V10ZM15.5064 5.36138C15.1537 5.08173 14.641 5.14095 14.3614 5.49365C14.0817 5.84634 14.1409 6.35896 14.4936 6.63862L15.5064 5.36138ZM16.763 7.39785L17.2693 6.75923L16.763 7.39785ZM16.763 12.6022L17.2693 13.2408L16.763 12.6022ZM14.4936 13.3614C14.1409 13.641 14.0817 14.1537 14.3614 14.5064C14.641 14.8591 15.1537 14.9183 15.5064 14.6386L14.4936 13.3614ZM18.9801 9.74933L19.785 9.6211L19.785 9.6211L18.9801 9.74933ZM18.9801 10.2507L19.785 10.3789L19.785 10.3789L18.9801 10.2507ZM19 10H19.815H19ZM8 18.185H7V19.815H8V18.185ZM1.815 13L1.815 7H0.185L0.185 13H1.815ZM7 1.815L8 1.815V0.185L7 0.185V1.815ZM1.815 7C1.815 6.03985 1.81753 5.65466 1.86652 5.34532L0.256592 5.09033C0.182471 5.55832 0.185 6.10214 0.185 7H1.815ZM7 0.185C6.10214 0.185 5.55832 0.182471 5.09033 0.256592L5.34532 1.86652C5.65466 1.81753 6.03985 1.815 7 1.815V0.185ZM1.86652 5.34532C2.15015 3.55459 3.55459 2.15015 5.34532 1.86652L5.09033 0.256592C2.60214 0.650684 0.650684 2.60214 0.256592 5.09033L1.86652 5.34532ZM7 18.185C6.03985 18.185 5.65466 18.1825 5.34532 18.1335L5.09033 19.7434C5.55832 19.8175 6.10214 19.815 7 19.815V18.185ZM0.185 13C0.185 13.8979 0.182471 14.4417 0.256592 14.9097L1.86652 14.6547C1.81753 14.3453 1.815 13.9601 1.815 13H0.185ZM5.34532 18.1335C3.55459 17.8499 2.15015 16.4454 1.86652 14.6547L0.256592 14.9097C0.650683 17.3979 2.60214 19.3493 5.09033 19.7434L5.34532 18.1335ZM8 19.815C9.30814 19.815 10.5175 19.3821 11.4895 18.652L10.5105 17.3487C9.81116 17.874 8.94307 18.185 8 18.185V19.815ZM8 1.815C8.94307 1.815 9.81116 2.12596 10.5105 2.65128L11.4895 1.34799C10.5175 0.617928 9.30814 0.185 8 0.185V1.815ZM5 10.815L18 10.815V9.185L5 9.185L5 10.815ZM14.4936 6.63862L16.2566 8.03646L17.2693 6.75923L15.5064 5.36138L14.4936 6.63862ZM16.2566 11.9635L14.4936 13.3614L15.5064 14.6386L17.2693 13.2408L16.2566 11.9635ZM16.2566 8.03646C16.9752 8.60621 17.4585 8.99104 17.783 9.31427C18.1038 9.63386 18.1616 9.79162 18.1753 9.87757L19.785 9.6211C19.6904 9.02769 19.3426 8.56708 18.9334 8.15946C18.5278 7.75548 17.9567 7.30424 17.2693 6.75923L16.2566 8.03646ZM17.2693 13.2408C17.9567 12.6958 18.5278 12.2445 18.9334 11.8405C19.3426 11.4329 19.6904 10.9723 19.785 10.3789L18.1753 10.1224C18.1616 10.2084 18.1038 10.3661 17.783 10.6857C17.4585 11.009 16.9752 11.3938 16.2566 11.9635L17.2693 13.2408ZM18.1753 9.87757C18.1818 9.91854 18.185 9.95938 18.185 10H19.815C19.815 9.87318 19.805 9.74658 19.785 9.6211L18.1753 9.87757ZM18.185 10C18.185 10.0406 18.1818 10.0815 18.1753 10.1224L19.785 10.3789C19.805 10.2534 19.815 10.1268 19.815 10H18.185ZM18 10.815H19V9.185H18V10.815Z" fill="#262626"/>
</svg>
