<?xml version="1.0" encoding="UTF-8"?>
<svg version="1.1" xmlns="http://www.w3.org/2000/svg" width="237" height="94">
<path d="M0 0 C78.21 0 156.42 0 237 0 C237 30.03 237 60.06 237 91 C158.79 91 80.58 91 0 91 C0 60.97 0 30.94 0 0 Z " fill="#FEFEFE" transform="translate(0,0)"/>
<path d="M0 0 C0.91096939 -0.00938095 1.82193878 -0.0187619 2.76051331 -0.02842712 C3.73665085 -0.01719315 4.71278839 -0.00595917 5.71850586 0.00561523 C6.72674911 0.00416 7.73499237 0.00270477 8.77378845 0.00120544 C10.90293267 0.002864 13.03208893 0.01442038 15.16113281 0.03515625 C18.42491385 0.06413409 21.68707318 0.05575937 24.95092773 0.04272461 C27.01929502 0.0489613 29.08765717 0.05735169 31.15600586 0.06811523 C32.13416763 0.0651796 33.11232941 0.06224396 34.12013245 0.05921936 C35.02794968 0.07190353 35.93576691 0.08458771 36.87109375 0.09765625 C38.06878136 0.10576073 38.06878136 0.10576073 39.29066467 0.11402893 C41.90090681 0.60049472 42.78992647 1.39744764 44.37084961 3.50170898 C44.87897898 7.03320814 44.86925976 8.78575122 42.81030273 11.7434082 C42.0980957 12.42419434 41.38588867 13.10498047 40.65209961 13.80639648 C39.50161133 14.92788086 39.50161133 14.92788086 38.32788086 16.07202148 C37.51706055 16.83256836 36.70624023 17.59311523 35.87084961 18.37670898 C35.0600293 19.16045898 34.24920898 19.94420898 33.41381836 20.75170898 C31.41231711 22.68256901 29.39819337 24.59806111 27.37084961 26.50170898 C28.73945729 30.60753202 31.60394269 32.290221 34.93334961 34.81420898 C35.56724609 35.30405273 36.20114258 35.79389648 36.85424805 36.29858398 C40.82652445 39.35948987 44.83437757 42.37135501 48.91772461 45.28295898 C51.700567 47.61695583 52.35703486 49.37507374 52.74584961 52.93920898 C52.37084961 56.50170898 52.37084961 56.50170898 50.49584961 58.87670898 C47.37971347 61.25963662 45.67959747 61.63118699 41.81689453 61.6628418 C40.87218796 61.67244934 39.92748138 61.68205688 38.95414734 61.69195557 C37.93021378 61.69620544 36.90628021 61.70045532 35.85131836 61.70483398 C34.80059647 61.71053406 33.74987457 61.71623413 32.66731262 61.72210693 C30.44049082 61.7315655 28.21365497 61.7380943 25.98681641 61.74194336 C22.58267709 61.75163969 19.17914376 61.78265168 15.77514648 61.81420898 C13.6130407 61.82073985 11.45093059 61.82598999 9.28881836 61.82983398 C7.76202705 61.84835419 7.76202705 61.84835419 6.20439148 61.86724854 C-2.73990755 61.83911632 -2.73990755 61.83911632 -6.62915039 58.50170898 C-8.79623196 55.25108663 -8.88735352 54.30506719 -8.91967773 50.54296875 C-8.93243744 49.53504776 -8.94519714 48.52712677 -8.95834351 47.48866272 C-8.96056915 46.40113205 -8.9627948 45.31360138 -8.96508789 44.19311523 C-8.97174469 43.07484848 -8.97840149 41.95658173 -8.98526001 40.8044281 C-8.99539048 38.43815762 -9.00007691 36.07185855 -8.99975586 33.70556641 C-9.00412916 30.08179772 -9.0404468 26.45924648 -9.07836914 22.83569336 C-9.08423709 20.53817149 -9.08820663 18.24064383 -9.09008789 15.94311523 C-9.10445892 14.8576088 -9.11882996 13.77210236 -9.13363647 12.65370178 C-9.12748322 11.64262863 -9.12132996 10.63155548 -9.11499023 9.58984375 C-9.11784027 8.70176529 -9.12069031 7.81368683 -9.12362671 6.8986969 C-8.08845089 1.8806529 -4.88538134 0.00101569 0 0 Z " fill="#4BACDF" transform="translate(29.629150390625,12.498291015625)"/>
<path d="M0 0 C5.80855905 3.14815032 8.72363716 8.01490021 10.609375 14.234375 C11.77997547 21.51704516 10.91238194 27.68812204 7.20703125 34.09765625 C3.78535228 38.67383815 0.3429236 40.83088578 -5.328125 41.66796875 C-11.87723547 41.93811956 -16.23759711 41.33576454 -21.390625 37.234375 C-27.04969256 30.73309634 -27.74726238 25.30390328 -27.66796875 16.7578125 C-27.17401819 10.48255324 -25.01229967 6.43203169 -20.328125 2.296875 C-14.46323877 -1.82102384 -6.79543003 -2.17631419 0 0 Z " fill="#1B284D" transform="translate(203.390625,32.765625)"/>
<path d="M0 0 C3.90617465 2.04450843 5.90673863 4.36462482 7.7734375 8.2734375 C8.20581055 11.77856445 8.20581055 11.77856445 8.28515625 15.76171875 C8.30310745 16.46491745 8.32105865 17.16811615 8.33955383 17.8926239 C8.3934423 20.12366867 8.42748162 22.3545022 8.4609375 24.5859375 C8.49412974 26.10484697 8.52862117 27.62372864 8.56445312 29.14257812 C8.64915445 32.85266166 8.71606824 36.5628192 8.7734375 40.2734375 C5.4734375 40.2734375 2.1734375 40.2734375 -1.2265625 40.2734375 C-1.5565625 39.6134375 -1.8865625 38.9534375 -2.2265625 38.2734375 C-2.8453125 38.7684375 -3.4640625 39.2634375 -4.1015625 39.7734375 C-8.51929062 41.893947 -12.40622823 41.96867802 -17.2265625 41.2734375 C-21.639086 39.1072896 -24.31714762 36.8348175 -26.2265625 32.2734375 C-26.81334869 28.75272034 -26.93955297 26.44987178 -25.0546875 23.33984375 C-22.13013112 19.71429834 -19.76921393 17.62448469 -15.2265625 16.2734375 C-11.89453125 16.078125 -11.89453125 16.078125 -8.4140625 16.1484375 C-6.67189453 16.17550781 -6.67189453 16.17550781 -4.89453125 16.203125 C-4.01410156 16.22632812 -3.13367188 16.24953125 -2.2265625 16.2734375 C-2.8865625 13.9634375 -3.5465625 11.6534375 -4.2265625 9.2734375 C-9.78150174 8.24640002 -9.78150174 8.24640002 -15.2265625 9.2734375 C-15.2265625 10.2634375 -15.2265625 11.2534375 -15.2265625 12.2734375 C-18.5265625 12.2734375 -21.8265625 12.2734375 -25.2265625 12.2734375 C-24.72086513 7.84858555 -23.32714358 5.45781807 -20.2265625 2.2734375 C-14.53304043 -1.854366 -6.6084993 -2.15645767 0 0 Z " fill="#1C294D" transform="translate(116.2265625,32.7265625)"/>
<path d="M0 0 C0.91104492 -0.00945648 1.82208984 -0.01891296 2.76074219 -0.02865601 C3.74204102 -0.02258331 4.72333984 -0.01651062 5.734375 -0.01025391 C6.7440332 -0.01312408 7.75369141 -0.01599426 8.79394531 -0.01895142 C10.92904216 -0.02099329 13.06415766 -0.01545487 15.19921875 -0.00292969 C18.47177871 0.01312181 21.74310356 -0.00277465 25.015625 -0.02197266 C27.0885444 -0.01999025 29.16146303 -0.01614662 31.234375 -0.01025391 C32.70632324 -0.01936295 32.70632324 -0.01936295 34.20800781 -0.02865601 C35.5745752 -0.01447128 35.5745752 -0.01447128 36.96875 0 C38.17096191 0.00358017 38.17096191 0.00358017 39.39746094 0.00723267 C42.01600666 0.48522907 42.90154826 1.27745657 44.484375 3.38818359 C44.97335048 6.87523557 44.9521017 8.67529934 43.00317383 11.64575195 C41.98259888 12.67647827 41.98259888 12.67647827 40.94140625 13.72802734 C40.19697266 14.48019531 39.45253906 15.23236328 38.68554688 16.00732422 C37.89728516 16.77238281 37.10902344 17.53744141 36.296875 18.32568359 C35.52794922 19.1178125 34.75902344 19.90994141 33.96679688 20.72607422 C32.84047852 21.84079102 32.84047852 21.84079102 31.69140625 22.97802734 C31.0053833 23.65728271 30.31936035 24.33653809 29.61254883 25.03637695 C27.484375 26.38818359 27.484375 26.38818359 24.96411133 26.28076172 C22.34665257 25.33861057 20.72191654 24.30373001 18.6015625 22.51708984 C17.90933594 21.9428125 17.21710937 21.36853516 16.50390625 20.77685547 C15.79621094 20.17421875 15.08851562 19.57158203 14.359375 18.95068359 C12.94091213 17.76351963 11.52167178 16.57728385 10.1015625 15.39208984 C9.47878418 14.86429932 8.85600586 14.33650879 8.21435547 13.79272461 C4.41329258 10.70670784 2.35607331 9.90101376 -2.515625 10.38818359 C-5.33343034 11.77703608 -5.33343034 11.77703608 -7.515625 13.38818359 C-7.59684424 11.78485569 -7.65491634 10.18034333 -7.703125 8.57568359 C-7.73792969 7.68236328 -7.77273437 6.78904297 -7.80859375 5.86865234 C-7.515625 3.38818359 -7.515625 3.38818359 -6.27954102 1.75741577 C-4.03931434 0.0184495 -2.81622691 0.00838668 0 0 Z " fill="#17254A" transform="translate(29.515625,12.61181640625)"/>
<path d="M0 0 C2.97 0 5.94 0 9 0 C9 3.3 9 6.6 9 10 C11.64 10 14.28 10 17 10 C17 12.31 17 14.62 17 17 C14.36 17 11.72 17 9 17 C9.13813025 21.14612814 9.28678859 25.29181162 9.4375 29.4375 C9.47681641 30.62150391 9.51613281 31.80550781 9.55664062 33.02539062 C9.59853516 34.15009766 9.64042969 35.27480469 9.68359375 36.43359375 C9.72025146 37.47572021 9.75690918 38.51784668 9.79467773 39.59155273 C9.73515341 41.9499826 9.73515341 41.9499826 11 43 C12.99958364 43.04080783 15.00045254 43.04254356 17 43 C17.09765625 49.15234375 17.09765625 49.15234375 17 51 C15.35962605 52.64037395 13.50523159 52.24911331 11.25 52.3125 C7.51709524 52.28579825 6.2118116 52.12968057 2.9375 50.125 C-0.34194592 46.52818835 -0.11852154 44.25995394 -0.09765625 39.4609375 C-0.09282227 37.50800781 -0.09282227 37.50800781 -0.08789062 35.515625 C-0.07953466 34.13541601 -0.07106971 32.75520768 -0.0625 31.375 C-0.05748501 29.98698074 -0.0529221 28.59895978 -0.04882812 27.2109375 C-0.03700976 23.80724868 -0.02053434 20.40364561 0 17 C-2.31 17 -4.62 17 -7 17 C-7 14.69 -7 12.38 -7 10 C-4.69 10 -2.38 10 0 10 C0 6.7 0 3.4 0 0 Z " fill="#17254A" transform="translate(155,22)"/>
<path d="M0 0 C2.57430066 1.44725837 4.75516311 3.27840837 7 5.1875 C7.59039062 5.67025391 8.18078125 6.15300781 8.7890625 6.65039062 C11.10746615 8.55260508 13.40056504 10.48110973 15.66796875 12.44384766 C18.11766289 14.54498964 19.90319376 15.96773125 23 17 C24.16451677 18.14760909 25.32442865 19.30039449 26.45654297 20.47998047 C29.60790819 23.583492 33.12755786 26.28211336 36.5625 29.0625 C45.61225044 36.39658469 45.61225044 36.39658469 49 40 C48.67 40.99 48.34 41.98 48 43 C47.51708496 42.66548828 47.03416992 42.33097656 46.53662109 41.98632812 C40.04111135 37.5659995 33.3190933 33.56816405 26.53515625 29.61376953 C24.6334614 28.50493365 22.73453108 27.39147967 20.8359375 26.27734375 C17.23391852 24.16734126 13.61911311 22.08055664 10 20 C8.93620117 19.38310303 7.87240234 18.76620605 6.77636719 18.13061523 C5.80602539 17.58091064 4.83568359 17.03120605 3.8359375 16.46484375 C2.99337402 15.98394287 2.15081055 15.50304199 1.28271484 15.00756836 C-3.24746934 13.00798867 -6.46511485 14.48837162 -11 16 C-11.77783427 5.00660905 -11.77783427 5.00660905 -8.875 1.25 C-5.46056031 -0.23453899 -3.7025389 -0.45726799 0 0 Z " fill="#50C6EC" transform="translate(33,22)"/>
<path d="M0 0 C3.3 0 6.6 0 10 0 C10 13.53 10 27.06 10 41 C6.7 41 3.4 41 0 41 C0 27.47 0 13.94 0 0 Z " fill="#222E52" transform="translate(134,32)"/>
<path d="M0 0 C0.77601563 0.07089844 1.55203125 0.14179687 2.3515625 0.21484375 C3.12242187 0.26769531 3.89328125 0.32054687 4.6875 0.375 C8.0392023 1.51320607 9.15086167 3.16147655 10.9765625 6.15234375 C11.47265625 9.30859375 11.47265625 9.30859375 11.4140625 12.65234375 C11.41277344 13.75578125 11.41148437 14.85921875 11.41015625 15.99609375 C10.93619147 19.44621578 10.01410682 21.35699353 7.9765625 24.15234375 C5.63647222 25.84689188 3.90148988 26.16512207 1.0390625 26.65234375 C-2.32341224 26.10336828 -2.74623672 25.75357878 -4.8359375 23.27734375 C-8.40935392 18.17246315 -8.73258654 14.31721278 -8.0234375 8.15234375 C-3.80977273 0.28683617 -3.80977273 0.28683617 0 0 Z " fill="#FAFAFB" transform="translate(193.0234375,39.84765625)"/>
<path d="M0 0 C3.18211078 1.28575147 4.63182821 2.94531975 6.81640625 5.57421875 C7.51378906 6.40050781 8.21117187 7.22679687 8.9296875 8.078125 C9.70892578 9.03525391 9.70892578 9.03525391 10.50390625 10.01171875 C10.17390625 11.00171875 9.84390625 11.99171875 9.50390625 13.01171875 C2.57390625 13.01171875 -4.35609375 13.01171875 -11.49609375 13.01171875 C-10.50183512 8.04042561 -10.0935721 7.02195061 -6.74609375 3.63671875 C-6.070625 2.92773438 -5.39515625 2.21875 -4.69921875 1.48828125 C-2.49609375 0.01171875 -2.49609375 0.01171875 0 0 Z " fill="#51ACDF" transform="translate(139.49609375,14.98828125)"/>
<path d="M0 0 C0 2.64 0 5.28 0 8 C-4.76389777 10.90481571 -7.56899596 11.2778833 -13 10 C-14 9 -14 9 -14.1875 6.0625 C-14 3 -14 3 -12 1 C-8.15899602 -0.47730922 -4.04749486 -0.06745825 0 0 Z " fill="#FCFBFC" transform="translate(114,55)"/>
</svg>
