<svg width="21" height="21" viewBox="0 0 21 21" fill="none" xmlns="http://www.w3.org/2000/svg">
<path d="M10.6902 9.11526C11.581 8.53434 12.2583 7.68585 12.6217 6.69556C12.985 5.70527 13.0152 4.62587 12.7076 3.61737C12.4 2.60887 11.7711 1.72493 10.914 1.09658C10.057 0.468229 9.01744 0.128906 7.94948 0.128906C6.88151 0.128906 5.84197 0.468229 4.98492 1.09658C4.12788 1.72493 3.49896 2.60887 3.19138 3.61737C2.88379 4.62587 2.91392 5.70527 3.27729 6.69556C3.64066 7.68585 4.31793 8.53434 5.20872 9.11526C3.68296 9.66897 2.36582 10.6703 1.43457 11.9844C0.50333 13.2986 0.00267791 14.8625 0 16.4658L0 17.1182H15.899V16.4658C15.8963 14.8625 15.3956 13.2986 14.4644 11.9844C13.5331 10.6703 12.216 9.66897 10.6902 9.11526ZM4.30585 5.03374C4.30563 4.32291 4.51919 3.62798 4.91954 3.03686C5.31988 2.44573 5.88901 1.98496 6.55495 1.71284C7.22088 1.44071 7.9537 1.36945 8.66071 1.50808C9.36772 1.6467 10.0172 1.98897 10.5269 2.49161C11.0366 2.99424 11.3837 3.63465 11.5243 4.33184C11.6648 5.02902 11.5926 5.75166 11.3166 6.40834C11.0407 7.06502 10.5734 7.62625 9.97394 8.02103C9.37449 8.41581 8.66976 8.62641 7.94891 8.62619C6.98308 8.62501 6.05714 8.24614 5.3742 7.57269C4.69125 6.89923 4.30704 5.98616 4.30585 5.03374ZM1.35826 15.8155C1.51596 14.1988 2.27881 12.6979 3.49797 11.6058C4.71714 10.5136 6.30518 9.90855 7.9523 9.90855C9.59941 9.90855 11.1874 10.5136 12.4066 11.6058C13.6258 12.6979 14.3886 14.1988 14.5463 15.8155H1.35826Z" fill="#00AB9C"/>
<path d="M0.509766 17.1161H15.0595V14.5585L12.6586 10.6582L7.94919 9.21875L3.80566 10.6115L1.12183 13.5137L0.509766 17.1161Z" fill="#00AB9C"/>
<path d="M7.94862 10.066C10.7674 10.066 13.0525 7.81261 13.0525 5.03298C13.0525 2.25334 10.7674 0 7.94862 0C5.12982 0 2.84473 2.25334 2.84473 5.03298C2.84473 7.81261 5.12982 10.066 7.94862 10.066Z" fill="#102147"/>
<path d="M20.2455 16.4977L20.4146 18.3317C20.419 18.3782 20.4107 18.425 20.3905 18.4671C20.3703 18.5093 20.3389 18.5454 20.2997 18.5715C20.2606 18.5977 20.215 18.6129 20.1677 18.6157C20.1205 18.6185 20.0734 18.6087 20.0313 18.5874L19.5128 18.3317C19.0521 19.2051 18.338 19.9233 17.4617 20.3949C16.5853 20.8664 15.5863 21.0698 14.5922 20.9792C13.5982 20.8885 12.654 20.508 11.8801 19.886C11.1063 19.264 10.5379 18.4288 10.2473 17.487C10.2298 17.4264 10.2267 17.3627 10.2383 17.3007C10.2498 17.2387 10.2756 17.1802 10.3138 17.1297C10.3519 17.0792 10.4014 17.038 10.4583 17.0094C10.5152 16.9807 10.578 16.9654 10.6419 16.9646C10.7299 16.9663 10.8152 16.9951 10.8859 17.0469C10.9566 17.0987 11.0092 17.1709 11.0364 17.2536C11.2804 18.0389 11.7553 18.7352 12.401 19.2542C13.0466 19.7732 13.8339 20.0915 14.6632 20.1689C15.4925 20.2462 16.3264 20.0792 17.0593 19.6888C17.7922 19.2984 18.3911 18.7023 18.7801 17.976L18.2504 17.7093C18.2081 17.6886 18.1722 17.6572 18.1463 17.6183C18.1205 17.5794 18.1057 17.5344 18.1034 17.488C18.1011 17.4415 18.1114 17.3953 18.1333 17.3541C18.1552 17.3129 18.1878 17.2782 18.2278 17.2536L19.8284 16.2976C19.868 16.2747 19.9127 16.2618 19.9586 16.26C20.0045 16.2582 20.0501 16.2676 20.0913 16.2874C20.1326 16.3072 20.1683 16.3368 20.1952 16.3735C20.2221 16.4102 20.2394 16.4529 20.2455 16.4977Z" fill="#102147"/>
<path d="M15.0604 11.084C16.1382 11.0845 17.1874 11.426 18.0537 12.0582C18.9201 12.6905 19.5579 13.5801 19.8735 14.5964C19.8909 14.657 19.8941 14.7207 19.8825 14.7827C19.871 14.8446 19.8452 14.9031 19.807 14.9537C19.7689 15.0042 19.7194 15.0454 19.6625 15.074C19.6056 15.1026 19.5428 15.118 19.4789 15.1188C19.3909 15.117 19.3056 15.0882 19.2349 15.0365C19.1642 14.9847 19.1116 14.9124 19.0844 14.8298C18.8404 14.0445 18.3655 13.3482 17.7198 12.8292C17.0742 12.3102 16.2869 11.9919 15.4576 11.9145C14.6283 11.8371 13.7944 12.0042 13.0615 12.3946C12.3286 12.7849 11.7297 13.381 11.3407 14.1073L11.8704 14.3741C11.9127 14.3947 11.9486 14.4261 11.9744 14.465C12.0003 14.504 12.0151 14.549 12.0174 14.5954C12.0197 14.6419 12.0094 14.6881 11.9875 14.7293C11.9656 14.7705 11.933 14.8052 11.893 14.8298L10.2811 15.7835C10.2422 15.806 10.1983 15.8186 10.1532 15.8201C10.1082 15.8216 10.0635 15.8119 10.0231 15.7921C9.98283 15.7722 9.94819 15.7427 9.92237 15.7062C9.89655 15.6698 9.88038 15.6276 9.87531 15.5834L9.70624 13.7383C9.70181 13.6918 9.71013 13.6451 9.73033 13.6029C9.75053 13.5607 9.78186 13.5247 9.82105 13.4985C9.86024 13.4724 9.90584 13.4571 9.95306 13.4543C10.0003 13.4515 10.0474 13.4613 10.0895 13.4826L10.608 13.7383C11.0351 12.9384 11.6754 12.2685 12.46 11.8008C13.2445 11.333 14.1436 11.0852 15.0604 11.084Z" fill="#102147"/>
</svg>
