<svg id="Group_518" data-name="Group 518" xmlns="http://www.w3.org/2000/svg" xmlns:xlink="http://www.w3.org/1999/xlink" width="27.564" height="25" viewBox="0 0 27.564 25">
  <defs>
    <clipPath id="clip-path">
      <rect id="Rectangle_653" data-name="Rectangle 653" width="27.564" height="25" fill="none"/>
    </clipPath>
  </defs>
  <g id="Group_514" data-name="Group 514">
    <g id="Group_513" data-name="Group 513" clip-path="url(#clip-path)">
      <path id="Path_469" data-name="Path 469" d="M19.526,7.051A3.526,3.526,0,1,0,16,3.526a3.525,3.525,0,0,0,3.526,3.526m0-5.128a1.6,1.6,0,1,1-1.6,1.6,1.6,1.6,0,0,1,1.6-1.6" transform="translate(4.513)" fill="#fff"/>
      <path id="Path_470" data-name="Path 470" d="M21.434,6.974a.962.962,0,0,0-.95.973c.01.773.01,1.627.01,2.586,0,2.424,0,4.167-.147,5.515a5.607,5.607,0,0,1-.894,2.815,5.455,5.455,0,0,1-1.205,1.205l1.131,1.555a7.37,7.37,0,0,0,1.631-1.631,7.455,7.455,0,0,0,1.249-3.738c.16-1.476.159-3.34.159-5.722,0-.955,0-1.823-.01-2.609a.961.961,0,0,0-.973-.95" transform="translate(5.147 1.967)" fill="#fff"/>
      <path id="Path_471" data-name="Path 471" d="M23.395,22.036h0a5.6,5.6,0,0,1-2.815.894c-1.349.146-3.091.147-5.515.147H12.5c-2.426,0-4.167,0-5.515-.147a5.6,5.6,0,0,1-2.815-.894,5.428,5.428,0,0,1-1.205-1.205,5.59,5.59,0,0,1-.894-2.815c-.146-1.349-.147-3.091-.147-5.515,0-2.1,0-3.686.1-4.959A12.88,12.88,0,0,1,2.2,6.124L4.037,7.96a59,59,0,0,0,5.236,4.892,7.314,7.314,0,0,0,4.509,1.8c2.476,0,4.471-1.559,7.076-4.055a.962.962,0,0,0-1.331-1.388c-2.664,2.554-4.138,3.521-5.745,3.521a5.431,5.431,0,0,1-3.342-1.406A57.668,57.668,0,0,1,5.4,6.6L2.964,4.168A5.455,5.455,0,0,1,4.169,2.963a5.591,5.591,0,0,1,2.815-.892c1.349-.146,3.09-.147,5.515-.147h2.564c.945,0,1.788,0,2.553.009A.962.962,0,1,0,17.64.009C16.862,0,16.005,0,15.064,0H12.5C10.118,0,8.254,0,6.777.158a7.473,7.473,0,0,0-3.738,1.25A7.4,7.4,0,0,0,1.408,3.038,5.612,5.612,0,0,0,.891,3.9,9.624,9.624,0,0,0,.1,7.4C0,8.758,0,10.431,0,12.5c0,2.382,0,4.246.159,5.722A7.455,7.455,0,0,0,1.408,21.96a7.376,7.376,0,0,0,1.631,1.632,7.472,7.472,0,0,0,3.738,1.249C8.254,25,10.118,25,12.5,25h2.564c2.382,0,4.246,0,5.722-.159a7.477,7.477,0,0,0,3.74-1.249l-.565-.778Z" transform="translate(0 0)" fill="#fff"/>
    </g>
  </g>
</svg>
