<svg id="Group_521" data-name="Group 521" xmlns="http://www.w3.org/2000/svg" xmlns:xlink="http://www.w3.org/1999/xlink" width="26.181" height="25" viewBox="0 0 26.181 25">
  <defs>
    <clipPath id="clip-path">
      <rect id="Rectangle_655" data-name="Rectangle 655" width="26.181" height="25" fill="none"/>
    </clipPath>
  </defs>
  <g id="Group_520" data-name="Group 520">
    <g id="Group_519" data-name="Group 519" transform="translate(0 0)" clip-path="url(#clip-path)">
      <path id="Path_474" data-name="Path 474" d="M5.75,8.968A1.218,1.218,0,1,0,6.968,7.75,1.218,1.218,0,0,0,5.75,8.968" transform="translate(1.252 1.687)" fill="#fff"/>
      <path id="Path_475" data-name="Path 475" d="M9.75,8.968A1.218,1.218,0,1,0,10.968,7.75,1.218,1.218,0,0,0,9.75,8.968" transform="translate(2.123 1.687)" fill="#fff"/>
      <path id="Path_476" data-name="Path 476" d="M13.75,8.968A1.218,1.218,0,1,0,14.968,7.75,1.218,1.218,0,0,0,13.75,8.968" transform="translate(2.994 1.687)" fill="#fff"/>
      <path id="Path_477" data-name="Path 477" d="M19.349,6.7A3.349,3.349,0,1,0,16,3.349,3.348,3.348,0,0,0,19.349,6.7m0-4.871a1.522,1.522,0,1,1-1.522,1.522,1.523,1.523,0,0,1,1.522-1.522" transform="translate(3.484 0)" fill="#fff"/>
      <path id="Path_478" data-name="Path 478" d="M24.85,7.784a.829.829,0,0,0-.5.746c.009.616.009,1.318.009,2.125V12.1a14.687,14.687,0,0,1-.209,3.668,5.176,5.176,0,0,1-3.51,3.511,14.717,14.717,0,0,1-3.668.208h-.753a7.006,7.006,0,0,0-3.989,1.279l-.069.05-3.178,2.27a.428.428,0,0,1-.647-.507,2.254,2.254,0,0,0-2.093-3.092H5.507A3.68,3.68,0,0,1,1.827,15.8v-5.15c0-1.719,0-2.954.08-3.925A5.441,5.441,0,0,1,2.39,4.653,5.182,5.182,0,0,1,4.653,2.39,5.441,5.441,0,0,1,6.73,1.907c.969-.079,2.2-.08,3.925-.08h4.871c.807,0,1.509,0,2.125.009a.826.826,0,0,0,.746-.5A.914.914,0,0,0,17.7.01C17.065,0,16.357,0,15.567,0H10.614c-1.67,0-2.98,0-4.032.086A7.214,7.214,0,0,0,3.824.764a7,7,0,0,0-3.06,3.06A7.192,7.192,0,0,0,.086,6.582C0,7.635,0,8.944,0,10.615V15.8A5.505,5.505,0,0,0,5.507,21.31h.732a.428.428,0,0,1,.4.587,2.254,2.254,0,0,0,3.4,2.672L13.218,22.3l.06-.043a5.186,5.186,0,0,1,2.948-.945h.921a15.017,15.017,0,0,0,4-.283A7,7,0,0,0,25.9,16.279a15.116,15.116,0,0,0,.283-4V10.615c0-.79,0-1.5-.009-2.138a.915.915,0,0,0-1.322-.693" transform="translate(0 0)" fill="#fff"/>
    </g>
  </g>
</svg>
