<svg width="17" height="13" viewBox="0 0 17 13" fill="none" xmlns="http://www.w3.org/2000/svg">
<path d="M11.5824 0H4.61378C4.13697 0 3.75146 0.477653 3.75146 0.807361V4.29634C3.75146 4.62521 4.13697 4.88813 4.61378 4.88813H11.5824C12.0584 4.88813 12.4439 4.62098 12.4439 4.29634V0.807361C12.4439 0.477653 12.0584 0 11.5824 0ZM11.5706 3.7071C11.5706 4.0368 11.1851 4.30395 10.7083 4.30395H5.48708C5.01112 4.30395 4.62561 4.0368 4.62561 3.7071V1.39576C4.62561 1.0669 5.01112 0.803979 5.48708 0.803979H10.7083C11.1851 0.803979 11.5706 1.07113 11.5706 1.39999V3.7071Z" fill="#00AB9C"/>
<path d="M15.9431 2.75293H0.305664V12.5723H15.9431V2.75293Z" fill="#102147"/>
<path d="M0 2.65625V6.22808L8.12518 7.02276L16.2495 6.29149V2.65625H0Z" fill="#7FCEC9"/>
<path d="M9.16165 6.12695H7.50635V7.91921H9.16165V6.12695Z" fill="#00AB9C"/>
<path d="M8.65114 6.81996C8.65114 6.8827 8.63253 6.94402 8.59766 6.99618C8.56278 7.04833 8.51322 7.08896 8.45524 7.11293C8.39726 7.1369 8.33348 7.14313 8.27196 7.13083C8.21044 7.11853 8.15395 7.08825 8.10965 7.04383C8.06534 6.99941 8.03522 6.94284 8.02308 6.88129C8.01094 6.81973 8.01734 6.75596 8.04147 6.69805C8.06559 6.64014 8.10636 6.59068 8.1586 6.55595C8.21085 6.52121 8.27222 6.50276 8.33496 6.50293C8.37655 6.50293 8.41774 6.51114 8.45615 6.52708C8.49457 6.54302 8.52946 6.56639 8.55884 6.59584C8.58821 6.62529 8.61148 6.66024 8.62732 6.6987C8.64316 6.73716 8.65125 6.77836 8.65114 6.81996Z" fill="#102147"/>
<path d="M8.49386 6.85254H8.18359V7.46546H8.49386V6.85254Z" fill="#102147"/>
</svg>
