<svg width="20" height="22" viewBox="0 0 20 22" fill="none" xmlns="http://www.w3.org/2000/svg">
<path d="M13.4475 11.7157C14.5681 10.9691 15.4201 9.87863 15.8773 8.60587C16.3344 7.33311 16.3724 5.94581 15.9854 4.64962C15.5985 3.35343 14.8074 2.21734 13.7293 1.40974C12.6512 0.602138 11.3435 0.166016 10 0.166016C8.65654 0.166016 7.34883 0.602138 6.27072 1.40974C5.1926 2.21734 4.40146 3.35343 4.01455 4.64962C3.62765 5.94581 3.66558 7.33311 4.12272 8.60587C4.57986 9.87863 5.43188 10.9691 6.55249 11.7157C4.63331 12.427 2.97647 13.7135 1.80497 15.4021C0.633474 17.0908 0.00355474 19.1005 0 21.1607L0 21.9998H20V21.1607C19.9964 19.1005 19.3665 17.0908 18.195 15.4021C17.0235 13.7135 15.3667 12.427 13.4475 11.7157ZM5.41608 6.46878C5.41608 5.5555 5.68488 4.66273 6.1885 3.90337C6.69211 3.14401 7.40792 2.55216 8.24539 2.20266C9.08287 1.85316 10.0044 1.76172 10.8935 1.93989C11.7825 2.11806 12.5992 2.55785 13.2402 3.20363C13.8812 3.84942 14.3177 4.6722 14.4945 5.56793C14.6714 6.46366 14.5806 7.39211 14.2337 8.23587C13.8868 9.07963 13.2994 9.8008 12.5456 10.3082C11.7919 10.8156 10.9058 11.0864 9.99933 11.0864C8.78421 11.085 7.61927 10.598 6.76005 9.73235C5.90083 8.86669 5.4175 7.69301 5.41608 6.46878ZM1.70864 20.3216C1.90369 18.2422 2.86152 16.3108 4.39487 14.9051C5.92822 13.4993 7.92684 12.7203 10 12.7203C12.0732 12.7203 14.0718 13.4993 15.6051 14.9051C17.1385 16.3108 18.0963 18.2422 18.2914 20.3216H1.70864Z" fill="#00AB9C"/>
<path d="M0.640625 21.9997H18.9441V18.7138L15.923 13.6996L9.99921 11.8496L4.78731 13.6401L1.41032 17.3699L0.640625 21.9997Z" fill="#00AB9C"/>
<path d="M9.99897 12.938C13.5451 12.938 16.4198 10.0417 16.4198 6.469C16.4198 2.89627 13.5451 0 9.99897 0C6.45284 0 3.57812 2.89627 3.57812 6.469C3.57812 10.0417 6.45284 12.938 9.99897 12.938Z" fill="#102147"/>
</svg>
