<svg width="17" height="18" viewBox="0 0 17 18" fill="none" xmlns="http://www.w3.org/2000/svg">
<path d="M16.8214 14.8909C16.7941 14.6408 16.7164 14.3988 16.5929 14.1796C16.4694 13.9604 16.3027 13.7685 16.1029 13.6156C15.5596 13.1863 14.6552 12.3035 14.5142 11.0883C14.3095 9.33078 14.7998 3.03875 9.65196 2.30322H9.63669C9.61624 2.13611 9.63279 1.96656 9.68519 1.80657C9.68519 1.80657 9.68519 1.80657 9.68519 1.80028C9.75814 1.59603 9.78071 1.37718 9.75095 1.16233C9.7212 0.947488 9.64001 0.743005 9.51428 0.566265C9.38856 0.389525 9.22202 0.245756 9.02882 0.147177C8.83562 0.0485992 8.62148 -0.00187239 8.40459 5.30947e-05C8.18771 0.00197858 7.97449 0.0562442 7.78307 0.158237C7.59165 0.26023 7.42769 0.406934 7.30513 0.585878C7.18256 0.764821 7.10501 0.970714 7.07908 1.18605C7.05314 1.40139 7.07959 1.61981 7.15616 1.82274C7.207 1.98184 7.22173 2.15028 7.19927 2.31579C2.12236 3.08815 2.60733 9.33797 2.40346 11.0883C2.26246 12.3017 1.35808 13.1863 0.811146 13.6156C0.611662 13.7688 0.445192 13.9607 0.321729 14.1799C0.198266 14.399 0.120355 14.6409 0.0926731 14.8909C-0.0276711 16.2146 1.50447 16.0736 1.50447 16.0736H15.4168C15.4168 16.0736 16.9489 16.2146 16.8214 14.8909Z" fill="#00AB9C"/>
<path d="M8.46159 18.0006C9.00588 18.0003 9.53231 17.8064 9.94664 17.4534C10.361 17.1004 10.6362 16.6115 10.723 16.0742H6.2002C6.28717 16.6115 6.56242 17.1003 6.97672 17.4532C7.39102 17.8061 7.91735 18.0002 8.46159 18.0006Z" fill="#102147"/>
</svg>
