<svg width="24" height="22" viewBox="0 0 24 22" fill="none" xmlns="http://www.w3.org/2000/svg">
<path d="M3.73005 16.455L4.07054 15.7868L3.73005 16.455ZM1.54497 14.27L2.21322 13.9295L1.54497 14.27ZM22.455 14.27L21.7868 13.9295L22.455 14.27ZM20.27 16.455L19.9295 15.7868L20.27 16.455ZM20.27 1.54497L19.9295 2.21322L20.27 1.54497ZM22.455 3.73005L21.7868 4.07054L22.455 3.73005ZM3.73005 1.54497L4.07054 2.21322L3.73005 1.54497ZM1.54497 3.73005L2.21322 4.07054L1.54497 3.73005ZM7.8181 20.2724C7.41625 20.3729 7.17193 20.7801 7.27239 21.1819C7.37285 21.5837 7.78006 21.8281 8.1819 21.7276L7.8181 20.2724ZM9.57465 20.6063L9.39274 19.8787L9.57465 20.6063ZM14.4254 20.6063L14.6073 19.8787L14.4254 20.6063ZM15.8181 21.7276C16.2199 21.8281 16.6271 21.5837 16.7276 21.1819C16.8281 20.7801 16.5837 20.3729 16.1819 20.2724L15.8181 21.7276ZM12.75 17C12.75 16.5858 12.4142 16.25 12 16.25C11.5858 16.25 11.25 16.5858 11.25 17H12.75ZM12 20.3078V21.0578V20.3078ZM9 1.75H15V0.25H9V1.75ZM15 16.25H9V17.75H15V16.25ZM9 16.25C7.58749 16.25 6.57322 16.2494 5.77708 16.1844C4.9897 16.12 4.48197 15.9964 4.07054 15.7868L3.38955 17.1233C4.04768 17.4586 4.77479 17.6075 5.65494 17.6794C6.52632 17.7506 7.61224 17.75 9 17.75V16.25ZM0.25 9C0.25 10.3878 0.249417 11.4737 0.320612 12.3451C0.392522 13.2252 0.541378 13.9523 0.876713 14.6104L2.21322 13.9295C2.00359 13.518 1.87996 13.0103 1.81563 12.2229C1.75058 11.4268 1.75 10.4125 1.75 9H0.25ZM4.07054 15.7868C3.27085 15.3793 2.62068 14.7291 2.21322 13.9295L0.876713 14.6104C1.42798 15.6924 2.30762 16.572 3.38955 17.1233L4.07054 15.7868ZM22.25 9C22.25 10.4125 22.2494 11.4268 22.1844 12.2229C22.12 13.0103 21.9964 13.518 21.7868 13.9295L23.1233 14.6104C23.4586 13.9523 23.6075 13.2252 23.6794 12.3451C23.7506 11.4737 23.75 10.3878 23.75 9H22.25ZM15 17.75C16.3878 17.75 17.4737 17.7506 18.3451 17.6794C19.2252 17.6075 19.9523 17.4586 20.6104 17.1233L19.9295 15.7868C19.518 15.9964 19.0103 16.12 18.2229 16.1844C17.4268 16.2494 16.4125 16.25 15 16.25V17.75ZM21.7868 13.9295C21.3793 14.7291 20.7291 15.3793 19.9295 15.7868L20.6104 17.1233C21.6924 16.572 22.572 15.6924 23.1233 14.6104L21.7868 13.9295ZM15 1.75C16.4125 1.75 17.4268 1.75058 18.2229 1.81563C19.0103 1.87996 19.518 2.00359 19.9295 2.21322L20.6104 0.876713C19.9523 0.541378 19.2252 0.392522 18.3451 0.320612C17.4737 0.249417 16.3878 0.25 15 0.25V1.75ZM23.75 9C23.75 7.61224 23.7506 6.52632 23.6794 5.65494C23.6075 4.77479 23.4586 4.04768 23.1233 3.38955L21.7868 4.07054C21.9964 4.48197 22.12 4.9897 22.1844 5.77708C22.2494 6.57322 22.25 7.58749 22.25 9H23.75ZM19.9295 2.21322C20.7291 2.62068 21.3793 3.27085 21.7868 4.07054L23.1233 3.38955C22.572 2.30762 21.6924 1.42798 20.6104 0.876713L19.9295 2.21322ZM9 0.25C7.61224 0.25 6.52632 0.249417 5.65494 0.320612C4.77479 0.392522 4.04768 0.541378 3.38955 0.876713L4.07054 2.21322C4.48197 2.00359 4.9897 1.87996 5.77708 1.81563C6.57322 1.75058 7.58749 1.75 9 1.75V0.25ZM1.75 9C1.75 7.58749 1.75058 6.57322 1.81563 5.77708C1.87996 4.9897 2.00359 4.48197 2.21322 4.07054L0.876713 3.38955C0.541378 4.04768 0.392522 4.77479 0.320612 5.65494C0.249417 6.52632 0.25 7.61224 0.25 9H1.75ZM3.38955 0.876713C2.30762 1.42798 1.42798 2.30762 0.876713 3.38955L2.21322 4.07054C2.62068 3.27085 3.27085 2.62068 4.07054 2.21322L3.38955 0.876713ZM8.1819 21.7276L9.75655 21.3339L9.39274 19.8787L7.8181 20.2724L8.1819 21.7276ZM14.2435 21.3339L15.8181 21.7276L16.1819 20.2724L14.6073 19.8787L14.2435 21.3339ZM12.75 20V17H11.25V20H12.75ZM9.75655 21.3339C10.493 21.1498 11.2465 21.0578 12 21.0578V19.5578C11.1243 19.5578 10.2487 19.6648 9.39274 19.8787L9.75655 21.3339ZM12 21.0578C12.7535 21.0578 13.507 21.1498 14.2435 21.3339L14.6073 19.8787C13.7513 19.6648 12.8757 19.5578 12 19.5578V21.0578ZM11.25 20V20.3078H12.75V20H11.25Z" fill="#262626"/>
</svg>
