<svg width="35" height="23" viewBox="0 0 35 23" fill="none" xmlns="http://www.w3.org/2000/svg">
<path d="M35 22.3214V0L0 0V22.3214L35 22.3214Z" fill="#7FCEC9"/>
<path d="M29.2988 12.9845C29.7532 12.6834 30.0986 12.2439 30.2837 11.7312C30.4689 11.2184 30.484 10.6596 30.3267 10.1377C30.1695 9.61567 29.8483 9.15821 29.4107 8.83304C28.9732 8.50786 28.4425 8.33227 27.8973 8.33227C27.3522 8.33227 26.8215 8.50786 26.384 8.83304C25.9464 9.15821 25.6252 9.61567 25.468 10.1377C25.3107 10.6596 25.3258 11.2184 25.5109 11.7312C25.6961 12.2439 26.0415 12.6834 26.4959 12.9845C25.7156 13.2711 25.0418 13.79 24.5655 14.4713C24.0891 15.1526 23.8331 15.9635 23.8318 16.7948V17.1336H31.9614V16.7903C31.9591 15.96 31.7028 15.1503 31.2268 14.4699C30.7508 13.7896 30.078 13.2712 29.2988 12.9845ZM26.0347 10.8622C26.0347 10.4938 26.144 10.1337 26.3486 9.82741C26.5533 9.52111 26.8442 9.28237 27.1846 9.1414C27.5249 9.00042 27.8994 8.96353 28.2607 9.0354C28.622 9.10727 28.9539 9.28467 29.2144 9.54516C29.4749 9.80565 29.6523 10.1375 29.7242 10.4988C29.796 10.8602 29.7591 11.2347 29.6182 11.575C29.4772 11.9154 29.2385 12.2063 28.9322 12.4109C28.6259 12.6156 28.2657 12.7248 27.8973 12.7248C27.4036 12.724 26.9303 12.5275 26.5812 12.1784C26.232 11.8293 26.0355 11.356 26.0347 10.8622ZM24.5273 16.4515C24.61 15.6151 25.0007 14.8394 25.6236 14.275C26.2464 13.7107 27.0569 13.3982 27.8973 13.3982C28.7378 13.3982 29.5483 13.7107 30.1711 14.275C30.794 14.8394 31.1847 15.6151 31.2674 16.4515H24.5273Z" fill="#00AB9C"/>
<path d="M24.093 17.1291H31.533V15.8023L30.3047 13.78L27.8973 13.0338L25.778 13.7561L24.4064 15.2605L24.093 17.1291Z" fill="#00AB9C"/>
<path d="M27.8973 13.4024C29.3002 13.4024 30.4375 12.2651 30.4375 10.8622C30.4375 9.45932 29.3002 8.32203 27.8973 8.32203C26.4944 8.32203 25.3571 9.45932 25.3571 10.8622C25.3571 12.2651 26.4944 13.4024 27.8973 13.4024Z" fill="#E0156D"/>
<path d="M32.3703 7.55191H23.3124V17.6097H32.3703V7.55191Z" stroke="#00AB9C" stroke-width="2" stroke-miterlimit="10"/>
<path d="M19.4365 9.36079H2.37903V11.2622H19.4365V9.36079Z" fill="#00AB9C"/>
<path d="M32.6165 18.9484H2.37903V19.241H32.6165V18.9484Z" fill="#00AB9C"/>
<path d="M32.6195 2.74913H8.3504V5.11769H32.6195V2.74913Z" fill="#00AB9C"/>
<path fill-rule="evenodd" clip-rule="evenodd" d="M6.19523 15.0023C6.19443 15.0063 6.19443 15.0103 6.19523 15.0143C6.19523 15.0143 6.19523 15.0143 6.19523 15.0038C6.15046 14.9695 6.12359 15.0038 6.09673 15.0322C6.01321 15.1067 5.921 15.1708 5.82211 15.2232C5.81445 15.2327 5.80747 15.2426 5.80122 15.2531H5.81017C5.80953 15.2501 5.80953 15.2471 5.81017 15.2441L5.7057 15.3053C5.61127 15.3202 5.51507 15.3202 5.42064 15.3053C5.38183 15.3053 5.33855 15.2829 5.30721 15.3053C5.27587 15.3277 5.29975 15.3725 5.29676 15.4083C5.29813 15.4405 5.29212 15.4727 5.27917 15.5023C5.26623 15.5318 5.24671 15.558 5.22209 15.5789C5.19747 15.5998 5.16841 15.6148 5.13712 15.6227C5.10583 15.6306 5.07314 15.6313 5.04155 15.6247C4.99827 15.6157 4.95349 15.6113 4.90872 15.6038C4.88547 15.5991 4.86134 15.6023 4.84007 15.6128C4.88783 15.6934 4.85201 15.771 4.84007 15.8471L4.80723 15.8739C4.80793 15.8829 4.80793 15.8919 4.80723 15.9008L4.74604 15.9814C4.66992 16.0396 4.66246 16.0411 4.59679 15.9814C4.56312 15.9559 4.52078 15.9447 4.47889 15.9501C4.40812 15.9617 4.33553 15.9545 4.26845 15.9292C4.25957 15.9275 4.25046 15.9275 4.24158 15.9292C4.20576 15.9292 4.19233 15.9456 4.21024 15.9784C4.241 16.0223 4.2586 16.0741 4.26099 16.1277C4.26206 16.2282 4.25053 16.3285 4.22666 16.4262C4.20278 16.4396 4.20875 16.4665 4.19532 16.4844C4.18386 16.5144 4.16719 16.5422 4.14607 16.5665C4.0998 16.6321 4.01324 16.6381 3.96398 16.6888C3.87562 16.7773 3.77511 16.8526 3.66549 16.9127C3.66549 16.9127 3.66549 16.9261 3.66549 16.9321C3.65315 16.9351 3.64182 16.9412 3.63265 16.95C3.59977 16.9885 3.55523 17.0152 3.50579 17.0261C3.39085 17.1263 3.26696 17.2158 3.13566 17.2933C3.09387 17.3202 3.06999 17.2933 3.04014 17.2784C2.96079 17.185 2.90273 17.0755 2.87 16.9575C2.81672 16.7888 2.78757 16.6134 2.78344 16.4366C2.78438 16.2453 2.79884 16.0543 2.82672 15.865C2.86254 15.7695 2.86403 15.6665 2.89836 15.5665C2.91925 15.5172 2.93865 15.4665 2.95955 15.4172C3.00639 15.2441 3.07722 15.0783 3.16999 14.9247V14.8904C3.18641 14.8904 3.19088 14.8755 3.20282 14.871C3.20282 14.8441 3.22819 14.8262 3.21924 14.7979C3.27771 14.7002 3.34252 14.6065 3.41326 14.5173C3.4975 14.4201 3.59496 14.3352 3.7028 14.2651C3.8308 14.1745 3.98491 14.1284 4.14159 14.1337C4.16378 14.1318 4.18596 14.1374 4.20462 14.1496C4.22328 14.1618 4.23733 14.1798 4.24457 14.2009C4.29084 14.3146 4.3239 14.4333 4.34307 14.5546C4.34307 14.5725 4.34307 14.5919 4.34307 14.6098C4.35577 14.7159 4.35577 14.8231 4.34307 14.9292C4.34045 15.063 4.31469 15.1953 4.26696 15.3202C4.25333 15.3405 4.23673 15.3586 4.2177 15.374C4.20859 15.3793 4.20077 15.3865 4.19479 15.3952C4.18881 15.4039 4.18482 15.4138 4.18311 15.4242C4.1814 15.4346 4.18201 15.4453 4.18489 15.4554C4.18778 15.4656 4.19286 15.475 4.19979 15.4829C4.23618 15.5522 4.28709 15.6128 4.34904 15.6605C4.37255 15.6793 4.3998 15.6929 4.42898 15.7004C4.45815 15.7078 4.48858 15.709 4.51824 15.7038C4.54789 15.6985 4.57609 15.6871 4.60096 15.6701C4.62583 15.6531 4.6468 15.631 4.66246 15.6053C4.7051 15.5408 4.73922 15.4711 4.76395 15.3978C4.79429 15.2934 4.81183 15.1856 4.81619 15.077C4.82253 14.9257 4.80949 14.7742 4.77738 14.6262C4.75247 14.4933 4.70177 14.3666 4.62813 14.2531L4.61918 14.2039C4.59829 14.183 4.58933 14.1516 4.56396 14.1337C4.53859 14.1158 4.52963 14.1188 4.51023 14.1173C4.504 14.1056 4.49649 14.0946 4.48784 14.0845C4.48339 14.0838 4.47921 14.082 4.47578 14.0791C4.47234 14.0762 4.4698 14.0723 4.46844 14.0681C4.44711 14.0623 4.42824 14.0497 4.41471 14.0322C4.41012 14.0322 4.40565 14.0307 4.40191 14.0281C4.39817 14.0254 4.39535 14.0216 4.39382 14.0173H4.34456C4.21192 13.9458 4.0704 13.8921 3.92369 13.8576C3.85416 13.833 3.7783 13.833 3.70877 13.8576C3.66777 13.869 3.6258 13.8765 3.5834 13.88C3.564 13.9054 3.52072 13.8964 3.51027 13.9337C3.51027 13.9337 3.51773 13.9337 3.52072 13.9337C3.47147 13.974 3.40878 13.9964 3.35953 14.0367C3.35953 14.0367 3.35953 14.0367 3.35953 14.0292C3.31451 14.0524 3.27283 14.0815 3.23566 14.1158C3.14145 14.2223 3.05797 14.3377 2.98641 14.4606L2.97 14.48L2.95358 14.4979C2.95163 14.5055 2.94806 14.5126 2.94313 14.5188C2.88915 14.5832 2.8393 14.651 2.79388 14.7218C2.7381 14.8017 2.69389 14.8891 2.66255 14.9814C2.65547 14.988 2.65013 14.9962 2.647 15.0053C2.64388 15.0144 2.64306 15.0242 2.64464 15.0337C2.62325 15.0681 2.6081 15.106 2.59986 15.1456C2.55686 15.2451 2.5258 15.3493 2.50733 15.4561C2.51237 15.476 2.51256 15.4968 2.50789 15.5168C2.50321 15.5368 2.49381 15.5554 2.48047 15.571H2.46554C2.46617 15.6032 2.46215 15.6354 2.4536 15.6665C2.4249 15.7883 2.41087 15.913 2.41181 16.0381C2.38872 16.1545 2.38269 16.2737 2.3939 16.3918C2.38986 16.47 2.39946 16.5483 2.42226 16.6232C2.42125 16.6585 2.42948 16.6935 2.44614 16.7247C2.46853 16.7441 2.44614 16.7754 2.46703 16.7963C2.51065 16.9915 2.60842 17.1705 2.74911 17.3127C2.78861 17.3634 2.83423 17.409 2.88493 17.4485C2.90881 17.5231 2.85209 17.55 2.80582 17.5813C2.75956 17.6127 2.74613 17.6545 2.71329 17.6903C2.68046 17.7261 2.6715 17.7485 2.70135 17.7843C2.75629 17.85 2.81563 17.9118 2.87896 17.9694C2.89221 17.9807 2.90929 17.9866 2.92671 17.9858C2.99959 17.9933 3.07322 17.9888 3.14462 17.9724C3.21648 17.9307 3.28312 17.8806 3.34311 17.8231C3.3879 17.7959 3.44009 17.7833 3.49236 17.7873C3.63013 17.8122 3.77165 17.8071 3.90727 17.7724C3.92966 17.744 3.96548 17.741 3.99383 17.7291C4.03358 17.7152 4.07086 17.695 4.10428 17.6694C4.21388 17.5686 4.30571 17.45 4.37591 17.3187C4.4177 17.2993 4.42367 17.247 4.45501 17.2202C4.45511 17.213 4.45676 17.206 4.45985 17.1995C4.46295 17.1931 4.4674 17.1874 4.47292 17.1828C4.49657 17.1002 4.52857 17.0202 4.56844 16.9441C4.56844 16.9187 4.59381 16.9008 4.58933 16.8754L4.69082 16.7635C4.72365 16.7635 4.74306 16.7336 4.76843 16.7202C4.8308 16.6739 4.89666 16.6324 4.96543 16.5963C5.07558 16.5085 5.19291 16.4301 5.31617 16.362C5.36094 16.3097 5.43407 16.2903 5.47735 16.2351C5.49228 16.2083 5.52213 16.2053 5.5475 16.1933C5.58073 16.1829 5.6106 16.1638 5.63406 16.1381C5.64766 16.1331 5.66067 16.1266 5.67287 16.1187C5.79823 16.0321 5.93106 15.9545 6.05195 15.862C6.08691 15.8461 6.12037 15.8271 6.15195 15.8053C6.21762 15.7501 6.3012 15.7038 6.3012 15.6053C6.30655 15.541 6.32868 15.4793 6.36537 15.4262C6.29729 15.4234 6.22987 15.4405 6.17135 15.4755C6.15643 15.4755 6.15643 15.4919 6.15941 15.5053C6.1624 15.5187 6.15941 15.5053 6.15046 15.5053C6.12043 15.5172 6.09104 15.5307 6.0624 15.5456H6.043C6.01912 15.5456 5.99375 15.5575 5.97435 15.5337C5.98479 15.5217 6.00121 15.5128 6.0042 15.4934L6.0236 15.4755C6.02853 15.4792 6.03456 15.4812 6.04076 15.4812C6.04696 15.4812 6.05299 15.4792 6.05792 15.4755C6.06837 15.465 6.08628 15.4755 6.09374 15.4546L6.11315 15.4381L6.36985 15.2561C6.38776 15.2247 6.42209 15.2098 6.44597 15.1844C6.49671 15.1292 6.4788 15.0531 6.40716 15.0441C6.33735 15.0263 6.2666 15.0123 6.19523 15.0023ZM4.26994 14.1069C4.258 14.1069 4.25949 14.1233 4.258 14.1322C4.25651 14.1412 4.24457 14.1173 4.258 14.1024C4.27143 14.0875 4.26397 14.1069 4.26994 14.1083V14.1069ZM3.9401 13.8875C4.0207 13.9188 4.10129 13.9472 4.18189 13.9755C4.08034 13.9319 3.9742 13.8999 3.86548 13.88C3.8907 13.878 3.91607 13.8811 3.9401 13.889V13.8875ZM2.98641 14.5412C2.97597 14.5277 2.98641 14.5143 3.00134 14.5039C3.02915 14.4763 3.06212 14.4545 3.09835 14.4397C3.0836 14.4393 3.06891 14.4418 3.05517 14.4472C3.04142 14.4526 3.02889 14.4607 3.01832 14.471C3.00774 14.4812 2.99934 14.4936 2.9936 14.5072C2.98787 14.5208 2.98492 14.5354 2.98492 14.5501C2.98492 14.5501 2.98641 14.5442 2.98641 14.5412ZM2.8894 14.6636C2.90133 14.6578 2.91384 14.6533 2.92671 14.6501C2.89985 14.6665 2.87746 14.6815 2.8894 14.7218C2.8894 14.7218 2.8894 14.7218 2.8894 14.7352C2.88194 14.7113 2.89985 14.6889 2.88493 14.6636H2.8894ZM2.50882 15.7754C2.50812 15.7784 2.50812 15.7815 2.50882 15.7844V15.7754ZM2.53867 16.8649C2.53896 16.8615 2.53896 16.858 2.53867 16.8545C2.5417 16.856 2.54501 16.8567 2.54837 16.8567C2.55173 16.8567 2.55505 16.856 2.55807 16.8545L2.53867 16.8649ZM2.57598 15.6247C2.57445 15.6119 2.56984 15.5996 2.56255 15.5889C2.56347 15.6013 2.56876 15.6129 2.57748 15.6217L2.57598 15.6232V15.6247ZM2.64762 16.6381C2.64797 16.6121 2.63835 16.587 2.62076 16.5679C2.62971 16.5679 2.62076 16.5829 2.6327 16.5859C2.63802 16.5849 2.64352 16.5858 2.64818 16.5886C2.65285 16.5913 2.65636 16.5956 2.65807 16.6008C2.64613 16.6097 2.65359 16.6247 2.64762 16.6366V16.6381ZM2.77896 15.1456L2.77 15.1576C2.77747 15.1576 2.77747 15.1576 2.78045 15.1456C2.78344 15.1337 2.78045 15.1501 2.77896 15.1501V15.1456ZM2.96403 17.9574C2.95613 17.9588 2.94805 17.9588 2.94015 17.9574C2.94015 17.947 2.94015 17.9574 2.93119 17.9455C2.94678 17.9521 2.96351 17.9557 2.98044 17.9559C2.98044 17.9559 2.97 17.9619 2.96403 17.9619V17.9574ZM4.7535 15.9993C4.76187 15.9995 4.77015 15.9977 4.77767 15.994C4.78518 15.9903 4.7917 15.9849 4.79667 15.9781C4.80164 15.9714 4.80493 15.9636 4.80625 15.9553C4.80756 15.9471 4.80688 15.9386 4.80425 15.9307C4.79082 15.9567 4.77259 15.98 4.75052 15.9993H4.7535ZM4.9714 15.7978C4.9714 15.7978 4.96693 15.7963 4.96842 15.7978H4.9714ZM5.1908 16.0635C5.19899 16.0547 5.20798 16.0467 5.21766 16.0396L5.24303 16.0157C5.27494 16.008 5.30736 16.0025 5.34004 15.9993C5.26542 16.0724 5.25199 16.0784 5.18781 16.0635H5.1908Z" fill="#E0156D"/>
<path d="M5.37591 2.52377C5.39382 2.55063 5.41322 2.5581 5.43411 2.58944H5.42367C5.45352 2.62973 5.48337 2.66257 5.47292 2.70585C5.46233 2.74205 5.44342 2.77527 5.4177 2.80286C5.39785 2.82528 5.3764 2.84623 5.35352 2.86555C5.3386 2.87748 5.29979 2.89838 5.28039 2.91629C5.26242 2.93361 5.24907 2.95516 5.24158 2.97897C5.23412 3.00285 5.20278 3.01778 5.18786 3.0327C5.16796 3.05973 5.14601 3.08518 5.12219 3.10882C5.11269 3.11467 5.10208 3.11849 5.09104 3.12003C5.07999 3.12157 5.06874 3.1208 5.05801 3.11777C5.04607 3.11031 5.01473 3.09539 5.00727 3.07449C4.9998 3.0536 4.99085 3.00435 4.96548 3.00285C4.9401 3.00136 4.95503 3.04016 4.96548 3.05061C4.98199 3.06891 4.9965 3.08893 5.00876 3.11031C5.0207 3.12374 5.01324 3.14016 5.0207 3.15807C5.02816 3.17598 5.05801 3.20881 5.06249 3.24165C5.06696 3.27448 5.02965 3.25359 5.05353 3.28493C5.06915 3.30491 5.07943 3.32853 5.08338 3.35358C5.08521 3.37134 5.08265 3.38928 5.07592 3.40582C5.0595 3.43269 5.07592 3.43269 5.08338 3.47149C5.08879 3.49301 5.0889 3.51553 5.0837 3.5371C5.0785 3.55867 5.06815 3.57867 5.05353 3.59536C5.01473 3.64312 5.06099 3.61775 5.05353 3.66253C5.04501 3.69967 5.02642 3.73375 4.9998 3.76103C4.97742 3.78043 4.9998 3.79536 4.9998 3.82073C4.9998 3.8461 4.92369 3.90132 4.92369 3.90729C4.92369 3.91326 4.93563 3.93863 4.92369 3.95804C4.90558 3.98221 4.891 4.00885 4.88041 4.03714C4.87808 4.05084 4.87254 4.06381 4.86423 4.07496C4.85593 4.08612 4.84511 4.09515 4.83265 4.10131C4.8028 4.12221 4.8416 4.13862 4.81026 4.16101C4.77892 4.1834 4.82518 4.22519 4.76101 4.23713C4.75247 4.316 4.75247 4.39556 4.76101 4.47443C4.7606 4.55193 4.74645 4.62874 4.71922 4.70129C4.70666 4.71776 4.69914 4.73752 4.69755 4.75817C4.69596 4.77883 4.70038 4.7995 4.71026 4.8177C4.73909 4.87021 4.75877 4.92724 4.76847 4.98635C4.76704 5.02539 4.78097 5.06343 4.80727 5.09232C4.83793 5.09713 4.86915 5.09713 4.89981 5.09232C4.92121 5.09329 4.94215 5.09886 4.96121 5.10864C4.98026 5.11843 4.99699 5.1322 5.01025 5.14903C5.03115 5.16992 5.01473 5.21022 5.03115 5.21022C5.04289 5.21484 5.05352 5.22189 5.06234 5.23091C5.07117 5.23993 5.07799 5.25071 5.08236 5.26254C5.08672 5.27438 5.08854 5.28701 5.08769 5.29959C5.08684 5.31218 5.08334 5.32445 5.07741 5.33559C5.04905 5.38036 5.11323 5.39827 5.12666 5.41768C5.1401 5.43708 5.12517 5.44752 5.1401 5.45499C5.14913 5.46124 5.15665 5.46946 5.16207 5.47902C5.1675 5.48858 5.1707 5.49924 5.17144 5.51021C5.17293 5.52513 5.19084 5.51469 5.20427 5.52513C5.216 5.54107 5.22181 5.5606 5.22069 5.58035C5.2177 5.59826 5.24158 5.60423 5.24158 5.62662C5.2402 5.64949 5.2402 5.67241 5.24158 5.69528C5.24606 5.73557 5.28039 5.74602 5.29233 5.75497C5.30427 5.76393 5.30875 5.84601 5.29233 5.85795C5.27528 5.86568 5.26078 5.87811 5.25054 5.89377C5.2413 5.9375 5.23581 5.98194 5.23412 6.0266C5.23412 6.06093 5.21024 6.06392 5.20427 6.07436C5.1983 6.08481 5.21323 6.11615 5.18636 6.12361C5.1595 6.13108 5.15054 6.17436 5.15054 6.1863C5.11701 6.23026 5.07136 6.26346 5.01921 6.28182C4.9771 6.2969 4.93426 6.30985 4.89085 6.32062C4.8819 6.32211 4.89085 6.34301 4.89085 6.39226C4.88992 6.41661 4.88303 6.44035 4.87081 6.46142C4.85858 6.4825 4.84138 6.50026 4.82071 6.51315C4.78702 6.53231 4.74901 6.54258 4.71026 6.543C4.66549 6.54599 3.90881 6.55345 3.90881 6.55345C3.90881 6.55345 2.99541 6.52808 2.97153 6.52808C2.92818 6.52024 2.88846 6.49881 2.8581 6.46688C2.83992 6.4455 2.83096 6.41777 2.8332 6.38979C2.83544 6.36181 2.84869 6.33586 2.87004 6.31764C2.87452 6.31764 2.87004 6.31465 2.83422 6.31764C2.7984 6.32062 2.71184 6.29525 2.66856 6.29525C2.65817 6.29591 2.64776 6.2944 2.63799 6.2908C2.62823 6.2872 2.61932 6.2816 2.61185 6.27435C2.59991 6.25943 2.57304 6.26241 2.56409 6.23555C2.54926 6.19299 2.5313 6.15159 2.51036 6.11168C2.49576 6.05062 2.48973 5.98783 2.49245 5.92512C2.49543 5.90721 2.45364 5.91168 2.4432 5.89228C2.43051 5.86119 2.43051 5.82636 2.4432 5.79527C2.45273 5.78031 2.46486 5.76717 2.47902 5.75647C2.47692 5.72118 2.47692 5.68579 2.47902 5.6505C2.47902 5.63259 2.47603 5.57886 2.47902 5.56842C2.482 5.55797 2.49543 5.55349 2.49543 5.53558C2.49419 5.51919 2.49419 5.50272 2.49543 5.48633C2.49991 5.46693 2.52379 5.452 2.53722 5.44305C2.55065 5.43409 2.57155 5.44752 2.57155 5.43409C2.57705 5.41223 2.59101 5.39344 2.61035 5.38186C2.62379 5.37439 2.65363 5.35947 2.64617 5.34753C2.62905 5.31447 2.62378 5.27654 2.63125 5.24007C2.64468 5.19977 2.70438 5.18186 2.70886 5.16992C2.71333 5.15798 2.72229 5.09082 2.76109 5.07441C2.7999 5.05799 2.85213 5.08336 2.88198 5.07441C2.91183 5.06545 2.95213 4.96098 2.94616 4.84755C2.94019 4.73412 2.99243 4.66995 2.98347 4.61323C2.95964 4.51473 2.94071 4.41511 2.92676 4.31474C2.92676 4.24758 2.91183 4.19385 2.92676 4.15803C2.94168 4.12221 2.88945 4.11624 2.87154 4.09087C2.85363 4.06549 2.8596 4.00132 2.85363 3.99684C2.84766 3.99236 2.77453 3.95207 2.77453 3.90431C2.77453 3.85655 2.72378 3.83715 2.70289 3.81028C2.68199 3.78342 2.64766 3.71178 2.6596 3.68342C2.67154 3.65506 2.66707 3.6685 2.6417 3.64014C2.62666 3.62396 2.61689 3.60359 2.61369 3.58174C2.61049 3.55988 2.61401 3.53757 2.62379 3.51776C2.6402 3.50134 2.62229 3.53417 2.62379 3.46701C2.62528 3.39985 2.61931 3.37896 2.6402 3.35806C2.6611 3.33717 2.6402 3.32373 2.6402 3.30881C2.6417 3.24016 2.69841 3.19986 2.70736 3.18046C2.71632 3.16105 2.70438 3.14613 2.71632 3.12524C2.72826 3.10434 2.74468 3.10733 2.74617 3.08195C2.74766 3.05658 2.73721 3.01479 2.73721 2.99688C2.73721 2.97897 2.7193 2.9939 2.7193 3.01479C2.7151 3.03122 2.70691 3.04635 2.69545 3.05885C2.684 3.07134 2.66963 3.08082 2.65363 3.08643C2.6208 3.09539 2.57901 3.09091 2.57453 3.08643C2.57006 3.08195 2.55812 3.05807 2.54468 3.04016C2.53125 3.02225 2.50588 3.00733 2.48499 2.98047C2.46409 2.9536 2.47006 2.95062 2.45663 2.93121C2.44288 2.90984 2.4309 2.88738 2.42081 2.86405C2.41484 2.84465 2.39842 2.85361 2.382 2.84465C2.36559 2.8357 2.32678 2.78495 2.32678 2.78495C2.3294 2.77987 2.33077 2.77425 2.33077 2.76853C2.33077 2.76282 2.3294 2.75719 2.32678 2.75212C2.31484 2.74316 2.3044 2.74913 2.28947 2.74316C2.27455 2.73719 2.2641 2.71182 2.2641 2.68197C2.26601 2.63324 2.28504 2.58674 2.31783 2.55063C2.33574 2.53272 2.37753 2.4984 2.38499 2.46407C2.39245 2.42974 2.39245 2.379 2.41484 2.35661C2.43115 2.33851 2.45165 2.32467 2.47454 2.31631C2.51036 2.31482 2.55662 2.27154 2.57453 2.2596C2.58942 2.24633 2.60203 2.2307 2.61185 2.21333C2.62233 2.19134 2.63482 2.17036 2.64916 2.15065C2.66792 2.12282 2.69297 2.09982 2.72229 2.08349C2.74216 2.07198 2.76506 2.06678 2.78796 2.06856C2.80736 2.07453 2.82975 2.04319 2.84169 2.03424C2.86994 2.01592 2.90388 2.00849 2.9372 2.01334C2.9748 2.01736 3.00947 2.03549 3.03422 2.06409C3.04558 2.07966 3.06072 2.09208 3.07822 2.10018C3.09571 2.10827 3.11499 2.11177 3.13421 2.11035C3.16876 2.11511 3.20187 2.12733 3.23122 2.14617C3.25212 2.15363 3.27898 2.16707 3.29391 2.14617C3.30883 2.12528 3.32525 2.06558 3.34764 2.04468C3.35865 2.03647 3.36667 2.02486 3.37044 2.01165C3.37422 1.99844 3.37354 1.98435 3.36853 1.97155C3.35211 1.95514 3.36256 1.89693 3.35211 1.86111C3.34972 1.84309 3.3536 1.82479 3.36312 1.80929C3.37263 1.7938 3.38719 1.78206 3.40435 1.77604C3.44055 1.76318 3.48008 1.76318 3.51628 1.77604C3.54912 1.77604 3.53419 1.77007 3.57001 1.75365C3.60583 1.73723 3.62524 1.76261 3.63867 1.76708C3.6521 1.77156 3.66702 1.72231 3.68046 1.72231C3.73419 1.69545 3.71926 1.73126 3.74463 1.72231C3.75642 1.71653 3.76899 1.71251 3.78194 1.71037C3.82075 1.70589 3.84314 1.73574 3.85806 1.73574C3.87299 1.73574 3.87746 1.71485 3.8909 1.71037C3.90433 1.70589 3.91328 1.7238 3.92821 1.73574C3.94313 1.74768 3.93418 1.7253 3.97149 1.71783C4.0088 1.71037 4.00432 1.73574 4.02671 1.73873C4.0491 1.74171 4.05954 1.71634 4.07596 1.71634C4.08971 1.71205 4.10445 1.7122 4.11811 1.71675C4.13177 1.7213 4.14365 1.73004 4.15208 1.74171L4.1522 1.74186C4.15961 1.75075 4.16572 1.75809 4.20282 1.75067C4.22474 1.74552 4.24753 1.7454 4.2695 1.75031C4.29147 1.75522 4.31204 1.76504 4.32968 1.77902C4.34982 1.80407 4.36134 1.83496 4.36252 1.86708C4.36252 1.89693 4.37595 1.88499 4.39087 1.91484C4.40619 1.95479 4.40981 1.99827 4.40132 2.04021C4.39386 2.08498 4.42669 2.08946 4.44908 2.1208C4.46247 2.14306 4.47064 2.16806 4.47296 2.19393C4.47893 2.20886 4.4849 2.2208 4.52669 2.20886C4.56667 2.1944 4.60827 2.18488 4.65056 2.1805C4.67892 2.1805 4.67295 2.14767 4.72668 2.10289C4.75982 2.07494 4.79926 2.05548 4.8416 2.04618C4.89113 2.03804 4.9419 2.04926 4.98339 2.07752C5.02598 2.10146 5.06269 2.1346 5.09084 2.17453C5.1077 2.20586 5.12121 2.23887 5.13114 2.27303C5.13711 2.2999 5.14159 2.28497 5.20726 2.2999C5.27293 2.31482 5.37591 2.33572 5.37591 2.44914C5.37591 2.48944 5.358 2.4969 5.37591 2.52377Z" fill="#00AB9C"/>
</svg>
