<svg xmlns="http://www.w3.org/2000/svg" width="16" height="20" viewBox="0 0 16 20">
  <g id="_9055322_bxs_file_pdf_icon" data-name="9055322_bxs_file_pdf_icon" transform="translate(-4 -2)">
    <path id="Path_484" data-name="Path 484" d="M8.267,14.68a1.5,1.5,0,0,0-.372.036v1.178a1.362,1.362,0,0,0,.3.023c.479,0,.774-.242.774-.651C8.971,14.9,8.717,14.68,8.267,14.68Zm3.487.012a1.845,1.845,0,0,0-.407.036v2.61a1.633,1.633,0,0,0,.313.018,1.236,1.236,0,0,0,1.349-1.4,1.144,1.144,0,0,0-1.255-1.268Z" fill="#102147"/>
    <path id="Path_485" data-name="Path 485" d="M14,2H6A2,2,0,0,0,4,4V20a2,2,0,0,0,2,2H18a2,2,0,0,0,2-2V8ZM9.5,16.19a1.854,1.854,0,0,1-1.3.42,2.23,2.23,0,0,1-.308-.018v1.426H7V14.082A7.558,7.558,0,0,1,8.219,14a1.917,1.917,0,0,1,1.22.319,1.169,1.169,0,0,1,.426.923A1.282,1.282,0,0,1,9.5,16.19Zm3.807,1.355a2.863,2.863,0,0,1-1.84.515A7.7,7.7,0,0,1,10.441,18V14.083A7.947,7.947,0,0,1,11.66,14a2.564,2.564,0,0,1,1.633.426,1.764,1.764,0,0,1,.675,1.5A2.024,2.024,0,0,1,13.305,17.545ZM17,14.77H15.468v.911H16.9v.734H15.468v1.6h-.906V14.03H17v.74ZM14,9H13V4l5,5Z" fill="#102147"/>
  </g>
</svg>
