<svg width="13" height="14" viewBox="0 0 13 14" fill="none" xmlns="http://www.w3.org/2000/svg">
<path d="M8.52928 7.27084C9.24007 6.80091 9.78053 6.11445 10.0705 5.31323C10.3605 4.512 10.3846 3.63865 10.1393 2.82265C9.89391 2.00664 9.39215 1.29142 8.70836 0.78299C8.02458 0.274563 7.19516 0 6.34307 0C5.49097 0 4.66156 0.274563 3.97777 0.78299C3.29398 1.29142 2.79222 2.00664 2.54686 2.82265C2.3015 3.63865 2.32561 4.512 2.61561 5.31323C2.90561 6.11445 3.44606 6.80091 4.15685 7.27084C2.93981 7.71846 1.88905 8.52805 1.14589 9.59071C0.402737 10.6534 0.00284272 11.9181 0 13.2149L0 13.7433H12.6861V13.2149C12.6833 11.9181 12.2834 10.6534 11.5402 9.59071C10.7971 8.52805 9.74632 7.71846 8.52928 7.27084ZM3.43572 3.96447C3.43572 3.38934 3.6063 2.82714 3.92587 2.34897C4.24545 1.8708 4.69967 1.49817 5.23106 1.27819C5.76246 1.05821 6.34716 1.00079 6.91119 1.11317C7.47523 1.22556 7.99327 1.50271 8.39977 1.90956C8.80626 2.31642 9.08296 2.83469 9.19486 3.39883C9.30675 3.96297 9.24881 4.54762 9.02837 5.07882C8.80794 5.61002 8.4349 6.06391 7.95645 6.38307C7.47801 6.70223 6.91566 6.87231 6.34053 6.87181C5.5701 6.87047 4.83165 6.56365 4.28711 6.01863C3.74257 5.47362 3.43639 4.7349 3.43572 3.96447ZM1.08381 12.6865C1.21418 11.3822 1.82454 10.1729 2.7964 9.29335C3.76827 8.41379 5.03229 7.92673 6.34307 7.92673C7.65385 7.92673 8.91787 8.41379 9.88973 9.29335C10.8616 10.1729 11.472 11.3822 11.6023 12.6865H1.08381Z" fill="#00AB9C"/>
<path d="M0.40625 13.7429H12.0162V11.6734L10.0997 8.51751L6.34268 7.35254L3.0363 8.48031L0.894894 10.828L0.40625 13.7429Z" fill="#00AB9C"/>
<path d="M6.34301 7.92918C8.53232 7.92918 10.3071 6.15439 10.3071 3.96508C10.3071 1.77576 8.53232 0.000976562 6.34301 0.000976562C4.15369 0.000976562 2.37891 1.77576 2.37891 3.96508C2.37891 6.15439 4.15369 7.92918 6.34301 7.92918Z" fill="#102147"/>
</svg>
