<svg width="24" height="24" viewBox="0 0 24 24" fill="none" xmlns="http://www.w3.org/2000/svg">
<path d="M4.06107 20.0451L3.57615 20.7125L4.06107 20.0451ZM2.95491 18.9389L2.28748 19.4238L2.95491 18.9389ZM19.0451 18.9389L18.3776 18.454L19.0451 18.9389ZM17.9389 20.0451L17.454 19.3776L17.9389 20.0451ZM17.9389 3.95491L17.454 4.62235L17.9389 3.95491ZM19.0451 5.06107L18.3776 5.546L19.0451 5.06107ZM4.06107 3.95491L4.546 4.62235L4.06107 3.95491ZM2.95491 5.06107L3.62235 5.546L2.95491 5.06107ZM4.00344 19.8325L3.17914 19.7985L3.17844 19.8155V19.8325H4.00344ZM17.9905 19.7225L18.815 19.6943L18.8146 19.6802L18.8136 19.6661L17.9905 19.7225ZM14.175 9C14.175 10.7535 12.7535 12.175 11 12.175V13.825C13.6648 13.825 15.825 11.6648 15.825 9H14.175ZM11 12.175C9.2465 12.175 7.825 10.7535 7.825 9H6.175C6.175 11.6648 8.33523 13.825 11 13.825V12.175ZM7.825 9C7.825 7.2465 9.2465 5.825 11 5.825V4.175C8.33523 4.175 6.175 6.33523 6.175 9H7.825ZM11 5.825C12.7535 5.825 14.175 7.2465 14.175 9H15.825C15.825 6.33523 13.6648 4.175 11 4.175V5.825ZM11 20.175C9.10676 20.175 7.75309 20.1739 6.70612 20.0604C5.67459 19.9487 5.03908 19.7359 4.546 19.3776L3.57615 20.7125C4.39739 21.3092 5.35648 21.5739 6.5284 21.7008C7.68488 21.8261 9.14351 21.825 11 21.825V20.175ZM1.175 12C1.175 13.8565 1.17387 15.3151 1.29916 16.4716C1.42613 17.6435 1.69081 18.6026 2.28748 19.4238L3.62235 18.454C3.2641 17.9609 3.05132 17.3254 2.93956 16.2939C2.82613 15.2469 2.825 13.8932 2.825 12H1.175ZM19.175 12C19.175 13.8932 19.1739 15.2469 19.0604 16.2939C18.9487 17.3254 18.7359 17.9609 18.3776 18.454L19.7125 19.4238C20.3092 18.6026 20.5739 17.6435 20.7008 16.4716C20.8261 15.3151 20.825 13.8565 20.825 12H19.175ZM11 21.825C12.8565 21.825 14.3151 21.8261 15.4716 21.7008C16.6435 21.5739 17.6026 21.3092 18.4238 20.7125L17.454 19.3776C16.9609 19.7359 16.3254 19.9487 15.2939 20.0604C14.2469 20.1739 12.8932 20.175 11 20.175V21.825ZM11 3.825C12.8932 3.825 14.2469 3.82613 15.2939 3.93956C16.3254 4.05132 16.9609 4.2641 17.454 4.62235L18.4238 3.28748C17.6026 2.69081 16.6435 2.42613 15.4716 2.29916C14.3151 2.17387 12.8565 2.175 11 2.175V3.825ZM20.825 12C20.825 10.1435 20.8261 8.68488 20.7008 7.5284C20.5739 6.35648 20.3092 5.39739 19.7125 4.57615L18.3776 5.546C18.7359 6.03908 18.9487 6.67459 19.0604 7.70612C19.1739 8.75309 19.175 10.1068 19.175 12H20.825ZM17.454 4.62235C17.8084 4.87987 18.1201 5.19156 18.3776 5.546L19.7125 4.57615C19.3532 4.08164 18.9184 3.64676 18.4238 3.28748L17.454 4.62235ZM11 2.175C9.14351 2.175 7.68488 2.17387 6.5284 2.29916C5.35648 2.42613 4.39739 2.69081 3.57615 3.28748L4.546 4.62235C5.03908 4.2641 5.67459 4.05132 6.70612 3.93956C7.75309 3.82613 9.10676 3.825 11 3.825V2.175ZM2.825 12C2.825 10.1068 2.82613 8.75309 2.93956 7.70612C3.05132 6.67459 3.2641 6.03908 3.62235 5.546L2.28748 4.57615C1.69081 5.39739 1.42613 6.35648 1.29916 7.5284C1.17387 8.68488 1.175 10.1435 1.175 12H2.825ZM3.57615 3.28748C3.08164 3.64676 2.64676 4.08164 2.28748 4.57615L3.62235 5.546C3.87987 5.19156 4.19156 4.87987 4.546 4.62235L3.57615 3.28748ZM8 16.825H14V15.175H8V16.825ZM8 15.175C5.40271 15.175 3.28508 17.2269 3.17914 19.7985L4.82774 19.8665C4.89741 18.1752 6.29124 16.825 8 16.825V15.175ZM4.546 19.3776C4.52988 19.3659 4.51384 19.3541 4.49788 19.3422L3.50901 20.663C3.53126 20.6797 3.55364 20.6962 3.57615 20.7125L4.546 19.3776ZM4.49788 19.3422C4.16331 19.0917 3.86815 18.7923 3.62235 18.454L2.28748 19.4238C2.63041 19.8959 3.04222 20.3135 3.50901 20.663L4.49788 19.3422ZM3.17844 19.8325V20.0026H4.82844V19.8325H3.17844ZM14 16.825C15.6791 16.825 17.0544 18.129 17.1675 19.7789L18.8136 19.6661C18.6416 17.1567 16.5526 15.175 14 15.175V16.825ZM18.3776 18.454C18.1326 18.7913 17.8384 19.09 17.505 19.34L18.495 20.66C18.9601 20.3111 19.3706 19.8945 19.7125 19.4238L18.3776 18.454ZM17.505 19.34C17.4881 19.3527 17.4711 19.3652 17.454 19.3776L18.4238 20.7125C18.4477 20.6952 18.4714 20.6777 18.495 20.66L17.505 19.34ZM17.166 19.7507L17.1755 20.0282L18.8245 19.9718L18.815 19.6943L17.166 19.7507Z" fill="white"/>
</svg>
