<svg width="18" height="17" viewBox="0 0 18 17" fill="none" xmlns="http://www.w3.org/2000/svg">
<path d="M8.09086 0.984492C8.44728 0.206486 9.55272 0.206484 9.90914 0.98449L11.5751 4.62091C11.7207 4.93877 12.0217 5.15749 12.369 5.19776L16.3423 5.65843C17.1923 5.75699 17.5339 6.80832 16.9041 7.38771L13.9605 10.0958C13.7032 10.3325 13.5882 10.6864 13.6572 11.0292L14.4469 14.9503C14.6159 15.7892 13.7215 16.439 12.9759 16.0191L9.4907 14.0563C9.18606 13.8848 8.81394 13.8848 8.5093 14.0563L5.02411 16.0191C4.27846 16.439 3.38414 15.7892 3.55309 14.9503L4.34277 11.0292C4.41179 10.6864 4.2968 10.3325 4.0395 10.0958L1.09586 7.38771C0.466073 6.80832 0.807668 5.75699 1.65774 5.65843L5.63097 5.19776C5.97827 5.15749 6.27932 4.93877 6.42494 4.62091L8.09086 0.984492Z" fill="#102147"/>
</svg>
