<svg width="90" height="90" viewBox="0 0 90 90" fill="none" xmlns="http://www.w3.org/2000/svg">
<path d="M0.5 45C0.5 35.747 0.996447 28.3456 2.30813 22.4436C3.61855 16.5472 5.73598 12.178 8.95699 8.95699C12.178 5.73598 16.5472 3.61855 22.4436 2.30813C28.3456 0.996447 35.747 0.5 45 0.5C54.253 0.5 61.6544 0.996447 67.5564 2.30813C73.4528 3.61855 77.822 5.73598 81.043 8.95699C84.264 12.178 86.3814 16.5472 87.6919 22.4436C89.0036 28.3456 89.5 35.747 89.5 45C89.5 54.253 89.0036 61.6544 87.6919 67.5564C86.3814 73.4528 84.264 77.822 81.043 81.043C77.822 84.264 73.4528 86.3814 67.5564 87.6919C61.6544 89.0036 54.253 89.5 45 89.5C35.747 89.5 28.3456 89.0036 22.4436 87.6919C16.5472 86.3814 12.178 84.264 8.95699 81.043C5.73598 77.822 3.61855 73.4528 2.30813 67.5564C0.996447 61.6544 0.5 54.253 0.5 45Z" fill="url(#paint0_radial_589_2300)" stroke="#17B6A1"/>
<g filter="url(#filter0_d_589_2300)">
<path d="M60 34L38.7128 57L31 49.0885" stroke="white" stroke-width="6" stroke-linecap="round" stroke-linejoin="round" shape-rendering="crispEdges"/>
</g>
<defs>
<filter id="filter0_d_589_2300" x="25" y="28" width="45" height="39" filterUnits="userSpaceOnUse" color-interpolation-filters="sRGB">
<feFlood flood-opacity="0" result="BackgroundImageFix"/>
<feColorMatrix in="SourceAlpha" type="matrix" values="0 0 0 0 0 0 0 0 0 0 0 0 0 0 0 0 0 0 127 0" result="hardAlpha"/>
<feOffset dx="2" dy="2"/>
<feGaussianBlur stdDeviation="2.5"/>
<feComposite in2="hardAlpha" operator="out"/>
<feColorMatrix type="matrix" values="0 0 0 0 0 0 0 0 0 0 0 0 0 0 0 0 0 0 0.2 0"/>
<feBlend mode="normal" in2="BackgroundImageFix" result="effect1_dropShadow_589_2300"/>
<feBlend mode="normal" in="SourceGraphic" in2="effect1_dropShadow_589_2300" result="shape"/>
</filter>
<radialGradient id="paint0_radial_589_2300" cx="0" cy="0" r="1" gradientUnits="userSpaceOnUse" gradientTransform="translate(-7 -13) rotate(48.6119) scale(106.631)">
<stop stop-color="#1DCBB5"/>
<stop offset="1" stop-color="#0BB8A2"/>
</radialGradient>
</defs>
</svg>
