<svg width="14" height="15" viewBox="0 0 14 15" fill="none" xmlns="http://www.w3.org/2000/svg">
<path d="M11.2938 0.940089V0H2.45167V0.940089H0L0.112439 2.79491C0.166932 3.6904 0.442561 4.55843 0.914665 5.32132C1.38677 6.08421 2.04062 6.71817 2.81773 7.16649L4.28113 8.01189C4.60602 8.42665 4.97827 8.80202 5.3903 9.13036L6.13763 9.72215V10.9057C5.4413 11.0259 4.78429 11.3125 4.22248 11.7412C3.66066 12.1698 3.21066 12.7277 2.91073 13.3675H1.99346V14.3609H11.7553V13.3734H10.8364C10.5363 12.7336 10.0861 12.1757 9.52414 11.7471C8.96219 11.3185 8.30508 11.0319 7.60864 10.9116V9.72806L8.35597 9.13628C8.76799 8.80665 9.14022 8.43017 9.46514 8.01443L10.9285 7.16903C11.7056 6.72071 12.3595 6.08674 12.8316 5.32385C13.3037 4.56096 13.5793 3.69294 13.6338 2.79744L13.7463 0.942625L11.2938 0.940089ZM1.48707 3.25227L1.42873 2.28766H2.45167V2.44491C2.44947 3.56463 2.64287 4.67613 3.02316 5.7293C2.58268 5.4754 2.21202 5.11623 1.94439 4.68395C1.67676 4.25166 1.5205 3.75976 1.4896 3.25227H1.48707ZM12.2524 3.25227C12.2213 3.7596 12.0651 4.25133 11.7976 4.68356C11.5302 5.11579 11.1599 5.47507 10.7197 5.7293C11.1 4.67613 11.2934 3.56463 11.2912 2.44491V2.28766H12.3108L12.2524 3.25227Z" fill="#102147"/>
<path d="M3.82316 5.223C3.49515 4.03944 3.485 2.82628 3.47316 1.75685C3.47261 1.69782 3.48369 1.63927 3.50579 1.58454C3.52789 1.52981 3.56057 1.47997 3.60195 1.43788C3.64333 1.39579 3.69261 1.36228 3.74696 1.33925C3.80131 1.31623 3.85967 1.30415 3.91869 1.30371C4.03645 1.3068 4.14867 1.35439 4.23275 1.4369C4.31683 1.51941 4.36652 1.63071 4.37183 1.74839C4.38113 2.76288 4.39212 3.92108 4.68801 4.98629C4.70394 5.04308 4.70851 5.10245 4.70144 5.16101C4.69438 5.21956 4.67582 5.27615 4.64684 5.32751C4.61786 5.37888 4.57902 5.42402 4.53255 5.46035C4.48608 5.49667 4.4329 5.52346 4.37606 5.53918C4.33669 5.55019 4.29603 5.55587 4.25516 5.55609C4.15657 5.55572 4.06084 5.52289 3.98277 5.46269C3.90469 5.40249 3.8486 5.31826 3.82316 5.223Z" fill="#102147"/>
<path d="M4.70455 6.73065C4.61188 6.73082 4.52125 6.70349 4.44412 6.65213C4.36699 6.60077 4.30682 6.52768 4.27125 6.44212C4.23567 6.35655 4.22627 6.26235 4.24425 6.17145C4.26222 6.08054 4.30676 5.99701 4.37223 5.93142C4.4377 5.86584 4.52115 5.82115 4.61202 5.80301C4.7029 5.78487 4.79711 5.79409 4.88274 5.82952C4.96837 5.86494 5.04157 5.92497 5.09307 6.00201C5.14457 6.07905 5.17206 6.16963 5.17206 6.2623C5.17217 6.32376 5.16016 6.38465 5.13672 6.44147C5.11327 6.49828 5.07885 6.54992 5.03543 6.59342C4.99201 6.63693 4.94043 6.67144 4.88365 6.69499C4.82688 6.71853 4.76602 6.73065 4.70455 6.73065Z" fill="#BBE4EC"/>
<path d="M7.63056 10.8594C7.38913 10.9735 7.12491 11.0314 6.85786 11.0285C6.59937 11.023 6.34462 10.9655 6.10884 10.8594C5.39141 10.9833 4.7145 11.2786 4.13563 11.7201C3.55676 12.1617 3.09304 12.7364 2.78386 13.3956H2.0957V14.2503H11.6488V13.3956H10.9555C10.6465 12.7364 10.1828 12.1615 9.6039 11.72C9.02501 11.2784 8.34804 10.9832 7.63056 10.8594Z" fill="#7FCEC9"/>
<path d="M11.9128 13.374H1.83301V14.3674H11.9128V13.374Z" fill="#00AB9C"/>
</svg>
