<svg width="18" height="18" viewBox="0 0 18 18" fill="none" xmlns="http://www.w3.org/2000/svg">
<path d="M3.79581 15.0338L4.12643 14.5787L3.79581 15.0338ZM2.96619 14.2042L3.42126 13.8736L2.96619 14.2042ZM15.0338 14.2042L14.5787 13.8736L15.0338 14.2042ZM14.2042 15.0338L13.8736 14.5787L14.2042 15.0338ZM14.2042 2.96619L13.8736 3.42126L14.2042 2.96619ZM15.0338 3.79581L14.5787 4.12643L15.0338 3.79581ZM3.79581 2.96619L4.12643 3.42126L3.79581 2.96619ZM2.96619 3.79581L3.42126 4.12643L2.96619 3.79581ZM6 8.4375C5.68934 8.4375 5.4375 8.68934 5.4375 9C5.4375 9.31066 5.68934 9.5625 6 9.5625V8.4375ZM11.4 9V8.4375V9ZM9.99597 5.60048C9.77532 5.38179 9.41917 5.38338 9.20048 5.60403C8.98179 5.82468 8.98338 6.18083 9.20403 6.39952L9.99597 5.60048ZM10.6578 7.04838L10.2618 7.4479L10.6578 7.04838ZM10.6578 10.9516L10.2618 10.5521L10.6578 10.9516ZM9.20403 11.6005C8.98338 11.8192 8.98179 12.1753 9.20048 12.396C9.41917 12.6166 9.77532 12.6182 9.99597 12.3995L9.20403 11.6005ZM11.9881 8.812L12.5461 8.74088V8.74088L11.9881 8.812ZM11.9881 9.188L12.5461 9.25912V9.25912L11.9881 9.188ZM12 9H12.5625H12ZM9 15.1875C7.58132 15.1875 6.56249 15.1867 5.77353 15.1012C4.9951 15.0169 4.50744 14.8556 4.12643 14.5787L3.46518 15.4889C4.06992 15.9283 4.7782 16.125 5.65236 16.2197C6.51598 16.3133 7.60638 16.3125 9 16.3125V15.1875ZM1.6875 9C1.6875 10.3936 1.68673 11.484 1.7803 12.3476C1.875 13.2218 2.07174 13.9301 2.51111 14.5348L3.42126 13.8736C3.14444 13.4926 2.98309 13.0049 2.89875 12.2265C2.81327 11.4375 2.8125 10.4187 2.8125 9H1.6875ZM4.12643 14.5787C3.85583 14.3821 3.61786 14.1442 3.42126 13.8736L2.51111 14.5348C2.77711 14.9009 3.09907 15.2229 3.46518 15.4889L4.12643 14.5787ZM15.1875 9C15.1875 10.4187 15.1867 11.4375 15.1012 12.2265C15.0169 13.0049 14.8556 13.4926 14.5787 13.8736L15.4889 14.5348C15.9283 13.9301 16.125 13.2218 16.2197 12.3476C16.3133 11.484 16.3125 10.3936 16.3125 9H15.1875ZM9 16.3125C10.3936 16.3125 11.484 16.3133 12.3476 16.2197C13.2218 16.125 13.9301 15.9283 14.5348 15.4889L13.8736 14.5787C13.4926 14.8556 13.0049 15.0169 12.2265 15.1012C11.4375 15.1867 10.4187 15.1875 9 15.1875V16.3125ZM14.5787 13.8736C14.3821 14.1442 14.1442 14.3821 13.8736 14.5787L14.5348 15.4889C14.9009 15.2229 15.2229 14.9009 15.4889 14.5348L14.5787 13.8736ZM9 2.8125C10.4187 2.8125 11.4375 2.81327 12.2265 2.89875C13.0049 2.98309 13.4926 3.14444 13.8736 3.42126L14.5348 2.51111C13.9301 2.07174 13.2218 1.875 12.3476 1.7803C11.484 1.68673 10.3936 1.6875 9 1.6875V2.8125ZM16.3125 9C16.3125 7.60638 16.3133 6.51598 16.2197 5.65236C16.125 4.7782 15.9283 4.06992 15.4889 3.46518L14.5787 4.12643C14.8556 4.50744 15.0169 4.9951 15.1012 5.77353C15.1867 6.56249 15.1875 7.58132 15.1875 9H16.3125ZM13.8736 3.42126C14.1442 3.61786 14.3821 3.85583 14.5787 4.12643L15.4889 3.46518C15.2229 3.09907 14.9009 2.77711 14.5348 2.51111L13.8736 3.42126ZM9 1.6875C7.60638 1.6875 6.51598 1.68673 5.65236 1.7803C4.7782 1.875 4.06992 2.07174 3.46518 2.51111L4.12643 3.42126C4.50744 3.14444 4.9951 2.98309 5.77353 2.89875C6.56249 2.81327 7.58132 2.8125 9 2.8125V1.6875ZM2.8125 9C2.8125 7.58132 2.81327 6.56249 2.89875 5.77353C2.98309 4.9951 3.14444 4.50744 3.42126 4.12643L2.51111 3.46518C2.07174 4.06992 1.875 4.7782 1.7803 5.65236C1.68673 6.51598 1.6875 7.60638 1.6875 9H2.8125ZM3.46518 2.51111C3.09907 2.77711 2.77711 3.09907 2.51111 3.46518L3.42126 4.12643C3.61786 3.85583 3.85583 3.61786 4.12643 3.42126L3.46518 2.51111ZM6 9.5625L11.4 9.5625V8.4375L6 8.4375V9.5625ZM9.20403 6.39952L10.2618 7.4479L11.0538 6.64887L9.99597 5.60048L9.20403 6.39952ZM10.2618 10.5521L9.20403 11.6005L9.99597 12.3995L11.0538 11.3511L10.2618 10.5521ZM10.2618 7.4479C10.693 7.87525 10.982 8.1629 11.1763 8.40487C11.3635 8.63796 11.4161 8.7735 11.4301 8.88312L12.5461 8.74088C12.4951 8.34098 12.3043 8.01275 12.0535 7.70043C11.8098 7.39699 11.4661 7.05759 11.0538 6.64887L10.2618 7.4479ZM11.0538 11.3511C11.4661 10.9424 11.8098 10.603 12.0535 10.2996C12.3043 9.98725 12.4951 9.65902 12.5461 9.25912L11.4301 9.11688C11.4161 9.2265 11.3635 9.36204 11.1763 9.59513C10.982 9.8371 10.693 10.1248 10.2618 10.5521L11.0538 11.3511ZM11.4301 8.88312C11.435 8.92193 11.4375 8.96096 11.4375 9L12.5625 9C12.5625 8.91345 12.557 8.82691 12.5461 8.74088L11.4301 8.88312ZM11.4375 9C11.4375 9.03903 11.435 9.07807 11.4301 9.11688L12.5461 9.25912C12.557 9.17309 12.5625 9.08655 12.5625 9L11.4375 9ZM11.4 9.5625H12V8.4375H11.4V9.5625Z" fill="#102147"/>
</svg>
