<svg width="19" height="18" viewBox="0 0 19 18" fill="none" xmlns="http://www.w3.org/2000/svg">
<g clip-path="url(#clip0_82_8235)">
<path opacity="0.21" d="M2.73759 10.8789C0.48963 8.63092 0.48963 4.98627 2.73759 2.73831C4.98554 0.490352 8.6302 0.490351 10.8782 2.73831C13.1261 4.98626 13.1261 8.63092 10.8782 10.8789C8.6302 13.1268 4.98554 13.1268 2.73759 10.8789Z" fill="white"/>
<path d="M7.2213 2.2974C7.2213 2.20091 7.18297 2.10837 7.11474 2.04015C7.04652 1.97192 6.95398 1.93359 6.8575 1.93359C5.46144 1.936 4.12326 2.49171 3.13619 3.47896C2.14911 4.4662 1.59363 5.80448 1.59147 7.20053C1.59147 7.29702 1.62979 7.38955 1.69802 7.45778C1.76625 7.52601 1.85878 7.56433 1.95527 7.56433C2.05175 7.56433 2.14429 7.52601 2.21251 7.45778C2.28074 7.38955 2.31907 7.29702 2.31907 7.20053C2.32123 5.99745 2.80005 4.84424 3.65068 3.99345C4.5013 3.14265 5.65441 2.6636 6.8575 2.6612C6.90527 2.6612 6.95258 2.65179 6.99672 2.6335C7.04086 2.61522 7.08096 2.58842 7.11474 2.55464C7.14852 2.52086 7.17532 2.48075 7.19361 2.43662C7.21189 2.39248 7.2213 2.34517 7.2213 2.2974Z" fill="#7FCEC9"/>
<path d="M10.932 12.0953C10.9239 12.1044 10.9175 12.1135 10.9102 12.1226C9.55626 13.1667 7.85571 13.6563 6.15386 13.492C4.45202 13.3278 2.87648 12.522 1.74716 11.2383C0.617842 9.95464 0.019412 8.28926 0.0733881 6.58036C0.127363 4.87147 0.829698 3.24717 2.03778 2.0373C3.24585 0.827432 4.86911 0.12269 6.57792 0.0661805C8.28673 0.00967144 9.953 0.605632 11.2384 1.73305C12.5237 2.86046 13.3319 4.43481 13.4986 6.1364C13.6654 7.838 13.1783 9.53928 12.1362 10.8948L11.3559 11.6715L10.932 12.0953ZM12.5646 6.80747C12.5648 5.66873 12.2273 4.55552 11.5947 3.60862C10.9622 2.66172 10.0631 1.92367 9.01103 1.48781C7.95901 1.05195 6.80136 0.937861 5.6845 1.15997C4.56763 1.38209 3.54172 1.93042 2.73651 2.73563C1.93131 3.54084 1.38297 4.56675 1.16086 5.68361C0.938745 6.80048 1.05283 7.95813 1.48869 9.01015C1.92455 10.0622 2.6626 10.9613 3.6095 11.5938C4.5564 12.2264 5.66962 12.5639 6.80835 12.5637C8.33501 12.5637 9.79913 11.9573 10.8786 10.8778C11.9581 9.79825 12.5646 8.33412 12.5646 6.80747Z" fill="#DF146E"/>
<path d="M13.616 6.80855C13.616 5.46191 13.2167 4.14551 12.4685 3.02583C11.7204 1.90615 10.657 1.03348 9.41281 0.518186C8.16865 0.00288973 6.79964 -0.131889 5.47888 0.130894C4.15813 0.393677 2.94496 1.04222 1.99281 1.9945C1.04065 2.94679 0.39227 4.16004 0.129663 5.48083C-0.132943 6.80162 0.00201893 8.17062 0.517481 9.4147C1.03294 10.6588 1.90575 11.7221 3.02553 12.4701C4.14531 13.2181 5.46177 13.6173 6.80841 13.6171C8.31379 13.6219 9.77742 13.1224 10.9658 12.1983L10.983 12.1819C10.987 12.1755 10.9916 12.1694 10.9967 12.1637L12.2081 10.9513C13.1248 9.76523 13.6201 8.30757 13.616 6.80855ZM0.18176 6.80855C0.171489 5.93186 0.335294 5.06184 0.663684 4.2489C0.992074 3.43597 1.47852 2.69628 2.09484 2.0727C2.71116 1.44912 3.44509 0.95404 4.25413 0.616149C5.06316 0.278258 5.9312 0.104272 6.80795 0.104272C7.68471 0.104272 8.55275 0.278258 9.36178 0.616149C10.1708 0.95404 10.9048 1.44912 11.5211 2.0727C12.1374 2.69628 12.6238 3.43597 12.9522 4.2489C13.2806 5.06184 13.4444 5.93186 13.4341 6.80855C13.4389 8.26518 12.959 9.682 12.0699 10.8358L10.8703 12.0355C10.8617 12.0436 10.8537 12.0524 10.8466 12.0618C9.69116 12.9568 8.2699 13.4401 6.80841 13.4352C5.0515 13.4333 3.36711 12.7345 2.12479 11.4922C0.882467 10.2499 0.183686 8.56546 0.18176 6.80855ZM12.6556 6.80855C12.6558 5.65183 12.3129 4.52103 11.6704 3.55917C11.0279 2.59732 10.1145 1.84761 9.0459 1.40487C7.97726 0.962123 6.80132 0.846234 5.66681 1.07186C4.53231 1.29748 3.49019 1.85447 2.67226 2.6724C1.85433 3.49033 1.29733 4.53245 1.07171 5.66696C0.84609 6.80146 0.961979 7.9774 1.40472 9.04604C1.84746 10.1147 2.59717 11.028 3.55903 11.6705C4.52089 12.3131 5.65168 12.6559 6.80841 12.6558C8.35867 12.6541 9.84495 12.0375 10.9411 10.9413C12.0373 9.84509 12.6539 8.35881 12.6556 6.80855ZM1.1422 6.80855C1.14202 5.68784 1.47418 4.59225 2.09668 3.66033C2.71919 2.7284 3.60406 2.00201 4.63941 1.57301C5.67476 1.14401 6.81408 1.03167 7.91327 1.25019C9.01247 1.46872 10.0222 2.00831 10.8147 2.8007C11.6072 3.5931 12.147 4.60272 12.3657 5.70189C12.5844 6.80105 12.4722 7.94038 12.0434 8.9758C11.6146 10.0112 10.8883 10.8962 9.95648 11.5189C9.02466 12.1415 7.92912 12.4739 6.80841 12.4739C5.30631 12.4722 3.8662 11.8748 2.80397 10.8127C1.74174 9.75066 1.14412 8.31065 1.1422 6.80855Z" fill="#E0136E"/>
<path d="M11.9825 11.9347L11.7197 11.6737C11.6713 11.6257 11.6059 11.5988 11.5378 11.5988C11.4697 11.5988 11.4043 11.6257 11.3559 11.6737L12.1335 10.897L12.1463 10.8843C12.1701 10.8603 12.1984 10.8412 12.2296 10.8283C12.2609 10.8153 12.2943 10.8086 12.3282 10.8086C12.362 10.8086 12.3954 10.8153 12.4267 10.8283C12.4579 10.8412 12.4862 10.8603 12.5101 10.8843L12.8266 11.1999C12.6538 11.3044 12.3109 11.61 11.9825 11.9347Z" fill="#028972"/>
<path d="M11.3559 11.6726C11.4043 11.6246 11.4697 11.5977 11.5378 11.5977C11.606 11.5977 11.6714 11.6246 11.7197 11.6726L11.9799 11.9336C11.7096 12.191 11.4597 12.469 11.2322 12.7649L10.9321 12.4602C10.8886 12.4161 10.8624 12.3578 10.8584 12.296C10.8544 12.2342 10.8728 12.173 10.9103 12.1237C10.9175 12.1146 10.9239 12.1055 10.9321 12.0964L11.3559 11.6726Z" fill="#028972"/>
<path d="M15.9607 17.6372L11.1795 12.9078C11.1622 12.8905 11.1849 12.8387 11.2349 12.7641C11.4624 12.4682 11.7123 12.1903 11.9825 11.9328C12.3109 11.6081 12.6538 11.3025 12.8284 11.1979C12.8848 11.1643 12.9248 11.1516 12.9393 11.1661L17.7224 15.8955C17.838 16.0092 17.9298 16.1447 17.9925 16.2943C18.0551 16.4438 18.0874 16.6043 18.0874 16.7664C18.0874 16.9285 18.0551 17.089 17.9925 17.2385C17.9298 17.388 17.838 17.5236 17.7224 17.6372C17.4877 17.8688 17.1713 17.9986 16.8416 17.9986C16.5119 17.9986 16.1954 17.8688 15.9607 17.6372Z" fill="#00AB9C"/>
</g>
<defs>
<clipPath id="clip0_82_8235">
<rect width="18.0864" height="18" fill="white" transform="matrix(-1 0 0 1 18.0859 0)"/>
</clipPath>
</defs>
</svg>
