<svg width="14" height="16" viewBox="0 0 14 16" fill="none" xmlns="http://www.w3.org/2000/svg">
<path d="M11.9364 9.81098L11.8662 6.60268C11.8569 6.06669 11.8662 5.53662 11.7893 5.03952C11.7183 4.53746 11.5759 4.0481 11.3666 3.58627C10.9499 2.66727 10.2518 1.9046 9.37312 1.40851C8.49813 0.911416 7.47773 0.685694 6.4624 0.68823C5.44707 0.690766 4.42328 0.911416 3.55083 1.40851C2.67191 1.90455 1.9735 2.66722 1.55652 3.58627C1.34716 4.0481 1.20482 4.53746 1.13382 5.03952C1.05604 5.54085 1.06618 6.05993 1.05773 6.60268L0.98587 9.81521H0.584303L0.514135 6.60268C0.508217 6.07599 0.485391 5.5214 0.55556 4.96259C0.621585 4.40228 0.766454 3.85412 0.98587 3.33434C1.43758 2.27891 2.22233 1.40033 3.22027 0.832794C4.20686 0.262146 5.34393 0.00514329 6.4624 7.08626e-05C7.58087 -0.00500156 8.71709 0.262146 9.70199 0.832794C10.7001 1.40008 11.4849 2.27874 11.9364 3.33434C12.1559 3.85418 12.3014 4.40229 12.3684 4.96259C12.4386 5.52563 12.4157 6.07092 12.4098 6.60268L12.3396 9.81521L11.9364 9.81098Z" fill="#102147"/>
<path d="M0.905428 11.5542C0.182607 11.5542 0 11.0369 0 10.3986V8.32142C0 7.68314 0.182607 7.16406 0.905428 7.16406H1.07451V11.5542H0.905428Z" fill="#102147"/>
<path d="M1.45144 7.16406H1.07861V11.5542H1.45144V7.16406Z" fill="#7FCEC9"/>
<path d="M12.1286 11.5542C12.8522 11.5542 13.034 11.0369 13.034 10.3969V8.32142C13.034 7.68314 12.8522 7.16406 12.1286 7.16406H11.9595V11.5542H12.1286Z" fill="#102147"/>
<path d="M11.9557 7.16406H11.582V11.5542H11.9557V7.16406Z" fill="#7FCEC9"/>
<path d="M6.729 15.5551V15.1527C8.39445 15.1527 11.5681 12.7856 11.5681 11.5547H11.9705C11.9705 13.1119 8.46124 15.5551 6.729 15.5551Z" fill="#E0156D"/>
<path d="M6.99791 15.915H6.46107C6.01639 15.915 5.65625 15.6613 5.65625 15.3519C5.65625 15.0425 6.01639 14.7939 6.46107 14.7939H6.99791C7.44259 14.7939 7.80273 15.0476 7.80273 15.3544C7.80273 15.6613 7.44005 15.915 6.99791 15.915Z" fill="#00AB9C"/>
</svg>
