<svg width="24" height="24" viewBox="0 0 24 24" fill="none" xmlns="http://www.w3.org/2000/svg">
<path d="M9.84776 8.76537L9.08556 8.44965L9.84776 8.76537ZM9.84776 5.23463L9.08556 5.55035L9.84776 5.23463ZM14 6.175C13.5444 6.175 13.175 6.54437 13.175 7C13.175 7.45563 13.5444 7.825 14 7.825V6.175ZM20 7.825C20.4556 7.825 20.825 7.45563 20.825 7C20.825 6.54437 20.4556 6.175 20 6.175V7.825ZM16.175 10C16.175 10.4556 16.5444 10.825 17 10.825C17.4556 10.825 17.825 10.4556 17.825 10H16.175ZM17.825 4C17.825 3.54437 17.4556 3.175 17 3.175C16.5444 3.175 16.175 3.54437 16.175 4H17.825ZM9.84776 18.7654L9.08556 18.4497L9.84776 18.7654ZM9.84776 15.2346L9.08556 15.5503L9.84776 15.2346ZM19.8478 18.7654L19.0856 18.4497L19.8478 18.7654ZM19.8478 15.2346L19.0856 15.5503L19.8478 15.2346ZM7 9.175C6.52277 9.175 6.20617 9.17455 5.96185 9.15788C5.72494 9.14172 5.61684 9.1131 5.55035 9.08556L4.91892 10.61C5.21997 10.7347 5.52861 10.7822 5.84953 10.8041C6.16304 10.8254 6.54535 10.825 7 10.825V9.175ZM3.175 7C3.175 7.45465 3.17455 7.83696 3.19594 8.15047C3.21784 8.47139 3.26534 8.78003 3.39004 9.08108L4.91444 8.44965C4.8869 8.38316 4.85828 8.27506 4.84212 8.03815C4.82545 7.79383 4.825 7.47723 4.825 7H3.175ZM5.55035 9.08556C5.26244 8.9663 5.0337 8.73756 4.91444 8.44965L3.39004 9.08108C3.67676 9.77328 4.22671 10.3232 4.91892 10.61L5.55035 9.08556ZM9.175 7C9.175 7.47723 9.17455 7.79383 9.15788 8.03815C9.14172 8.27506 9.1131 8.38316 9.08556 8.44965L10.61 9.08108C10.7347 8.78003 10.7822 8.47139 10.8041 8.15047C10.8254 7.83696 10.825 7.45465 10.825 7H9.175ZM7 10.825C7.45465 10.825 7.83696 10.8254 8.15047 10.8041C8.47139 10.7822 8.78003 10.7347 9.08108 10.61L8.44965 9.08556C8.38316 9.1131 8.27506 9.14172 8.03815 9.15788C7.79383 9.17455 7.47723 9.175 7 9.175V10.825ZM9.08556 8.44965C8.9663 8.73756 8.73756 8.9663 8.44965 9.08556L9.08108 10.61C9.77329 10.3232 10.3232 9.77329 10.61 9.08108L9.08556 8.44965ZM7 4.825C7.47723 4.825 7.79383 4.82545 8.03815 4.84212C8.27506 4.85828 8.38316 4.8869 8.44965 4.91444L9.08108 3.39004C8.78003 3.26534 8.47139 3.21784 8.15047 3.19594C7.83696 3.17455 7.45465 3.175 7 3.175V4.825ZM10.825 7C10.825 6.54535 10.8254 6.16304 10.8041 5.84953C10.7822 5.52861 10.7347 5.21997 10.61 4.91892L9.08556 5.55035C9.1131 5.61684 9.14172 5.72494 9.15788 5.96185C9.17455 6.20617 9.175 6.52277 9.175 7H10.825ZM8.44965 4.91444C8.73756 5.0337 8.9663 5.26244 9.08556 5.55035L10.61 4.91892C10.3232 4.22671 9.77328 3.67676 9.08108 3.39004L8.44965 4.91444ZM7 3.175C6.54535 3.175 6.16304 3.17455 5.84953 3.19594C5.52861 3.21784 5.21997 3.26534 4.91892 3.39004L5.55035 4.91444C5.61684 4.8869 5.72494 4.85828 5.96185 4.84212C6.20617 4.82545 6.52277 4.825 7 4.825V3.175ZM4.825 7C4.825 6.52277 4.82545 6.20617 4.84212 5.96185C4.85828 5.72494 4.8869 5.61684 4.91444 5.55035L3.39004 4.91892C3.26534 5.21997 3.21784 5.52861 3.19594 5.84953C3.17455 6.16304 3.175 6.54535 3.175 7H4.825ZM4.91892 3.39004C4.22671 3.67676 3.67676 4.22671 3.39004 4.91892L4.91444 5.55035C5.0337 5.26244 5.26244 5.0337 5.55035 4.91444L4.91892 3.39004ZM14 7.825H20V6.175H14V7.825ZM17.825 10V4H16.175V10H17.825ZM7 19.175C6.52277 19.175 6.20617 19.1746 5.96185 19.1579C5.72494 19.1417 5.61684 19.1131 5.55035 19.0856L4.91892 20.61C5.21997 20.7347 5.52861 20.7822 5.84953 20.8041C6.16304 20.8254 6.54535 20.825 7 20.825V19.175ZM3.175 17C3.175 17.4547 3.17455 17.837 3.19594 18.1505C3.21784 18.4714 3.26534 18.78 3.39004 19.0811L4.91444 18.4497C4.8869 18.3832 4.85828 18.2751 4.84212 18.0382C4.82545 17.7938 4.825 17.4772 4.825 17H3.175ZM5.55035 19.0856C5.26244 18.9663 5.0337 18.7376 4.91444 18.4497L3.39004 19.0811C3.67676 19.7733 4.22671 20.3232 4.91892 20.61L5.55035 19.0856ZM9.175 17C9.175 17.4772 9.17455 17.7938 9.15788 18.0382C9.14172 18.2751 9.1131 18.3832 9.08556 18.4497L10.61 19.0811C10.7347 18.78 10.7822 18.4714 10.8041 18.1505C10.8254 17.837 10.825 17.4547 10.825 17H9.175ZM7 20.825C7.45465 20.825 7.83696 20.8254 8.15047 20.8041C8.47139 20.7822 8.78003 20.7347 9.08108 20.61L8.44965 19.0856C8.38316 19.1131 8.27506 19.1417 8.03815 19.1579C7.79383 19.1746 7.47723 19.175 7 19.175V20.825ZM9.08556 18.4497C8.9663 18.7376 8.73756 18.9663 8.44965 19.0856L9.08108 20.61C9.77329 20.3232 10.3232 19.7733 10.61 19.0811L9.08556 18.4497ZM7 14.825C7.47723 14.825 7.79383 14.8254 8.03815 14.8421C8.27506 14.8583 8.38316 14.8869 8.44965 14.9144L9.08108 13.39C8.78003 13.2653 8.47139 13.2178 8.15047 13.1959C7.83696 13.1746 7.45465 13.175 7 13.175V14.825ZM10.825 17C10.825 16.5453 10.8254 16.163 10.8041 15.8495C10.7822 15.5286 10.7347 15.22 10.61 14.9189L9.08556 15.5503C9.1131 15.6168 9.14172 15.7249 9.15788 15.9618C9.17455 16.2062 9.175 16.5228 9.175 17H10.825ZM8.44965 14.9144C8.73756 15.0337 8.9663 15.2624 9.08556 15.5503L10.61 14.9189C10.3232 14.2267 9.77329 13.6768 9.08108 13.39L8.44965 14.9144ZM7 13.175C6.54535 13.175 6.16304 13.1746 5.84953 13.1959C5.52861 13.2178 5.21997 13.2653 4.91892 13.39L5.55035 14.9144C5.61684 14.8869 5.72494 14.8583 5.96185 14.8421C6.20617 14.8254 6.52277 14.825 7 14.825V13.175ZM4.825 17C4.825 16.5228 4.82545 16.2062 4.84212 15.9618C4.85828 15.7249 4.8869 15.6168 4.91444 15.5503L3.39004 14.9189C3.26534 15.22 3.21784 15.5286 3.19594 15.8495C3.17455 16.163 3.175 16.5453 3.175 17H4.825ZM4.91892 13.39C4.22671 13.6768 3.67676 14.2267 3.39004 14.9189L4.91444 15.5503C5.0337 15.2624 5.26244 15.0337 5.55035 14.9144L4.91892 13.39ZM17 19.175C16.5228 19.175 16.2062 19.1746 15.9618 19.1579C15.7249 19.1417 15.6168 19.1131 15.5503 19.0856L14.9189 20.61C15.22 20.7347 15.5286 20.7822 15.8495 20.8041C16.163 20.8254 16.5453 20.825 17 20.825V19.175ZM13.175 17C13.175 17.4547 13.1746 17.837 13.1959 18.1505C13.2178 18.4714 13.2653 18.78 13.39 19.0811L14.9144 18.4497C14.8869 18.3832 14.8583 18.2751 14.8421 18.0382C14.8254 17.7938 14.825 17.4772 14.825 17H13.175ZM15.5503 19.0856C15.2624 18.9663 15.0337 18.7376 14.9144 18.4497L13.39 19.0811C13.6768 19.7733 14.2267 20.3232 14.9189 20.61L15.5503 19.0856ZM19.175 17C19.175 17.4772 19.1746 17.7938 19.1579 18.0382C19.1417 18.2751 19.1131 18.3832 19.0856 18.4497L20.61 19.0811C20.7347 18.78 20.7822 18.4714 20.8041 18.1505C20.8254 17.837 20.825 17.4547 20.825 17H19.175ZM17 20.825C17.4547 20.825 17.837 20.8254 18.1505 20.8041C18.4714 20.7822 18.78 20.7347 19.0811 20.61L18.4497 19.0856C18.3832 19.1131 18.2751 19.1417 18.0382 19.1579C17.7938 19.1746 17.4772 19.175 17 19.175V20.825ZM19.0856 18.4497C18.9663 18.7376 18.7376 18.9663 18.4497 19.0856L19.0811 20.61C19.7733 20.3232 20.3232 19.7733 20.61 19.0811L19.0856 18.4497ZM17 14.825C17.4772 14.825 17.7938 14.8254 18.0382 14.8421C18.2751 14.8583 18.3832 14.8869 18.4497 14.9144L19.0811 13.39C18.78 13.2653 18.4714 13.2178 18.1505 13.1959C17.837 13.1746 17.4547 13.175 17 13.175V14.825ZM20.825 17C20.825 16.5453 20.8254 16.163 20.8041 15.8495C20.7822 15.5286 20.7347 15.22 20.61 14.9189L19.0856 15.5503C19.1131 15.6168 19.1417 15.7249 19.1579 15.9618C19.1746 16.2062 19.175 16.5228 19.175 17H20.825ZM18.4497 14.9144C18.7376 15.0337 18.9663 15.2624 19.0856 15.5503L20.61 14.9189C20.3232 14.2267 19.7733 13.6768 19.0811 13.39L18.4497 14.9144ZM17 13.175C16.5453 13.175 16.163 13.1746 15.8495 13.1959C15.5286 13.2178 15.22 13.2653 14.9189 13.39L15.5503 14.9144C15.6168 14.8869 15.7249 14.8583 15.9618 14.8421C16.2062 14.8254 16.5228 14.825 17 14.825V13.175ZM14.825 17C14.825 16.5228 14.8254 16.2062 14.8421 15.9618C14.8583 15.7249 14.8869 15.6168 14.9144 15.5503L13.39 14.9189C13.2653 15.22 13.2178 15.5286 13.1959 15.8495C13.1746 16.163 13.175 16.5453 13.175 17H14.825ZM14.9189 13.39C14.2267 13.6768 13.6768 14.2267 13.39 14.9189L14.9144 15.5503C15.0337 15.2624 15.2624 15.0337 15.5503 14.9144L14.9189 13.39Z" fill="#262626"/>
</svg>
