<svg width="17" height="12" viewBox="0 0 17 12" fill="none" xmlns="http://www.w3.org/2000/svg">
<path d="M11.1675 5.49802C9.96895 6.23986 9.55305 7.8557 10.2464 9.08263C10.5083 9.54716 10.9032 9.92273 11.3802 10.161C11.8573 10.3993 12.3947 10.4895 12.9234 10.4199C13.4521 10.3503 13.9479 10.1241 14.347 9.77041C14.7461 9.41675 15.0303 8.95178 15.163 8.4353C15.2957 7.91882 15.2709 7.37444 15.0917 6.87219C14.9125 6.36994 14.5872 5.93277 14.1575 5.61691C13.7279 5.30106 13.2135 5.12095 12.6807 5.09977C12.1479 5.07858 11.6209 5.21728 11.1675 5.49802Z" fill="#7FCEC9"/>
<path d="M16.2151 8.16616C16.241 7.90159 16.2382 7.635 16.2068 7.37104L15.5902 7.22364C15.5567 7.05882 15.5105 6.89686 15.4518 6.73923L15.9065 6.29773C15.8517 6.17653 15.7903 6.05848 15.7224 5.94412C15.6548 5.82999 15.5811 5.71957 15.5016 5.61334L14.8934 5.79533C14.7843 5.66885 14.6649 5.55172 14.5363 5.44518L14.7051 4.83344C14.4891 4.67889 14.2571 4.54804 14.0131 4.44315L13.5765 4.90541C13.4186 4.85077 13.2566 4.80911 13.0921 4.78085L12.9308 4.16565C12.6667 4.13982 12.4005 4.14307 12.1371 4.17534L11.9883 4.79192C11.8249 4.82459 11.6644 4.87089 11.5087 4.93032L11.0624 4.47844C10.9411 4.53281 10.8231 4.59404 10.7088 4.66182C10.5957 4.72846 10.4862 4.80099 10.3808 4.87911L10.5614 5.48877C10.4356 5.59812 10.3188 5.71729 10.2119 5.84516L9.59879 5.67492C9.44413 5.89073 9.31349 6.12278 9.20919 6.36693L9.67007 6.80359C9.61656 6.96164 9.57538 7.12359 9.54689 7.288L8.93239 7.44923C8.90609 7.71355 8.90888 7.97995 8.94069 8.24366L9.55796 8.39037C9.58976 8.55515 9.63465 8.71713 9.69221 8.87477L9.24102 9.32043C9.29524 9.44153 9.35647 9.55937 9.4244 9.67335C9.49178 9.78763 9.56548 9.89806 9.64515 10.0041L10.2541 9.82282C10.3635 9.9488 10.4826 10.0659 10.6105 10.173L10.443 10.7847C10.6588 10.9392 10.8909 11.0696 11.135 11.1736L11.5724 10.7127C11.7302 10.7673 11.8922 10.8087 12.0568 10.8366L12.2174 11.4518C12.4817 11.4771 12.748 11.4743 13.0118 11.4435L13.1592 10.8262C13.3228 10.7936 13.4835 10.7473 13.6394 10.6878L14.0872 11.1397C14.329 11.0302 14.558 10.8945 14.7702 10.7349L14.5889 10.1266C14.715 10.0176 14.8318 9.89843 14.9383 9.77023L15.5508 9.93839C15.705 9.72247 15.8354 9.49044 15.9397 9.24638L15.4781 8.80834C15.5326 8.6505 15.5743 8.4885 15.6027 8.32393L16.2151 8.16616ZM12.526 10.173C12.0586 10.163 11.6047 10.0147 11.2216 9.74679C10.8385 9.47887 10.5434 9.10337 10.3737 8.66777C10.204 8.23218 10.1672 7.75604 10.2681 7.29956C10.369 6.84308 10.6029 6.42676 10.9404 6.10323C11.2778 5.7797 11.7037 5.5635 12.164 5.48195C12.6243 5.40041 13.0985 5.45718 13.5265 5.6451C13.9546 5.83301 14.3173 6.14363 14.5689 6.53768C14.8204 6.93173 14.9495 7.39151 14.9397 7.8589C14.9261 8.48571 14.6642 9.08149 14.2117 9.51538C13.7591 9.94927 13.1528 10.1858 12.526 10.173Z" fill="#7FCEC9"/>
<path d="M2.87937 1.70969C1.23377 2.72832 0.664941 4.9469 1.61507 6.63195C1.97477 7.26906 2.51681 7.78403 3.1715 8.11066C3.82618 8.43729 4.5636 8.56064 5.28895 8.46487C6.01429 8.3691 6.69442 8.05857 7.24189 7.57322C7.78937 7.08786 8.17917 6.44985 8.36119 5.74121C8.5432 5.03257 8.50912 4.28569 8.26331 3.59657C8.0175 2.90746 7.57121 2.30761 6.9818 1.87414C6.39239 1.44066 5.68681 1.19338 4.95575 1.16408C4.2247 1.13477 3.50158 1.32478 2.87937 1.70969Z" fill="#00AB9C"/>
<path d="M3.60534 2.89095C3.10957 3.20543 2.7523 3.69703 2.60625 4.26567C2.4602 4.83431 2.53636 5.43724 2.81922 5.9517C3.04281 6.34889 3.38014 6.67009 3.7878 6.87395C4.19547 7.07782 4.65481 7.15503 5.10673 7.09565C5.55864 7.03626 5.98245 6.84301 6.3236 6.54074C6.66476 6.23848 6.90766 5.84104 7.02105 5.39957C7.13444 4.9581 7.11312 4.4928 6.95984 4.06354C6.80657 3.63429 6.52835 3.26073 6.16098 2.99092C5.79362 2.72111 5.35392 2.56741 4.89847 2.5496C4.44302 2.53178 3.99266 2.65066 3.60534 2.89095Z" fill="#7FCEC9"/>
<path d="M11.5342 6.1364C11.1074 6.40763 10.7998 6.83119 10.6739 7.32104C10.5481 7.81088 10.6135 8.33026 10.8568 8.77365C11.0494 9.11532 11.3399 9.39155 11.6909 9.5668C12.0418 9.74205 12.4372 9.80831 12.8261 9.75706C13.215 9.70582 13.5796 9.5394 13.8732 9.27923C14.1668 9.01905 14.3758 8.677 14.4734 8.29708C14.571 7.91715 14.5527 7.51671 14.4209 7.14726C14.2891 6.7778 14.0497 6.45623 13.7337 6.22389C13.4176 5.99155 13.0393 5.85906 12.6474 5.84347C12.2554 5.82788 11.8677 5.9299 11.5342 6.1364Z" fill="#00AB9C"/>
<path d="M9.59614 5.28161C9.63003 4.93393 9.62656 4.58361 9.58576 4.23667L8.77542 4.04291C8.73168 3.82817 8.672 3.61698 8.59688 3.41111L9.19062 2.82497C9.04634 2.50657 8.86767 2.20491 8.65777 1.92536L7.8585 2.1648C7.71508 1.9985 7.55815 1.84435 7.38932 1.70392L7.61215 0.899806C7.32743 0.6968 7.02164 0.525111 6.70008 0.38772L6.12641 0.994612C5.91959 0.923122 5.70739 0.868279 5.49183 0.830605L5.28008 0.0223392C4.93302 -0.0113359 4.58332 -0.00692689 4.23722 0.0354873L4.04138 0.84583C3.82672 0.887713 3.61587 0.947196 3.41096 1.02368L2.82414 0.430624C2.66487 0.501934 2.50984 0.582339 2.3598 0.671443C2.20999 0.760209 2.06493 0.856761 1.92522 0.960703L2.16327 1.76205C1.99755 1.90536 1.84366 2.0618 1.70309 2.22985L0.899664 2.00702C0.696092 2.29125 0.524148 2.59685 0.386885 2.9184L0.993085 3.49346C0.922452 3.70019 0.868079 3.91213 0.830463 4.12734L0.0235804 4.33978C-0.0110149 4.6872 -0.0075342 5.03736 0.0339606 5.38402L0.845687 5.57709C0.887971 5.79219 0.94697 6.00367 1.02215 6.20959L0.429098 6.79572C0.5004 6.95477 0.580807 7.10957 0.669917 7.25937C0.758579 7.40978 0.855613 7.5551 0.96056 7.69464L1.76121 7.45659C1.90489 7.62175 2.0613 7.77539 2.22901 7.91608L2.00688 8.71951C2.29004 8.92283 2.59475 9.09433 2.91549 9.2309L3.49054 8.6247C3.69782 8.69703 3.91077 8.75189 4.12719 8.78871L4.33895 9.59697C4.68644 9.63029 5.03648 9.62658 5.38319 9.5859L5.57626 8.77487C5.79132 8.73275 6.00261 8.67328 6.20806 8.59702L6.79627 9.19076C7.11494 9.04728 7.41667 8.86879 7.69588 8.65861L7.45783 7.85934C7.62334 7.71578 7.77701 7.55911 7.91733 7.39085L8.71936 7.61229C8.92244 7.32872 9.09392 7.02381 9.23076 6.70299L8.62387 6.12793C8.6959 5.921 8.75098 5.70854 8.78856 5.49267L9.59614 5.28161ZM4.74446 7.91678C4.13005 7.90393 3.53323 7.7092 3.02946 7.35722C2.52569 7.00524 2.13759 6.5118 1.91421 5.93928C1.69083 5.36677 1.6422 4.74087 1.77448 4.14072C1.90675 3.54058 2.21399 2.99312 2.65735 2.56755C3.10071 2.14199 3.66029 1.85742 4.26535 1.74983C4.87041 1.64224 5.49379 1.71645 6.05668 1.96309C6.61957 2.20972 7.09671 2.6177 7.42777 3.13546C7.75883 3.65322 7.92895 4.25751 7.91663 4.87194C7.89846 5.69594 7.55437 6.47913 6.95976 7.04988C6.36515 7.62062 5.56852 7.93236 4.74446 7.91678Z" fill="#00AB9C"/>
</svg>
