<svg width="17" height="17" viewBox="0 0 17 17" fill="none" xmlns="http://www.w3.org/2000/svg">
<path d="M16.1168 5.24469C16.1169 5.18958 16.103 5.13536 16.0763 5.08714C16.0497 5.03891 16.0111 4.99828 15.9644 4.96908L9.73129 0.928944C9.68114 0.896115 9.62288 0.877827 9.56297 0.87611C9.50306 0.874393 9.44385 0.889314 9.39191 0.919216C9.33928 0.947928 9.29536 0.990274 9.26474 1.04181C9.23413 1.09335 9.21794 1.15217 9.21789 1.21212L9.2287 2.57396C9.20925 2.58045 9.19087 2.58369 9.17142 2.59126C9.05253 2.63125 8.9358 2.67124 8.79853 2.71447C8.02635 2.99324 7.28698 3.35568 6.59365 3.7953C5.21877 4.67618 4.03818 5.82844 3.12419 7.18153C2.21909 8.51634 1.57272 10.0093 1.21869 11.5827C0.88017 13.0999 0.816111 14.6655 1.02955 16.2054C1.03944 16.2852 1.07866 16.3585 1.13958 16.411C1.2005 16.4636 1.27878 16.4916 1.3592 16.4896C1.43962 16.4916 1.51789 16.4636 1.57881 16.411C1.63973 16.3585 1.67895 16.2852 1.68885 16.2054C1.87514 14.8565 2.3086 13.5536 2.96747 12.3619C3.55915 11.3031 4.35789 10.3743 5.31611 9.63068C6.16348 8.97563 7.14646 8.51811 8.19327 8.29154C8.54059 8.22182 8.89304 8.18061 9.24708 8.16833V9.35724C9.24754 9.41776 9.26443 9.47702 9.29596 9.52868C9.32749 9.58034 9.37246 9.62246 9.42607 9.65055C9.47969 9.67863 9.53992 9.69162 9.60035 9.68812C9.66077 9.68462 9.7191 9.66477 9.76912 9.63068L15.9687 5.52354C16.0146 5.49295 16.0521 5.45145 16.0779 5.40279C16.1038 5.35412 16.1171 5.29979 16.1168 5.24469Z" fill="#00AB9C"/>
</svg>
