<svg width="15" height="18" viewBox="0 0 15 18" fill="none" xmlns="http://www.w3.org/2000/svg">
<path d="M7.32939 4.16562C8.43924 4.16562 9.33896 3.26591 9.33896 2.15605C9.33896 1.0462 8.43924 0.146484 7.32939 0.146484C6.21954 0.146484 5.31982 1.0462 5.31982 2.15605C5.31982 3.26591 6.21954 4.16562 7.32939 4.16562Z" fill="#7FCEC9"/>
<path d="M7.33056 17.8115C10.8498 17.8115 13.7026 14.9586 13.7026 11.4395C13.7026 7.92025 10.8498 5.06738 7.33056 5.06738C3.81137 5.06738 0.958496 7.92025 0.958496 11.4395C0.958496 14.9586 3.81137 17.8115 7.33056 17.8115Z" fill="#7FCEC9"/>
<path d="M7.3294 18C6.01602 18 4.73213 17.6105 3.64009 16.8809C2.54805 16.1512 1.6969 15.1141 1.19429 13.9006C0.691682 12.6872 0.560176 11.352 0.816405 10.0639C1.07263 8.77574 1.70509 7.59249 2.63379 6.66379C3.5625 5.73509 4.74574 5.10263 6.03389 4.8464C7.32204 4.59017 8.65724 4.72168 9.87065 5.22429C11.0841 5.7269 12.1212 6.57804 12.8509 7.67008C13.5805 8.76212 13.97 10.046 13.97 11.3594C13.968 13.12 13.2677 14.8078 12.0228 16.0528C10.7779 17.2977 9.08997 17.998 7.3294 18ZM7.3294 5.61354C6.19298 5.61354 5.08208 5.95053 4.13717 6.58189C3.19227 7.21325 2.45581 8.11063 2.02092 9.16055C1.58603 10.2105 1.47224 11.3658 1.69394 12.4804C1.91565 13.595 2.46289 14.6188 3.26646 15.4223C4.07004 16.2259 5.09385 16.7732 6.20844 16.9949C7.32303 17.2166 8.47833 17.1028 9.52825 16.6679C10.5782 16.233 11.4756 15.4965 12.1069 14.5516C12.7383 13.6067 13.0753 12.4958 13.0753 11.3594C13.0735 9.83604 12.4676 8.37557 11.3904 7.29839C10.3132 6.22121 8.85277 5.61528 7.3294 5.61354ZM9.53927 2.2118C9.53942 1.80196 9.42566 1.40015 9.21069 1.05123C8.99571 0.702298 8.68799 0.419989 8.32186 0.235819C7.95574 0.0516482 7.54564 -0.0271354 7.13733 0.00826409C6.72903 0.0436636 6.3386 0.191853 6.00964 0.436287C5.68068 0.680721 5.42613 1.01178 5.27441 1.3925C5.1227 1.77322 5.07979 2.18861 5.15047 2.5923C5.22116 2.996 5.40266 3.3721 5.67471 3.67861C5.94676 3.98513 6.29865 4.21 6.6911 4.32812V4.47449H7.96661V4.32812C8.42108 4.19071 8.81931 3.9108 9.10249 3.52971C9.38568 3.14863 9.53881 2.68658 9.53927 2.2118ZM7.96661 3.99796V2.97226H6.6911V3.99796C6.26972 3.84767 5.91496 3.55339 5.6894 3.16704C5.46384 2.78069 5.38196 2.32709 5.45823 1.88626C5.53449 1.44543 5.76399 1.0457 6.10623 0.757578C6.44848 0.469457 6.88148 0.311461 7.32885 0.311461C7.77623 0.311461 8.20923 0.469457 8.55148 0.757578C8.89372 1.0457 9.12322 1.44543 9.19948 1.88626C9.27575 2.32709 9.19387 2.78069 8.96831 3.16704C8.74275 3.55339 8.38799 3.84767 7.96661 3.99796ZM6.36754 1.87173H6.14744V2.81049H6.36754V1.87173ZM6.72521 1.87173H6.50511V2.81049H6.72521V1.87173ZM7.08289 1.87173H6.86278V2.81049H7.08289V1.87173ZM7.44056 1.87173H7.22045V2.81049H7.44056V1.87173ZM7.79933 1.87173H7.57923V2.81049H7.79933V1.87173ZM8.157 1.87173H7.9369V2.81049H8.157V1.87173ZM8.51468 1.87173H8.29457V2.81049H8.51468V1.87173ZM1.48779 4.03207L0.000976562 5.51779L0.227686 5.7445L1.7145 4.25878L1.48779 4.03207ZM1.65177 4.56363L0.533633 5.68177L1.13452 6.28266L2.25266 5.16452L1.65177 4.56363ZM2.20204 5.50348L1.47459 6.23093L2.06997 6.82412L2.79742 6.09667L2.20204 5.50348ZM14.6622 5.52109L13.1765 4.03538L12.9498 4.26209L14.4355 5.7478L14.6622 5.52109ZM14.1307 5.68507L13.007 4.56363L12.4061 5.16452L13.5243 6.28266L14.1307 5.68507ZM13.1941 6.23534L12.4612 5.50348L11.8603 6.10437L12.5877 6.82412L13.1941 6.23534Z" fill="#00AB9C"/>
<path d="M7.3291 6.19141V11.3639L9.91205 6.88475C9.1275 6.42936 8.23624 6.19012 7.3291 6.19141Z" fill="#102147"/>
<path d="M11.805 8.77572C11.3533 7.98861 10.7008 7.33542 9.91425 6.88281L7.3291 11.3598H12.5016C12.5016 10.452 12.2612 9.56048 11.805 8.77572Z" fill="#102147"/>
</svg>
