<svg width="24" height="24" viewBox="0 0 24 24" fill="none" xmlns="http://www.w3.org/2000/svg">
<path d="M11.0175 7.73737L11.8045 7.98491L11.0175 7.73737ZM9.42782 10.4052L9.92303 9.74535L9.42782 10.4052ZM9.80309 11.5983L10.5901 11.8458L9.80309 11.5983ZM11.3928 12.7914L10.8976 12.1315L11.3928 12.7914ZM12.6072 12.7914L13.1024 12.1315L12.6072 12.7914ZM14.1969 11.5983L13.4099 11.8458L14.1969 11.5983ZM14.5722 10.4052L14.077 9.74535L14.5722 10.4052ZM12.9825 7.73737L13.7695 7.48983L12.9825 7.73737ZM5.36187 13.9422L6.12718 13.6341L5.36187 13.9422ZM9.16768 17.1666L8.83796 17.9228L9.16768 17.1666ZM6.43474 15.5804L7.02303 15.002L6.43474 15.5804ZM18.6383 13.9422L17.873 13.6341L18.6383 13.9422ZM14.8325 17.1666L15.1623 17.9228L14.8325 17.1666ZM17.5655 15.5804L18.1538 16.1588L17.5655 15.5804ZM18.7554 5.45492L17.9708 5.70985L18.7554 5.45492ZM15.5452 2.24472L15.2903 3.02934L15.5452 2.24472ZM5.24482 5.45492L6.02945 5.70985L5.24482 5.45492ZM8.45502 2.24472L8.70996 3.02934L8.45502 2.24472ZM2.33264 11.6072L1.8315 12.2626L1.84321 12.2715L1.85524 12.2801L2.33264 11.6072ZM21.6677 11.6072L22.1451 12.2801L22.1571 12.2715L22.1689 12.2626L21.6677 11.6072ZM11.1751 22C11.1751 22.4556 11.5445 22.825 12.0001 22.825C12.4557 22.825 12.8251 22.4556 12.8251 22H11.1751ZM16.0001 22.825C16.4557 22.825 16.8251 22.4556 16.8251 22C16.8251 21.5444 16.4557 21.175 16.0001 21.175V22.825ZM8.00011 21.175C7.54447 21.175 7.17511 21.5444 7.17511 22C7.17511 22.4556 7.54447 22.825 8.00011 22.825V21.175ZM5.24081 13.5973L6.03087 13.3598L5.24081 13.5973ZM18.8864 6L18.0729 6.13705L18.8864 6ZM19.2173 13.3459L18.7399 12.673L19.2173 13.3459ZM4.78862 13.3498L4.31121 14.0227L4.78862 13.3498ZM10.035 9.29973C10.8575 9.29973 11.5626 8.7541 11.8045 7.98491L10.2305 7.48983C10.1959 7.59999 10.1077 7.64973 10.035 7.64973V9.29973ZM9.92303 9.74535C9.86886 9.70469 9.8456 9.66278 9.8343 9.62281C9.82131 9.57683 9.82095 9.5187 9.83953 9.45964C9.85814 9.40048 9.8898 9.35886 9.91911 9.33544C9.94275 9.31655 9.97554 9.29973 10.035 9.29973V7.64973C8.18207 7.64973 7.53686 10.0175 8.9326 11.065L9.92303 9.74535ZM10.5901 11.8458C10.8308 11.0806 10.5717 10.2322 9.92303 9.74535L8.9326 11.065C9.00803 11.1216 9.05202 11.2366 9.01611 11.3507L10.5901 11.8458ZM10.8976 12.1315C10.844 12.1717 10.8075 12.1756 10.785 12.1749C10.7555 12.174 10.715 12.1626 10.6736 12.1315C10.6322 12.1005 10.6019 12.0585 10.5866 12.0144C10.5731 11.9756 10.5662 11.9218 10.5901 11.8458L9.01611 11.3507C8.74739 12.205 9.09358 13.0087 9.68315 13.4512C10.2766 13.8966 11.1563 14.0003 11.888 13.4512L10.8976 12.1315ZM13.1024 12.1315C12.4469 11.6396 11.5531 11.6396 10.8976 12.1315L11.888 13.4512C11.9567 13.3997 12.0433 13.3997 12.112 13.4512L13.1024 12.1315ZM13.4099 11.8458C13.4338 11.9218 13.4269 11.9756 13.4134 12.0144C13.3981 12.0585 13.3678 12.1005 13.3264 12.1315C13.285 12.1626 13.2445 12.174 13.215 12.1749C13.1925 12.1756 13.156 12.1717 13.1024 12.1315L12.112 13.4512C12.8437 14.0003 13.7234 13.8966 14.3168 13.4512C14.9064 13.0087 15.2526 12.205 14.9839 11.3507L13.4099 11.8458ZM14.077 9.74535C13.4283 10.2322 13.1692 11.0806 13.4099 11.8458L14.9839 11.3507C14.948 11.2366 14.992 11.1216 15.0674 11.065L14.077 9.74535ZM13.965 9.29973C14.0245 9.29973 14.0572 9.31655 14.0809 9.33544C14.1102 9.35886 14.1419 9.40048 14.1605 9.45964C14.179 9.5187 14.1787 9.57683 14.1657 9.62281C14.1544 9.66278 14.1311 9.70469 14.077 9.74535L15.0674 11.065C16.4631 10.0175 15.8179 7.64973 13.965 7.64973V9.29973ZM12.1955 7.98491C12.4374 8.7541 13.1425 9.29973 13.965 9.29973V7.64973C13.8923 7.64973 13.8041 7.59999 13.7695 7.48983L12.1955 7.98491ZM13.7695 7.48983C13.218 5.73672 10.782 5.73672 10.2305 7.48983L11.8045 7.98491C11.8283 7.90922 11.8622 7.876 11.8865 7.85892C11.9154 7.83853 11.9549 7.825 12 7.825C12.0451 7.825 12.0846 7.83853 12.1135 7.85892C12.1378 7.876 12.1717 7.90922 12.1955 7.98491L13.7695 7.48983ZM18.1751 9V10.3004H19.8251V9H18.1751ZM5.82511 10.3004V9H4.17511V10.3004H5.82511ZM14.5028 16.4103C13.9781 16.6391 13.4744 16.8346 13.0283 16.9717C12.5702 17.1125 12.225 17.175 12.0001 17.175V18.825C12.4694 18.825 12.9992 18.7068 13.513 18.5489C14.039 18.3872 14.6044 18.166 15.1623 17.9228L14.5028 16.4103ZM12.0001 17.175C11.7752 17.175 11.43 17.1125 10.9719 16.9717C10.5258 16.8346 10.0221 16.6391 9.49739 16.4103L8.83796 17.9228C9.39582 18.166 9.96119 18.3872 10.4872 18.5489C11.0011 18.7068 11.5308 18.825 12.0001 18.825V17.175ZM9.49739 16.4103C8.0982 15.8003 7.57053 15.5589 7.02303 15.002L5.84646 16.1588C6.65722 16.9834 7.49875 17.3389 8.83796 17.9228L9.49739 16.4103ZM4.59656 14.2503C4.85574 14.8941 5.3599 15.6639 5.84646 16.1588L7.02303 15.002C6.68897 14.6622 6.30513 14.0761 6.12718 13.6341L4.59656 14.2503ZM15.1623 17.9228C16.5015 17.3389 17.343 16.9834 18.1538 16.1588L16.9772 15.002C16.4297 15.5589 15.902 15.8003 14.5028 16.4103L15.1623 17.9228ZM17.873 13.6341C17.6951 14.0761 17.3112 14.6622 16.9772 15.002L18.1538 16.1588C18.6403 15.6639 19.1445 14.8941 19.4037 14.2503L17.873 13.6341ZM12.0001 2.825C13.9256 2.825 14.6927 2.83518 15.2903 3.02934L15.8001 1.4601C14.8914 1.16482 13.7972 1.175 12.0001 1.175V2.825ZM19.54 5.19998C18.9638 3.42662 17.5735 2.03629 15.8001 1.4601L15.2903 3.02934C16.5613 3.44232 17.5578 4.43883 17.9708 5.70985L19.54 5.19998ZM12.0001 1.175C10.203 1.175 9.10884 1.16482 8.20008 1.4601L8.70996 3.02934C9.30753 2.83518 10.0746 2.825 12.0001 2.825V1.175ZM6.02945 5.70985C6.44243 4.43883 7.43893 3.44232 8.70996 3.02934L8.20008 1.4601C6.42673 2.03629 5.0364 3.42662 4.4602 5.19998L6.02945 5.70985ZM5.26602 12.677L2.81005 10.9344L1.85524 12.2801L4.31121 14.0227L5.26602 12.677ZM2.83379 10.9519C1.08669 9.61587 2.03149 6.825 4.23088 6.825V5.175C0.453613 5.175 -1.169 9.96808 1.8315 12.2626L2.83379 10.9519ZM19.6947 14.0187L22.1451 12.2801L21.1903 10.9344L18.7399 12.673L19.6947 14.0187ZM22.1689 12.2626C25.1694 9.96808 23.5467 5.175 19.7695 5.175V6.825C21.9689 6.825 22.9137 9.61587 21.1666 10.9519L22.1689 12.2626ZM11.1751 18V22H12.8251V18H11.1751ZM16.0001 21.175H8.00011V22.825H16.0001V21.175ZM5.82511 9C5.82511 7.52513 5.82799 6.72692 5.92736 6.13705L4.30029 5.86295C4.17223 6.62308 4.17511 7.59155 4.17511 9H5.82511ZM5.92736 6.13705C5.95467 5.97493 5.98844 5.83606 6.02945 5.70985L4.4602 5.19998C4.39087 5.41336 4.33917 5.63213 4.30029 5.86295L5.92736 6.13705ZM4.17511 10.3004C4.17511 11.8492 4.16707 12.8912 4.45074 13.8348L6.03087 13.3598C5.83314 12.702 5.82511 11.9448 5.82511 10.3004H4.17511ZM4.45074 13.8348C4.49296 13.9752 4.54133 14.1132 4.59656 14.2503L6.12718 13.6341C6.09052 13.5431 6.05868 13.4523 6.03087 13.3598L4.45074 13.8348ZM18.1751 10.3004C18.1751 11.9518 18.1669 12.7087 17.9669 13.3678L19.5458 13.847C19.8333 12.8997 19.8251 11.8556 19.8251 10.3004H18.1751ZM17.9669 13.3678C17.9397 13.4575 17.9086 13.5457 17.873 13.6341L19.4037 14.2503C19.4573 14.1171 19.5044 13.9832 19.5458 13.847L17.9669 13.3678ZM19.8251 9C19.8251 7.59155 19.828 6.62308 19.6999 5.86295L18.0729 6.13705C18.1722 6.72692 18.1751 7.52513 18.1751 9H19.8251ZM19.6999 5.86295C19.661 5.63213 19.6093 5.41336 19.54 5.19998L17.9708 5.70985C18.0118 5.83607 18.0455 5.97493 18.0729 6.13705L19.6999 5.86295ZM18.7399 12.673C18.6409 12.7433 18.5349 12.8034 18.4237 12.8524L19.089 14.3624C19.302 14.2685 19.5049 14.1534 19.6947 14.0187L18.7399 12.673ZM4.31121 14.0227C4.50409 14.1595 4.71227 14.2734 4.93152 14.3621L5.55009 12.8324C5.44969 12.7918 5.35435 12.7397 5.26602 12.677L4.31121 14.0227ZM4.23088 6.825H5.11382V5.175H4.23088V6.825ZM19.7695 5.175H18.8864V6.825H19.7695V5.175Z" fill="#262626"/>
</svg>
