<svg width="19" height="24" viewBox="0 0 19 24" fill="none" xmlns="http://www.w3.org/2000/svg">
<path d="M15.5196 22.6794L13.2313 21.6757L12.1469 23.9251L8.2356 13.3375L11.6098 12.0918L15.5196 22.6794Z" fill="#E0156D"/>
<path d="M2.81372 22.6794L5.1006 21.6757L6.18644 23.9251L10.0963 13.3375L6.72359 12.0918L2.81372 22.6794Z" fill="#E0156D"/>
<path d="M15.56 22.6115L13.2716 21.6034C13.2534 21.5934 13.232 21.5907 13.2118 21.5961C13.1917 21.6015 13.1744 21.6144 13.1636 21.6322C12.8017 22.383 12.4397 23.1328 12.0778 23.8817L12.2218 23.9018L10.9056 20.3419L8.79581 14.6247L8.31194 13.3171L8.25721 13.4136L11.6299 12.1679L11.5334 12.1132C11.9712 13.3017 12.4114 14.4903 12.854 15.6789C13.5587 17.5836 14.2624 19.4879 14.9652 21.3917C15.1246 21.8276 15.2854 22.264 15.4476 22.7008C15.4822 22.7944 15.6363 22.7541 15.6003 22.6576L14.2826 19.0919L12.1685 13.379L11.6847 12.0714C11.6792 12.0512 11.6661 12.034 11.648 12.0234C11.6299 12.0129 11.6084 12.01 11.5882 12.0153L8.21545 13.2609C8.19534 13.267 8.17831 13.2805 8.16786 13.2987C8.15742 13.3169 8.15435 13.3385 8.15929 13.3589L9.47698 16.9246L11.5867 22.6461L12.0706 23.9422C12.0908 23.9998 12.1829 24.0271 12.2146 23.9609L13.3004 21.71L13.1924 21.7388L15.4793 22.7469C15.5715 22.7901 15.6521 22.6461 15.56 22.6115Z" fill="#E0156D"/>
<path d="M2.85257 22.7476L5.14089 21.7395L5.03288 21.7107L6.11728 23.9616C6.1504 24.0279 6.24113 24.0005 6.26129 23.9429L7.57898 20.3772C8.28271 18.4753 8.985 16.572 9.68585 14.6672C9.84714 14.2304 10.0079 13.7945 10.1683 13.3596C10.1737 13.3394 10.1709 13.3178 10.1607 13.2996C10.1505 13.2813 10.1336 13.2677 10.1136 13.2617L6.74516 12.016C6.72475 12.011 6.70323 12.0141 6.68501 12.0246C6.6668 12.035 6.65328 12.052 6.64723 12.0721L5.32954 15.6378C4.62677 17.5416 3.92352 19.4459 3.21979 21.3507C3.0585 21.7875 2.89769 22.2234 2.73736 22.6583C2.70136 22.7548 2.85401 22.7951 2.89001 22.7015C3.3278 21.513 3.76895 20.3239 4.21346 19.1344C4.91815 17.2306 5.62188 15.3263 6.32465 13.4215C6.48018 12.9856 6.64051 12.5498 6.80565 12.1139L6.70772 12.1686L10.0819 13.4143L10.0257 13.3178C9.58408 14.5064 9.14341 15.6959 8.7037 16.8864C7.99901 18.7902 7.29528 20.6945 6.59251 22.5993C6.43218 23.0351 6.27137 23.4715 6.11008 23.9083L6.25409 23.8882L5.16969 21.6387C5.15863 21.6208 5.1411 21.6078 5.12072 21.6025C5.10035 21.5971 5.0787 21.5998 5.06024 21.6099L2.77336 22.618C2.67976 22.6468 2.7604 22.7908 2.85257 22.7476Z" fill="#E0156D"/>
<path d="M13.7502 13.7504C16.2815 11.219 16.2815 7.11494 13.7502 4.58359C11.2188 2.05225 7.11472 2.05225 4.58338 4.5836C2.05205 7.11494 2.05205 11.219 4.58338 13.7504C7.11472 16.2817 11.2188 16.2817 13.7502 13.7504Z" fill="#E0156D"/>
<path d="M16.902 10.5641C16.8706 10.365 16.8022 10.1735 16.7004 9.99957C16.5823 9.80228 16.4225 9.65395 16.3591 9.42353C16.2998 9.20633 16.3176 8.97528 16.4095 8.76973C16.4988 8.56811 16.6673 8.4169 16.7624 8.21673C16.8553 8.01827 16.9069 7.80304 16.9143 7.58404C16.9216 7.36504 16.8844 7.14683 16.805 6.94261C16.7256 6.73838 16.6055 6.5524 16.4522 6.3959C16.2988 6.2394 16.1153 6.11563 15.9127 6.0321C15.5224 5.86505 15.2359 5.54966 15.2359 5.10323C15.2359 4.90882 15.2848 4.72305 15.2675 4.52719C15.2394 4.18261 15.1 3.85651 14.8704 3.59805C14.6408 3.3396 14.3334 3.16279 13.9945 3.09429C13.5625 3.01221 13.1448 3.19654 12.7488 2.969C12.3528 2.74147 12.2995 2.27343 12.01 1.94509C11.7298 1.63193 11.3377 1.44137 10.9184 1.41443C10.499 1.3875 10.0858 1.52635 9.76779 1.80108C9.35592 2.12366 8.86772 2.02718 8.48034 1.7334C8.30721 1.60332 8.1095 1.50971 7.89916 1.45822C7.68882 1.40673 7.47023 1.39844 7.25659 1.43384C7.04296 1.46925 6.83872 1.54761 6.65624 1.6642C6.47375 1.78078 6.31681 1.93317 6.1949 2.11214C6.08545 2.26767 6.03793 2.44913 5.94144 2.61186C5.82891 2.81131 5.64929 2.96439 5.43452 3.04389C5.25974 3.10224 5.07326 3.11659 4.89161 3.08565C4.54853 3.03311 4.19768 3.09471 3.89301 3.26096C3.58834 3.42722 3.34671 3.68893 3.20525 4.00588C3.11 4.21371 3.06088 4.4397 3.06124 4.66832C3.06124 4.88434 3.1246 5.08595 3.07852 5.30341C3.03442 5.50508 2.92754 5.6876 2.77322 5.82472C2.61049 5.96873 2.40599 6.02058 2.22022 6.12426C2.03358 6.23176 1.87029 6.37547 1.73994 6.54693C1.60959 6.7184 1.5148 6.91417 1.46115 7.12277C1.40749 7.33137 1.39604 7.54858 1.42747 7.76166C1.4589 7.97474 1.53258 8.1794 1.64418 8.36362C1.76515 8.55083 1.90916 8.69052 1.9754 8.91086C2.04131 9.15283 2.01085 9.41092 1.89044 9.63091C1.79683 9.80084 1.65714 9.93621 1.57361 10.1133C1.47457 10.3206 1.41964 10.5462 1.41232 10.7758C1.4028 11.2027 1.56101 11.6163 1.85299 11.9279C2.14101 12.2418 2.60761 12.2922 2.87691 12.6191C3.19805 13.0079 3.02092 13.404 3.07276 13.849C3.09758 14.0761 3.17037 14.2954 3.28631 14.4922C3.40225 14.6891 3.5587 14.8591 3.74529 14.991C4.12115 15.2574 4.52438 15.2934 4.96793 15.2516C5.18313 15.2251 5.40109 15.2698 5.58855 15.3787C5.77602 15.4877 5.92271 15.6549 6.00624 15.855C6.18194 16.2496 6.41667 16.5751 6.8199 16.768C7.01542 16.8622 7.2279 16.9159 7.44465 16.9261C7.6614 16.9362 7.87798 16.9025 8.08143 16.8271C8.50482 16.6658 8.7842 16.2755 9.28247 16.3375C9.72314 16.3922 10.0025 16.7853 10.4346 16.8861C10.8494 16.9828 11.2855 16.9135 11.65 16.6932C11.8328 16.5817 11.9914 16.4348 12.1166 16.2611C12.2419 16.0869 12.2923 15.8838 12.4046 15.7038C12.6653 15.2891 13.0743 15.2329 13.5192 15.2718C13.7415 15.2922 13.9655 15.2661 14.177 15.195C14.3885 15.124 14.5829 15.0095 14.7477 14.8591C14.9125 14.7087 15.0441 14.5255 15.1341 14.3213C15.2241 14.1171 15.2705 13.8964 15.2704 13.6733C15.2704 13.4702 15.2099 13.2772 15.2459 13.0727C15.2866 12.8476 15.4048 12.6438 15.58 12.4967C15.737 12.3642 15.93 12.3196 16.1057 12.2217C16.3896 12.0602 16.6175 11.816 16.759 11.5216C16.9005 11.2273 16.9489 10.8967 16.8977 10.5742L16.902 10.5641ZM9.16582 15.6491C7.88411 15.6491 6.63118 15.269 5.56548 14.5569C4.49977 13.8449 3.66916 12.8327 3.17867 11.6486C2.68818 10.4644 2.55984 9.16145 2.80989 7.90436C3.05994 6.64728 3.67715 5.49257 4.58345 4.58626C5.48976 3.67996 6.64447 3.06275 7.90155 2.8127C9.15864 2.56265 10.4616 2.69099 11.6458 3.18148C12.8299 3.67197 13.842 4.50258 14.5541 5.56829C15.2662 6.63399 15.6463 7.88692 15.6463 9.16864C15.6463 10.8874 14.9635 12.5357 13.7482 13.751C12.5329 14.9663 10.8845 15.6491 9.16582 15.6491Z" fill="#00AB9C"/>
<path d="M9.16597 15.0137C8.00801 15.0146 6.87583 14.6719 5.91268 14.0291C4.94954 13.3863 4.19873 12.4722 3.75527 11.4025C3.31181 10.3328 3.19563 9.15564 3.42144 8.01991C3.64724 6.88419 4.20487 5.84096 5.02377 5.02226C5.84267 4.20357 6.88603 3.64619 8.02182 3.42067C9.1576 3.19514 10.3348 3.31161 11.4043 3.75534C12.4739 4.19906 13.3878 4.95009 14.0304 5.91339C14.673 6.8767 15.0154 8.00897 15.0142 9.16692C15.0108 10.7168 14.3935 12.2022 13.2974 13.298C12.2014 14.3938 10.7158 15.0107 9.16597 15.0137ZM9.16597 3.46845C8.03996 3.46845 6.93922 3.80229 6.00292 4.42779C5.06661 5.05328 4.33677 5.94233 3.90567 6.98255C3.47457 8.02277 3.36155 9.16745 3.58091 10.2719C3.80027 11.3763 4.34216 12.3909 5.13807 13.1875C5.93398 13.984 6.94818 14.5266 8.05245 14.7468C9.15672 14.967 10.3015 14.8549 11.342 14.4246C12.3826 13.9942 13.2722 13.2651 13.8984 12.3293C14.5246 11.3934 14.8593 10.2929 14.8601 9.16692C14.8586 7.65721 14.2582 6.20976 13.1907 5.14223C12.1231 4.0747 10.6757 3.47429 9.16597 3.47277V3.46845Z" fill="#00AB9C"/>
<path d="M9.16596 15.7345C7.86885 15.7331 6.60127 15.3472 5.52337 14.6257C4.44548 13.9041 3.60564 12.8792 3.10998 11.6806C2.61432 10.4819 2.48508 9.1632 2.73859 7.8911C2.9921 6.61901 3.61698 5.4506 4.53427 4.5335C5.45157 3.61641 6.62012 2.99178 7.89227 2.73855C9.16442 2.48532 10.4831 2.61485 11.6817 3.11078C12.8802 3.6067 13.9049 4.44676 14.6262 5.52481C15.3475 6.60286 15.7331 7.87053 15.7343 9.16764C15.7339 10.9094 15.0417 12.5797 13.8099 13.8112C12.5782 15.0427 10.9077 15.7345 9.16596 15.7345ZM9.16596 2.77359C7.89885 2.77331 6.66014 3.14892 5.60658 3.85289C4.55302 4.55686 3.73197 5.55754 3.24733 6.72831C2.76269 7.89907 2.63626 9.18729 2.88402 10.4299C3.13178 11.6726 3.7426 12.8138 4.63918 13.7092C5.53577 14.6046 6.67781 15.2138 7.9208 15.4599C9.16378 15.706 10.4518 15.5778 11.6219 15.0916C12.792 14.6054 13.7916 13.783 14.4942 12.7285C15.1967 11.674 15.5706 10.4347 15.5686 9.16764C15.5667 7.47 14.8916 5.84241 13.6913 4.64185C12.491 3.4413 10.8636 2.7658 9.16596 2.76351V2.77359Z" fill="#00AB9C"/>
<path d="M10.8119 16.9995C10.6805 16.9997 10.5496 16.9847 10.4216 16.9549C10.2174 16.8963 10.0252 16.8017 9.85424 16.6755C9.68556 16.5431 9.48832 16.4518 9.2782 16.4091C8.98298 16.3716 8.7684 16.5113 8.53942 16.6611C8.40687 16.7535 8.26495 16.8317 8.11603 16.8944C7.90251 16.9731 7.67536 17.0082 7.44803 16.9976C7.2207 16.9869 6.99782 16.9308 6.79258 16.8325C6.41672 16.6553 6.15462 16.3601 5.94004 15.8791C5.86197 15.695 5.72629 15.5411 5.55336 15.4406C5.38043 15.3401 5.17957 15.2984 4.98094 15.3218C4.59355 15.3592 4.13848 15.3563 3.70501 15.0482C3.50955 14.9095 3.34563 14.7311 3.22402 14.5246C3.1024 14.3181 3.02584 14.0882 2.99936 13.85C2.98859 13.7115 2.98859 13.5723 2.99936 13.4338C3.01376 13.1458 3.02672 12.9053 2.82511 12.6619C2.6853 12.5142 2.51537 12.3983 2.32683 12.3221C2.13286 12.2386 1.95571 12.1205 1.80407 11.9736C1.5691 11.7256 1.41558 11.4117 1.3641 11.074C1.31262 10.7362 1.36564 10.3909 1.51605 10.0841C1.56607 9.98572 1.6259 9.8926 1.69463 9.8062C1.7469 9.73964 1.795 9.6699 1.83864 9.59739C1.94848 9.39365 1.9763 9.15563 1.9164 8.93206C1.87317 8.79954 1.80525 8.67641 1.71623 8.56915C1.67879 8.51731 1.6399 8.46403 1.6039 8.40498C1.48615 8.21284 1.40779 7.99921 1.37339 7.7765C1.33898 7.5538 1.34921 7.32647 1.40349 7.10776C1.45777 6.88904 1.555 6.68331 1.68954 6.50253C1.82407 6.32175 1.99322 6.16953 2.18714 6.05474C2.25627 6.01586 2.33115 5.98561 2.39452 5.95537C2.51433 5.91065 2.62616 5.84696 2.72574 5.76672C2.86516 5.63943 2.96132 5.47177 3.0008 5.28716C3.02169 5.16178 3.02169 5.0338 3.0008 4.90842C2.99054 4.82864 2.98477 4.74835 2.98352 4.66792C2.98158 4.42893 3.03067 4.19228 3.12753 3.97379C3.22567 3.759 3.36735 3.56693 3.54361 3.40976C3.71986 3.25259 3.92685 3.13375 4.15144 3.06077C4.39507 2.98578 4.65227 2.96562 4.90461 3.00172C5.07403 3.03038 5.24785 3.01803 5.41153 2.96572C5.60786 2.89324 5.7725 2.75409 5.87668 2.57257C5.91304 2.50576 5.94573 2.43701 5.97461 2.36664C6.01666 2.26201 6.06875 2.16169 6.13014 2.0671C6.25831 1.87876 6.42343 1.71845 6.61547 1.59591C6.80751 1.47336 7.02246 1.39114 7.24726 1.35423C7.47206 1.31733 7.70202 1.32651 7.92316 1.38122C8.1443 1.43594 8.35201 1.53504 8.53366 1.67251C9.12123 2.1175 9.5619 1.86836 9.72463 1.74164C10.0577 1.4556 10.4895 1.31127 10.9277 1.33953C11.3658 1.36779 11.7755 1.56639 12.0691 1.89285C12.1817 2.02908 12.2756 2.17969 12.3485 2.34072C12.4608 2.56249 12.5659 2.77275 12.7877 2.89948C13.0067 3.00221 13.2516 3.03682 13.4905 2.99884C13.6633 2.98263 13.8374 2.98795 14.0089 3.01469C14.2407 3.06245 14.4598 3.15842 14.6521 3.29636C14.8444 3.4343 15.0055 3.61114 15.125 3.81538C15.2492 4.03069 15.3249 4.27054 15.3468 4.51815C15.3537 4.63451 15.3489 4.75127 15.3324 4.86665C15.3224 4.94454 15.3167 5.02289 15.3151 5.10139C15.3151 5.61119 15.7082 5.856 15.943 5.96545C16.158 6.05804 16.3522 6.19278 16.5142 6.36172C16.6762 6.53066 16.8027 6.73037 16.8862 6.94904C16.9645 7.15782 16.9997 7.38024 16.9898 7.60297C16.9799 7.82569 16.9251 8.04412 16.8286 8.24513C16.7774 8.34664 16.7166 8.44308 16.6472 8.53315C16.5807 8.61661 16.5233 8.70688 16.4758 8.80245C16.3917 8.99184 16.3755 9.20442 16.4297 9.40441C16.4743 9.53779 16.5432 9.66179 16.6328 9.7702C16.676 9.82924 16.7221 9.89261 16.7624 9.96029C16.872 10.1408 16.9459 10.3408 16.9799 10.5493C17.033 10.8876 16.982 11.2341 16.8336 11.5428C16.6852 11.8515 16.4464 12.1077 16.1489 12.2774C16.0798 12.3149 16.0049 12.3451 15.9415 12.3753C15.8317 12.4164 15.7284 12.4732 15.6348 12.5438C15.4731 12.6799 15.3645 12.8685 15.3281 13.0767C15.3108 13.1922 15.3108 13.3096 15.3281 13.4252C15.3388 13.5044 15.345 13.5843 15.3468 13.6642C15.3475 13.8981 15.2994 14.1295 15.2057 14.3437C15.112 14.5579 14.9746 14.7502 14.8024 14.9083C14.6301 15.0665 14.4268 15.187 14.2054 15.2621C13.984 15.3373 13.7493 15.3654 13.5164 15.3448C12.9908 15.293 12.6797 15.4096 12.4767 15.7337C12.4293 15.8118 12.3884 15.8937 12.3543 15.9785C12.3084 16.0892 12.2519 16.1953 12.1858 16.2953C12.054 16.4784 11.8877 16.634 11.6961 16.7532C11.4299 16.9156 11.1238 17.0008 10.8119 16.9995ZM9.17739 16.2449C9.21574 16.2421 9.25425 16.2421 9.2926 16.2449C9.52841 16.2881 9.75054 16.3868 9.94064 16.5329C10.0962 16.649 10.2713 16.7363 10.4576 16.7907C10.8506 16.8824 11.2639 16.8173 11.6097 16.6092C11.784 16.5017 11.9349 16.3602 12.0533 16.193C12.1137 16.1024 12.1648 16.0059 12.2059 15.905C12.2439 15.814 12.2887 15.7259 12.3399 15.6415C12.6437 15.1562 13.1348 15.1389 13.5294 15.1778C13.7401 15.1978 13.9526 15.1737 14.1535 15.1069C14.3543 15.0402 14.539 14.9323 14.6958 14.7901C14.8526 14.648 14.978 14.4747 15.0641 14.2813C15.1501 14.0879 15.1949 13.8788 15.1956 13.6671C15.1939 13.5934 15.1882 13.5198 15.1783 13.4468C15.1582 13.316 15.1582 13.1829 15.1783 13.0522C15.2191 12.807 15.3444 12.5839 15.5326 12.4214C15.6375 12.3402 15.754 12.2752 15.8782 12.2284C15.9441 12.2017 16.0085 12.1714 16.0712 12.1377C16.2602 12.0299 16.4238 11.8825 16.5507 11.7057C16.7874 11.3781 16.8852 10.9702 16.8229 10.5709C16.7943 10.3818 16.7298 10.2 16.6328 10.0352C16.5953 9.97181 16.5521 9.91277 16.5104 9.85516C16.4091 9.73217 16.3323 9.59089 16.2843 9.43897C16.2194 9.20376 16.2382 8.95331 16.3376 8.73044C16.3892 8.62391 16.4524 8.52344 16.5262 8.4309C16.5897 8.3521 16.6452 8.2672 16.6918 8.17745C16.7802 7.99445 16.8304 7.79537 16.8393 7.59234C16.8482 7.38932 16.8157 7.1866 16.7437 6.99656C16.667 6.79662 16.5511 6.61407 16.4027 6.45972C16.2543 6.30537 16.0764 6.18235 15.8796 6.09794C15.4188 5.90065 15.1596 5.53486 15.1596 5.08987C15.1596 5.00346 15.1696 4.91994 15.1783 4.83929C15.193 4.73389 15.1979 4.62733 15.1927 4.52103C15.1722 4.29633 15.1035 4.07871 14.9911 3.88307C14.8828 3.69914 14.7372 3.54 14.5635 3.41596C14.3899 3.29192 14.1921 3.20575 13.983 3.16302C13.8238 3.13929 13.6623 3.13493 13.502 3.15005C13.2327 3.19372 12.9565 3.15455 12.71 3.03773C12.4479 2.88652 12.3269 2.64602 12.2088 2.41272C12.141 2.2643 12.0549 2.12496 11.9525 1.99797C11.6854 1.70065 11.3123 1.52003 10.9134 1.49499C10.5146 1.46994 10.1218 1.60246 9.81967 1.86404C9.41933 2.17799 8.90233 2.15206 8.4343 1.79924C8.26984 1.67498 8.08183 1.58545 7.8817 1.53609C7.68157 1.48673 7.47349 1.47857 7.27011 1.51211C7.06673 1.54565 6.87229 1.62018 6.6986 1.73118C6.52491 1.84219 6.3756 1.98734 6.25975 2.15783C6.20232 2.24324 6.15405 2.33447 6.11574 2.43C6.08461 2.5055 6.04903 2.57907 6.00917 2.65034C5.88685 2.86436 5.69313 3.02852 5.46193 3.11405C5.27633 3.17519 5.07869 3.1905 4.88589 3.1587C4.65637 3.12516 4.42227 3.14287 4.2004 3.21054C3.99771 3.2777 3.81101 3.38589 3.65195 3.52835C3.49289 3.67081 3.36487 3.8445 3.27586 4.0386C3.18684 4.23596 3.1407 4.44997 3.14049 4.66648C3.14049 4.74137 3.14913 4.81049 3.15633 4.89114C3.1805 5.03413 3.1805 5.18017 3.15633 5.32317C3.10915 5.53936 2.99532 5.7353 2.83087 5.88337C2.71957 5.97619 2.59349 6.0497 2.45788 6.10082C2.3902 6.12962 2.32683 6.15842 2.26347 6.19299C2.08683 6.29592 1.93244 6.43297 1.80929 6.59615C1.68614 6.75934 1.5967 6.9454 1.54617 7.1435C1.49564 7.3416 1.48503 7.54777 1.51497 7.75C1.54491 7.95224 1.61479 8.1465 1.72055 8.32146C1.75367 8.37474 1.79111 8.42658 1.82712 8.47555C1.92798 8.59829 2.0047 8.73902 2.05321 8.8903C2.12434 9.1531 2.09133 9.43321 1.96105 9.67227C1.91622 9.75201 1.86518 9.82809 1.80839 9.89981C1.74603 9.97828 1.69153 10.0627 1.64566 10.1518C1.55207 10.3474 1.49962 10.5601 1.49157 10.7768C1.48279 11.1804 1.63275 11.5714 1.9092 11.8655C2.04806 11.9985 2.21011 12.1049 2.38732 12.1795C2.59618 12.2673 2.78377 12.3989 2.93743 12.5654C3.17793 12.8535 3.16353 13.1559 3.14913 13.4468C3.13906 13.5767 3.13906 13.7071 3.14913 13.837C3.17317 14.053 3.24271 14.2615 3.35317 14.4486C3.46363 14.6358 3.6125 14.7974 3.78997 14.9229C4.10103 15.1447 4.45098 15.2109 4.95933 15.1691C5.19166 15.1396 5.42728 15.1867 5.63049 15.3031C5.8337 15.4195 5.99343 15.599 6.08549 15.8143C6.28423 16.2593 6.51752 16.5343 6.86171 16.6884C7.04735 16.7779 7.2491 16.8291 7.45494 16.839C7.66077 16.8489 7.8665 16.8173 8.05987 16.746C8.19886 16.6874 8.33115 16.614 8.45446 16.5272C8.66155 16.3625 8.9135 16.2641 9.17739 16.2449ZM9.16587 15.7337C7.86876 15.7322 6.60118 15.3464 5.52328 14.6248C4.44539 13.9033 3.60555 12.8784 3.10989 11.6797C2.61423 10.4811 2.48499 9.16235 2.7385 7.89026C2.99201 6.61816 3.61689 5.44975 4.53418 4.53265C5.45148 3.61556 6.62003 2.99093 7.89218 2.73771C9.16433 2.48448 10.483 2.61401 11.6816 3.10993C12.8801 3.60585 13.9048 4.44591 14.6261 5.52396C15.3474 6.60202 15.733 7.86969 15.7342 9.1668C15.7338 10.9086 15.0416 12.5789 13.8098 13.8104C12.5781 15.0418 10.9076 15.7337 9.16587 15.7337ZM9.16587 2.77275C7.89876 2.77246 6.66005 3.14807 5.60649 3.85204C4.55293 4.55601 3.73188 5.55669 3.24724 6.72746C2.7626 7.89822 2.63617 9.18644 2.88393 10.4291C3.13169 11.6717 3.74251 12.813 4.63909 13.7083C5.53568 14.6037 6.67772 15.213 7.92071 15.4591C9.16369 15.7052 10.4517 15.577 11.6218 15.0908C12.792 14.6045 13.7915 13.7821 14.4941 12.7276C15.1966 11.6731 15.5706 10.4339 15.5686 9.1668C15.5667 7.46915 14.8915 5.84156 13.6912 4.64101C12.491 3.44045 10.8635 2.76495 9.16587 2.76267V2.77275Z" fill="#00AB9C"/>
</svg>
