<svg width="23" height="23" viewBox="0 0 23 23" fill="none" xmlns="http://www.w3.org/2000/svg">
<path d="M10.5148 1.1635C10.9428 0.58496 11.8082 0.584959 12.2362 1.1635L13.1065 2.33991C13.403 2.74076 13.937 2.88384 14.3943 2.68496L15.7361 2.1013C16.3961 1.81426 17.1456 2.247 17.227 2.96202L17.3924 4.41596C17.4488 4.91138 17.8397 5.30228 18.3351 5.35867L19.7891 5.52414C20.5041 5.60552 20.9368 6.35504 20.6498 7.01496L20.0661 8.35684C19.8673 8.81408 20.0103 9.34807 20.4112 9.64461L21.5876 10.5149C22.1662 10.9429 22.1661 11.8083 21.5876 12.2363L20.4112 13.1066C20.0103 13.4031 19.8673 13.9371 20.0661 14.3944L20.6498 15.7362C20.9368 16.3962 20.5041 17.1457 19.7891 17.2271L18.3351 17.3925C17.8397 17.4489 17.4488 17.8398 17.3924 18.3352L17.227 19.7892C17.1456 20.5042 16.3961 20.9369 15.7361 20.6499L14.3943 20.0662C13.937 19.8674 13.403 20.0104 13.1065 20.4113L12.2362 21.5877C11.8082 22.1663 10.9428 22.1662 10.5148 21.5877L9.64451 20.4113C9.34797 20.0104 8.81398 19.8674 8.35674 20.0662L7.01486 20.6499C6.35494 20.9369 5.60542 20.5042 5.52404 19.7892L5.35857 18.3352C5.30218 17.8398 4.91128 17.4489 4.41586 17.3925L2.96192 17.2271C2.2469 17.1457 1.81416 16.3962 2.1012 15.7362L2.68486 14.3944C2.88374 13.9371 2.74066 13.4031 2.33981 13.1066L1.1634 12.2363C0.584857 11.8083 0.584856 10.9429 1.1634 10.5149L2.33981 9.64461C2.74066 9.34807 2.88374 8.81408 2.68486 8.35684L2.1012 7.01496C1.81416 6.35504 2.2469 5.60552 2.96192 5.52414L4.41586 5.35867C4.91128 5.30228 5.30218 4.91138 5.35857 4.41596L5.52404 2.96202C5.60542 2.247 6.35494 1.81426 7.01486 2.1013L8.35674 2.68496C8.81398 2.88384 9.34797 2.74076 9.64451 2.33991L10.5148 1.1635Z" fill="#27BCA9"/>
<path d="M7.5 12L10 14.5L16 8" stroke="white" stroke-width="2" stroke-linecap="round"/>
</svg>
