<svg width="34" height="34" viewBox="0 0 34 34" fill="none" xmlns="http://www.w3.org/2000/svg">
<g clip-path="url(#clip0_85_11084)">
<path d="M16.6026 33.2059C25.7722 33.2059 33.2057 25.7725 33.2057 16.6028C33.2057 7.43321 25.7722 -0.000244141 16.6026 -0.000244141C7.43297 -0.000244141 -0.000488281 7.43321 -0.000488281 16.6028C-0.000488281 25.7725 7.43297 33.2059 16.6026 33.2059Z" fill="#00AB9C"/>
<path d="M12.5684 22.327V10.8803C12.5682 10.7082 12.6142 10.5392 12.7017 10.391C12.7891 10.2427 12.9148 10.1207 13.0656 10.0377C13.2163 9.95462 13.3866 9.91361 13.5587 9.91891C13.7307 9.92422 13.8982 9.97565 14.0435 10.0678L23.0727 15.792C23.2092 15.8789 23.3215 15.9989 23.3994 16.1408C23.4772 16.2826 23.518 16.4418 23.518 16.6037C23.518 16.7655 23.4772 16.9247 23.3994 17.0666C23.3215 17.2085 23.2092 17.3284 23.0727 17.4153L14.0435 23.1428C13.8979 23.2352 13.7302 23.2866 13.5578 23.2918C13.3855 23.297 13.215 23.2557 13.0641 23.1722C12.9132 23.0888 12.7876 22.9663 12.7004 22.8176C12.6132 22.6689 12.5676 22.4994 12.5684 22.327Z" fill="#E0136E"/>
</g>
<defs>
<clipPath id="clip0_85_11084">
<rect width="33.2062" height="33.2062" fill="white"/>
</clipPath>
</defs>
</svg>
