<svg id="Group_517" data-name="Group 517" xmlns="http://www.w3.org/2000/svg" xmlns:xlink="http://www.w3.org/1999/xlink" width="26.25" height="26.25" viewBox="0 0 26.25 26.25">
  <defs>
    <clipPath id="clip-path">
      <rect id="Rectangle_654" data-name="Rectangle 654" width="26.25" height="26.25" fill="none"/>
    </clipPath>
  </defs>
  <g id="Group_516" data-name="Group 516">
    <g id="Group_515" data-name="Group 515" clip-path="url(#clip-path)">
      <path id="Path_472" data-name="Path 472" d="M20.8,20.871a10.839,10.839,0,0,1-7.678,3.152h-.05A10.931,10.931,0,0,1,8,22.749l-.246-.132H3.633V18.492L3.5,18.246a10.926,10.926,0,0,1,1.877-12.8,10.816,10.816,0,0,1,7.7-3.219h.049A10.9,10.9,0,0,1,20.8,20.871M25.231,8.039A13.106,13.106,0,0,0,13.126,0h-.059A13.131,13.131,0,0,0,1.407,19.043V23.5a1.348,1.348,0,0,0,1.347,1.348H7.21a13.174,13.174,0,0,0,5.857,1.406h.061a13.081,13.081,0,0,0,9.244-3.794A13.171,13.171,0,0,0,25.231,8.039" fill="#fff"/>
      <path id="Path_473" data-name="Path 473" d="M19.028,15.7c-.319-.164-1.91-.943-2.206-1.049s-.513-.164-.727.164-.832,1.049-1.025,1.269-.378.243-.7.082a8.786,8.786,0,0,1-4.4-3.841c-.331-.571.331-.53.949-1.764A.594.594,0,0,0,10.9,10c-.082-.164-.726-1.752-1-2.4-.261-.629-.53-.542-.726-.553s-.4-.012-.619-.012a1.2,1.2,0,0,0-.861.4,3.636,3.636,0,0,0-1.131,2.7A6.32,6.32,0,0,0,7.881,13.47,14.424,14.424,0,0,0,13.4,18.348c2.051.885,2.854.961,3.879.809a3.3,3.3,0,0,0,2.177-1.538,2.749,2.749,0,0,0,.187-1.538c-.079-.144-.3-.226-.615-.381" fill="#fff"/>
    </g>
  </g>
</svg>
