<svg width="30" height="30" viewBox="0 0 30 30" fill="none" xmlns="http://www.w3.org/2000/svg">
<path d="M27.1055 9.91406C26.4434 8.34082 25.4942 6.92871 24.2842 5.71582C23.0743 4.50586 21.6622 3.55371 20.086 2.89453C18.4747 2.21777 16.7637 1.875 15 1.875H14.9415C13.1661 1.88379 11.4463 2.23535 9.82915 2.92676C8.26762 3.59473 6.86723 4.54395 5.66899 5.75391C4.47075 6.96387 3.53032 8.37012 2.87993 9.9375C2.2061 11.5605 1.86626 13.2861 1.87504 15.0615C1.88383 17.0947 2.37016 19.1133 3.28129 20.918V25.3711C3.28129 26.1152 3.88481 26.7188 4.62895 26.7188H9.085C10.8897 27.6299 12.9082 28.1162 14.9415 28.125H15.003C16.7579 28.125 18.46 27.7852 20.0625 27.1201C21.6299 26.4668 23.0391 25.5293 24.2461 24.3311C25.4561 23.1328 26.4082 21.7324 27.0733 20.1709C27.7647 18.5537 28.1163 16.834 28.125 15.0586C28.1338 13.2744 27.7881 11.543 27.1055 9.91406ZM22.6788 22.7461C20.625 24.7793 17.9004 25.8984 15 25.8984H14.9502C13.1836 25.8896 11.4288 25.4502 9.87895 24.624L9.63286 24.4922H5.50786V20.3672L5.37602 20.1211C4.54985 18.5713 4.1104 16.8164 4.10161 15.0498C4.08989 12.1289 5.2061 9.38672 7.25395 7.32129C9.29887 5.25586 12.0323 4.11328 14.9532 4.10156H15.003C16.4678 4.10156 17.8887 4.38574 19.2276 4.94824C20.5342 5.49609 21.7061 6.28418 22.7139 7.29199C23.7188 8.29688 24.5098 9.47168 25.0577 10.7783C25.626 12.1318 25.9102 13.5674 25.9043 15.0498C25.8868 17.9678 24.7413 20.7012 22.6788 22.7461Z" fill="white" stroke="#00A82F" stroke-width="0.5"/>
<path d="M20.9033 17.5752C20.584 17.4111 18.9932 16.6318 18.6973 16.5264C18.4014 16.415 18.1846 16.3623 17.9707 16.6904C17.7539 17.0156 17.1387 17.7393 16.9453 17.959C16.7578 18.1758 16.5674 18.2021 16.248 18.041C14.3496 17.0918 13.1045 16.3477 11.8535 14.2002C11.5225 13.6289 12.1846 13.6699 12.8027 12.4365C12.9082 12.2197 12.8555 12.0352 12.7734 11.8711C12.6914 11.707 12.0469 10.1191 11.7773 9.47168C11.5166 8.8418 11.2471 8.92969 11.0508 8.91797C10.8633 8.90625 10.6494 8.90625 10.4326 8.90625C10.2158 8.90625 9.86719 8.98828 9.57129 9.30762C9.27539 9.63281 8.44043 10.415 8.44043 12.0029C8.44043 13.5908 9.59766 15.1289 9.75586 15.3457C9.91992 15.5625 12.0322 18.8203 15.2754 20.2236C17.3262 21.1084 18.1289 21.1846 19.1543 21.0322C19.7783 20.9385 21.0645 20.2529 21.3311 19.4941C21.5977 18.7383 21.5977 18.0908 21.5186 17.9561C21.4395 17.8125 21.2227 17.7305 20.9033 17.5752Z" fill="white"/>
</svg>
