<svg width="35" height="35" viewBox="0 0 35 35" fill="none" xmlns="http://www.w3.org/2000/svg">
<path d="M17.5001 35C14.4345 34.9979 11.4236 34.1883 8.77039 32.6526L1.95302 35L3.34661 27.781C1.16194 24.8002 -0.0108306 21.1981 7.5379e-05 17.5024C-0.000397408 14.0411 1.02556 10.6574 2.94819 7.77927C4.87083 4.90109 7.60379 2.6577 10.8015 1.3328C13.9991 0.00790217 17.5179 -0.338997 20.9127 0.335974C24.3075 1.01095 27.4259 2.67747 29.8736 5.12479C32.3212 7.57212 33.9882 10.6903 34.6636 14.085C35.3391 17.4798 34.9926 20.9986 33.6682 24.1964C32.3437 27.3943 30.1007 30.1275 27.2228 32.0506C24.3449 33.9736 20.9613 35 17.5001 35Z" fill="#7FCEC9"/>
<path d="M17.4996 28.927C15.4966 28.9263 13.5292 28.3969 11.7962 27.3923L7.3429 28.927L8.25841 24.2107C6.82927 22.2632 6.06112 19.9094 6.06643 17.4938C6.06643 15.2325 6.73698 13.022 7.99328 11.1418C9.24957 9.26163 11.0352 7.7962 13.1243 6.93085C15.2135 6.0655 17.5123 5.83909 19.7301 6.28024C21.948 6.72139 23.9852 7.8103 25.5841 9.40926C27.1831 11.0082 28.272 13.0454 28.7132 15.2632C29.1543 17.4811 28.9279 19.7799 28.0625 21.8691C27.1972 23.9582 25.7318 25.7438 23.8516 27.0001C21.9714 28.2564 19.7609 28.927 17.4996 28.927ZM12.0018 25.5231L12.346 25.7382C14.4114 27.0285 16.8853 27.4979 19.2798 27.0538C21.6743 26.6097 23.8154 25.2843 25.2807 23.3392C26.7461 21.3941 27.4292 18.9704 27.1954 16.5463C26.9617 14.1223 25.8279 11.8738 24.0178 10.2446C22.2078 8.61538 19.8528 7.72365 17.4176 7.74536C14.9824 7.76706 12.6437 8.70062 10.863 10.3619C9.08225 12.0231 7.98874 14.2914 7.7982 16.7192C7.60765 19.1471 8.3339 21.5582 9.83368 23.4769L10.0727 23.7829L9.57313 26.3597L12.0018 25.5231Z" fill="#00AB9C"/>
<path d="M11.727 13.109C11.727 13.109 12.3987 11.9377 12.9461 11.8708C13.4935 11.8038 14.1963 11.8014 14.3803 12.16C14.5644 12.5186 15.4249 14.5838 15.4249 14.5838C15.4677 14.7014 15.4828 14.8272 15.4691 14.9516C15.4555 15.076 15.4133 15.1955 15.346 15.301C15.1303 15.6027 14.8905 15.8865 14.6289 16.1495C14.5501 16.2561 14.5076 16.3851 14.5076 16.5177C14.5076 16.6502 14.5501 16.7792 14.6289 16.8858C15.1002 17.5929 15.6381 18.2533 16.2353 18.8578C17.1317 19.7542 18.848 20.3925 18.848 20.3925C18.9201 20.4009 18.9931 20.3944 19.0626 20.3734C19.1321 20.3524 19.1965 20.3174 19.2519 20.2706C19.4073 20.1128 20.2559 19.0539 20.2559 19.0539C20.3421 18.9532 20.4595 18.8841 20.5894 18.8577C20.7193 18.8313 20.8543 18.849 20.973 18.908C21.4248 19.1136 23.3849 20.1032 23.3849 20.1032C23.4644 20.1413 23.5301 20.2032 23.573 20.2803C23.6158 20.3574 23.6336 20.4459 23.6239 20.5335C23.6239 20.8801 23.4829 21.7287 23.1961 22.0132C22.9092 22.2976 22.0726 23.1821 20.8057 23.1821C19.5388 23.1821 16.5508 22.159 14.9516 20.5526C13.3525 18.9463 11.9517 17.3304 11.6051 15.8555C11.2585 14.3807 11.3159 13.7161 11.727 13.109Z" fill="#102147"/>
</svg>
